<svg width="49" height="49" viewBox="0 0 49 49" fill="none" xmlns="http://www.w3.org/2000/svg">
<path fill-rule="evenodd" clip-rule="evenodd" d="M24.4392 29.439L20.4392 33.439C19.8542 34.025 19.8542 34.975 20.4392 35.561L24.4392 39.561C25.0252 40.146 25.9752 40.146 26.5612 39.561C27.1462 38.975 27.1462 38.025 26.5612 37.439L23.6212 34.5L26.5612 31.561C27.1462 30.975 27.1462 30.025 26.5612 29.439C25.9752 28.854 25.0252 28.854 24.4392 29.439Z" fill="white"/>
<path fill-rule="evenodd" clip-rule="evenodd" d="M29.4392 24.561L33.4392 28.561C34.0252 29.146 34.9752 29.146 35.5612 28.561L39.5612 24.561C40.1462 23.975 40.1462 23.025 39.5612 22.439C38.9752 21.854 38.0252 21.854 37.4392 22.439L34.5002 25.379L31.5612 22.439C30.9752 21.854 30.0252 21.854 29.4392 22.439C28.8542 23.025 28.8542 23.975 29.4392 24.561Z" fill="white"/>
<path fill-rule="evenodd" clip-rule="evenodd" d="M15.606 32.198C11.031 31.331 7.263 29.834 4.994 27.912C3.77 26.875 3 25.745 3 24.5C3 22.732 4.469 21.212 6.705 19.886C10.717 17.507 17.201 16 24.5 16C31.799 16 38.283 17.507 42.295 19.886C44.531 21.212 46 22.732 46 24.5C46 26.268 44.531 27.788 42.295 29.114C38.283 31.493 31.799 33 24.5 33H21.5C20.672 33 20 33.672 20 34.5C20 35.328 20.672 36 21.5 36H24.5C32.434 36 39.464 34.281 43.825 31.694C47.173 29.709 49 27.148 49 24.5C49 21.852 47.173 19.291 43.825 17.306C39.464 14.719 32.434 13 24.5 13C16.566 13 9.536 14.719 5.175 17.306C1.827 19.291 0 21.852 0 24.5C0 26.537 1.051 28.504 3.055 30.201C5.627 32.379 9.862 34.163 15.048 35.146C15.861 35.3 16.647 34.765 16.801 33.951C16.955 33.138 16.42 32.352 15.606 32.198Z" fill="white"/>
<path fill-rule="evenodd" clip-rule="evenodd" d="M32.198 33.394C31.331 37.969 29.834 41.737 27.912 44.006C26.875 45.23 25.745 46 24.5 46C22.732 46 21.212 44.531 19.886 42.295C17.507 38.283 16 31.799 16 24.5C16 17.201 17.507 10.717 19.886 6.705C21.212 4.469 22.732 3 24.5 3C26.268 3 27.788 4.469 29.114 6.705C31.493 10.717 33 17.201 33 24.5V27.5C33 28.328 33.672 29 34.5 29C35.328 29 36 28.328 36 27.5V24.5C36 16.566 34.281 9.536 31.694 5.175C29.709 1.827 27.148 0 24.5 0C21.852 0 19.291 1.827 17.306 5.175C14.719 9.536 13 16.566 13 24.5C13 32.434 14.719 39.464 17.306 43.825C19.291 47.173 21.852 49 24.5 49C26.537 49 28.504 47.949 30.201 45.945C32.379 43.373 34.163 39.138 35.146 33.952C35.3 33.139 34.765 32.353 33.951 32.199C33.138 32.045 32.352 32.58 32.198 33.394Z" fill="white"/>
</svg>
