<svg width="59" height="70" viewBox="0 0 59 70" fill="none" xmlns="http://www.w3.org/2000/svg">
<path d="M38.0849 21.409L25.3152 34.1787L20.6105 29.4741C20.1441 29.0104 19.5132 28.7502 18.8556 28.7502C18.198 28.7502 17.5671 29.0104 17.1007 29.4741C16.8674 29.7055 16.6822 29.9808 16.5558 30.2841C16.4295 30.5875 16.3644 30.9128 16.3644 31.2414C16.3644 31.57 16.4295 31.8954 16.5558 32.1987C16.6822 32.5021 16.8674 32.7774 17.1007 33.0088L23.5478 39.4559C23.7784 39.6911 24.0533 39.8782 24.3567 40.0064C24.66 40.1346 24.9858 40.2013 25.3152 40.2027C25.6445 40.2013 25.9703 40.1346 26.2737 40.0064C26.5771 39.8782 26.852 39.6911 27.0825 39.4559L41.5948 24.9437C41.8281 24.7123 42.0132 24.4369 42.1396 24.1336C42.266 23.8303 42.3311 23.5049 42.3311 23.1763C42.3311 22.8477 42.266 22.5223 42.1396 22.219C42.0132 21.9157 41.8281 21.6404 41.5948 21.409C41.1284 20.9453 40.4975 20.6851 39.8398 20.6851C39.1822 20.6851 38.5513 20.9453 38.0849 21.409ZM55.5096 22.1308C54.9146 21.4718 54.4122 20.7349 54.016 19.9403C53.8833 19.0157 53.8833 18.0769 54.016 17.1524C54.2958 15.0439 53.8291 12.904 52.6967 11.1035C51.2686 9.4606 49.2995 8.38329 47.1457 8.06668C46.275 7.87229 45.4366 7.55373 44.6565 7.12078C44.0059 6.49246 43.4523 5.77101 43.0136 4.98004C42.0191 3.0225 40.3729 1.47317 38.3588 0.59899C36.2793 0.135423 34.103 0.417366 32.2103 1.39554C31.2979 1.76626 30.3309 1.9849 29.3477 2.04274C28.3914 1.93472 27.4586 1.6742 26.5847 1.27108C24.692 0.292904 22.5158 0.0109619 20.4363 0.474529C18.4221 1.3487 16.776 2.89804 15.7814 4.85558C15.3428 5.64655 14.7891 6.368 14.1385 6.99631C13.3584 7.42927 12.5201 7.74783 11.6493 7.94222C9.44224 8.26858 7.43165 9.39344 5.99875 11.1035C4.88908 12.9575 4.47443 15.1454 4.82881 17.2768C4.96157 18.2014 4.96157 19.1402 4.82881 20.0648C4.43267 20.8593 3.93021 21.5963 3.33527 22.2553C1.74649 23.754 0.733515 25.7623 0.472656 27.9307C0.672688 30.1389 1.65216 32.2037 3.2357 33.7555C3.83064 34.4146 4.3331 35.1515 4.72924 35.9461C4.862 36.8706 4.862 37.8094 4.72924 38.734C4.37486 40.8654 4.78951 43.0534 5.89918 44.9073C7.35224 46.5712 9.36033 47.6504 11.5497 47.9442C12.4205 48.1386 13.2588 48.4571 14.039 48.8901C14.6895 49.5184 15.2432 50.2398 15.6819 51.0308C16.6764 52.9883 18.3226 54.5377 20.3367 55.4119C20.9153 55.5999 21.5206 55.6923 22.129 55.6857C23.633 55.5898 25.1079 55.2273 26.4851 54.6153C27.3896 54.1958 28.3565 53.9267 29.3477 53.8187C30.3049 53.9371 31.2374 54.206 32.1108 54.6153C34.0035 55.5935 36.1797 55.8754 38.2592 55.4119C40.2898 54.5127 41.9381 52.9261 42.914 50.9312C43.3527 50.1403 43.9064 49.4188 44.5569 48.7905C45.3371 48.3575 46.1754 48.039 47.0462 47.8446C49.1999 47.528 51.1691 46.4507 52.5972 44.8077C53.7068 42.9538 54.1215 40.7658 53.7671 38.6344C53.6343 37.7099 53.6343 36.7711 53.7671 35.8465C54.1632 35.0519 54.6657 34.315 55.2606 33.656C56.8442 32.1041 57.8236 30.0393 58.0237 27.8312C57.8495 25.6929 56.9441 23.6799 55.4598 22.1308H55.5096ZM51.6512 30.6191C50.5971 31.7175 49.7534 32.9999 49.162 34.4027C48.771 35.8962 48.6613 37.4493 48.8384 38.9829C48.9923 39.9909 48.9157 41.0207 48.6144 41.9949C47.7716 42.5773 46.8115 42.9681 45.8016 43.1399C44.2984 43.4509 42.8645 44.0329 41.5699 44.8575C40.4107 45.8669 39.4486 47.0822 38.7321 48.442C38.1098 49.4128 37.3382 50.6076 36.7407 50.8068C35.7444 50.7847 34.7659 50.5379 33.8781 50.0849C32.458 49.3934 30.9218 48.9714 29.3477 48.8403C27.7816 48.9322 26.2458 49.3119 24.8173 49.9604C23.907 50.4245 22.9017 50.6715 21.88 50.6823C21.2826 50.4832 20.511 49.2883 19.8887 48.3175C19.1373 46.996 18.1502 45.8233 16.9763 44.8575C15.6816 44.0329 14.2477 43.4509 12.7446 43.1399C11.7346 42.9681 10.7746 42.5773 9.93173 41.9949C9.63037 41.0207 9.55377 39.9909 9.7077 38.9829C9.90107 37.4524 9.80822 35.8993 9.43389 34.4027C8.84253 32.9999 7.99882 31.7175 6.94466 30.6191C6.17299 29.6732 5.30176 28.6028 5.30176 27.9307C5.30176 27.2587 6.17299 26.2132 6.94466 25.2673C7.99882 24.1689 8.84253 22.8865 9.43389 21.4836C9.82488 19.9902 9.93461 18.437 9.75749 16.9035C9.60356 15.8954 9.68016 14.8656 9.98152 13.8915C10.8186 13.2986 11.7812 12.9068 12.7943 12.7464C14.3011 12.4614 15.7434 11.9047 17.0509 11.1035C18.221 10.1338 19.2075 8.96188 19.9633 7.64351C20.5856 6.67271 21.3573 5.47788 21.9547 5.15428H22.2285C23.0891 5.2856 23.927 5.53697 24.7178 5.90105C26.177 6.5621 27.7477 6.94212 29.3477 7.02121C30.9124 6.93771 32.4482 6.56641 33.8781 5.92594C34.7884 5.46192 35.7937 5.21484 36.8154 5.20407C37.4128 5.40321 38.1347 6.54825 38.8068 7.6933C39.5452 8.9878 40.5058 10.1422 41.6445 11.1035C42.9392 11.9282 44.3731 12.5102 45.8762 12.8211C46.8894 12.9815 47.852 13.3733 48.6891 13.9662C48.9904 14.9403 49.067 15.9701 48.9131 16.9781C48.7534 18.4886 48.8715 20.0156 49.2616 21.4836C49.8529 22.8865 50.6967 24.1689 51.7508 25.2673C52.5225 26.2132 53.3937 27.2835 53.3937 27.9307C53.3937 28.5779 52.3731 29.6732 51.6015 30.6191H51.6512Z" fill="#00AF85"/>
<path d="M53.9916 27.6384C53.9916 41.386 43.5344 52.5307 29.0993 52.5307C14.6643 52.5307 4.20703 41.386 4.20703 27.6384C4.20703 13.8908 14.6643 2.74609 29.0993 2.74609C43.5344 2.74609 53.9916 13.8908 53.9916 27.6384Z" fill="#00AF85"/>
<path d="M47.143 45.6604C46.2722 45.8548 45.4339 46.1734 44.6538 46.6063L44.5293 46.7308V63.2095L30.2412 58.4302C29.7206 58.2808 29.1686 58.2808 28.648 58.4302L14.2603 63.2095V46.7308V46.6063C13.4802 46.1734 12.6418 45.8548 11.7711 45.6604C11.1239 45.4862 10.4518 45.287 9.80457 45.063C9.61563 45.3976 9.51298 45.774 9.50586 46.1583V66.6695C9.50769 67.0644 9.60345 67.4532 9.78524 67.8038C9.96703 68.1544 10.2296 68.4567 10.5513 68.6858C10.8726 68.9129 11.2432 69.0607 11.6326 69.117C12.022 69.1732 12.4192 69.1364 12.7916 69.0094L29.345 63.4335L46.1224 69.0094C46.3768 69.1067 46.6467 69.1572 46.919 69.1587C47.5792 69.1587 48.2123 68.8965 48.6792 68.4297C49.146 67.9628 49.4082 67.3297 49.4082 66.6695V46.1583C49.4011 45.774 49.2985 45.3976 49.1095 45.063C48.4623 45.287 47.7902 45.4862 47.143 45.6604Z" fill="#00AF85"/>
<mask id="mask0_3035_18418" style="mask-type:alpha" maskUnits="userSpaceOnUse" x="12" y="12" width="34" height="34">
<circle cx="29.0999" cy="28.8826" r="16.18" fill="#D9D9D9"/>
</mask>
<g mask="url(#mask0_3035_18418)">
<path d="M38.0869 21.4085L25.3171 34.1782L20.6125 29.4736C20.1461 29.01 19.5152 28.7497 18.8576 28.7497C18.2 28.7497 17.5691 29.01 17.1027 29.4736C16.8694 29.705 16.6842 29.9803 16.5578 30.2836C16.4314 30.587 16.3664 30.9123 16.3664 31.2409C16.3664 31.5695 16.4314 31.8949 16.5578 32.1982C16.6842 32.5016 16.8694 32.7769 17.1027 33.0083L23.5498 39.4554C23.7803 39.6906 24.0552 39.8777 24.3586 40.0059C24.662 40.1341 24.9878 40.2008 25.3171 40.2022C25.6465 40.2008 25.9723 40.1341 26.2756 40.0059C26.579 39.8777 26.8539 39.6906 27.0845 39.4554L41.5967 24.9432C41.83 24.7118 42.0152 24.4365 42.1416 24.1331C42.268 23.8298 42.333 23.5044 42.333 23.1758C42.333 22.8472 42.268 22.5219 42.1416 22.2185C42.0152 21.9152 41.83 21.6399 41.5967 21.4085C41.1303 20.9449 40.4994 20.6846 39.8418 20.6846C39.1842 20.6846 38.5533 20.9449 38.0869 21.4085ZM55.5115 22.1303C54.9166 21.4713 54.4141 20.7344 54.018 19.9398C53.8852 19.0153 53.8852 18.0765 54.018 17.1519C54.2978 15.0434 53.831 12.9035 52.6987 11.1031C51.2706 9.46011 49.3014 8.3828 47.1477 8.0662C46.2769 7.8718 45.4386 7.55324 44.6585 7.12029C44.0079 6.49197 43.4542 5.77052 43.0156 4.97955C42.021 3.02202 40.3749 1.47268 38.3607 0.598502C36.2812 0.134935 34.105 0.416878 32.2123 1.39506C31.2999 1.76577 30.3328 1.98441 29.3497 2.04226C28.3934 1.93423 27.4605 1.67371 26.5866 1.27059C24.694 0.292416 22.5177 0.0104736 20.4382 0.47404C18.4241 1.34822 16.7779 2.89755 15.7834 4.85509C15.3447 5.64606 14.7911 6.36751 14.1405 6.99583C13.3604 7.42878 12.522 7.74734 11.6513 7.94173C9.44419 8.26809 7.4336 9.39296 6.0007 11.1031C4.89104 12.957 4.47638 15.145 4.83076 17.2763C4.96352 18.2009 4.96352 19.1397 4.83076 20.0643C4.43463 20.8589 3.93217 21.5958 3.33723 22.2548C1.74844 23.7535 0.735469 25.7618 0.474609 27.9303C0.674641 30.1384 1.65411 32.2032 3.23766 33.7551C3.8326 34.4141 4.33506 35.151 4.73119 35.9456C4.86395 36.8701 4.86395 37.8089 4.73119 38.7335C4.37681 40.8649 4.79147 43.0529 5.90113 44.9068C7.35419 46.5707 9.36229 47.6499 11.5517 47.9437C12.4225 48.1381 13.2608 48.4566 14.0409 48.8896C14.6915 49.5179 15.2452 50.2394 15.6838 51.0303C16.6783 52.9879 18.3245 54.5372 20.3387 55.4114C20.9173 55.5994 21.5226 55.6919 22.1309 55.6852C23.6349 55.5893 25.1099 55.2268 26.4871 54.6148C27.3916 54.1953 28.3585 53.9262 29.3497 53.8183C30.3069 53.9367 31.2394 54.2055 32.1127 54.6148C34.0054 55.593 36.1817 55.8749 38.2611 55.4114C40.2918 54.5122 41.9401 52.9256 42.916 50.9308C43.3546 50.1398 43.9083 49.4183 44.5589 48.79C45.339 48.3571 46.1773 48.0385 47.0481 47.8441C49.2018 47.5275 51.171 46.4502 52.5991 44.8072C53.7088 42.9533 54.1234 40.7653 53.769 38.6339C53.6363 37.7094 53.6363 36.7706 53.769 35.846C54.1652 35.0514 54.6676 34.3145 55.2626 33.6555C56.8461 32.1036 57.8256 30.0388 58.0256 27.8307C57.8514 25.6924 56.946 23.6794 55.4617 22.1303H55.5115ZM51.6532 30.6186C50.599 31.717 49.7553 32.9994 49.164 34.4023C48.773 35.8957 48.6632 37.4489 48.8404 38.9824C48.9943 39.9905 48.9177 41.0203 48.6163 41.9944C47.7735 42.5768 46.8134 42.9676 45.8035 43.1395C44.3004 43.4504 42.8664 44.0324 41.5718 44.857C40.4127 45.8664 39.4506 47.0817 38.7341 48.4415C38.1118 49.4123 37.3401 50.6072 36.7427 50.8063C35.7463 50.7842 34.7678 50.5374 33.8801 50.0844C32.4599 49.3929 30.9238 48.9709 29.3497 48.8398C27.7836 48.9317 26.2478 49.3114 24.8193 49.96C23.909 50.424 22.9037 50.6711 21.882 50.6818C21.2846 50.4827 20.5129 49.2879 19.8906 48.3171C19.1393 46.9955 18.1522 45.8228 16.9782 44.857C15.6836 44.0324 14.2496 43.4504 12.7465 43.1395C11.7366 42.9676 10.7765 42.5768 9.93369 41.9944C9.63232 41.0203 9.55573 39.9905 9.70965 38.9824C9.90302 37.4519 9.81017 35.8988 9.43584 34.4023C8.84448 32.9994 8.00077 31.717 6.94661 30.6186C6.17495 29.6727 5.30372 28.6023 5.30372 27.9303C5.30372 27.2582 6.17495 26.2127 6.94661 25.2668C8.00077 24.1684 8.84448 22.886 9.43584 21.4831C9.82683 19.9897 9.93656 18.4365 9.75944 16.903C9.60551 15.8949 9.68211 14.8651 9.98347 13.891C10.8206 13.2981 11.7831 12.9063 12.7963 12.7459C14.303 12.4609 15.7454 11.9042 17.0529 11.1031C18.223 10.1333 19.2094 8.96139 19.9653 7.64303C20.5876 6.67223 21.3593 5.47739 21.9567 5.15379H22.2305C23.0911 5.28511 23.929 5.53648 24.7197 5.90056C26.1789 6.56161 27.7497 6.94163 29.3497 7.02072C30.9143 6.93722 32.4501 6.56592 33.8801 5.92546C34.7904 5.46143 35.7957 5.21436 36.8174 5.20358C37.4148 5.40272 38.1367 6.54776 38.8088 7.69281C39.5472 8.98731 40.5077 10.1417 41.6465 11.1031C42.9411 11.9277 44.3751 12.5097 45.8782 12.8206C46.8914 12.981 47.8539 13.3728 48.691 13.9657C48.9924 14.9398 49.069 15.9696 48.915 16.9776C48.7553 18.4882 48.8734 20.0152 49.2635 21.4831C49.8549 22.886 50.6986 24.1684 51.7528 25.2668C52.5244 26.2127 53.3957 27.2831 53.3957 27.9303C53.3957 28.5775 52.3751 29.6727 51.6034 30.6186H51.6532Z" fill="white"/>
</g>
</svg>
