<svg width="24" height="24" viewBox="0 0 24 24" fill="none" xmlns="http://www.w3.org/2000/svg">
<path d="M15.5636 15.0497L16.4326 14.2112L14.1596 11.9382C14.3429 11.6549 14.4772 11.3709 14.5626 11.0862C14.6477 10.8017 14.6903 10.4845 14.6903 10.1345C14.6903 9.2408 14.3766 8.4853 13.7491 7.86797C13.1214 7.25064 12.3711 6.94197 11.4981 6.94197C10.6251 6.94197 9.87473 7.25064 9.24706 7.86797C8.61956 8.4853 8.30581 9.2408 8.30581 10.1345C8.30581 11.028 8.61956 11.7834 9.24706 12.4007C9.87473 13.0181 10.6251 13.3267 11.4981 13.3267C11.8481 13.3267 12.1644 13.2809 12.4471 13.1892C12.7297 13.0976 13.0211 12.9601 13.3211 12.7767L15.5636 15.0497ZM11.4981 12.1345C10.9481 12.1345 10.4772 11.9386 10.0856 11.547C9.6939 11.1553 9.49806 10.6845 9.49806 10.1345C9.49806 9.58447 9.6939 9.11364 10.0856 8.72197C10.4772 8.3303 10.9481 8.13447 11.4981 8.13447C12.0377 8.13447 12.506 8.3303 12.9028 8.72197C13.2996 9.11364 13.4981 9.58447 13.4981 10.1345C13.4981 10.6845 13.3022 11.1553 12.9106 11.547C12.5189 11.9386 12.0481 12.1345 11.4981 12.1345ZM4.30581 17.7305C3.80065 17.7305 3.37306 17.5555 3.02306 17.2055C2.67306 16.8555 2.49806 16.4279 2.49806 15.9227V5.53822C2.49806 5.03305 2.67306 4.60547 3.02306 4.25547C3.37306 3.90547 3.80065 3.73047 4.30581 3.73047H19.6903C20.1955 3.73047 20.6231 3.90547 20.9731 4.25547C21.3231 4.60547 21.4981 5.03305 21.4981 5.53822V15.9227C21.4981 16.4279 21.3231 16.8555 20.9731 17.2055C20.6231 17.5555 20.1955 17.7305 19.6903 17.7305H4.30581ZM4.30581 16.2305H19.6903C19.7673 16.2305 19.8378 16.1985 19.9018 16.1345C19.966 16.0703 19.9981 15.9997 19.9981 15.9227V5.53822C19.9981 5.46122 19.966 5.39072 19.9018 5.32672C19.8378 5.26255 19.7673 5.23047 19.6903 5.23047H4.30581C4.22881 5.23047 4.15831 5.26255 4.09431 5.32672C4.03015 5.39072 3.99806 5.46122 3.99806 5.53822V15.9227C3.99806 15.9997 4.03015 16.0703 4.09431 16.1345C4.15831 16.1985 4.22881 16.2305 4.30581 16.2305ZM1.38281 20.2305V18.7305H22.6133V20.2305H1.38281Z" fill="white"/>
</svg>
