<svg width="137" height="136" viewBox="0 0 137 136" fill="none" xmlns="http://www.w3.org/2000/svg">
<path d="M99.2332 58.0909L109.614 52.7789C109.614 52.7789 111.948 49.3317 109.686 43.6641C107.492 38.1574 103.162 36.71 103.162 36.71L92.3894 40.2392L92.5808 40.7387C92.5808 40.7387 96.4679 42.6894 98.4881 47.6615C100.835 53.441 99.0505 57.6179 99.0505 57.6179L99.2332 58.0909Z" fill="#FFC727"/>
<g opacity="0.5">
<path d="M99.2332 58.0889L109.614 52.777C109.614 52.777 111.948 49.3297 109.686 43.6622C107.492 38.1555 103.162 36.7081 103.162 36.7081L92.3894 40.2372L92.5808 40.7367C92.5808 40.7367 96.4679 42.6874 98.4881 47.6595C100.835 53.4391 99.0505 57.6159 99.0505 57.6159L99.2332 58.0889Z" fill="black"/>
</g>
<path opacity="0.1" d="M92.3882 40.245C92.3882 40.245 97.0452 42.0103 99.2533 48.3845C101.396 54.5983 99.231 58.0915 99.231 58.0915L99.0522 57.6275C99.0522 57.6275 100.839 53.4492 98.4918 47.6696C96.5012 42.774 92.7052 40.8124 92.5874 40.7505L92.3882 40.245Z" fill="black"/>
<path d="M99.0755 99.945L95.4195 99.7219C95.4195 99.7219 92.3741 86.1549 91.2891 82.7219C90.2041 79.2889 82.2571 66.929 82.2571 66.929L84.2718 65.4437L96.7758 75.7004L99.0755 99.945Z" fill="#FFC727"/>
<path opacity="0.1" d="M99.0755 99.945L95.4195 99.7219C95.4195 99.7219 92.3741 86.1549 91.2891 82.7219C90.2041 79.2889 82.2571 66.929 82.2571 66.929L84.2718 65.4437L96.7758 75.7004L99.0755 99.945Z" fill="black"/>
<path d="M96.0213 58.5677C96.0213 58.5677 106.044 69.6665 109.01 75.1728C111.977 80.679 115.516 91.7006 115.516 91.7006L99.072 99.9466C99.072 99.9466 95.709 86.5102 94.5622 83.0561C92.084 75.6069 84.2668 65.4434 84.2668 65.4434L96.0213 58.5677Z" fill="#FFC727"/>
<path d="M116.942 91.9624L99.0715 99.9475L95.4096 99.7169L91.9324 86.9798L92.2809 86.4294L95.3906 85.8691L111.064 79.5334L110.791 78.9951L112.191 79.6846L116.942 91.9624Z" fill="#37474F"/>
<path d="M112.191 79.6846L95.3991 86.4784L91.9324 86.9798L92.2809 86.4294L95.3906 85.8691L111.064 79.5334L110.791 78.9951L112.191 79.6846Z" fill="#455A64"/>
<path d="M95.4008 86.4787L99.0731 99.9478L95.4112 99.7172L91.934 86.9801L95.4008 86.4787Z" fill="#263238"/>
<path opacity="0.15" d="M85.0117 71.3264L87.2352 69.6718L100.447 63.6672C97.9939 60.7549 96.0286 58.5782 96.0286 58.5782L84.2663 65.4478L82.2516 66.9331C82.2516 66.9331 83.4587 68.8121 85.0117 71.3264Z" fill="black"/>
<path d="M28.9871 42.479C28.9871 42.479 47.8296 48.3242 67.4584 45.6824C79.4389 44.0713 86.9678 41.5367 87.7297 41.2638C87.7297 41.2638 92.9066 40.3547 96.912 48.8105C100.208 57.5676 95.9526 60.6547 95.9526 60.6547C95.2277 61.0134 88.1724 64.6631 78.6818 72.1593C63.138 84.4357 54.2432 102.043 54.2432 102.043L54.1593 102.009C56.2157 98.7822 55.7533 91.3083 53.1092 82.1378C52.9384 81.5488 52.7582 80.9529 52.5686 80.3504C51.394 76.616 50.0092 72.951 48.4206 69.373C46.9537 65.7444 45.2817 62.2021 43.4128 58.7632C43.1132 58.2065 42.8086 57.6627 42.5042 57.1308C37.7532 48.8566 32.6972 43.3271 28.9479 42.564L28.9871 42.479Z" fill="#FFC727"/>
<path d="M28.9889 42.4775C28.9889 42.4775 47.8315 48.3227 67.4603 45.6809C79.4407 44.0698 86.9697 41.5352 87.7315 41.2624C87.7315 41.2624 91.802 40.5484 95.5162 46.2849C95.5675 46.3505 95.6076 46.4249 95.6547 46.4967C96.119 47.2424 96.5394 48.0145 96.9139 48.809C100.21 57.5662 95.9545 60.6533 95.9545 60.6533C95.2296 61.012 88.1743 64.6616 78.6851 72.1597C63.1403 84.4309 54.2451 102.042 54.2451 102.042L54.1612 102.008C56.219 98.7826 55.7551 91.3068 53.1111 82.1363C52.9482 81.5421 52.7597 80.9497 52.5705 80.3489C51.3962 76.6144 50.0114 72.9494 48.4225 69.3715C47.8025 67.8455 47.1591 66.3589 46.4995 64.9212C46.49 64.9105 46.4812 64.8993 46.4731 64.8875C46.2884 64.4854 46.1019 64.0848 45.9141 63.6942C45.4303 62.6897 44.9539 61.6945 44.455 60.7441C44.1102 60.0717 43.7571 59.4118 43.4057 58.7658C43.1076 58.2109 42.803 57.6671 42.4986 57.1352C42.1446 56.5243 41.7927 55.9239 41.4384 55.3435C41.1392 54.8529 40.8407 54.3748 40.5429 53.9092C40.3847 53.6645 40.2266 53.4199 40.069 53.1838C36.0738 47.1265 32.0567 43.2031 28.9393 42.5646L28.9889 42.4775Z" fill="#FFC727"/>
<path opacity="0.3" d="M39.01 49.9385L39.3107 49.821L39.3238 49.8379L44.3624 60.3904L40.9404 49.739L41.7576 49.4017L46.366 58.5242L43.3255 49.6729L44.5283 49.1608L50.5232 60.6079L47.5114 50.9672L49.1158 50.3161L53.4326 58.7609L50.8567 50.8355L52.6748 50.0716L56.6687 57.5823L55.298 52.3134L57.2384 51.5475L59.673 55.8181L58.5042 50.95L60.4905 50.2236L63.3552 55.9241L61.9065 49.6444L63.7965 48.8605L67.7125 55.1367L66.6373 50.2648L68.4585 49.586L71.3657 55.0088L70.5774 50.2566L72.2791 49.6412L73.3973 51.5686L72.6928 48.6684L74.2929 48.0388L76.4894 52.0397L76.3808 49.4342L77.9189 49.0342L78.5595 50.3087L78.3229 48.7786L79.7399 48.2741L81.3768 51.0036L80.6608 47.1854L81.9098 46.6976L83.1926 48.7892L82.6764 45.956L83.8075 45.5182L86.2998 49.6077L85.2754 45.8314L86.1169 45.4056L88.5896 48.6439L88.2244 46.6136L88.976 46.3276L90.2835 48.5358L89.6825 45.7176L90.2012 45.4659L93.1544 49.1949L92.6378 44.4235L92.9029 44.3068L95.6099 47.5127L95.5018 46.2898C95.5531 46.3554 95.5931 46.4297 95.6403 46.5016L95.7765 47.7296L95.6492 47.7869L93.0029 44.8747L93.7227 49.937L93.3119 50.1104L90.5676 46.8068L91.4609 50.5196L90.8031 50.7865L89.4642 48.6271L89.7771 50.2393L89.0063 50.5856L86.8996 47.9156L88.3929 53.0402L87.3937 53.4806L84.5257 48.9301L85.1066 51.9541L83.9133 52.4165L82.7466 50.5391L83.5813 54.7174L82.2387 55.2362L80.4491 52.3151L80.8543 54.9331L79.3606 55.4131L78.1879 53.1418L78.3021 55.5345L76.7349 55.9783L75.9654 54.6085L76.611 57.1864L74.9585 57.857L73.2351 54.9204L74.1769 60.3707L72.4032 60.9791L70.1177 56.764L70.9508 60.4424L69.1078 61.2015L65.3315 55.1965L67.3984 64.0152L65.42 64.7324L62.6933 59.3164L63.4638 62.5365L61.5216 63.3038L59.3029 59.429L60.8798 65.533L58.9751 66.2711L56.1549 60.9131L58.8483 69.3747L57.1181 70.0849L52.0539 60.0054L54.5502 68.3192L53.129 68.8994L47.2995 57.4709L50.0986 65.9132L49.0653 66.341L43.4401 54.8493L46.5234 64.9172C46.514 64.9065 46.5052 64.8953 46.4971 64.8835C46.3124 64.4814 46.1258 64.0808 45.9381 63.6902C45.4543 62.6857 44.9778 61.6906 44.4789 60.7401C44.1341 60.0677 43.781 59.4079 43.4296 58.7618C43.1315 58.2069 42.8269 57.6631 42.5226 57.1312C42.1686 56.5203 41.8167 55.9199 41.4623 55.3396L40.0681 52.2601L40.5668 53.9052C40.4087 53.6606 40.2505 53.4159 40.093 53.1798L39.01 49.9385Z" fill="white"/>
<path d="M94.6087 62.1629L106.987 55.826C106.987 55.826 109.77 51.7136 107.076 44.9615C104.458 38.3948 99.2968 36.6646 99.2968 36.6646L86.4481 40.8753L86.6767 41.4725C86.6767 41.4725 91.3127 43.7976 93.7206 49.7287C96.5285 56.615 94.3908 61.6026 94.3908 61.6026L94.6087 62.1629Z" fill="#FFC727"/>
<g opacity="0.2">
<path d="M94.6087 62.1629L106.987 55.826C106.987 55.826 109.77 51.7136 107.076 44.9615C104.458 38.3948 99.2968 36.6646 99.2968 36.6646L86.4481 40.8753L86.6767 41.4725C86.6767 41.4725 91.3127 43.7976 93.7206 49.7287C96.5285 56.615 94.3908 61.6026 94.3908 61.6026L94.6087 62.1629Z" fill="black"/>
</g>
<path opacity="0.1" d="M86.443 40.8782C86.443 40.8782 91.9971 42.9834 94.6368 50.5811C97.2002 57.9848 94.6112 62.1599 94.6112 62.1599L94.3933 61.5996C94.3933 61.5996 96.528 56.6083 93.7249 49.7242C91.3498 43.8853 86.818 41.539 86.6727 41.4806L86.443 40.8782Z" fill="black"/>
<g opacity="0.2">
<path d="M98.7612 38.5584C98.8277 38.5055 98.8731 38.4306 98.8893 38.3473C98.9055 38.2639 98.8914 38.1775 98.8496 38.1036C98.8078 38.0297 98.741 37.9731 98.6612 37.944C98.5814 37.915 98.4939 37.9153 98.4143 37.945L95.4181 39.102C95.3733 39.118 95.3321 39.1429 95.297 39.1751C95.2619 39.2073 95.2336 39.2462 95.2138 39.2895C95.1939 39.3329 95.183 39.3797 95.1816 39.4273C95.1802 39.4749 95.1883 39.5224 95.2055 39.5668C95.2227 39.6112 95.2486 39.6517 95.2817 39.686C95.3149 39.7202 95.3545 39.7475 95.3983 39.7662C95.4422 39.7848 95.4893 39.7945 95.5369 39.7947C95.5845 39.7949 95.6317 39.7855 95.6757 39.7671L98.6671 38.6079C98.7005 38.5955 98.7321 38.5789 98.7612 38.5584Z" fill="black"/>
<path d="M100.043 39.788C100.111 39.7358 100.159 39.6604 100.176 39.5758C100.194 39.4913 100.18 39.4033 100.137 39.3282C100.095 39.2531 100.026 39.196 99.9449 39.1674C99.8635 39.1388 99.7744 39.1407 99.6943 39.1728L96.6996 40.3317C96.6557 40.3483 96.6156 40.3735 96.5816 40.4058C96.5475 40.4381 96.5202 40.4768 96.5013 40.5197C96.4823 40.5627 96.4721 40.6089 96.4711 40.6558C96.4702 40.7027 96.4786 40.7494 96.4958 40.793C96.53 40.8812 96.5978 40.9522 96.6843 40.9904C96.7708 41.0286 96.8689 41.0309 96.9571 40.9968L99.9519 39.8379C99.9843 39.8255 100.015 39.8087 100.043 39.788Z" fill="black"/>
</g>
<g opacity="0.2">
<path d="M105.132 53.9298C105.212 53.8785 105.269 53.7974 105.289 53.7046C105.309 53.6118 105.292 53.5147 105.24 53.4347C105.189 53.3547 105.108 53.2984 105.015 53.2782C104.922 53.258 104.825 53.2754 104.745 53.3268L101.816 54.6427C101.733 54.6837 101.67 54.755 101.639 54.8418C101.608 54.9286 101.611 55.0241 101.649 55.1083C101.687 55.1925 101.755 55.2587 101.841 55.2933C101.926 55.3278 102.022 55.3278 102.108 55.2934L105.043 53.9849C105.075 53.9707 105.105 53.9522 105.132 53.9298Z" fill="black"/>
<path d="M104.991 55.7491C105.054 55.6927 105.096 55.6155 105.107 55.5313C105.119 55.4472 105.1 55.3616 105.054 55.29C105.009 55.2184 104.939 55.1656 104.857 55.1409C104.776 55.1162 104.689 55.1214 104.611 55.1555L101.683 56.4733C101.597 56.5122 101.529 56.5838 101.495 56.6725C101.462 56.7611 101.465 56.8595 101.503 56.9461C101.542 57.0326 101.614 57.1001 101.703 57.1339C101.791 57.1676 101.89 57.1647 101.976 57.1258L104.905 55.8098C104.937 55.7945 104.966 55.774 104.991 55.7491Z" fill="black"/>
</g>
<path opacity="0.1" d="M54.1681 102.01L54.2521 102.044C54.2521 102.044 63.1487 84.4346 78.6921 72.1615C85.9454 66.4335 91.7757 62.951 94.4441 61.4676L94.3921 61.6019L94.6081 62.1636L106.986 55.8267C106.986 55.8267 109.771 51.7162 107.077 44.9641C104.457 38.3955 99.2977 36.6672 99.2977 36.6672C101.104 38.4703 102.051 44.7616 98.4693 47.2313C95.7737 49.0892 91.206 45.4153 91.206 45.4153C91.206 45.4153 89.154 59.8503 69.6931 70.435C63.2501 73.9409 54.0143 75.1504 49.9556 72.9958C50.9699 75.5239 51.8404 77.9802 52.5793 80.3492C52.77 80.952 52.9514 81.5468 53.1214 82.1385C55.7659 91.3057 56.226 98.7845 54.1681 102.01Z" fill="black"/>
<path d="M28.865 42.3547C28.1727 42.2034 27.4514 42.254 26.787 42.5006C21.4844 44.577 22.6303 60.1009 29.3293 77.1691C36.0283 94.2373 45.762 106.395 51.0513 104.317C51.1546 104.276 51.2465 104.231 51.3473 104.182C51.3782 104.169 51.4076 104.152 51.4348 104.132C53.2226 103.144 54.1871 100.451 54.359 96.6179C54.5906 91.3398 53.3339 83.9043 50.6937 75.7424C50.0536 73.7429 49.3219 71.7034 48.5087 69.637C47.274 66.5144 45.9547 63.5424 44.5661 60.8059C39.2999 50.3831 33.2247 43.184 28.865 42.3547Z" fill="#FFC727"/>
<path opacity="0.6" d="M28.865 42.3547C28.1727 42.2034 27.4514 42.254 26.787 42.5006C21.4844 44.577 22.6303 60.1009 29.3293 77.1691C36.0283 94.2373 45.762 106.395 51.0513 104.317C51.1546 104.276 51.2465 104.231 51.3473 104.182C51.3782 104.169 51.4076 104.152 51.4348 104.132C53.2226 103.144 54.1871 100.451 54.359 96.6179C54.5906 91.3398 53.3339 83.9043 50.6937 75.7424C50.0536 73.7429 49.3219 71.7034 48.5087 69.637C47.274 66.5144 45.9547 63.5424 44.5661 60.8059C39.2999 50.3831 33.2247 43.184 28.865 42.3547Z" fill="black"/>
<path opacity="0.2" d="M35.2992 89.7789L48.1328 68.6797C48.2601 68.9968 48.3874 69.3139 48.5128 69.6325C49.3241 71.7004 50.0559 73.7399 50.6959 75.7394C53.3376 83.9032 54.5928 91.3368 54.3597 96.6131C54.1893 100.448 53.2263 103.143 51.437 104.129C51.409 104.149 51.3791 104.167 51.3477 104.181C51.2502 104.23 51.1568 104.273 51.0535 104.314C47.1986 105.829 40.9812 99.7798 35.2992 89.7789Z" fill="black"/>
<g opacity="0.1">
<path d="M30.1114 79.1036L48.1289 68.6848L27.7882 72.9644C28.2664 74.3477 28.7811 75.7507 29.3369 77.1639C29.5872 77.8197 29.8487 78.4666 30.1114 79.1036Z" fill="white"/>
<path d="M26.4892 68.9567L48.1244 68.6829L25.7174 66.2329C25.9553 67.1277 26.2117 68.0384 26.4892 68.9567Z" fill="white"/>
</g>
<path d="M45.1673 62.0305C43.7823 62.0071 42.4114 62.3115 41.1665 62.9189C39.9216 63.5263 38.838 64.4194 38.0041 65.5254C37.1701 66.6314 36.6095 67.9189 36.3679 69.2828C36.1264 70.6467 36.2108 72.0485 36.6142 73.3736C37.0176 74.6987 37.7287 75.9096 38.6893 76.9076C39.6499 77.9056 40.8328 78.6622 42.1416 79.1159C43.4503 79.5696 44.8478 79.7073 46.22 79.518C47.5921 79.3286 48.9001 78.8175 50.0371 78.0263C50.4883 77.7131 50.9099 77.3591 51.2964 76.9688C50.653 74.9689 49.9231 72.9279 49.1114 70.8634C47.8925 67.7495 46.5603 64.7726 45.1673 62.0305Z" fill="#FFC727"/>
<path d="M25.3218 41.7638C22.8114 43.507 21.7406 47.805 22.22 54.3085C22.7086 60.986 24.7906 69.2796 28.0803 77.6582C31.37 86.0367 35.4829 93.5298 39.6722 98.7619C44.2418 104.473 48.3474 106.826 51.549 105.569C51.6807 105.517 51.7939 105.465 51.9111 105.406C51.9932 105.369 52.0726 105.326 52.1488 105.278C54.3215 104.052 55.5037 101.144 55.7093 96.674C55.9572 91.0963 54.6338 83.5138 51.9891 75.3191C51.3457 73.3192 50.6059 71.2347 49.7764 69.1358C48.5258 65.9621 47.1825 62.9516 45.7771 60.1859C40.1812 49.1062 33.9636 41.9489 29.1296 41.0227C28.187 40.8199 27.2058 40.8941 26.3045 41.2366C25.9573 41.373 25.6275 41.55 25.3218 41.7638ZM50.714 102.988C50.6617 103.014 50.6099 103.036 50.5546 103.058C48.6841 103.794 45.3181 101.502 41.7761 97.074C37.7532 92.0469 33.7795 84.8012 30.588 76.6719C27.3966 68.5425 25.3748 60.5189 24.906 54.1098C24.4934 48.4599 25.3938 44.4884 27.2866 43.7506C27.7123 43.5964 28.1735 43.5692 28.6144 43.6723C31.8052 44.2774 37.6006 49.9955 43.363 61.4039C44.7284 64.0952 46.0388 67.0288 47.2626 70.1298C48.0664 72.1764 48.7927 74.2051 49.4169 76.1535C51.9343 83.9345 53.247 91.3683 53.0179 96.5569C52.866 99.9218 52.0501 102.245 50.7898 102.95L50.714 102.988Z" fill="#FFC727"/>
<path opacity="0.2" d="M25.3218 41.7638C22.8114 43.507 21.7406 47.805 22.22 54.3085C22.7086 60.986 24.7906 69.2796 28.0803 77.6582C31.37 86.0367 35.4829 93.5298 39.6722 98.7619C44.2418 104.473 48.3474 106.826 51.549 105.569C51.6807 105.517 51.7939 105.465 51.9111 105.406C51.9932 105.369 52.0726 105.326 52.1488 105.278C54.3215 104.052 55.5037 101.144 55.7093 96.674C55.9572 91.0963 54.6338 83.5138 51.9891 75.3191C51.3457 73.3192 50.6059 71.2347 49.7764 69.1358C48.5258 65.9621 47.1825 62.9516 45.7771 60.1859C40.1812 49.1062 33.9636 41.9489 29.1296 41.0227C28.187 40.8199 27.2058 40.8941 26.3045 41.2366C25.9573 41.373 25.6275 41.55 25.3218 41.7638ZM50.714 102.988C50.6617 103.014 50.6099 103.036 50.5546 103.058C48.6841 103.794 45.3181 101.502 41.7761 97.074C37.7532 92.0469 33.7795 84.8012 30.588 76.6719C27.3966 68.5425 25.3748 60.5189 24.906 54.1098C24.4934 48.4599 25.3938 44.4884 27.2866 43.7506C27.7123 43.5964 28.1735 43.5692 28.6144 43.6723C31.8052 44.2774 37.6006 49.9955 43.363 61.4039C44.7284 64.0952 46.0388 67.0288 47.2626 70.1298C48.0664 72.1764 48.7927 74.2051 49.4169 76.1535C51.9343 83.9345 53.247 91.3683 53.0179 96.5569C52.866 99.9218 52.0501 102.245 50.7898 102.95L50.714 102.988Z" fill="black"/>
<path d="M16.7653 79.7661L24.2718 74.9754L22.8319 73.9608L22.5872 77.6549L22.4805 79.2632C23.0804 78.7486 29.3108 73.4615 30.0862 72.8006L22.852 77.2213L23.8892 77.8563L24.774 74.2625L25.2402 72.388L15.236 76.9463L16.7697 79.7717L16.7653 79.7661Z" fill="#00B6FE"/>
<path d="M29.2676 50.5908L32.1549 56.6753L33.0531 55.6889L30.3038 55.1581L29.1068 54.9288C29.4357 55.4264 32.8188 60.6007 33.2415 61.2453L30.6031 55.398L30.0288 56.119L32.6444 57.1197L34.012 57.6443L31.5309 49.7051L29.2676 50.5908Z" fill="#00B6FE"/>
<path d="M10.4972 53.9193L23.0771 59.7142L23.1914 56.9767L18.1529 59.7614L15.9614 60.9743C17.1403 61.3234 29.295 65.0383 30.8119 65.4914L18.9484 59.74L18.9901 61.6308L24.4364 59.7651L27.2778 58.8077C25.5563 57.6994 14.8697 50.816 12.9015 49.5505L10.4955 53.9326L10.4972 53.9193Z" fill="#00B6FE"/>
<path d="M36.906 101.628L40.0016 93.2795L38.2388 93.3419L40.2717 96.435L41.1619 97.7738C41.3305 97.0049 43.1101 89.0272 43.3282 88.0322L40.2275 95.923L41.436 95.8081L39.98 92.4026L39.2 90.6333L33.9722 100.306L36.9033 101.636L36.906 101.628Z" fill="#00B6FE"/>
<path d="M49.5245 99.4954L47.3417 93.1225L46.3399 93.9997L49.0127 94.838L50.1743 95.2036C49.9038 94.6724 47.1292 89.149 46.7812 88.4609L48.7408 94.5676L49.3946 93.9173L46.9077 92.6256L45.6075 91.9517L47.1689 100.124L49.5159 99.496L49.5245 99.4954Z" fill="#00B6FE"/>
</svg>
