<svg width="25" height="25" viewBox="0 0 25 25" fill="none" xmlns="http://www.w3.org/2000/svg">
<path d="M11.5598 23.3794H10.3225L11.5598 14.837H7.27675C6.75326 14.837 6.55893 14.6863 6.69377 14.3849C6.82861 14.0835 6.90396 13.917 6.91982 13.8852C7.30054 13.2031 7.73678 12.4258 8.22854 11.5533C8.7203 10.6967 9.26362 9.74888 9.85849 8.70983C10.4534 7.67079 11.0919 6.54846 11.774 5.34285C12.472 4.13724 13.2096 2.83645 13.9869 1.44049H15.2242L13.9869 9.98286H18.27C18.5079 9.98286 18.6824 10.0423 18.7935 10.1613C18.9045 10.2803 18.8966 10.4826 18.7697 10.7681C17.5641 12.8779 16.5092 14.718 15.605 16.2885C14.7008 17.859 13.9473 19.1677 13.3444 20.2147C12.7416 21.2616 12.2975 22.0469 12.0119 22.5704C11.7105 23.1097 11.5598 23.3794 11.5598 23.3794Z" fill="white"/>
</svg>
