<svg width="24" height="24" viewBox="0 0 24 24" fill="none" xmlns="http://www.w3.org/2000/svg">
<path d="M3.30775 20.5C2.80258 20.5 2.375 20.325 2.025 19.975C1.675 19.625 1.5 19.1974 1.5 18.6923V7.30775C1.5 6.80258 1.675 6.375 2.025 6.025C2.375 5.675 2.80258 5.5 3.30775 5.5H6.3615L8.2115 3.5H13.8077V5H8.8655L7.03075 7H3.30775C3.21792 7 3.14417 7.02883 3.0865 7.0865C3.02883 7.14417 3 7.21792 3 7.30775V18.6923C3 18.7821 3.02883 18.8558 3.0865 18.9135C3.14417 18.9712 3.21792 19 3.30775 19H18.6923C18.7821 19 18.8558 18.9712 18.9135 18.9135C18.9712 18.8558 19 18.7821 19 18.6923V10.1923H20.5V18.6923C20.5 19.1974 20.325 19.625 19.975 19.975C19.625 20.325 19.1974 20.5 18.6923 20.5H3.30775ZM19 7V5H17V3.5H19V1.5H20.5V3.5H22.5V5H20.5V7H19ZM11 17.1152C12.1475 17.1152 13.1202 16.7162 13.9183 15.9183C14.7162 15.1202 15.1152 14.1475 15.1152 13C15.1152 11.8525 14.7162 10.8798 13.9183 10.0818C13.1202 9.28375 12.1475 8.88475 11 8.88475C9.8525 8.88475 8.87975 9.28375 8.08175 10.0818C7.28375 10.8798 6.88475 11.8525 6.88475 13C6.88475 14.1475 7.28375 15.1202 8.08175 15.9183C8.87975 16.7162 9.8525 17.1152 11 17.1152ZM11 15.6155C10.2615 15.6155 9.641 15.3642 9.1385 14.8615C8.63583 14.359 8.3845 13.7385 8.3845 13C8.3845 12.2615 8.63583 11.641 9.1385 11.1385C9.641 10.6358 10.2615 10.3845 11 10.3845C11.7385 10.3845 12.359 10.6358 12.8615 11.1385C13.3642 11.641 13.6155 12.2615 13.6155 13C13.6155 13.7385 13.3642 14.359 12.8615 14.8615C12.359 15.3642 11.7385 15.6155 11 15.6155Z" fill="#808080"/>
</svg>
