<svg width="24" height="24" viewBox="0 0 24 24" fill="none" xmlns="http://www.w3.org/2000/svg">
<path d="M3.75 21.0095C3.5375 21.0095 3.35942 20.9376 3.21575 20.7938C3.07192 20.6501 3 20.472 3 20.2595V12.5865L5.04225 6.7595C5.11675 6.53 5.25333 6.34767 5.452 6.2125C5.65067 6.07717 5.87183 6.0095 6.1155 6.0095H8.9615L10 6.00928H10.5C10.209 6.48628 10.8636 5.22833 10.7027 5.7735C10.5419 6.31867 10.4615 6.89417 10.4615 7.5V7.5095H6.36925L4.827 11.7017H11.9963C12.2219 11.9992 12.4713 12.2756 12.7443 12.5308C13.0173 12.7858 13.3192 13.0094 13.65 13.2017H4.5V17.5095H18.5V14.0305C18.7667 13.987 19.0234 13.9248 19.2703 13.844C19.5169 13.7633 19.7602 13.6673 20 13.5558V20.2595C20 20.472 19.9281 20.6501 19.7843 20.7938C19.6406 20.9376 19.4625 21.0095 19.25 21.0095H18.6348C18.4223 21.0095 18.2441 20.9376 18.1003 20.7938C17.9566 20.6501 17.8848 20.472 17.8848 20.2595V19.0095H5.11525V20.2595C5.11525 20.472 5.04342 20.6501 4.89975 20.7938C4.75592 20.9376 4.57775 21.0095 4.36525 21.0095H3.75ZM5.7885 16.221H8.63475C8.87992 16.221 9.08542 16.1381 9.25125 15.9723C9.41708 15.8064 9.5 15.601 9.5 15.356C9.5 15.1108 9.41708 14.9053 9.25125 14.7393C9.08542 14.5733 8.87992 14.4903 8.63475 14.4903H5.7885V16.221ZM17.2115 16.221V14.4903H14.3652C14.1201 14.4903 13.9146 14.5732 13.7488 14.739C13.5829 14.9048 13.5 15.1103 13.5 15.3553C13.5 15.6004 13.5829 15.806 13.7488 15.972C13.9146 16.138 14.1201 16.221 14.3652 16.221H17.2115ZM16.4385 9.6345L19.75 6.33825L18.9115 5.5L16.4385 7.94225L15.396 6.9L14.5577 7.75375L16.4385 9.6345ZM17.1538 3C18.4026 3 19.4647 3.43775 20.3403 4.31325C21.2159 5.18892 21.6538 6.25117 21.6538 7.5C21.6538 8.74867 21.2159 9.81083 20.3403 10.6865C19.4647 11.562 18.4026 11.9998 17.1538 11.9998C15.9051 11.9998 14.8429 11.562 13.9672 10.6865C13.0916 9.81083 12.6538 8.74867 12.6538 7.5C12.6538 6.25117 13.0916 5.18892 13.9672 4.31325C14.8429 3.43775 15.9051 3 17.1538 3Z" fill="white"/>
</svg>
