<svg width="125" height="113" viewBox="0 0 125 113" fill="none" xmlns="http://www.w3.org/2000/svg">
<circle cx="56.5" cy="56.5" r="55.9293" stroke="#808080" stroke-width="1.14141" stroke-linecap="round" stroke-dasharray="5.71 5.71"/>
<circle cx="104.5" cy="20.5" r="20" fill="#F6F2F2" stroke="#808080" stroke-linecap="round"/>
<line x1="104.914" y1="7.65714" x2="104.914" y2="33.3429" stroke="#808080" stroke-width="3.31429" stroke-linecap="round"/>
<line x1="91.6571" y1="20.0857" x2="117.343" y2="20.0857" stroke="#808080" stroke-width="3.31429" stroke-linecap="round"/>
<path fill-rule="evenodd" clip-rule="evenodd" d="M85.4826 54.8261C86.6783 56.5 87.3957 58.6522 87.3957 60.5652C87.3957 67.2609 87.3957 73.7174 87.3957 80.413C87.3957 82.5652 85.7218 84 83.5696 84H75.9174C74.0044 84 72.5696 82.5652 72.5696 80.413V76.3478H38.374V80.413C38.374 82.5652 36.7 84 34.787 84H27.1348C24.9826 84 23.5479 82.5652 23.5479 80.413C23.5479 73.7174 23.5479 67.2609 23.5479 60.5652C23.5479 58.6522 24.5044 56.5 25.4609 54.8261L22.3522 54.3478C18.5261 53.8696 18.7653 43.1087 27.6131 48.6087C30.0044 40.2391 31.2 29 42.2 29H68.7435C79.9826 29 81.1783 40.2391 83.0913 48.6087C92.1783 43.1087 92.4174 53.8696 88.5913 54.3478L85.4826 54.8261ZM80.4609 59.3696C75.9174 59.3696 59.1783 68.6957 80.2218 66.0652C84.5261 65.587 83.8087 59.1304 80.4609 59.3696ZM30.4826 59.3696C34.787 59.3696 52.0044 68.6957 30.7218 66.0652C26.4174 65.587 26.8957 59.1304 30.4826 59.3696ZM32.3957 50.0435C33.8305 43.8261 34.787 34.0217 42.2 34.0217H68.7435C76.1566 34.0217 77.1131 44.5435 78.5479 50.0435C63.0044 53.3913 47.7 53.3913 32.3957 50.0435Z" fill="#808080"/>
</svg>
