<svg width="45" height="45" viewBox="0 0 45 45" fill="none" xmlns="http://www.w3.org/2000/svg">
<path d="M38.982 17.1043H33.946L33.0468 19.2176H32.6421V18.4532C32.6421 17.9586 32.2374 17.554 31.7428 17.554H29.4946V15.8903C29.4946 14.6313 28.5054 13.6421 27.2464 13.6421H23.1097V12.0234H27.2464C27.6511 12.0234 27.9658 11.7086 27.9658 11.304V10.7194C27.9658 10.3147 27.6511 10 27.2464 10H13.0827C12.6781 10 12.3633 10.3147 12.3633 10.7194V11.304C12.3633 11.7086 12.6781 12.0234 13.0827 12.0234H17.714V13.6421H13.1277C12.8129 13.6421 12.4532 13.732 12.1835 13.9119L9.71043 15.6205H7.46223V21.9604H6.02338V16.6996C6.02338 16.295 5.70863 15.9802 5.30396 15.9802H4.71942C4.31475 15.9802 4 16.295 4 16.6996V29.2896C4 29.6942 4.31475 30.009 4.71942 30.009H5.30396C5.70863 30.009 6.02338 29.6942 6.02338 29.2896V24.0288H7.46223V30.2788H10.295L16.5899 35H30.214C31.5629 35 32.6421 33.9209 32.6421 32.5719V31.4478H33.0468L33.946 33.5611H38.982L40.6007 29.9191V20.7914L38.982 17.1043Z" fill="white"/>
</svg>
