<svg width="36" height="35" viewBox="0 0 36 35" fill="none" xmlns="http://www.w3.org/2000/svg">
<path d="M33.9775 17.1493C33.9775 14.6853 31.2469 12.584 26.4789 11.3787L25.9562 13.448C30.0202 14.472 31.8442 16.0507 31.8442 17.1493C31.8442 19.08 26.5642 21.768 17.9775 21.768C16.8469 21.768 15.7909 21.7147 14.7775 21.64C14.6175 20.2213 14.5322 18.664 14.5322 17C14.5322 8.66933 16.7829 3.13333 18.2655 3.13333C19.0655 3.13333 20.4095 5.07467 21.2629 9.16L19.9189 8.296L18.7669 10.088L23.2255 12.9467L25.8175 8.424L23.9615 7.368L23.3002 8.52C22.2869 3.76267 20.4842 1 18.2549 1C14.4042 1 12.3882 9.05333 12.3882 17C12.3882 18.472 12.4629 19.9547 12.5909 21.384C7.23621 20.5733 4.10021 18.6427 4.10021 17.16C4.10021 16.1467 5.61487 14.7707 8.88954 13.768L8.03621 15.656L9.97754 16.5307L12.1002 11.8373L7.87621 9.45867L6.83087 11.3147L7.82287 11.8693C4.11087 13.1067 1.97754 14.9947 1.97754 17.16C1.97754 20.5733 6.99087 22.76 12.8789 23.56C13.6895 28.84 15.5029 33 18.2655 33C20.4735 33 22.2655 30.344 23.3002 25.512L21.2095 25.064C20.2922 29.32 18.9482 30.8667 18.2549 30.8667C17.2202 30.8667 15.8335 28.2107 15.0655 23.7947C16.0255 23.8693 16.9962 23.9013 17.9669 23.9013C25.7215 23.9013 33.9669 21.5333 33.9669 17.1493H33.9775Z" fill="black"/>
</svg>
