<svg width="50" height="50" viewBox="0 0 50 50" fill="none" xmlns="http://www.w3.org/2000/svg">
<path d="M29.7091 48.7285C29.7091 49.4308 29.1399 50 28.4377 50H21.5648C20.8625 50 20.2933 49.4308 20.2933 48.7285C20.2933 48.0263 20.8625 47.4571 21.5648 47.4571H28.4377C29.1399 47.4571 29.7091 48.0263 29.7091 48.7285ZM40.9249 36.5836V40.2465C40.9249 42.9673 38.7112 45.1809 35.9901 45.1809H14.0125C11.2917 45.1809 9.07812 42.9675 9.07812 40.2465V36.5836C9.07812 35.8814 9.64731 35.3122 10.3496 35.3122H10.6878C10.6848 35.2757 10.6831 35.2387 10.6831 35.2014V31.7942C10.6813 31.7186 10.6864 31.6436 10.698 31.5699C10.7268 31.3821 10.7967 31.2081 10.8983 31.0569C10.9979 30.9079 11.1298 30.7787 11.2892 30.6813C11.3537 30.6416 11.422 30.6075 11.4935 30.5797C11.997 30.3702 12.4975 30.1536 12.9917 29.9318V14.3969C12.9917 11.8714 14.5986 9.65287 16.8906 8.7993C16.8879 8.72979 16.8867 8.66028 16.8867 8.59021V5.45001C16.8865 2.44486 19.3314 0 22.3364 0H27.6659C30.6711 0 33.1158 2.44486 33.1158 5.45001V8.59035C33.1158 8.66028 33.1144 8.72993 33.1118 8.79916C34.0153 9.1351 34.8253 9.68635 35.4714 10.4027C35.494 10.3604 35.5163 10.3181 35.5389 10.2757C35.8664 9.6547 36.6353 9.41666 37.2568 9.74455C37.8778 10.0722 38.1155 10.8414 37.7879 11.4624C35.4082 15.9727 31.9524 20.1518 27.5164 23.8835C23.9757 26.862 19.9567 29.4347 15.5347 31.5565V35.3123H34.468V20.0098C34.468 19.3076 35.0372 18.7384 35.7395 18.7384C36.4418 18.7384 37.0109 19.3076 37.0109 20.0098V35.3122H39.6536C40.3556 35.3122 40.9249 35.8814 40.9249 36.5836ZM19.4294 8.59035C19.4294 8.85058 19.4638 9.10303 19.5282 9.34334C19.5385 9.37442 19.5477 9.40606 19.5555 9.43827C19.9191 10.6289 21.0281 11.4975 22.3363 11.4975H27.6658C28.9738 11.4975 30.0828 10.6292 30.4467 9.4387C30.4548 9.40606 30.464 9.37399 30.4743 9.34263C30.5385 9.10261 30.5729 8.85044 30.5729 8.59035V5.45001C30.5729 3.84699 29.2688 2.5429 27.6658 2.5429H22.3363C20.7334 2.5429 19.4294 3.84699 19.4294 5.45001V8.59035ZM15.5346 28.7167C23.4718 24.6875 29.9917 19.089 34.0641 12.7898C33.6951 12.1017 33.1105 11.5667 32.4161 11.2598C31.4805 12.9181 29.7018 14.0402 27.6658 14.0402H22.3363C20.3004 14.0402 18.5216 12.918 17.5861 11.2597C16.3706 11.7965 15.5346 13.0168 15.5346 14.3969V28.7167ZM38.382 37.8551H35.7586C35.7521 37.8551 35.7457 37.8552 35.7393 37.8552H14.2631C14.2567 37.8552 14.2504 37.8552 14.2439 37.8551H11.621V40.2465C11.621 41.5652 12.6939 42.638 14.0125 42.638H35.9901C37.309 42.638 38.382 41.5652 38.382 40.2465V37.8551Z" fill="black"/>
</svg>
