<svg width="21" height="36" viewBox="0 0 21 36" fill="none" xmlns="http://www.w3.org/2000/svg">
<g clip-path="url(#clip0_1860_9172)">
<path fill-rule="evenodd" clip-rule="evenodd" d="M5.20735 2.06718C5.20735 1.20164 5.90675 0.5 6.76956 0.5H14.0598C14.9226 0.5 15.622 1.20164 15.622 2.06718V4.15672H17.1842C18.9098 4.15672 20.3086 5.56001 20.3086 7.29104V32.3657C20.3086 34.0967 18.9098 35.5 17.1842 35.5H3.12442C1.39883 35.5 0 34.0967 0 32.3657V7.29104C0 5.56001 1.39883 4.15672 3.12442 4.15672H5.20735V2.06718ZM4.40728 20.1001C3.79422 20.9003 4.42737 22.0521 5.42504 21.9515L7.7579 21.7161C7.98916 21.6928 8.18684 21.8824 8.17548 22.1166L7.99015 25.9302C7.93541 27.0566 9.3517 27.5836 10.0354 26.6912L15.9014 19.0342C16.5144 18.234 15.8813 17.0822 14.8836 17.1829L12.5507 17.4182C12.3195 17.4415 12.1218 17.2519 12.1332 17.0178L12.3185 13.2042C12.3732 12.0777 10.9569 11.5507 10.2732 12.4431L4.40728 20.1001Z" fill="black"/>
</g>
<defs>
<clipPath id="clip0_1860_9172">
<rect width="20.3086" height="35" fill="white" transform="translate(0 0.5)"/>
</clipPath>
</defs>
</svg>
