<svg width="55" height="36" viewBox="0 0 55 36" fill="none" xmlns="http://www.w3.org/2000/svg">
<g clip-path="url(#clip0_1860_9132)">
<path d="M34.2367 32.1143H32.9435C32.1527 32.1143 31.5117 32.7552 31.5117 33.5461C31.5117 34.3368 32.1527 34.9779 32.9435 34.9779H34.2367C35.0274 34.9779 35.6685 34.3368 35.6685 33.5461C35.6685 32.7553 35.0274 32.1143 34.2367 32.1143Z" fill="black"/>
<path d="M54.0045 25.0761L54.0044 17.1903C54.0044 17.1899 54.0045 17.1895 54.0045 17.1893C54.0045 17.1888 54.0044 17.1885 54.0044 17.1882V13.025C54.0044 12.2341 53.3633 11.5931 52.5726 11.5931C51.7818 11.5931 51.1408 12.2342 51.1408 13.025V15.7574H48.2282V13.025C48.2282 12.2341 47.5871 11.5931 46.7964 11.5931H42.75L39.8619 7.84572C39.5909 7.49392 39.1719 7.28795 38.7278 7.28795H36.2572V3.8861H38.7278C39.5186 3.8861 40.1597 3.24507 40.1597 2.45428C40.1597 1.66349 39.5186 1.02246 38.7278 1.02246H19.9009C19.1101 1.02246 18.4691 1.66349 18.4691 2.45428C18.4691 3.24507 19.1101 3.8861 19.9009 3.8861H22.3715V7.28803H19.9009C19.5212 7.28803 19.157 7.4388 18.8885 7.70733L12.4117 14.1842H7.38177C6.59097 14.1842 5.94995 14.8251 5.94995 15.616V16.6532H2.94957V15.616C2.94957 14.8251 2.30855 14.1842 1.51776 14.1842C0.726962 14.1842 0.0859375 14.8251 0.0859375 15.616V26.6499C0.0859375 27.4406 0.726962 28.0817 1.51776 28.0817C2.30855 28.0817 2.94957 27.4406 2.94957 26.6499V25.6124H5.95002V26.6499C5.95002 27.4406 6.59104 28.0817 7.38184 28.0817H12.4117L18.8886 34.5584C19.157 34.8269 19.5213 34.9777 19.901 34.9777H28.4809C29.2717 34.9777 29.9127 34.3366 29.9127 33.5459C29.9127 32.7551 29.2717 32.1141 28.4809 32.1141H20.494L14.4366 26.0568V16.209L20.494 10.1517H38.0235L40.9117 13.899C41.1827 14.2507 41.6016 14.4569 42.0457 14.4569H45.3645L45.3646 28.3819L38.0538 32.2826C37.3562 32.655 37.0924 33.5223 37.4646 34.22C37.7224 34.703 38.2173 34.9781 38.7291 34.9781C38.9565 34.9781 39.1872 34.9237 39.4019 34.8092L47.4705 30.504C47.937 30.255 48.2283 29.7694 48.2283 29.2407V26.5084H51.1409V29.2407C51.1409 30.0315 51.7819 30.6726 52.5727 30.6726C53.3635 30.6726 54.0046 30.0315 54.0046 29.2407V25.0769C54.0046 25.0768 54.0046 25.0766 54.0046 25.0766C54.0045 25.0764 54.0045 25.0763 54.0045 25.0761ZM2.94957 22.7488V19.5168H5.95002V22.7488H2.94957ZM8.81366 17.0477H11.573V25.218H8.81366V17.0477ZM25.2352 3.8861H33.3936V7.28803H25.2352V3.8861ZM48.2282 23.6448V18.6211H51.1408V23.6448H48.2282Z" fill="black"/>
<path d="M25.4565 28.9777C25.7361 29.2572 26.1025 29.397 26.469 29.397C26.8356 29.397 27.2018 29.2572 27.4815 28.9777L34.2196 22.2395C34.6292 21.83 34.7517 21.2142 34.53 20.6791C34.3084 20.1441 33.7863 19.7953 33.2072 19.7953H28.8788L33.3606 15.3134C33.9198 14.7542 33.9198 13.8476 33.3606 13.2885C32.8014 12.7294 31.8948 12.7293 31.3357 13.2885L24.4097 20.2146C24.0001 20.6242 23.8776 21.24 24.0993 21.775C24.3209 22.3101 24.843 22.659 25.4221 22.659H29.7505L25.4566 26.9529C24.8973 27.5119 24.8973 28.4185 25.4565 28.9777Z" fill="black"/>
</g>
<defs>
<clipPath id="clip0_1860_9132">
<rect width="54.0909" height="35" fill="white" transform="translate(0 0.5)"/>
</clipPath>
</defs>
</svg>
