<svg width="48" height="35" viewBox="0 0 48 35" fill="none" xmlns="http://www.w3.org/2000/svg">
<g clip-path="url(#clip0_1416_18076)">
<path d="M23.5955 22.809V17.6967H22.809V23.6286C22.809 24.0297 23.1767 24.382 23.5955 24.382H25.1685C25.3852 24.382 25.5618 24.2059 25.5618 23.9888C25.5618 23.7717 25.3852 23.5955 25.1685 23.5955H24.382C23.9557 23.5955 23.5955 23.2353 23.5955 22.809Z" fill="black"/>
<path d="M13.3707 22.809V17.6967H12.5842V23.6286C12.5842 24.0297 12.9519 24.382 13.3707 24.382H14.9438C15.1605 24.382 15.337 24.2059 15.337 23.9888C15.337 23.7717 15.1605 23.5955 14.9438 23.5955H14.1573C13.731 23.5955 13.3707 23.2353 13.3707 22.809Z" fill="black"/>
<path d="M35 8.65172C35 7.5675 34.1179 6.68542 33.0337 6.68542C31.9495 6.68542 31.0674 7.5675 31.0674 8.65172C31.0674 9.73593 31.9495 10.618 33.0337 10.618C34.1179 10.618 35 9.73593 35 8.65172ZM32.2472 9.83149C32.1465 9.83149 32.0458 9.79295 31.9691 9.71627C31.8154 9.5625 31.8154 9.31396 31.9691 9.1602L32.4776 8.65172L31.9691 8.14323C31.8154 7.98947 31.8154 7.74093 31.9691 7.58717C32.1229 7.4334 32.3714 7.4334 32.5252 7.58717L33.0337 8.09565L33.5422 7.58717C33.6959 7.4334 33.9445 7.4334 34.0982 7.58717C34.252 7.74093 34.252 7.98947 34.0982 8.14323L33.5897 8.65172L34.0982 9.1602C34.252 9.31396 34.252 9.5625 34.0982 9.71627C34.0215 9.79295 33.9209 9.83149 33.8202 9.83149C33.7195 9.83149 33.6188 9.79295 33.5422 9.71627L33.0337 9.20778L32.5252 9.71627C32.4485 9.79295 32.3478 9.83149 32.2472 9.83149Z" fill="black"/>
<path d="M30.2809 14.9438H12.191C11.9743 14.9438 11.7977 15.12 11.7977 15.3371V16.5169C11.7977 16.734 11.9743 16.9101 12.191 16.9101H30.2809C30.4976 16.9101 30.6741 16.734 30.6741 16.5169V15.3371C30.6741 15.12 30.4976 14.9438 30.2809 14.9438Z" fill="black"/>
<path d="M28.7079 22.809V17.6967H27.9214V23.6286C27.9214 24.0297 28.2891 24.382 28.7079 24.382H30.2809C30.4976 24.382 30.6742 24.2059 30.6742 23.9888C30.6742 23.7717 30.4976 23.5955 30.2809 23.5955H29.4944C29.0681 23.5955 28.7079 23.2353 28.7079 22.809Z" fill="black"/>
<path d="M18.4832 22.809V17.6967H17.6967V23.6286C17.6967 24.0297 18.0644 24.382 18.4832 24.382H20.0562C20.2729 24.382 20.4495 24.2059 20.4495 23.9888C20.4495 23.7717 20.2729 23.5955 20.0562 23.5955H19.2697C18.8434 23.5955 18.4832 23.2353 18.4832 22.809Z" fill="black"/>
<path d="M30.6742 3.14612H21.236V4.32589H30.6742V3.14612Z" fill="black"/>
<path d="M18.8764 2.35955H33.0337C33.4674 2.35955 33.8202 2.0068 33.8202 1.57303V0.786517C33.8202 0.352753 33.4674 0 33.0337 0H18.8764C18.4426 0 18.0898 0.352753 18.0898 0.786517V1.57303C18.0898 2.0068 18.4426 2.35955 18.8764 2.35955Z" fill="black"/>
<path d="M19.2696 10.618C20.3539 10.618 21.2359 9.73593 21.2359 8.65172C21.2359 7.5675 20.3539 6.68542 19.2696 6.68542C18.1854 6.68542 17.3033 7.5675 17.3033 8.65172C17.3033 9.73593 18.1854 10.618 19.2696 10.618ZM18.2051 8.14323C18.0513 7.98947 18.0513 7.74093 18.2051 7.58717C18.3589 7.4334 18.6074 7.4334 18.7612 7.58717L19.2696 8.09565L19.7781 7.58717C19.9319 7.4334 20.1804 7.4334 20.3342 7.58717C20.488 7.74093 20.488 7.98947 20.3342 8.14323L19.8257 8.65172L20.3342 9.1602C20.488 9.31396 20.488 9.5625 20.3342 9.71627C20.2575 9.79295 20.1568 9.83149 20.0562 9.83149C19.9555 9.83149 19.8548 9.79295 19.7781 9.71627L19.2696 9.20778L18.7612 9.71627C18.6845 9.79295 18.5838 9.83149 18.4831 9.83149C18.3824 9.83149 18.2818 9.79295 18.2051 9.71627C18.0513 9.5625 18.0513 9.31396 18.2051 9.1602L18.7136 8.65172L18.2051 8.14323Z" fill="black"/>
<path d="M5.76949 13.4608C5.43719 13.2901 4.99556 13.3759 4.55747 13.6956L0.638652 16.8302C0.0491574 17.3037 0 17.7096 0 18.0529V29.1011C0 29.4924 0.0774719 29.9163 0.639438 30.3674C0.650449 30.3764 0.661067 30.3863 0.671292 30.3961L4.57831 34.3031C5.03096 34.6091 5.47219 34.6889 5.79073 34.521C6.10809 34.3538 6.29567 33.946 6.29174 33.4301V14.5505C6.29528 14.0365 6.10022 13.6303 5.76949 13.4608Z" fill="black"/>
<path d="M9.43816 16.9102H7.07861V31.0675H9.43816V16.9102Z" fill="black"/>
<path d="M10.2247 34.2135C10.2247 34.6473 10.5775 35 11.0112 35H30.098L31.4225 33.427H10.2247V34.2135Z" fill="black"/>
<path d="M36.9663 15.3371C38.0505 15.3371 38.9326 14.455 38.9326 13.3708C38.9326 12.2866 38.0505 11.4045 36.9663 11.4045C35.8821 11.4045 35 12.2866 35 13.3708C35 14.455 35.8821 15.3371 36.9663 15.3371ZM36.9663 12.1911C37.6167 12.1911 38.1461 12.7204 38.1461 13.3708C38.1461 14.0213 37.6167 14.5506 36.9663 14.5506C36.3158 14.5506 35.7865 14.0213 35.7865 13.3708C35.7865 12.7204 36.3158 12.1911 36.9663 12.1911Z" fill="black"/>
<path d="M41.2921 9.83141H37.3596C37.1425 9.83141 36.9663 9.65562 36.9663 9.43815V5.89882C36.9663 5.46506 36.6136 5.1123 36.1798 5.1123H16.1236C15.6898 5.1123 15.3371 5.46506 15.3371 5.89882V12.191C15.3371 12.4084 15.1609 12.5842 14.9438 12.5842H11.0112C10.5775 12.5842 10.2247 12.937 10.2247 13.3707V32.6404H32.0848L36.2722 27.6676C36.3469 27.5792 36.457 27.528 36.573 27.528H41.2921C41.7259 27.528 42.0787 27.1753 42.0787 26.7415V10.6179C42.0787 10.1842 41.7259 9.83141 41.2921 9.83141ZM19.2697 5.89882C20.7877 5.89882 22.0225 7.13405 22.0225 8.65163C22.0225 10.1692 20.7877 11.4044 19.2697 11.4044C17.7517 11.4044 16.5169 10.1692 16.5169 8.65163C16.5169 7.13405 17.7517 5.89882 19.2697 5.89882ZM31.4607 16.5168C31.4607 17.1672 30.9314 17.6966 30.2809 17.6966H29.4944V22.8089H30.2809C30.9314 22.8089 31.4607 23.3383 31.4607 23.9887C31.4607 24.6392 30.9314 25.1685 30.2809 25.1685H28.7079C27.8553 25.1685 27.1348 24.4634 27.1348 23.6285V17.6966H24.382V22.8089H25.1686C25.819 22.8089 26.3483 23.3383 26.3483 23.9887C26.3483 24.6392 25.819 25.1685 25.1686 25.1685H23.5955C22.7429 25.1685 22.0225 24.4634 22.0225 23.6285V17.6966H19.2697V22.8089H20.0562C20.7066 22.8089 21.236 23.3383 21.236 23.9887C21.236 24.6392 20.7066 25.1685 20.0562 25.1685H18.4832C17.6306 25.1685 16.9101 24.4634 16.9101 23.6285V17.6966H14.1573V22.8089H14.9438C15.5943 22.8089 16.1236 23.3383 16.1236 23.9887C16.1236 24.6392 15.5943 25.1685 14.9438 25.1685H13.3708C12.5182 25.1685 11.7978 24.4634 11.7978 23.6285V17.6242C11.3412 17.4614 11.0112 17.0288 11.0112 16.5168V15.337C11.0112 14.6866 11.5406 14.1572 12.191 14.1572H30.2809C30.9314 14.1572 31.4607 14.6866 31.4607 15.337V16.5168ZM30.2809 8.65163C30.2809 7.13405 31.5157 5.89882 33.0337 5.89882C34.5517 5.89882 35.7865 7.13405 35.7865 8.65163C35.7865 10.1692 34.5517 11.4044 33.0337 11.4044C31.5157 11.4044 30.2809 10.1692 30.2809 8.65163ZM36.9663 26.7415C34.5812 26.7415 32.6405 24.8008 32.6405 22.4157C32.6405 21.4817 32.9409 20.6181 33.4462 19.9102L34.4023 14.3653C34.2819 14.0566 34.2135 13.7219 34.2135 13.3707C34.2135 11.8531 35.4483 10.6179 36.9663 10.6179C38.4843 10.6179 39.7191 11.8531 39.7191 13.3707C39.7191 13.7219 39.6507 14.0566 39.5303 14.3653L40.4864 19.9102C40.9917 20.6181 41.2921 21.4817 41.2921 22.4157C41.2921 24.8008 39.3514 26.7415 36.9663 26.7415Z" fill="black"/>
<path d="M39.5193 18.9314L38.898 15.3284C38.4009 15.8195 37.7186 16.1235 36.9663 16.1235C36.214 16.1235 35.5317 15.8195 35.0342 15.3288L34.4128 18.9318C35.1298 18.4048 36.0106 18.0898 36.9663 18.0898C37.9219 18.0898 38.8028 18.4048 39.5193 18.9314Z" fill="black"/>
<path d="M36.9663 23.5955C37.6178 23.5955 38.146 23.0673 38.146 22.4157C38.146 21.7642 37.6178 21.236 36.9663 21.236C36.3147 21.236 35.7865 21.7642 35.7865 22.4157C35.7865 23.0673 36.3147 23.5955 36.9663 23.5955Z" fill="black"/>
<path d="M36.9663 18.8765C35.015 18.8765 33.427 20.464 33.427 22.4158C33.427 24.3675 35.015 25.9551 36.9663 25.9551C38.9177 25.9551 40.5057 24.3675 40.5057 22.4158C40.5057 20.464 38.9177 18.8765 36.9663 18.8765ZM36.9663 24.3821C35.8821 24.3821 35 23.5 35 22.4158C35 21.3316 35.8821 20.4495 36.9663 20.4495C38.0505 20.4495 38.9326 21.3316 38.9326 22.4158C38.9326 23.5 38.0505 24.3821 36.9663 24.3821Z" fill="black"/>
<path d="M44.8314 14.9438H42.8651V22.4158H44.8314V14.9438Z" fill="black"/>
<path d="M47.191 12.191H46.4044C45.9707 12.191 45.6179 12.5438 45.6179 12.9776V23.9888C45.6179 24.4226 45.9707 24.7753 46.4044 24.7753H47.191C47.6247 24.7753 47.9775 24.4226 47.9775 23.9888V12.9776C47.9775 12.5438 47.6247 12.191 47.191 12.191Z" fill="black"/>
<path d="M36.9663 13.7641C37.1834 13.7641 37.3595 13.588 37.3595 13.3708C37.3595 13.1536 37.1834 12.9775 36.9663 12.9775C36.7491 12.9775 36.573 13.1536 36.573 13.3708C36.573 13.588 36.7491 13.7641 36.9663 13.7641Z" fill="black"/>
</g>
<defs>
<clipPath id="clip0_1416_18076">
<rect width="47.9775" height="35" fill="white"/>
</clipPath>
</defs>
</svg>
