<svg width="154" height="160" viewBox="0 0 154 160" fill="none" xmlns="http://www.w3.org/2000/svg">
<path d="M134.614 128.084C144.577 116.848 151.036 102.945 153.198 88.0843C155.36 73.224 153.129 58.056 146.781 44.4473C140.432 30.8386 130.243 19.3832 117.467 11.4912C104.692 3.59925 89.8872 -0.384876 74.8763 0.029292C59.8654 0.44346 45.3031 5.23784 32.9821 13.8223C20.6611 22.4067 11.1191 34.4065 5.53067 48.3446C-0.0577572 62.2826 -1.44869 77.5506 1.52909 92.269C4.50688 106.987 11.7234 120.514 22.2903 131.184L23.3845 130.1C13.0289 119.644 5.95674 106.388 3.03851 91.9636C0.120287 77.5395 1.4834 62.577 6.96006 48.9177C12.4367 35.2584 21.7879 23.4986 33.8625 15.0858C45.9371 6.67309 60.2081 1.97459 74.9188 1.56871C89.6295 1.16282 104.138 5.06726 116.658 12.8014C129.178 20.5356 139.163 31.7619 145.385 45.0984C151.606 58.4349 153.793 73.2996 151.674 87.8626C149.556 102.426 143.225 116.051 133.462 127.063L134.614 128.084Z" fill="url(#paint0_linear_3818_41368)"/>
<path opacity="0.2" d="M131.621 125.431C141.066 114.778 147.19 101.597 149.24 87.5085C151.289 73.4202 149.174 59.0401 143.156 46.1384C137.137 33.2366 127.477 22.3763 115.365 14.8943C103.253 7.41228 89.2178 3.63512 74.9866 4.02777C60.7555 4.42042 46.9497 8.96575 35.2688 17.1042C23.5878 25.2427 14.5415 36.6192 9.24336 49.8331C3.94524 63.0471 2.62657 77.522 5.44966 91.4758C8.27275 105.43 15.1144 118.254 25.1324 128.369L35.5059 118.095C27.4915 110.003 22.0182 99.7437 19.7597 88.5806C17.5013 77.4176 18.5562 65.8377 22.7947 55.2665C27.0332 44.6953 34.2702 35.5942 43.615 29.0834C52.9598 22.5726 64.0044 18.9363 75.3893 18.6222C86.7742 18.3081 98.0025 21.3298 107.692 27.3154C117.382 33.301 125.11 41.9893 129.924 52.3107C134.739 62.6321 136.431 74.1362 134.792 85.4068C133.152 96.6774 128.253 107.223 120.697 115.745L131.621 125.431Z" fill="url(#paint1_linear_3818_41368)"/>
<rect x="75" y="11" width="4" height="8" fill="white"/>
<rect x="32.6562" y="115" width="4" height="13.447" transform="rotate(45 32.6562 115)" fill="white"/>
<path d="M66.42 119.2C66.42 118.027 66.7533 117.133 67.42 116.52C68.0867 115.893 68.96 115.58 70.04 115.58C71.1067 115.58 71.9667 115.893 72.62 116.52C73.2867 117.133 73.62 118.027 73.62 119.2C73.62 120.373 73.2867 121.267 72.62 121.88C71.9667 122.493 71.1067 122.8 70.04 122.8C68.96 122.8 68.0867 122.493 67.42 121.88C66.7533 121.267 66.42 120.373 66.42 119.2ZM81.24 115.78L73.78 130H69.54L77 115.78H81.24ZM70 118.16C69.5467 118.16 69.32 118.507 69.32 119.2C69.32 119.88 69.5467 120.22 70 120.22C70.24 120.22 70.42 120.133 70.54 119.96C70.6733 119.787 70.74 119.533 70.74 119.2C70.74 118.853 70.6733 118.593 70.54 118.42C70.42 118.247 70.24 118.16 70 118.16ZM77.16 126.58C77.16 125.407 77.4933 124.513 78.16 123.9C78.8267 123.273 79.6933 122.96 80.76 122.96C81.84 122.96 82.7067 123.273 83.36 123.9C84.0133 124.513 84.34 125.407 84.34 126.58C84.34 127.753 84.0133 128.653 83.36 129.28C82.7067 129.893 81.84 130.2 80.76 130.2C79.6933 130.2 78.8267 129.893 78.16 129.28C77.4933 128.653 77.16 127.753 77.16 126.58ZM80.74 125.54C80.2733 125.54 80.04 125.887 80.04 126.58C80.04 127.273 80.2733 127.62 80.74 127.62C80.9667 127.62 81.14 127.533 81.26 127.36C81.3933 127.187 81.46 126.927 81.46 126.58C81.46 126.247 81.3933 125.993 81.26 125.82C81.14 125.633 80.9667 125.54 80.74 125.54Z" fill="#898989"/>
<path d="M35.64 144.48C35.64 142.173 36.1267 140.36 37.1 139.04C38.0867 137.72 39.6 137.06 41.64 137.06C43.6667 137.06 45.1733 137.727 46.16 139.06C47.1467 140.38 47.64 142.187 47.64 144.48C47.64 146.787 47.1467 148.607 46.16 149.94C45.1733 151.26 43.6667 151.92 41.64 151.92C39.6 151.92 38.0867 151.26 37.1 149.94C36.1267 148.607 35.64 146.787 35.64 144.48ZM43.26 144.48C43.26 143.413 43.1533 142.613 42.94 142.08C42.7267 141.533 42.2933 141.26 41.64 141.26C40.9733 141.26 40.5333 141.533 40.32 142.08C40.1067 142.613 40 143.413 40 144.48C40 145.56 40.1067 146.373 40.32 146.92C40.5333 147.453 40.9733 147.72 41.64 147.72C42.2933 147.72 42.7267 147.453 42.94 146.92C43.1533 146.373 43.26 145.56 43.26 144.48Z" fill="#D5D5D5"/>
<path d="M91.2 141.54V137.38H97.98V152H93.32V141.54H91.2ZM99.6283 144.48C99.6283 142.173 100.115 140.36 101.088 139.04C102.075 137.72 103.588 137.06 105.628 137.06C107.655 137.06 109.162 137.727 110.148 139.06C111.135 140.38 111.628 142.187 111.628 144.48C111.628 146.787 111.135 148.607 110.148 149.94C109.162 151.26 107.655 151.92 105.628 151.92C103.588 151.92 102.075 151.26 101.088 149.94C100.115 148.607 99.6283 146.787 99.6283 144.48ZM107.248 144.48C107.248 143.413 107.142 142.613 106.928 142.08C106.715 141.533 106.282 141.26 105.628 141.26C104.962 141.26 104.522 141.533 104.308 142.08C104.095 142.613 103.988 143.413 103.988 144.48C103.988 145.56 104.095 146.373 104.308 146.92C104.522 147.453 104.962 147.72 105.628 147.72C106.282 147.72 106.715 147.453 106.928 146.92C107.142 146.373 107.248 145.56 107.248 144.48ZM112.87 144.48C112.87 142.173 113.357 140.36 114.33 139.04C115.317 137.72 116.83 137.06 118.87 137.06C120.897 137.06 122.404 137.727 123.39 139.06C124.377 140.38 124.87 142.187 124.87 144.48C124.87 146.787 124.377 148.607 123.39 149.94C122.404 151.26 120.897 151.92 118.87 151.92C116.83 151.92 115.317 151.26 114.33 149.94C113.357 148.607 112.87 146.787 112.87 144.48ZM120.49 144.48C120.49 143.413 120.384 142.613 120.17 142.08C119.957 141.533 119.524 141.26 118.87 141.26C118.204 141.26 117.764 141.533 117.55 142.08C117.337 142.613 117.23 143.413 117.23 144.48C117.23 145.56 117.337 146.373 117.55 146.92C117.764 147.453 118.204 147.72 118.87 147.72C119.524 147.72 119.957 147.453 120.17 146.92C120.384 146.373 120.49 145.56 120.49 144.48Z" fill="#D5D5D5"/>
<defs>
<linearGradient id="paint0_linear_3818_41368" x1="50.5703" y1="-0.292685" x2="169.878" y2="5.70375" gradientUnits="userSpaceOnUse">
<stop stop-color="#1C5FE2"/>
<stop offset="1" stop-color="#0FC2EB"/>
</linearGradient>
<linearGradient id="paint1_linear_3818_41368" x1="51.9432" y1="3.72252" x2="165.054" y2="9.40745" gradientUnits="userSpaceOnUse">
<stop stop-color="#1C5FE2"/>
<stop offset="1" stop-color="#0FC2EB"/>
</linearGradient>
</defs>
</svg>
