<svg width="47" height="35" viewBox="0 0 47 35" fill="none" xmlns="http://www.w3.org/2000/svg">
<g clip-path="url(#clip0_1416_18239)">
<path fill-rule="evenodd" clip-rule="evenodd" d="M41.7635 16.4348C42.5244 17.5 42.9809 18.8696 42.9809 20.087C42.9809 24.3478 42.9809 28.4565 42.9809 32.7174C42.9809 34.087 41.9157 35 40.5462 35H35.6766C34.4592 35 33.5462 34.087 33.5462 32.7174V30.1304H11.7853V32.7174C11.7853 34.087 10.7201 35 9.50268 35H4.63311C3.26355 35 2.35051 34.087 2.35051 32.7174C2.35051 28.4565 2.35051 24.3478 2.35051 20.087C2.35051 18.8696 2.9592 17.5 3.5679 16.4348L1.58964 16.1304C-0.845146 15.8261 -0.692972 8.97826 4.93746 12.4783C6.4592 7.15217 7.22007 0 14.2201 0H31.1114C38.2635 0 39.0244 7.15217 40.2418 12.4783C46.0244 8.97826 46.1766 15.8261 43.7418 16.1304L41.7635 16.4348ZM38.5679 19.3261C35.6766 19.3261 25.0244 25.2609 38.4157 23.587C41.1549 23.2826 40.6983 19.1739 38.5679 19.3261ZM6.76355 19.3261C9.50268 19.3261 20.4592 25.2609 6.91572 23.587C4.17659 23.2826 4.48094 19.1739 6.76355 19.3261ZM7.98094 13.3913C8.89398 9.43478 9.50268 3.19565 14.2201 3.19565H31.1114C35.8288 3.19565 36.4375 9.8913 37.3505 13.3913C27.4592 15.5217 17.7201 15.5217 7.98094 13.3913Z" fill="black"/>
</g>
<defs>
<clipPath id="clip0_1416_18239">
<rect width="46" height="35" fill="white" transform="translate(0.0927734)"/>
</clipPath>
</defs>
</svg>
