<svg width="52" height="66" viewBox="0 0 52 66" fill="none" xmlns="http://www.w3.org/2000/svg">
<path d="M31.2284 41.0898H14.7148V44.5711H31.2284V41.0898Z" fill="white"/>
<path d="M38.7108 34.6392H14.7148V38.1226H38.7108V34.6392Z" fill="white"/>
<path d="M38.3232 14.192H49.4174L38.3232 3.09717V14.192Z" fill="#1C5FE2"/>
<path d="M38.7108 27.478H14.7148V30.9622H38.7108V27.478Z" fill="white"/>
<path d="M40.645 0H8.13477V56.7636H51.9994V11.6097L40.645 0ZM31.228 44.5709H14.7151V41.0897H31.228V44.5709ZM38.7111 38.1233H14.7151V34.6398H38.7111V38.1233ZM38.7111 30.9628H14.7151V27.4787H38.7111V30.9628ZM38.3225 14.1918V3.09694L49.4173 14.1918H38.3225Z" fill="#1C5FE2"/>
<path d="M5.04603 6.00684H0V60.0817V63.2432V65.2597H47.3002V60.0817H5.04603V6.00684Z" fill="#1C5FE2"/>
</svg>
