<svg width="30" height="83" viewBox="0 0 30 83" fill="none" xmlns="http://www.w3.org/2000/svg">
<line x1="15" y1="25" x2="15" y2="58" stroke="#808080" stroke-width="4" stroke-dasharray="5 5"/>
<circle cx="15" cy="15" r="15" fill="#013351"/>
<path d="M14.0683 21.7534V20.4677C12.729 20.3177 11.5799 19.7632 10.621 18.8043C9.66205 17.8453 9.10759 16.6962 8.95759 15.3569H7.67188V14.0712H8.95759C9.10759 12.7319 9.66205 11.5828 10.621 10.6239C11.5799 9.66498 12.729 9.11052 14.0683 8.96052V7.6748H15.354V8.96052C16.6933 9.11052 17.8424 9.66498 18.8013 10.6239C19.7603 11.5828 20.3147 12.7319 20.4647 14.0712H21.7504V15.3569H20.4647C20.3147 16.6962 19.7603 17.8453 18.8013 18.8043C17.8424 19.7632 16.6933 20.3177 15.354 20.4677V21.7534H14.0683ZM14.7112 19.2141C15.954 19.2141 17.0147 18.7748 17.8933 17.8962C18.7719 17.0177 19.2112 15.9569 19.2112 14.7141C19.2112 13.4712 18.7719 12.4105 17.8933 11.5319C17.0147 10.6534 15.954 10.2141 14.7112 10.2141C13.4683 10.2141 12.4076 10.6534 11.529 11.5319C10.6504 12.4105 10.2112 13.4712 10.2112 14.7141C10.2112 15.9569 10.6504 17.0177 11.529 17.8962C12.4076 18.7748 13.4683 19.2141 14.7112 19.2141ZM14.7112 17.2855C14.004 17.2855 13.3987 17.0337 12.8951 16.5302C12.3915 16.0266 12.1397 15.4212 12.1397 14.7141C12.1397 14.0069 12.3915 13.4016 12.8951 12.898C13.3987 12.3944 14.004 12.1427 14.7112 12.1427C15.4183 12.1427 16.0237 12.3944 16.5272 12.898C17.0308 13.4016 17.2826 14.0069 17.2826 14.7141C17.2826 15.4212 17.0308 16.0266 16.5272 16.5302C16.0237 17.0337 15.4183 17.2855 14.7112 17.2855ZM14.7112 15.9998C15.0647 15.9998 15.3674 15.8739 15.6192 15.6221C15.871 15.3703 15.9969 15.0677 15.9969 14.7141C15.9969 14.3605 15.871 14.0578 15.6192 13.8061C15.3674 13.5543 15.0647 13.4284 14.7112 13.4284C14.3576 13.4284 14.0549 13.5543 13.8031 13.8061C13.5513 14.0578 13.4254 14.3605 13.4254 14.7141C13.4254 15.0677 13.5513 15.3703 13.8031 15.6221C14.0549 15.8739 14.3576 15.9998 14.7112 15.9998Z" fill="white"/>
<circle cx="15" cy="68" r="15" fill="#34C759"/>
<g clip-path="url(#clip0_11749_33066)">
<path d="M14.4577 68.1869H8.942V74.5567C8.94149 74.7027 8.87359 74.8426 8.75314 74.9459C8.6327 75.0491 8.46948 75.1073 8.29914 75.1077C8.21448 75.1085 8.13051 75.0947 8.05214 75.0673C7.97376 75.0398 7.90256 74.9993 7.84269 74.948C7.78283 74.8967 7.73551 74.8356 7.7035 74.7684C7.67149 74.7013 7.65544 74.6293 7.65628 74.5567V61.9714C7.65594 61.7543 7.7056 61.5392 7.8024 61.3385C7.8992 61.1378 8.04124 60.9554 8.22039 60.8019C8.39954 60.6483 8.61228 60.5266 8.84642 60.4436C9.08056 60.3606 9.33149 60.3181 9.58485 60.3184H14.4577C14.9687 60.3196 15.4584 60.4942 15.8198 60.8039C16.1811 61.1137 16.3848 61.5334 16.3863 61.9714V66.5339C16.3848 66.9719 16.1811 67.3916 15.8198 67.7013C15.4584 68.0111 14.9687 68.1857 14.4577 68.1869ZM19.8449 62.2249H17.672V66.5339C17.6717 67.2645 17.3329 67.9651 16.7302 68.4817C16.1275 68.9984 15.3101 69.2887 14.4577 69.289H13.3263C13.4954 69.5341 13.7361 69.7372 14.0247 69.8782C14.3133 70.0193 14.6398 70.0935 14.972 70.0935H19.8449C20.0988 70.0956 20.3507 70.0543 20.5858 69.972C20.821 69.8897 21.0346 69.768 21.2142 69.6141C21.3937 69.4602 21.5357 69.2771 21.6317 69.0755C21.7278 68.874 21.7759 68.6581 21.7734 68.4404V63.878C21.7738 63.6608 21.7241 63.4457 21.6273 63.245C21.5305 63.0443 21.3885 62.862 21.2093 62.7084C21.0302 62.5549 20.8174 62.4331 20.5833 62.3501C20.3491 62.2672 20.0982 62.2246 19.8449 62.2249Z" fill="white"/>
</g>
<defs>
<clipPath id="clip0_11749_33066">
<rect width="15.4286" height="15.4286" fill="white" transform="translate(7 60)"/>
</clipPath>
</defs>
</svg>
