<svg width="122" height="52" viewBox="0 0 122 52" fill="none" xmlns="http://www.w3.org/2000/svg">
<g clip-path="url(#clip0_4265_54240)">
<rect x="22" width="77" height="52" rx="10" fill="#E2E2E2" fill-opacity="0.1"/>
<path d="M56.623 33.6032C56.623 32.1348 57.3406 30.8377 58.4387 30.0318C58.4387 27.2815 58.4387 12.7789 58.4387 11.8439C58.4387 10.3997 59.6088 9.23047 61.053 9.23047C62.4968 9.23047 63.6664 10.3997 63.6664 11.8439C63.6664 11.9873 63.6664 12.4443 63.6664 13.1249C63.6779 13.1245 63.6882 13.1216 63.7005 13.1216H66.7331C67.0003 13.1216 67.2181 13.3296 67.2181 13.586V14.9205C67.2181 15.1765 67.0007 15.3841 66.7331 15.3841H63.7005C63.6882 15.3841 63.6779 15.382 63.6664 15.3812C63.6664 16.3441 63.6664 17.4398 63.6664 18.5926C63.6779 18.5922 63.6882 18.5893 63.7005 18.5893H66.7331C67.0003 18.5893 67.2181 18.7972 67.2181 19.0541V20.3877C67.2181 20.6442 67.0007 20.8521 66.7331 20.8521H63.7005C63.6882 20.8521 63.6779 20.8493 63.6664 20.8489C63.6664 21.933 63.6664 23.0217 63.6664 24.0611C63.6779 24.0598 63.6882 24.0582 63.7005 24.0582H66.7331C67.0003 24.0582 67.2181 24.2657 67.2181 24.5218V25.8562C67.2181 26.1123 67.0007 26.3194 66.7331 26.3194H63.7005C63.6882 26.3194 63.6779 26.3178 63.6664 26.3161C63.6664 27.9654 63.6664 29.3109 63.6664 30.0318C64.7658 30.8381 65.4829 32.1348 65.4829 33.6032C65.4829 36.0489 63.4987 38.0315 61.0534 38.0315C58.6068 38.0315 56.623 36.0489 56.623 33.6032ZM66.2132 31.1817C66.5293 31.8869 66.7068 32.6666 66.7068 33.4889C66.7068 33.5522 66.7048 33.6159 66.7023 33.68C67.4647 33.5046 68.3918 33.671 69.4707 34.6721C71.745 36.7846 74.5869 36.8117 77.2669 34.7486C78.9795 33.4285 79.8791 33.47 79.8873 33.47C79.8278 33.4663 79.7986 33.4556 79.7986 33.4556L80.3279 30.9581C79.9005 30.8681 78.3042 30.728 75.7089 32.7257C73.9988 34.0425 72.569 34.0668 71.2066 32.8018C69.6498 31.3551 67.9155 30.8147 66.2132 31.1817ZM42.0912 33.4696C42.099 33.4696 42.9987 33.4281 44.7108 34.7482C47.3904 36.8117 50.2323 36.7842 52.5075 34.6717C53.6722 33.5904 54.661 33.484 55.4571 33.7281C55.4538 33.6484 55.4509 33.5691 55.4509 33.4885C55.4509 32.6797 55.6223 31.9112 55.9297 31.217C54.1757 30.7769 52.3789 31.307 50.7711 32.801C49.4091 34.066 47.9785 34.0421 46.268 32.7249C43.6731 30.7276 42.0777 30.8673 41.6502 30.9573L42.1796 33.4548C42.1796 33.4548 42.15 33.4663 42.0912 33.4696ZM75.7089 39.2237C73.9988 40.5397 72.569 40.5639 71.2066 39.2989C68.883 37.1401 66.1652 36.988 63.749 38.8818C62.6936 39.7099 61.891 40.2245 61.1586 40.2343C61.0998 40.2364 61.0439 40.2417 60.9889 40.25C60.933 40.2413 60.8767 40.2364 60.8187 40.2343C60.0868 40.2245 59.2841 39.7099 58.2275 38.8818C55.8126 36.988 53.0948 37.1401 50.7703 39.2989C49.4083 40.5639 47.9777 40.5401 46.2672 39.2237C43.6723 37.2256 42.0768 37.3657 41.6494 37.4565L42.1788 39.9528C42.1788 39.9528 42.1496 39.9635 42.0908 39.9672C42.0986 39.9672 42.9982 39.9277 44.7104 41.2458C47.39 43.3093 50.2319 43.2826 52.5071 41.1693C54.354 39.4543 55.7579 40.1887 56.6534 40.8903C57.8621 41.838 59.1773 42.7651 60.7846 42.7869C60.7908 42.7869 60.7961 42.7869 60.8023 42.7869C60.8656 42.7869 60.9268 42.7779 60.9885 42.7676C61.0497 42.7775 61.1109 42.7869 61.1742 42.7869C61.1808 42.7869 61.1861 42.7869 61.1923 42.7869C62.7992 42.7647 64.1148 41.8376 65.3235 40.8903C66.219 40.1887 67.6225 39.4543 69.4698 41.1693C71.7442 43.2818 74.5861 43.3089 77.2661 41.2458C78.9787 39.9257 79.8783 39.9672 79.8865 39.9672C79.8269 39.9635 79.7977 39.9528 79.7977 39.9528L80.3271 37.4565C79.9009 37.3657 78.3047 37.2256 75.7089 39.2237Z" fill="#FF0000"/>
</g>
<path d="M122 24L108.5 31.7942L108.5 16.2058L122 24Z" fill="#D9D9D9"/>
<path d="M3.93402e-07 24L13.5 31.7942L13.5 16.2058L3.93402e-07 24Z" fill="#D9D9D9"/>
<defs>
<clipPath id="clip0_4265_54240">
<rect x="22" width="77" height="52" rx="10" fill="white"/>
</clipPath>
</defs>
</svg>
