<svg width="34" height="35" viewBox="0 0 34 35" fill="none" xmlns="http://www.w3.org/2000/svg">
<path fill-rule="evenodd" clip-rule="evenodd" d="M4.05328 31.3411H20.8513V14.2438H22.6058C22.7211 14.2438 22.8418 14.2735 22.9129 14.3418C22.9468 14.374 22.97 14.4381 22.97 14.5464V28.1031C22.97 31.8488 28.5859 31.9352 28.5859 27.8604C28.5859 20.8754 28.5619 13.9023 28.5619 6.94168L32.5407 2.07857C33.3258 1.43244 32.3427 0.237336 31.5577 0.883049L25.5404 5.85157C25.2982 6.05083 25.208 6.36666 25.2849 6.65107V10.7035C25.2849 10.9598 25.4945 11.1694 25.7508 11.1694H26.6442V27.8604C26.6442 29.3569 24.9116 29.292 24.9116 28.1031V14.5464C24.9116 13.8445 24.6434 13.3153 24.2482 12.9383C23.7843 12.496 23.1552 12.3017 22.6058 12.3017H20.8513V6.5812C20.8513 4.65895 19.2784 3.086 17.3557 3.086H7.5522C5.62787 3.086 4.05328 4.66019 4.05328 6.58451V31.3411ZM1.62585 32.2882H23.2788V34.3027H1.62585V32.2882ZM6.38396 6.50845H18.5211V11.7585H6.38396V6.50845ZM9.86718 24.3664H15.0374V25.8472H9.86718V24.3664ZM9.86718 20.6443H15.0374V22.1251H9.86718V20.6443Z" fill="black"/>
</svg>
