<svg width="78" height="61" viewBox="0 0 78 61" fill="none" xmlns="http://www.w3.org/2000/svg">
<path d="M39.8858 33.1849L28.1418 46.5419L20.0788 38.1469L19.9268 37.7489L6.56982 53.3329H53.3118L39.8858 33.1849Z" fill="white"/>
<path d="M13.6768 32.3329C15.9567 32.3329 17.8048 30.4847 17.8048 28.2049C17.8048 25.9251 15.9567 24.0769 13.6768 24.0769C11.397 24.0769 9.54883 25.9251 9.54883 28.2049C9.54883 30.4847 11.397 32.3329 13.6768 32.3329Z" fill="white"/>
<path d="M0 14.2051V60.5381H60.942V14.2051H0ZM56.698 56.9521H4.244V17.7911H56.698V56.9521Z" fill="white"/>
<path d="M8.19824 7V12.23H12.4422V10.586H64.8962V49.747H62.9792V53.333H69.1402V7H8.19824Z" fill="white"/>
<path d="M16.2378 0V5.23H20.4818V3.587H72.9358V42.747H71.0188V46.333H77.1798V0H16.2378Z" fill="white"/>
</svg>
