<svg width="20" height="20" viewBox="0 0 20 20" fill="none" xmlns="http://www.w3.org/2000/svg">
<path d="M14.9997 8.33333C14.7787 8.33333 14.5667 8.24554 14.4104 8.08926C14.2541 7.93297 14.1663 7.72101 14.1663 7.5C14.1663 7.27899 14.2541 7.06702 14.4104 6.91074C14.5667 6.75446 14.7787 6.66667 14.9997 6.66667C15.2207 6.66667 15.4327 6.75446 15.5889 6.91074C15.7452 7.06702 15.833 7.27899 15.833 7.5C15.833 7.72101 15.7452 7.93297 15.5889 8.08926C15.4327 8.24554 15.2207 8.33333 14.9997 8.33333ZM9.99967 8.33333H4.99967V4.16667H9.99967M16.4747 6.025L16.483 6.01667L13.383 2.91667L12.4997 3.8L14.258 5.55833C13.4747 5.83333 12.9163 6.60833 12.9163 7.5C12.9163 7.77359 12.9702 8.0445 13.0749 8.29726C13.1796 8.55002 13.3331 8.77968 13.5265 8.97314C13.9172 9.36384 14.4471 9.58333 14.9997 9.58333C15.2997 9.58333 15.5747 9.51667 15.833 9.40833V15.4167C15.833 15.6377 15.7452 15.8496 15.5889 16.0059C15.4327 16.1622 15.2207 16.25 14.9997 16.25C14.7787 16.25 14.5667 16.1622 14.4104 16.0059C14.2541 15.8496 14.1663 15.6377 14.1663 15.4167V11.6667C14.1663 10.7417 13.4163 10 12.4997 10H11.6663V4.16667C11.6663 3.24167 10.9163 2.5 9.99967 2.5H4.99967C4.07467 2.5 3.33301 3.24167 3.33301 4.16667V17.5H11.6663V11.25H12.9163V15.4167C12.9163 15.9692 13.1358 16.4991 13.5265 16.8898C13.9172 17.2805 14.4471 17.5 14.9997 17.5C15.2733 17.5 15.5442 17.4461 15.7969 17.3414C16.0497 17.2367 16.2794 17.0833 16.4728 16.8898C16.6663 16.6964 16.8197 16.4667 16.9244 16.2139C17.0291 15.9612 17.083 15.6903 17.083 15.4167V7.5C17.083 6.925 16.8497 6.4 16.4747 6.025Z" fill="white"/>
</svg>
