<svg width="55" height="55" viewBox="0 0 55 55" fill="none" xmlns="http://www.w3.org/2000/svg">
<path fill-rule="evenodd" clip-rule="evenodd" d="M0 29.8375L3.66523 28.6172H0V26.1723H2.44492L3.66523 24.952H1.22031L6.11016 20.0621L19.5551 17.6172H30.5551L42.7797 22.507H37.8898L30.5551 18.8375H19.5551L11 21.2824V22.5027L22 23.723L20.7797 20.0621H22L24.4449 23.7273H47.648L55 27.3969L52.5551 28.6172L53.7754 29.8375H55V32.2824L53.7797 33.5156V34.7359H49.6805C49.996 33.9152 50.1071 33.03 50.0041 32.1568C49.9011 31.2835 49.5871 30.4484 49.0893 29.7236C48.5914 28.9989 47.9247 28.4061 47.1466 27.9966C46.3684 27.5871 45.5024 27.3731 44.623 27.3731C43.7437 27.3731 42.8776 27.5871 42.0995 27.9966C41.3214 28.4061 40.6547 28.9989 40.1568 29.7236C39.659 30.4484 39.345 31.2835 39.242 32.1568C39.139 33.03 39.2501 33.9152 39.5656 34.7359H14.502C14.8175 33.9152 14.9286 33.03 14.8256 32.1568C14.7226 31.2835 14.4086 30.4484 13.9108 29.7236C13.4129 28.9989 12.7462 28.4061 11.968 27.9966C11.1899 27.5871 10.3238 27.3731 9.44453 27.3731C8.56523 27.3731 7.69913 27.5871 6.92102 27.9966C6.1429 28.4061 5.47614 28.9989 4.97829 29.7236C4.48044 30.4484 4.16647 31.2835 4.06347 32.1568C3.96047 33.03 4.07155 33.9152 4.38711 34.7359H3.66523L1.22031 33.5156L0 29.8375ZM44.623 28.5871C45.4537 28.5865 46.2659 28.8326 46.9565 29.2941C47.6471 29.7557 48.1851 30.412 48.5023 31.1798C48.8194 31.9475 48.9014 32.7922 48.7379 33.6066C48.5743 34.421 48.1726 35.1685 47.5836 35.7543H53.0492V36.9746H1.71875V35.7586H6.48828C5.89979 35.1729 5.4984 34.4257 5.33497 33.6116C5.17154 32.7976 5.25343 31.9533 5.57026 31.1859C5.88709 30.4184 6.4246 29.7622 7.11469 29.3006C7.80478 28.8389 8.61639 28.5924 9.44668 28.5924C10.277 28.5924 11.0886 28.8389 11.7787 29.3006C12.4688 29.7622 13.0063 30.4184 13.3231 31.1859C13.6399 31.9533 13.7218 32.7976 13.5584 33.6116C13.395 34.4257 12.9936 35.1729 12.4051 35.7586H41.6797C41.0907 35.1728 40.689 34.4253 40.5254 33.6109C40.3619 32.7965 40.4439 31.9518 40.761 31.1841C41.0781 30.4163 41.6161 29.76 42.3068 29.2984C42.9974 28.8369 43.8096 28.5908 44.6402 28.5914L44.623 28.5871ZM44.623 31.6422C44.3978 31.6422 44.1777 31.709 43.9904 31.8341C43.8032 31.9592 43.6572 32.137 43.5711 32.3451C43.4849 32.5532 43.4623 32.7821 43.5063 33.003C43.5502 33.2239 43.6586 33.4268 43.8179 33.586C43.9771 33.7453 44.18 33.8537 44.4009 33.8977C44.6218 33.9416 44.8507 33.919 45.0588 33.8329C45.2669 33.7467 45.4447 33.6007 45.5698 33.4135C45.6949 33.2262 45.7617 33.0061 45.7617 32.7809C45.7617 32.4789 45.6418 32.1892 45.4282 31.9757C45.2147 31.7622 44.925 31.6422 44.623 31.6422ZM44.623 30.4219C44.1556 30.4219 43.6987 30.5605 43.3101 30.8202C42.9214 31.0798 42.6185 31.4489 42.4397 31.8808C42.2608 32.3126 42.214 32.7878 42.3052 33.2462C42.3964 33.7046 42.6214 34.1257 42.952 34.4562C43.2825 34.7868 43.7036 35.0118 44.162 35.103C44.6204 35.1942 45.0956 35.1474 45.5274 34.9685C45.9593 34.7897 46.3284 34.4868 46.588 34.0981C46.8477 33.7095 46.9863 33.2526 46.9863 32.7852C46.9863 32.1584 46.7373 31.5573 46.2941 31.1141C45.8509 30.6709 45.2498 30.4219 44.623 30.4219ZM9.45312 31.6465C9.22792 31.6465 9.00777 31.7133 8.82051 31.8384C8.63326 31.9635 8.48731 32.1413 8.40113 32.3494C8.31495 32.5575 8.2924 32.7864 8.33633 33.0073C8.38027 33.2282 8.48872 33.4311 8.64796 33.5903C8.80721 33.7496 9.0101 33.858 9.23098 33.9019C9.45186 33.9459 9.68081 33.9233 9.88888 33.8372C10.0969 33.751 10.2748 33.605 10.3999 33.4178C10.525 33.2305 10.5918 33.0104 10.5918 32.7852C10.5918 32.4832 10.4718 32.1935 10.2583 31.98C10.0447 31.7665 9.75512 31.6465 9.45312 31.6465ZM9.45312 30.4262C8.98571 30.4262 8.5288 30.5648 8.14016 30.8245C7.75152 31.0841 7.44861 31.4532 7.26974 31.8851C7.09087 32.3169 7.04407 32.7921 7.13525 33.2505C7.22644 33.7089 7.45152 34.13 7.78203 34.4605C8.11254 34.7911 8.53364 35.0161 8.99207 35.1073C9.4505 35.1985 9.92568 35.1517 10.3575 34.9728C10.7893 34.794 11.1584 34.4911 11.4181 34.1024C11.6778 33.7138 11.8164 33.2569 11.8164 32.7895C11.817 32.4787 11.7563 32.171 11.6377 31.8837C11.5192 31.5965 11.3452 31.3355 11.1257 31.1156C10.9062 30.8957 10.6455 30.7212 10.3585 30.6022C10.0715 30.4831 9.76384 30.4219 9.45312 30.4219V30.4262Z" fill="#565F64"/>
</svg>
