<svg width="31" height="30" viewBox="0 0 31 30" fill="none" xmlns="http://www.w3.org/2000/svg">
<g clip-path="url(#clip0_1865_9839)">
<path d="M0.5 18.5742C0.5 18.9648 0.563477 19.3018 0.69043 19.585C0.817383 19.8682 1.07617 20.0098 1.4668 20.0098C1.85742 20.0098 2.12109 19.8682 2.25781 19.585C2.39453 19.3018 2.46289 18.9648 2.46289 18.5742C2.46289 16.8359 2.79492 15.1855 3.45898 13.623C4.14258 12.0605 5.0752 10.6787 6.25684 9.47754C7.43848 8.27637 8.82031 7.32422 10.4023 6.62109C12.0039 5.91797 13.7031 5.56641 15.5 5.56641C17.2969 5.56641 18.9961 5.9082 20.5977 6.5918C22.1797 7.27539 23.5615 8.20801 24.7432 9.38965C25.9248 10.5713 26.8574 11.9531 27.541 13.5352C28.2051 15.0977 28.5371 16.7773 28.5371 18.5742C28.5371 18.9648 28.6152 19.3018 28.7715 19.585C28.9277 19.8682 29.2012 20.0098 29.5918 20.0098C29.9824 20.0098 30.2314 19.8682 30.3389 19.585C30.4463 19.3018 30.5 18.9648 30.5 18.5742C30.5 16.5234 30.1094 14.5898 29.3281 12.7734C28.5273 10.957 27.4482 9.37012 26.0908 8.0127C24.7334 6.65527 23.1465 5.58594 21.3301 4.80469C19.5137 4.02344 17.5703 3.63281 15.5 3.63281C13.4297 3.63281 11.4863 4.02344 9.66992 4.80469C7.85352 5.58594 6.2666 6.65527 4.90918 8.0127C3.55176 9.37012 2.47266 10.957 1.67188 12.7734C0.890625 14.5898 0.5 16.5234 0.5 18.5742ZM19.0449 8.20312C18.8496 8.14453 18.6641 8.16895 18.4883 8.27637C18.3125 8.38379 18.1953 8.52539 18.1367 8.70117L15.207 19.2773C15.168 19.2773 15.1338 19.2773 15.1045 19.2773C15.0752 19.2773 15.0508 19.2773 15.0312 19.2773C14.3281 19.2773 13.6885 19.4531 13.1123 19.8047C12.5361 20.1562 12.0918 20.6348 11.7793 21.2402C11.3496 22.1191 11.291 23.0225 11.6035 23.9502C11.916 24.8779 12.5215 25.5566 13.4199 25.9863C13.6738 26.123 13.9326 26.2207 14.1963 26.2793C14.46 26.3379 14.7383 26.3672 15.0312 26.3672C15.7148 26.3672 16.3496 26.1914 16.9355 25.8398C17.5215 25.4883 17.9609 25.0098 18.2539 24.4043C18.7031 23.5254 18.7666 22.6221 18.4443 21.6943C18.1221 20.7666 17.5215 20.0879 16.6426 19.6582C16.6426 19.6582 16.6377 19.6533 16.6279 19.6436C16.6182 19.6338 16.6133 19.6289 16.6133 19.6289L19.5723 9.08203C19.6113 8.90625 19.582 8.73047 19.4844 8.55469C19.3867 8.37891 19.2402 8.26172 19.0449 8.20312ZM16.6719 23.5254C16.5156 23.8379 16.291 24.0869 15.998 24.2725C15.7051 24.458 15.3828 24.5508 15.0312 24.5508C14.8945 24.5508 14.7578 24.5361 14.6211 24.5068C14.4844 24.4775 14.3574 24.4238 14.2402 24.3457C13.791 24.1309 13.4834 23.7842 13.3174 23.3057C13.1514 22.8271 13.1855 22.3633 13.4199 21.9141C13.5762 21.6016 13.8008 21.3574 14.0938 21.1816C14.3867 21.0059 14.709 20.918 15.0605 20.918C15.1973 20.918 15.334 20.9326 15.4707 20.9619C15.6074 20.9912 15.7344 21.0352 15.8516 21.0938C16.3008 21.3281 16.6035 21.6797 16.7598 22.1484C16.916 22.6172 16.8867 23.0762 16.6719 23.5254Z" fill="black"/>
</g>
<defs>
<clipPath id="clip0_1865_9839">
<rect width="30" height="30" fill="white" transform="matrix(1 0 0 -1 0.5 30)"/>
</clipPath>
</defs>
</svg>
