<svg width="31" height="30" viewBox="0 0 31 30" fill="none" xmlns="http://www.w3.org/2000/svg">
<path d="M19.7051 12.0117C20.5449 12.0117 21.3262 11.8457 22.0488 11.5137C22.7715 11.2012 23.4062 10.7764 23.9531 10.2393C24.5 9.70215 24.9297 9.0625 25.2422 8.32031C25.5547 7.59766 25.7109 6.82617 25.7109 6.00586C25.7109 5.16602 25.5547 4.38477 25.2422 3.66211C24.9297 2.93945 24.5 2.30469 23.9531 1.75781C23.4062 1.21094 22.7715 0.78125 22.0488 0.46875C21.3262 0.15625 20.5449 0 19.7051 0C18.8848 0 18.1133 0.15625 17.3906 0.46875C16.6484 0.78125 16.0088 1.21094 15.4717 1.75781C14.9346 2.30469 14.5098 2.93945 14.1973 3.66211C13.8848 4.38477 13.7285 5.16602 13.7285 6.00586C13.7285 6.82617 13.8848 7.59766 14.1973 8.32031C14.5098 9.0625 14.9346 9.70215 15.4717 10.2393C16.0088 10.7764 16.6484 11.2012 17.3906 11.5137C18.1133 11.8457 18.8848 12.0117 19.7051 12.0117ZM19.7051 1.20117C21.0332 1.20117 22.166 1.66992 23.1035 2.60742C24.041 3.54492 24.5098 4.67773 24.5098 6.00586C24.5098 7.33398 24.041 8.4668 23.1035 9.4043C22.166 10.3418 21.0332 10.8105 19.7051 10.8105C18.3965 10.8105 17.2734 10.3418 16.3359 9.4043C15.3984 8.4668 14.9297 7.33398 14.9297 6.00586C14.9297 4.67773 15.3984 3.54492 16.3359 2.60742C17.2734 1.66992 18.3965 1.20117 19.7051 1.20117ZM20.9062 14.4141C20.75 14.4141 20.5986 14.4287 20.4521 14.458C20.3057 14.4873 20.1543 14.502 19.998 14.502C19.8418 14.502 19.6953 14.4873 19.5586 14.458C19.4219 14.4287 19.2754 14.4141 19.1191 14.4141L17.3027 22.793H19.0898L20.9062 14.4141ZM26.6191 26.3965H5.61328C5.61328 26.3965 5.36426 26.4453 4.86621 26.543C4.36816 26.6406 4.11914 26.9922 4.11914 27.5977H28.1133C28.1133 27.5977 28.0498 27.3975 27.9229 26.9971C27.7959 26.5967 27.3613 26.3965 26.6191 26.3965ZM27.791 28.7988H3.24023C3.24023 28.7988 2.98633 28.8477 2.47852 28.9453C1.9707 29.043 1.7168 29.3945 1.7168 30H29.3145C29.3145 30 29.251 29.7998 29.124 29.3994C28.9971 28.999 28.5527 28.7988 27.791 28.7988ZM25.3594 23.9941H8.07422C8.07422 23.9941 7.81543 24.043 7.29785 24.1406C6.78027 24.2383 6.52148 24.5898 6.52148 25.1953H26.9121C26.9121 25.1953 26.8486 24.9951 26.7217 24.5947C26.5947 24.1943 26.1406 23.9941 25.3594 23.9941ZM14.9297 21.5918H16.6582L18.5039 13.7988C18.2305 13.7207 17.957 13.6328 17.6836 13.5352C17.4102 13.4375 17.1465 13.3301 16.8926 13.2129L14.9297 21.5918Z" fill="black"/>
</svg>
