<svg width="31" height="30" viewBox="0 0 31 30" fill="none" xmlns="http://www.w3.org/2000/svg">
<path d="M27.043 5.15625C27.043 4.21875 26.7207 3.42773 26.0762 2.7832C25.4316 2.13867 24.6406 1.81641 23.7031 1.81641C22.8047 1.81641 21.6572 1.81641 20.2607 1.81641C18.8643 1.81641 17.707 1.81641 16.7891 1.81641C16.7695 1.81641 16.7598 1.66504 16.7598 1.3623C16.7598 1.05957 16.7695 0.605469 16.7891 0H13.4199V1.81641C11.4473 1.81641 9.87012 1.81641 8.68848 1.81641C7.50684 1.81641 6.7207 1.81641 6.33008 1.81641C5.29492 1.81641 4.45508 2.13867 3.81055 2.7832C3.16602 3.42773 2.84375 4.26758 2.84375 5.30273C2.84375 9.3457 2.84375 11.9238 2.84375 13.0371C2.84375 14.1504 2.84375 16.7285 2.84375 20.7715C2.84375 21.7285 3.16602 22.5293 3.81055 23.1738C4.45508 23.8184 5.25586 24.1504 6.21289 24.1699C6.62305 24.1699 7.18945 24.1699 7.91211 24.1699C8.63477 24.1699 9.38672 24.1699 10.168 24.1699C10.9492 24.1699 11.7012 24.1699 12.4238 24.1699C13.1465 24.1699 13.7227 24.1699 14.1523 24.1699V25.5469H15.207V29.0625H6.125V30H16.291V25.5469H17.375V24.1699C18.2148 24.1699 19.25 24.1699 20.4805 24.1699C21.7109 24.1699 22.7559 24.1699 23.6152 24.1699C24.6113 24.1504 25.4316 23.8184 26.0762 23.1738C26.7207 22.5293 27.043 21.709 27.043 20.7129C27.043 19.6973 27.043 18.5059 27.043 17.1387C27.043 15.791 27.043 14.3945 27.043 12.9492C27.043 11.5039 27.043 10.0977 27.043 8.73047C27.043 7.36328 27.043 6.17188 27.043 5.15625ZM26.0762 20.7129C26.0762 21.4551 25.8516 22.0508 25.4023 22.5C24.9531 22.9492 24.3574 23.1738 23.6152 23.1738C23.166 23.1738 22.5508 23.1738 21.7695 23.1738C20.9883 23.1738 20.1729 23.1738 19.3232 23.1738C18.4736 23.1738 17.6582 23.1738 16.877 23.1738C16.0957 23.1738 15.4707 23.1738 15.002 23.1738C14.5332 23.1738 13.8984 23.1738 13.0977 23.1738C12.2969 23.1738 11.4668 23.1738 10.6074 23.1738C9.74805 23.1738 8.91797 23.1738 8.11719 23.1738C7.31641 23.1738 6.68164 23.1738 6.21289 23.1738C5.5293 23.1738 4.95801 22.9443 4.49902 22.4854C4.04004 22.0264 3.81055 21.4551 3.81055 20.7715C3.81055 16.4551 3.81055 13.7598 3.81055 12.6855C3.81055 11.6113 3.81055 9.15039 3.81055 5.30273C3.81055 4.54102 4.04004 3.93066 4.49902 3.47168C4.95801 3.0127 5.56836 2.7832 6.33008 2.7832C6.66211 2.7832 7.15039 2.7832 7.79492 2.7832C8.45898 2.7832 9.15234 2.7832 9.875 2.7832C10.5977 2.7832 11.2812 2.7832 11.9258 2.7832C12.5898 2.7832 13.0879 2.7832 13.4199 2.7832C14.0059 2.7832 14.7676 2.7832 15.7051 2.7832C16.623 2.7832 17.5752 2.7832 18.5615 2.7832C19.5479 2.7832 20.5 2.7832 21.418 2.7832C22.3359 2.7832 23.0977 2.7832 23.7031 2.7832C24.3672 2.7832 24.9287 3.0127 25.3877 3.47168C25.8467 3.93066 26.0762 4.49219 26.0762 5.15625C26.0762 6.13281 26.0762 7.29492 26.0762 8.64258C26.0762 9.99023 26.0762 11.3867 26.0762 12.832C26.0762 14.2773 26.0762 15.6836 26.0762 17.0508C26.0762 18.4375 26.0762 19.6582 26.0762 20.7129ZM16.6133 5.00977L11.1055 14.1797H14.8262C14.8066 14.2578 14.748 14.6484 14.6504 15.3516C14.5527 16.0352 14.4453 16.7822 14.3281 17.5928C14.2109 18.4033 14.1035 19.1406 14.0059 19.8047C13.9082 20.4688 13.8594 20.8008 13.8594 20.8008L19.3672 11.5723H15.6172C15.6758 11.3184 15.7539 10.8301 15.8516 10.1074C15.9688 9.4043 16.0811 8.67188 16.1885 7.91016C16.2959 7.14844 16.3887 6.47461 16.4668 5.88867C16.5645 5.30273 16.6133 5.00977 16.6133 5.00977ZM18.0195 12.334L15.1484 17.1387C15.2656 16.4355 15.3633 15.8008 15.4414 15.2344C15.5195 14.668 15.5586 14.3457 15.5586 14.2676L15.6758 13.3887H12.4531L15.3242 8.64258C15.2266 9.24805 15.1387 9.81445 15.0605 10.3418C14.9824 10.8691 14.9238 11.2305 14.8848 11.4258L14.709 12.334H18.0195Z" fill="black"/>
</svg>
