<svg width="31" height="30" viewBox="0 0 31 30" fill="none" xmlns="http://www.w3.org/2000/svg">
<g clip-path="url(#clip0_1865_9843)">
<path d="M27.5381 6.88477H19.9209V0.878906C19.9209 0.644531 19.8379 0.439453 19.6719 0.263672C19.5059 0.0878906 19.2959 0 19.042 0C18.8076 0 18.6025 0.0878906 18.4268 0.263672C18.251 0.439453 18.1631 0.644531 18.1631 0.878906V6.88477H10.6631V0.878906C10.6631 0.644531 10.5752 0.439453 10.3994 0.263672C10.2236 0.0878906 10.0186 0 9.78418 0C9.53027 0 9.31543 0.0878906 9.13965 0.263672C8.96387 0.439453 8.87598 0.644531 8.87598 0.878906V6.88477H1.28809C1.03418 6.88477 0.819336 6.96777 0.643555 7.13379C0.467773 7.2998 0.379883 7.5 0.379883 7.73438C0.379883 7.98828 0.467773 8.19824 0.643555 8.36426C0.819336 8.53027 1.03418 8.61328 1.28809 8.61328H5.03809V13.8574C5.03809 14.9902 5.2334 16.0742 5.62402 17.1094C6.03418 18.125 6.5957 19.043 7.30859 19.8633C8.02148 20.6836 8.85645 21.3672 9.81348 21.9141C10.79 22.4609 11.8447 22.8223 12.9775 22.998L13.5342 23.0859V29.1211C13.5342 29.3555 13.6172 29.5605 13.7832 29.7363C13.9492 29.9121 14.1592 30 14.4131 30C14.667 30 14.877 29.9121 15.043 29.7363C15.209 29.5605 15.292 29.3555 15.292 29.1211V23.0859L15.8486 22.998C16.9814 22.8223 18.0361 22.4609 19.0127 21.9141C19.9697 21.3672 20.8047 20.6836 21.5176 19.8633C22.2305 19.043 22.792 18.125 23.2021 17.1094C23.5928 16.0742 23.7881 14.9902 23.7881 13.8574V8.61328H27.5381C27.792 8.61328 28.0068 8.53027 28.1826 8.36426C28.3584 8.19824 28.4463 7.98828 28.4463 7.73438C28.4463 7.5 28.3584 7.2998 28.1826 7.13379C28.0068 6.96777 27.792 6.88477 27.5381 6.88477ZM22.0303 13.8574C22.0303 14.8926 21.8252 15.8691 21.415 16.7871C21.0244 17.6855 20.4824 18.4766 19.7891 19.1602C19.0957 19.8438 18.29 20.3809 17.3721 20.7715C16.4541 21.1816 15.4678 21.3867 14.4131 21.3867C13.3584 21.3867 12.3721 21.1816 11.4541 20.7715C10.5361 20.3809 9.73047 19.8438 9.03711 19.1602C8.34375 18.4766 7.80176 17.6855 7.41113 16.7871C7.00098 15.8691 6.7959 14.8926 6.7959 13.8574V8.61328H22.0303V13.8574Z" fill="black"/>
</g>
<defs>
<clipPath id="clip0_1865_9843">
<rect width="30" height="30" fill="white" transform="matrix(1 0 0 -1 0.379883 30)"/>
</clipPath>
</defs>
</svg>
