<svg width="31" height="30" viewBox="0 0 31 30" fill="none" xmlns="http://www.w3.org/2000/svg">
<g clip-path="url(#clip0_1865_9837)">
<path d="M7.03263 3.34634C7.21472 3.34634 7.36646 3.40704 7.48786 3.52843C7.60926 3.64983 7.66995 3.80157 7.66995 3.98367C7.66995 4.13541 7.61684 4.27198 7.51062 4.39338C7.4044 4.51478 7.27542 4.58306 7.12367 4.59824L7.03263 4.621H4.50607C4.33915 4.621 4.1912 4.55651 4.06222 4.42752C3.93323 4.29854 3.86874 4.15059 3.86874 3.98367C3.86874 3.81675 3.92185 3.67638 4.02807 3.56258C4.13429 3.44877 4.26328 3.37669 4.41502 3.34634H4.50607H7.03263ZM3.66388 5.46318H27.2906C28.1707 5.46318 28.9219 5.77047 29.544 6.38503C30.1662 6.9996 30.4772 7.74695 30.4772 8.62707V22.967C30.4772 23.8471 30.1662 24.5944 29.544 25.209C28.9219 25.8236 28.1707 26.1309 27.2906 26.1309H3.66388C2.78376 26.1309 2.03642 25.8236 1.42185 25.209C0.807284 24.5944 0.5 23.8471 0.5 22.967V8.62707C0.5 7.74695 0.807284 6.9996 1.42185 6.38503C2.03642 5.77047 2.78376 5.46318 3.66388 5.46318ZM27.2906 6.71508H3.66388C3.14795 6.71508 2.7041 6.90097 2.33232 7.27274C1.96055 7.64452 1.77466 8.09596 1.77466 8.62707V22.967C1.77466 23.4981 1.96055 23.9495 2.33232 24.3213C2.7041 24.6931 3.14795 24.879 3.66388 24.879H27.2906C27.8217 24.879 28.2731 24.6931 28.6449 24.3213C29.0167 23.9495 29.2026 23.4981 29.2026 22.967V8.62707C29.2026 8.09596 29.0167 7.64452 28.6449 7.27274C28.2731 6.90097 27.8217 6.71508 27.2906 6.71508ZM23.2845 9.81068C23.2693 9.64376 23.2011 9.51098 23.0797 9.41235C22.9583 9.31371 22.8217 9.2644 22.67 9.2644C22.4879 9.2644 22.3361 9.32509 22.2147 9.44649C22.0933 9.56789 22.0326 9.71204 22.0326 9.87896V11.791H20.1206H20.0296C19.8778 11.8213 19.7489 11.8934 19.6426 12.0072C19.5364 12.121 19.4833 12.2614 19.4833 12.4283C19.4833 12.5952 19.5478 12.7394 19.6768 12.8608C19.8058 12.9822 19.9537 13.0428 20.1206 13.0428H22.0326V14.9548V15.0459C22.0478 15.1976 22.1161 15.3266 22.2375 15.4328C22.3589 15.5391 22.503 15.5922 22.67 15.5922C22.8369 15.5922 22.981 15.5277 23.1024 15.3987C23.2238 15.2697 23.2845 15.1218 23.2845 14.9548V13.0428H25.1965H25.2876C25.4393 13.0277 25.5683 12.9594 25.6745 12.838C25.7807 12.7166 25.8338 12.58 25.8338 12.4283C25.8338 12.2462 25.7693 12.0944 25.6404 11.973C25.5114 11.8516 25.3634 11.791 25.1965 11.791H23.2845V9.87896V9.81068ZM11.4712 12.4283C11.4712 12.2462 11.4105 12.0944 11.2891 11.973C11.1677 11.8516 11.0159 11.791 10.8338 11.791H5.78073H5.68968C5.53794 11.8213 5.40895 11.8934 5.30273 12.0072C5.19651 12.121 5.1434 12.2614 5.1434 12.4283C5.1434 12.5952 5.2041 12.7394 5.32549 12.8608C5.44689 12.9822 5.59863 13.0428 5.78073 13.0428H10.8338H10.9249C11.0766 13.0277 11.2056 12.9594 11.3118 12.838C11.4181 12.7166 11.4712 12.58 11.4712 12.4283ZM27.0857 3.98367C27.0857 3.80157 27.025 3.64983 26.9036 3.52843C26.7822 3.40704 26.6305 3.34634 26.4484 3.34634H23.9219H23.8308C23.6791 3.37669 23.5501 3.44877 23.4439 3.56258C23.3376 3.67638 23.2845 3.81675 23.2845 3.98367C23.2845 4.15059 23.349 4.29854 23.478 4.42752C23.607 4.55651 23.7549 4.621 23.9219 4.621H26.4484L26.5395 4.59824C26.6912 4.58306 26.8202 4.51478 26.9264 4.39338C27.0326 4.27198 27.0857 4.13541 27.0857 3.98367Z" fill="black"/>
</g>
<defs>
<clipPath id="clip0_1865_9837">
<rect width="30" height="30" fill="white" transform="matrix(1 0 0 -1 0.5 30)"/>
</clipPath>
</defs>
</svg>
