<svg width="30" height="35" viewBox="0 0 30 35" fill="none" xmlns="http://www.w3.org/2000/svg">
<g clip-path="url(#clip0_1416_18233)">
<path d="M26.1127 26.316L24.0652 11.1631C23.9566 10.3782 23.5683 9.65889 22.9716 9.1375C22.3749 8.61612 21.61 8.32773 20.8176 8.3254H19.586V7.18089H20.0114C20.328 7.18086 20.6408 7.11129 20.9276 6.97707C21.2144 6.84285 21.4682 6.64728 21.6711 6.40417C21.874 6.16105 22.021 5.87634 22.1018 5.57016C22.1825 5.26397 22.195 4.94379 22.1384 4.63224L21.6289 1.83054C21.5385 1.33233 21.2761 0.881667 20.8873 0.557223C20.4986 0.232779 20.0083 0.0551566 19.5019 0.0553591H9.59088C9.08453 0.0551361 8.59419 0.23274 8.20544 0.557171C7.81669 0.881602 7.55422 1.33225 7.46385 1.83046L6.95436 4.63231C6.89773 4.94386 6.91023 5.26404 6.99097 5.57022C7.07172 5.8764 7.21873 6.16111 7.42163 6.40422C7.62453 6.64732 7.87834 6.84289 8.16515 6.9771C8.45195 7.11131 8.76473 7.18088 9.08138 7.18089H9.50677V8.3254H8.2752C7.48281 8.32773 6.71791 8.61612 6.12121 9.1375C5.52451 9.65889 5.13616 10.3782 5.02758 11.1631L2.98009 26.316C1.99765 26.6742 1.1728 27.3671 0.650345 28.273C0.127894 29.1788 -0.0587687 30.2398 0.123128 31.2695C0.305024 32.2993 0.843853 33.2321 1.64502 33.9042C2.44619 34.5762 3.45849 34.9446 4.50421 34.9446H24.5886C25.6343 34.9446 26.6466 34.5762 27.4478 33.9042C28.249 33.2321 28.7878 32.2993 28.9697 31.2695C29.1516 30.2398 28.9649 29.1788 28.4425 28.273C27.92 27.3671 27.0952 26.6742 26.1127 26.316ZM8.95305 14.8602H20.1398V20.1397H8.95305V14.8602ZM8.95305 20.7674H20.1398V25.184C20.1395 25.4128 20.0485 25.6321 19.8867 25.7939C19.7249 25.9557 19.5056 26.0467 19.2768 26.0469H9.81601C9.58722 26.0467 9.36787 25.9557 9.20609 25.7939C9.0443 25.6321 8.9533 25.4128 8.95305 25.184V20.7674ZM8.95305 14.2326V8.95304H20.1398V14.2326H8.95305ZM17.1862 7.18089V8.3254H11.9066V7.18089H17.1862Z" fill="black"/>
</g>
<defs>
<clipPath id="clip0_1416_18233">
<rect width="29.0928" height="35" fill="white"/>
</clipPath>
</defs>
</svg>
