<svg width="527" height="343" viewBox="0 0 527 343" fill="none" xmlns="http://www.w3.org/2000/svg">
<path d="M526.412 295.443H0V295.706H526.412V295.443Z" fill="#EBEBEB"/>
<path d="M473.666 312.383H438.797V312.646H473.666V312.383Z" fill="#EBEBEB"/>
<path d="M348.719 315.247H339.57V315.51H348.719V315.247Z" fill="#EBEBEB"/>
<path d="M437.743 302.613H417.539V302.876H437.743V302.613Z" fill="#EBEBEB"/>
<path d="M100.706 304.382H55.2344V304.645H100.706V304.382Z" fill="#EBEBEB"/>
<path d="M116.75 304.382H110.086V304.645H116.75V304.382Z" fill="#EBEBEB"/>
<path d="M237.043 308.825H138.414V309.088H237.043V308.825Z" fill="#EBEBEB"/>
<path d="M427.443 279.777C427.675 277.019 427.306 273.46 424.085 272.407C418.631 270.607 415.399 266.385 415.578 261.616C415.757 256.847 410.019 252.193 405.724 256.668C401.428 261.142 401.986 253.225 396.248 251.298C390.51 249.372 385.646 254.046 387.215 258.31C388.784 262.574 383.13 265.238 376.35 261.616C369.57 257.994 362.105 264.585 363.537 269.754C364.969 274.924 363.8 275.492 359.505 273.766C356.041 272.376 350.366 275.292 349.734 279.798L427.443 279.777Z" fill="#E0E0E0"/>
<path d="M137.522 279.777C137.796 277.598 137.68 274.408 134.964 273.513C130.752 272.123 128.226 268.838 128.363 265.09C128.499 261.342 124.057 257.773 120.709 261.258C117.361 264.743 117.813 258.584 113.339 257.047C108.864 255.509 105.106 259.152 106.327 262.49C107.548 265.827 103.168 267.87 97.9044 265.048C92.6402 262.227 86.8497 267.354 87.9657 271.365C89.0817 275.376 88.1657 275.818 84.8072 274.524C81.9857 273.397 77.2901 275.945 77.1953 279.735L137.522 279.777Z" fill="#E0E0E0"/>
<path d="M144.547 279.777H243.618C245.018 275.124 241.407 269.554 237.49 268.765C232.658 267.807 227.815 259.289 227.583 253.909C227.352 248.529 218.676 231.853 205.169 242.149C191.661 252.446 195.767 243.665 185.997 240.781C176.226 237.896 170.067 246.192 174.352 252.362C174.352 252.362 164.54 249.898 160.497 259.068C156.454 268.238 160.497 273.923 160.497 273.923C160.497 273.923 148.095 273.618 144.547 279.777Z" fill="#E0E0E0"/>
<path d="M300.383 19.7401C300.383 18.5049 300.873 17.3202 301.745 16.4458C302.618 15.5715 303.801 15.0788 305.036 15.0761C305.489 15.0767 305.94 15.1441 306.373 15.2761C306.31 14.8015 306.278 14.3231 306.279 13.8443C306.279 11.2279 307.318 8.71871 309.168 6.86867C311.018 5.01863 313.527 3.97928 316.144 3.97928C316.751 3.98169 317.357 4.03807 317.954 4.14774C318.926 2.54764 320.392 1.30713 322.13 0.613607C323.869 -0.0799147 325.786 -0.188783 327.592 0.303451C329.398 0.795685 330.995 1.86229 332.142 3.34213C333.288 4.82197 333.922 6.63468 333.947 8.50643H334.094C336.202 8.50643 338.224 9.34389 339.715 10.8346C341.206 12.3253 342.043 14.3471 342.043 16.4553C342.043 18.5634 341.206 20.5852 339.715 22.0759C338.224 23.5666 336.202 24.4041 334.094 24.4041H304.91C303.696 24.3711 302.543 23.8649 301.697 22.9935C300.851 22.122 300.38 20.9545 300.383 19.7401Z" fill="#F5F5F5"/>
<path d="M404.883 45.5024C404.883 44.7345 405.188 43.9981 405.731 43.4551C406.274 42.9121 407.01 42.6071 407.778 42.6071C408.06 42.6063 408.341 42.6489 408.61 42.7334C408.568 42.437 408.546 42.138 408.547 41.8385C408.547 40.2134 409.192 38.6549 410.341 37.5058C411.49 36.3567 413.049 35.7111 414.674 35.7111C415.056 35.7086 415.437 35.7438 415.811 35.8164C416.415 34.8223 417.325 34.0517 418.406 33.6207C419.486 33.1898 420.677 33.122 421.799 33.4275C422.921 33.733 423.914 34.3952 424.626 35.3143C425.339 36.2333 425.733 37.3593 425.75 38.5221H425.845C427.154 38.5221 428.41 39.0424 429.336 39.9684C430.262 40.8944 430.782 42.1503 430.782 43.4599C430.782 44.7695 430.262 46.0254 429.336 46.9514C428.41 47.8774 427.154 48.3976 425.845 48.3976H407.694C406.941 48.3757 406.226 48.061 405.701 47.5204C405.176 46.9798 404.882 46.2559 404.883 45.5024Z" fill="#F5F5F5"/>
<path d="M154.253 128.15C154.1 127.557 154.008 126.95 153.979 126.339C153.758 122.58 150.168 123.18 147.115 122.664C144.736 122.275 151.042 116.253 146.241 114.305C145.305 114.048 144.484 113.48 143.914 112.694C143.673 112.102 143.645 111.445 143.838 110.835C144.03 110.226 144.43 109.702 144.967 109.357C146.062 108.694 147.331 108.375 148.61 108.441C149.4 107.493 148.757 106.051 147.999 105.082C147.241 104.114 146.315 102.977 146.599 101.797C147.031 99.9865 149.568 99.9233 151.4 100.281C152.074 99.2284 152.063 97.8177 152.39 96.5648C152.716 95.3119 153.706 94.017 154.98 94.1749C156.253 94.3328 156.927 95.6804 158.138 95.9542C159.507 96.2805 160.686 95.0698 161.77 94.1538C162.855 93.2379 164.718 92.6799 165.466 93.8801C165.908 94.596 165.634 95.5962 166.097 96.3016C166.897 97.5229 168.793 96.7648 169.972 95.9015C171.151 95.0382 173.014 94.2486 173.846 95.4488C174.051 95.8448 174.204 96.266 174.299 96.7017C174.857 98.3125 176.594 99.1126 177.942 100.144C179.289 101.176 180.363 103.219 179.216 104.472C178.658 105.093 177.657 105.345 177.384 106.135C177.036 107.114 178.036 107.998 178.837 108.683C180.163 109.809 180.405 113.189 178.647 114.115C177.91 114.505 176.836 114.621 176.647 115.431C176.457 116.242 177.226 116.726 177.699 117.284C178.009 117.682 178.23 118.142 178.345 118.632C178.461 119.123 178.469 119.633 178.369 120.127C178.269 120.621 178.063 121.087 177.766 121.495C177.469 121.902 177.087 122.24 176.647 122.485C176.226 122.685 175.71 122.854 175.594 123.296C175.53 123.626 175.567 123.967 175.699 124.275C175.871 124.888 175.928 125.527 175.868 126.16C175.868 126.378 175.785 126.589 175.636 126.749C175.473 126.863 175.275 126.915 175.078 126.897C172.541 127.012 171.319 126.118 169.814 128.329C169.678 128.548 169.499 128.738 169.287 128.887C169.07 128.991 168.833 129.048 168.593 129.055C166.845 129.202 165.708 128.118 164.118 127.907C161.907 127.634 161.433 128.771 159.486 129.687C156.306 131.129 154.822 130.234 154.253 128.15Z" fill="#EBEBEB"/>
<path d="M183.451 124.991C183.297 124.399 183.206 123.792 183.177 123.18C182.956 119.432 179.366 120.022 176.323 119.517C173.933 119.117 180.25 113.094 175.439 111.094C174.505 110.839 173.687 110.27 173.123 109.483C172.883 108.891 172.857 108.234 173.049 107.625C173.241 107.016 173.64 106.493 174.176 106.146C175.279 105.493 176.548 105.174 177.829 105.23C178.608 104.282 177.976 102.85 177.218 101.871C176.46 100.892 175.523 99.7656 175.818 98.597C176.25 96.7861 178.787 96.7124 180.608 97.0704C181.293 96.0176 181.272 94.6068 181.598 93.3645C181.924 92.1221 182.925 90.8061 184.198 90.964C185.472 91.1219 186.136 92.4696 187.357 92.7538C188.726 93.0697 189.915 91.8589 190.989 90.9535C192.063 90.0481 193.948 89.4795 194.685 90.6692C195.127 91.3851 194.864 92.3853 195.327 93.0907C196.127 94.3225 198.012 93.554 199.191 92.6907C200.37 91.8273 202.244 91.0377 203.065 92.2379C203.275 92.6356 203.427 93.0609 203.518 93.5013C204.076 95.1016 205.813 95.9018 207.161 96.9335C208.508 97.9653 209.582 100.008 208.445 101.261C207.876 101.882 206.887 102.134 206.603 102.924C206.255 103.914 207.266 104.798 208.066 105.472C209.393 106.598 209.635 109.978 207.876 110.905C207.14 111.294 206.055 111.41 205.876 112.231C205.697 113.052 206.455 113.516 206.929 114.084C207.239 114.481 207.459 114.94 207.574 115.43C207.69 115.919 207.698 116.428 207.598 116.922C207.498 117.415 207.292 117.881 206.995 118.287C206.698 118.693 206.316 119.03 205.876 119.274C205.455 119.475 204.939 119.643 204.823 120.085C204.755 120.414 204.788 120.755 204.918 121.064C205.095 121.676 205.152 122.316 205.087 122.949C205.086 123.165 205.007 123.375 204.865 123.538C204.7 123.647 204.505 123.703 204.307 123.696C201.77 123.812 200.549 122.907 199.043 125.118C198.91 125.34 198.731 125.53 198.517 125.676C198.298 125.788 198.057 125.849 197.811 125.855C196.074 125.991 194.927 124.907 193.337 124.707C191.126 124.423 190.663 125.56 188.715 126.476C185.514 127.971 184.03 127.086 183.451 124.991Z" fill="#EBEBEB"/>
<path d="M186.276 106.398C186.118 105.806 186.026 105.199 186.003 104.587C185.771 100.829 182.192 101.429 179.138 100.913C176.759 100.523 183.065 94.501 178.254 92.5533C177.322 92.294 176.505 91.7261 175.938 90.9425C175.696 90.3508 175.669 89.6931 175.861 89.0836C176.053 88.474 176.453 87.9509 176.991 87.605C178.085 86.9411 179.355 86.6219 180.633 86.6891C181.423 85.7415 180.781 84.2992 180.023 83.3306C179.265 82.362 178.338 81.2249 178.622 80.0458C179.054 78.2349 181.591 78.1717 183.423 78.5297C184.097 77.4769 184.087 76.0661 184.413 74.8132C184.739 73.5604 185.729 72.2654 187.003 72.4233C188.277 72.5812 188.94 73.9288 190.161 74.2026C191.541 74.529 192.72 73.3182 193.794 72.4023C194.868 71.4863 196.752 70.9283 197.489 72.1285C197.942 72.8444 197.668 73.8446 198.131 74.55C198.931 75.7713 200.827 75.0133 201.995 74.1499C203.164 73.2866 205.048 72.497 205.87 73.6972C206.083 74.0907 206.239 74.5126 206.333 74.9501C206.891 76.5609 208.617 77.3611 209.976 78.3928C211.334 79.4246 212.397 81.4671 211.249 82.7199C210.681 83.3411 209.691 83.5938 209.418 84.3834C209.06 85.3625 210.07 86.2469 210.87 86.9312C212.197 88.0578 212.439 91.4373 210.681 92.3638C209.944 92.7533 208.86 92.8692 208.681 93.6798C208.502 94.4905 209.26 94.9748 209.733 95.5328C210.042 95.931 210.26 96.3909 210.375 96.8812C210.489 97.3715 210.497 97.8807 210.397 98.3742C210.297 98.8677 210.092 99.3339 209.796 99.741C209.5 100.148 209.119 100.487 208.681 100.734C208.259 100.934 207.744 101.102 207.628 101.544C207.558 101.874 207.595 102.217 207.733 102.524C207.899 103.137 207.956 103.775 207.902 104.408C207.902 104.627 207.819 104.838 207.67 104.998C207.507 105.111 207.309 105.163 207.112 105.145C204.575 105.261 203.353 104.366 201.848 106.577C201.712 106.797 201.533 106.987 201.321 107.135C201.1 107.239 200.86 107.296 200.616 107.303C198.879 107.451 197.742 106.366 196.141 106.156C193.931 105.882 193.467 107.019 191.52 107.935C188.33 109.377 186.845 108.483 186.276 106.398Z" fill="#EBEBEB"/>
<path d="M205.51 115.663C205.352 115.071 205.26 114.464 205.236 113.852C205.005 110.094 201.425 110.694 198.372 110.178C195.992 109.778 202.299 103.756 197.498 101.818C196.558 101.563 195.736 100.99 195.171 100.197C194.93 99.6068 194.903 98.9509 195.096 98.3431C195.288 97.7353 195.687 97.2141 196.224 96.87C197.319 96.2061 198.588 95.887 199.867 95.9541C200.656 94.996 200.014 93.5642 199.256 92.5956C198.498 91.627 197.572 90.4899 197.856 89.3108C198.288 87.4999 200.825 87.4367 202.657 87.7842C203.331 86.7314 203.32 85.3206 203.646 84.0782C203.973 82.8359 204.963 81.5304 206.236 81.6883C207.51 81.8462 208.174 83.1939 209.395 83.4676C210.774 83.794 211.953 82.5832 213.027 81.6673C214.101 80.7513 215.986 80.1933 216.723 81.3935C217.175 82.1094 216.902 83.1096 217.365 83.815C218.165 85.0363 220.06 84.2783 221.229 83.4149C222.397 82.5516 224.282 81.7515 225.103 82.9622C225.316 83.3557 225.472 83.7776 225.566 84.2151C226.124 85.8259 227.851 86.6261 229.209 87.6473C230.567 88.6685 231.631 90.7215 230.483 91.9849C229.914 92.6061 228.925 92.8483 228.651 93.6379C228.293 94.6275 229.304 95.5119 230.104 96.1962C231.431 97.3228 231.673 100.702 229.914 101.629C229.177 102.018 228.093 102.134 227.914 102.945C227.735 103.756 228.493 104.24 228.967 104.798C229.275 105.196 229.494 105.656 229.608 106.146C229.723 106.636 229.73 107.146 229.631 107.639C229.531 108.133 229.326 108.599 229.029 109.006C228.733 109.413 228.353 109.752 227.914 109.999C227.493 110.199 226.977 110.367 226.861 110.799C226.792 111.132 226.829 111.478 226.967 111.789C227.133 112.398 227.19 113.033 227.135 113.663C227.139 113.882 227.055 114.094 226.903 114.252C226.742 114.368 226.544 114.424 226.345 114.41C223.808 114.526 222.587 113.631 221.081 115.831C220.946 116.054 220.767 116.248 220.555 116.4C220.334 116.504 220.094 116.561 219.849 116.568C218.112 116.716 216.975 115.621 215.375 115.421C213.164 115.137 212.701 116.284 210.753 117.2C207.563 118.632 206.079 117.748 205.51 115.663Z" fill="#EBEBEB"/>
<path d="M224.95 111.388C224.798 110.795 224.706 110.189 224.676 109.577C224.455 105.819 220.865 106.419 217.812 105.903C215.432 105.503 221.749 99.4807 216.938 97.5435C216.002 97.2861 215.184 96.7134 214.622 95.9222C214.376 95.3326 214.347 94.6752 214.54 94.0663C214.733 93.4574 215.135 92.9364 215.675 92.5952C216.774 91.9329 218.046 91.6139 219.328 91.6793C220.107 90.7212 219.475 89.2894 218.717 88.3102C217.959 87.3311 217.022 86.2046 217.317 85.036C217.749 83.2251 220.275 83.1619 222.107 83.5094C222.781 82.4565 222.771 81.0458 223.097 79.8034C223.423 78.5611 224.413 77.2556 225.697 77.403C226.982 77.5504 227.635 78.9085 228.856 79.1928C230.225 79.5086 231.414 78.2979 232.488 77.3924C233.562 76.487 235.447 75.9185 236.184 77.1082C236.626 77.8346 236.363 78.8243 236.826 79.5297C237.615 80.7615 239.51 80.0035 240.69 79.1296C241.869 78.2558 243.732 77.4767 244.564 78.6874C244.769 79.0834 244.921 79.5046 245.017 79.9403C245.575 81.5406 247.312 82.3407 248.66 83.3725C250.007 84.4043 251.081 86.4467 249.944 87.6996C249.375 88.3208 248.386 88.5735 248.102 89.3631C247.754 90.3527 248.765 91.2371 249.554 91.9109C250.892 93.048 251.123 96.4275 249.375 97.3435C248.638 97.733 247.554 97.8594 247.375 98.67C247.196 99.4807 247.954 99.965 248.428 100.523C248.738 100.92 248.958 101.379 249.073 101.869C249.189 102.358 249.197 102.867 249.097 103.361C248.997 103.854 248.791 104.32 248.494 104.726C248.197 105.132 247.815 105.469 247.375 105.713C246.954 105.913 246.428 106.082 246.322 106.524C246.254 106.853 246.287 107.194 246.417 107.503C246.589 108.116 246.646 108.755 246.585 109.388C246.588 109.607 246.505 109.818 246.354 109.977C246.193 110.088 246.001 110.143 245.806 110.135C243.269 110.251 242.048 109.346 240.542 111.557C240.406 111.779 240.222 111.969 240.005 112.115C239.791 112.228 239.553 112.289 239.31 112.294C237.563 112.43 236.426 111.346 234.836 111.146C232.625 110.862 232.162 111.999 230.214 112.915C227.013 114.357 225.529 113.473 224.95 111.388Z" fill="#EBEBEB"/>
<path d="M225.199 132.182C225.08 131.713 225.009 131.233 224.988 130.75C224.809 127.792 221.988 128.265 219.587 127.865C217.703 127.55 222.672 122.812 218.892 121.275C218.154 121.073 217.507 120.623 217.06 120.001C216.862 119.537 216.837 119.017 216.989 118.535C217.142 118.054 217.462 117.644 217.892 117.379C218.758 116.861 219.759 116.611 220.766 116.663C221.377 115.916 220.882 114.779 220.282 114.01C219.682 113.242 218.956 112.378 219.229 111.431C219.577 110.009 221.567 109.957 223.009 110.231C223.405 109.3 223.667 108.318 223.788 107.314C224.041 106.335 224.841 105.303 225.831 105.43C226.82 105.556 227.357 106.609 228.284 106.83C229.336 107.083 230.294 106.135 231.147 105.419C232 104.703 233.474 104.251 234.053 105.198C234.401 105.756 234.2 106.546 234.558 107.104C235.19 108.062 236.664 107.472 237.601 106.788C238.538 106.103 240.002 105.482 240.654 106.43C240.817 106.742 240.937 107.075 241.012 107.42C241.454 108.683 242.823 109.315 243.886 110.125C244.95 110.936 245.792 112.547 244.939 113.536C244.497 114.021 243.718 114.221 243.497 114.842C243.276 115.463 244.013 116.316 244.644 116.853C245.697 117.737 245.876 120.401 244.497 121.127C243.918 121.433 243.065 121.527 242.918 122.18C242.77 122.833 243.371 123.233 243.76 123.633C244.004 123.947 244.178 124.309 244.268 124.697C244.358 125.084 244.364 125.486 244.284 125.875C244.204 126.264 244.04 126.632 243.804 126.952C243.568 127.272 243.266 127.537 242.918 127.728C242.591 127.886 242.181 128.013 242.055 128.36C242.004 128.622 242.034 128.894 242.139 129.139C242.27 129.619 242.313 130.118 242.265 130.613C242.269 130.788 242.205 130.958 242.086 131.087C241.959 131.173 241.807 131.214 241.654 131.203C239.654 131.298 238.685 130.592 237.443 132.329C237.337 132.506 237.193 132.657 237.022 132.772C236.851 132.855 236.665 132.902 236.475 132.908C235.106 133.014 234.2 132.161 232.948 132.003C231.21 131.782 230.842 132.677 229.305 133.393C226.82 134.519 225.652 133.824 225.199 132.182Z" fill="#EBEBEB"/>
<path d="M236.089 124.991C235.935 124.399 235.844 123.792 235.815 123.18C235.594 119.432 232.004 120.022 228.951 119.517C226.571 119.117 232.878 113.094 228.077 111.094C227.141 110.838 226.32 110.269 225.75 109.483C225.508 108.892 225.481 108.234 225.674 107.624C225.866 107.015 226.266 106.492 226.803 106.146C227.903 105.494 229.169 105.176 230.446 105.23C231.235 104.282 230.593 102.85 229.835 101.871C229.077 100.892 228.151 99.7656 228.435 98.597C228.877 96.7861 231.404 96.7124 233.236 97.0704C233.91 96.0176 233.899 94.6068 234.225 93.3645C234.552 92.1221 235.542 90.8061 236.815 90.964C238.089 91.1219 238.763 92.4696 239.974 92.7538C241.343 93.0697 242.532 91.8589 243.606 90.9535C244.68 90.0481 246.554 89.4795 247.302 90.6692C247.744 91.3851 247.481 92.3853 247.933 93.0907C248.733 94.3225 250.628 93.554 251.808 92.6907C252.987 91.8273 254.85 91.0377 255.682 92.2379C255.887 92.6376 256.04 93.0623 256.135 93.5013C256.693 95.1016 258.43 95.9018 259.778 96.9335C261.125 97.9653 262.199 100.008 261.051 101.261C260.493 101.882 259.504 102.134 259.22 102.924C258.872 103.914 259.872 104.798 260.672 105.472C261.999 106.598 262.241 109.978 260.483 110.905C259.746 111.294 258.672 111.41 258.493 112.231C258.314 113.052 259.062 113.516 259.546 114.084C259.857 114.48 260.079 114.939 260.196 115.429C260.312 115.919 260.32 116.429 260.22 116.923C260.12 117.417 259.914 117.883 259.616 118.289C259.317 118.695 258.934 119.031 258.493 119.274C258.072 119.475 257.556 119.643 257.44 120.085C257.376 120.415 257.412 120.756 257.546 121.064C257.717 121.677 257.774 122.316 257.714 122.949C257.714 123.168 257.632 123.378 257.482 123.538C257.318 123.65 257.123 123.706 256.924 123.696C254.387 123.812 253.166 122.907 251.66 125.118C251.527 125.34 251.348 125.53 251.134 125.676C250.919 125.788 250.681 125.849 250.439 125.855C248.691 125.991 247.554 124.907 245.964 124.707C243.754 124.423 243.28 125.56 241.332 126.476C238.142 127.971 236.658 127.086 236.089 124.991Z" fill="#EBEBEB"/>
<path d="M205.511 92.7851C205.352 92.1937 205.26 91.5862 205.237 90.9743C205.006 87.2157 201.426 87.8158 198.373 87.3105C195.993 86.9104 202.3 80.8882 197.499 78.8879C196.563 78.6315 195.742 78.0632 195.172 77.277C194.93 76.6853 194.903 76.0277 195.096 75.4181C195.288 74.8085 195.687 74.2854 196.225 73.9396C197.322 73.2804 198.59 72.9617 199.868 73.0236C200.657 72.0761 200.015 70.6442 199.257 69.6651C198.499 68.686 197.573 67.5595 197.857 66.3908C198.288 64.5694 200.826 64.5063 202.658 64.8642C203.332 63.8114 203.321 62.4006 203.647 61.1478C203.974 59.8949 204.963 58.5999 206.237 58.7579C207.511 58.9158 208.175 60.2634 209.396 60.5371C210.775 60.8635 211.954 59.6528 213.028 58.7473C214.102 57.8419 215.986 57.2628 216.723 58.4631C217.176 59.179 216.902 60.1792 217.366 60.8846C218.166 62.1058 220.061 61.3478 221.23 60.4845C222.398 59.6212 224.283 58.8316 225.104 60.0318C225.319 60.4282 225.475 60.8538 225.567 61.2952C226.125 62.8955 227.852 63.6956 229.21 64.7274C230.568 65.7591 231.631 67.8016 230.484 69.0545C229.915 69.6756 228.926 69.9283 228.652 70.7179C228.294 71.7076 229.305 72.592 230.105 73.2658C231.431 74.3923 231.674 77.7719 229.915 78.6984C229.178 79.0879 228.094 79.2037 227.915 80.0249C227.736 80.8461 228.494 81.3094 228.968 81.8779C229.276 82.2752 229.495 82.7343 229.609 83.2238C229.723 83.7133 229.731 84.2217 229.631 84.7144C229.531 85.2071 229.326 85.6724 229.03 86.0786C228.734 86.4849 228.353 86.8224 227.915 87.0683C227.494 87.2683 226.978 87.4368 226.862 87.879C226.793 88.2083 226.83 88.5511 226.967 88.8581C227.134 89.4715 227.191 90.1095 227.136 90.7427C227.136 90.9614 227.053 91.1722 226.904 91.3322C226.74 91.4439 226.544 91.4993 226.346 91.4902C223.809 91.5954 222.588 90.7005 221.082 92.9115C220.949 93.1335 220.77 93.324 220.556 93.4695C220.338 93.5831 220.096 93.641 219.85 93.6379C218.113 93.7853 216.976 92.7009 215.376 92.5009C213.165 92.2166 212.702 93.3537 210.754 94.2696C207.564 95.7646 206.079 94.8697 205.511 92.7851Z" fill="#EBEBEB"/>
<path d="M180.531 94.0693C180.384 93.4754 180.292 92.8692 180.257 92.2584C180.036 88.4999 176.456 89.1 173.403 88.5841C171.013 88.184 177.33 82.1619 172.519 80.2247C171.583 79.9673 170.765 79.3945 170.203 78.6033C169.961 78.0132 169.935 77.3572 170.127 76.7494C170.319 76.1416 170.719 75.6204 171.255 75.2764C172.35 74.6125 173.619 74.2933 174.898 74.3604C175.688 73.4024 175.045 71.9705 174.287 70.9914C173.529 70.0123 172.603 68.8857 172.887 67.7171C173.319 65.9063 175.856 65.8431 177.688 66.1905C178.362 65.1377 178.341 63.7269 178.678 62.4846C179.015 61.2422 179.994 59.9367 181.268 60.0841C182.542 60.2315 183.205 61.5897 184.426 61.8739C185.795 62.1898 186.985 60.979 188.058 60.0736C189.132 59.1682 191.017 58.5997 191.754 59.7893C192.196 60.5158 191.933 61.5054 192.396 62.2108C193.196 63.4426 195.091 62.6846 196.26 61.8108C197.429 60.9369 199.313 60.1578 200.134 61.3686C200.343 61.7641 200.499 62.1853 200.598 62.6214C201.145 64.2217 202.882 65.0219 204.24 66.0536C205.598 67.0854 206.662 69.1279 205.514 70.3808C204.946 71.0019 203.956 71.2546 203.682 72.0442C203.324 73.0339 204.335 73.9182 205.135 74.5921C206.462 75.7291 206.704 79.1087 204.946 80.0246C204.209 80.4142 203.124 80.5405 202.945 81.3512C202.766 82.1619 203.524 82.6462 203.998 83.2042C204.308 83.6008 204.528 84.0598 204.644 84.5497C204.759 85.0395 204.767 85.5486 204.667 86.0418C204.567 86.535 204.361 87.0007 204.064 87.4069C203.767 87.813 203.385 88.15 202.945 88.3946C202.524 88.5946 202.008 88.7631 201.893 89.2052C201.824 89.5337 201.857 89.8752 201.987 90.1844C202.162 90.7962 202.223 91.4351 202.166 92.0689C202.164 92.2871 202.081 92.4968 201.935 92.6585C201.771 92.7702 201.575 92.8256 201.377 92.8164C198.839 92.9323 197.618 92.0268 196.113 94.2377C195.98 94.4598 195.8 94.6502 195.586 94.7958C195.367 94.9078 195.126 94.9689 194.881 94.9747C193.144 95.1116 192.007 94.0272 190.406 93.8271C188.195 93.5429 187.732 94.6799 185.784 95.5959C182.594 97.0909 181.089 96.1539 180.531 94.0693Z" fill="#EBEBEB"/>
<path d="M165.37 104.282C165.212 103.69 165.12 103.083 165.097 102.471C164.865 98.7228 161.285 99.3124 158.232 98.807C155.853 98.4069 162.159 92.3848 157.358 90.437C156.422 90.1806 155.601 89.6124 155.032 88.8262C154.79 88.2345 154.763 87.5769 154.955 86.9673C155.147 86.3577 155.547 85.8346 156.084 85.4888C157.181 84.8296 158.449 84.5109 159.727 84.5728C160.517 83.6253 159.875 82.1934 159.116 81.2143C158.358 80.2352 157.432 79.1087 157.716 77.94C158.148 76.1186 160.685 76.0555 162.517 76.4134C163.191 75.3606 163.18 73.9498 163.507 72.7075C163.833 71.4652 164.823 70.1491 166.097 70.307C167.371 70.465 168.034 71.8126 169.255 72.0863C170.634 72.4127 171.814 71.202 172.887 70.2965C173.961 69.3911 175.846 68.812 176.583 70.0123C177.036 70.7282 176.762 71.7284 177.225 72.4338C178.025 73.655 179.92 72.897 181.089 72.0337C182.258 71.1704 184.142 70.3808 184.974 71.581C185.181 71.9799 185.333 72.4048 185.427 72.8444C185.985 74.4447 187.711 75.2448 189.069 76.2766C190.427 77.3083 191.491 79.3508 190.343 80.6037C189.785 81.2248 188.785 81.4775 188.511 82.2671C188.153 83.2568 189.164 84.1412 189.964 84.815C191.291 85.9415 191.533 89.3211 189.775 90.2475C189.038 90.6371 187.964 90.7529 187.774 91.5741C187.585 92.3953 188.353 92.8586 188.827 93.4271C189.135 93.8244 189.354 94.2834 189.468 94.773C189.583 95.2625 189.59 95.7709 189.49 96.2636C189.39 96.7563 189.185 97.2216 188.889 97.6278C188.593 98.034 188.213 98.3716 187.774 98.6175C187.353 98.8175 186.837 98.986 186.722 99.4282C186.652 99.7575 186.689 100.1 186.827 100.407C186.993 101.021 187.05 101.659 186.995 102.292C186.996 102.511 186.913 102.721 186.764 102.881C186.6 102.993 186.404 103.049 186.206 103.039C183.668 103.145 182.447 102.25 180.942 104.461C180.809 104.683 180.629 104.873 180.415 105.019C180.196 105.131 179.955 105.192 179.71 105.198C177.973 105.335 176.836 104.25 175.235 104.05C173.035 103.766 172.561 104.903 170.613 105.819C167.402 107.261 165.939 106.377 165.37 104.282Z" fill="#EBEBEB"/>
<path d="M169.956 117.2C169.956 117.2 176.273 126.17 178.494 129.013C180.716 131.855 191.612 149.585 193.107 161.313C193.265 162.566 193.423 163.64 193.571 164.577C188.865 195.635 189.612 252.446 189.77 262.174H204.678C204.815 251.204 206.078 150.943 206.552 147.879C207.047 144.647 213.28 132.308 222.902 127.244C232.525 122.18 240.8 105.398 240.8 105.398H237.737C237.737 105.398 232.051 115.684 223.955 121.369C222.791 122.154 221.573 122.857 220.312 123.475C220.33 117.288 219.239 111.148 217.091 105.345L215.438 106.882C217.67 116.031 217.375 121.906 216.701 125.275C213.624 126.701 210.784 128.59 208.279 130.876C200.035 120.001 195.255 94.9855 195.255 94.9855L193.15 96.1646C193.759 101.32 194.688 106.432 195.929 111.473C197.498 117.937 202.13 130.108 204.278 135.625C201.696 139.361 199.565 143.39 197.929 147.627C197.703 147.27 197.43 146.944 197.119 146.658C191.644 141.71 181.326 118.348 181.326 118.348C178.842 112.915 182.642 98.6598 182.642 98.6598H179.768L178.484 111.125L171.261 103.25L169.945 104.303L177.61 114.147L181.558 126.57L171.272 115.189L169.956 117.2Z" fill="#E6E6E6"/>
<path d="M425.393 161.608C425.512 161.153 425.582 160.688 425.604 160.218C425.783 157.334 428.531 157.786 430.868 157.397C432.7 157.091 427.857 152.47 431.542 150.985C432.259 150.786 432.887 150.348 433.321 149.743C433.506 149.29 433.527 148.787 433.381 148.32C433.235 147.853 432.931 147.451 432.521 147.184C431.679 146.676 430.703 146.43 429.721 146.479C429.12 145.752 429.615 144.647 430.194 143.9C430.773 143.152 431.489 142.31 431.247 141.383C430.91 139.994 428.973 139.941 427.562 140.215C427.174 139.309 426.918 138.351 426.804 137.372C426.552 136.414 425.751 135.414 424.814 135.53C423.877 135.645 423.33 136.688 422.425 136.898C421.519 137.109 420.456 136.224 419.635 135.519C418.813 134.814 417.371 134.393 416.802 135.308C416.455 135.856 416.666 136.625 416.308 137.161C415.697 138.109 414.202 137.519 413.339 136.856C412.475 136.193 411.001 135.593 410.37 136.509C410.206 136.812 410.089 137.139 410.022 137.477C409.591 138.709 408.264 139.32 407.222 140.109C406.179 140.899 405.369 142.468 406.243 143.436C406.674 143.91 407.443 144.1 407.653 144.71C407.864 145.321 407.148 146.142 406.537 146.668C405.485 147.532 405.337 150.122 406.685 150.88C407.243 151.175 408.075 151.269 408.211 151.933C408.348 152.596 407.769 152.922 407.401 153.354C407.162 153.659 406.992 154.012 406.903 154.388C406.814 154.765 406.808 155.157 406.885 155.536C406.962 155.916 407.12 156.274 407.349 156.586C407.578 156.898 407.873 157.157 408.211 157.344C408.538 157.491 408.938 157.618 409.054 157.955C409.102 158.209 409.076 158.472 408.98 158.713C408.843 159.181 408.8 159.671 408.854 160.155C408.85 160.238 408.863 160.321 408.892 160.399C408.921 160.476 408.965 160.547 409.022 160.608C409.149 160.694 409.301 160.735 409.454 160.724C411.401 160.818 412.338 160.124 413.518 161.776C413.623 161.947 413.763 162.094 413.928 162.208C414.095 162.292 414.278 162.338 414.465 162.345C415.802 162.45 416.676 161.619 417.897 161.461C419.592 161.25 419.95 162.124 421.445 162.819C423.814 163.882 424.962 163.208 425.393 161.608Z" fill="#EBEBEB"/>
<path d="M402.996 159.208C403.115 158.753 403.185 158.287 403.207 157.818C403.386 154.933 406.134 155.386 408.471 154.997C410.303 154.691 405.46 150.069 409.145 148.585C409.862 148.386 410.49 147.947 410.924 147.343C411.109 146.89 411.13 146.386 410.984 145.92C410.838 145.453 410.534 145.051 410.124 144.784C409.281 144.276 408.306 144.03 407.323 144.079C406.723 143.352 407.208 142.247 407.797 141.499C408.387 140.752 409.092 139.91 408.85 138.983C408.513 137.593 406.576 137.541 405.165 137.814C404.776 136.909 404.521 135.951 404.407 134.972C404.154 134.014 403.354 133.014 402.417 133.129C401.48 133.245 400.933 134.288 400.027 134.498C399.122 134.709 398.059 133.824 397.237 133.119C396.416 132.413 394.974 131.992 394.405 132.908C394.058 133.456 394.268 134.224 393.911 134.772C393.3 135.709 391.805 135.119 390.942 134.456C390.078 133.793 388.604 133.193 387.973 134.109C387.809 134.412 387.692 134.739 387.625 135.077C387.194 136.309 385.867 136.92 384.825 137.709C383.782 138.499 382.972 140.068 383.845 141.036C384.277 141.51 385.046 141.699 385.256 142.31C385.467 142.921 384.751 143.742 384.14 144.268C383.087 145.132 382.94 147.722 384.277 148.48C384.846 148.774 385.677 148.869 385.814 149.532C385.951 150.196 385.372 150.522 384.993 150.954C384.756 151.26 384.589 151.613 384.501 151.99C384.414 152.367 384.409 152.759 384.487 153.137C384.565 153.516 384.724 153.874 384.953 154.186C385.182 154.498 385.476 154.756 385.814 154.944C386.141 155.091 386.541 155.218 386.657 155.555C386.705 155.809 386.679 156.072 386.583 156.313C386.448 156.781 386.401 157.27 386.446 157.755C386.447 157.923 386.511 158.084 386.625 158.208C386.752 158.293 386.903 158.337 387.057 158.334C389.004 158.418 389.941 157.723 391.121 159.387C391.223 159.56 391.364 159.707 391.531 159.819C391.698 159.902 391.881 159.949 392.068 159.955C393.405 160.061 394.279 159.229 395.5 159.071C397.195 158.86 397.553 159.734 399.048 160.429C401.417 161.461 402.554 160.787 402.996 159.208Z" fill="#EBEBEB"/>
<path d="M400.836 144.911C400.956 144.456 401.027 143.99 401.047 143.521C401.226 140.647 403.974 141.099 406.311 140.71C408.143 140.404 403.3 135.783 406.985 134.288C407.701 134.093 408.329 133.658 408.764 133.056C408.949 132.603 408.97 132.1 408.824 131.633C408.678 131.166 408.374 130.765 407.964 130.497C407.121 129.989 406.146 129.743 405.163 129.792C404.563 129.066 405.048 127.96 405.637 127.213C406.227 126.465 406.932 125.623 406.69 124.696C406.353 123.307 404.416 123.254 403.005 123.528C402.618 122.621 402.363 121.664 402.247 120.685C401.994 119.727 401.194 118.727 400.257 118.843C399.32 118.958 398.773 120.001 397.867 120.211C396.962 120.422 395.899 119.527 395.077 118.832C394.256 118.137 392.814 117.695 392.245 118.622C391.898 119.169 392.108 119.938 391.75 120.475C391.14 121.412 389.645 120.832 388.781 120.169C387.918 119.506 386.444 118.895 385.812 119.822C385.649 120.125 385.532 120.452 385.465 120.79C385.033 122.022 383.707 122.633 382.665 123.422C381.622 124.212 380.812 125.781 381.685 126.749C382.117 127.223 382.875 127.413 383.096 128.023C383.317 128.634 382.591 129.455 381.98 129.971C380.927 130.845 380.769 133.435 382.117 134.182C382.686 134.488 383.517 134.572 383.654 135.235C383.791 135.898 383.212 136.225 382.833 136.656C382.596 136.962 382.429 137.314 382.341 137.69C382.254 138.067 382.249 138.457 382.327 138.835C382.405 139.213 382.564 139.57 382.793 139.881C383.023 140.192 383.316 140.45 383.654 140.636C383.981 140.794 384.381 140.92 384.496 141.257C384.545 141.512 384.519 141.775 384.423 142.015C384.293 142.47 384.247 142.944 384.286 143.416C384.276 143.496 384.286 143.578 384.313 143.655C384.341 143.731 384.387 143.8 384.446 143.855C384.506 143.911 384.578 143.951 384.656 143.974C384.734 143.996 384.817 144 384.896 143.984C386.834 144.079 387.781 143.384 388.96 145.037C389.069 145.205 389.208 145.352 389.371 145.469C389.537 145.553 389.721 145.597 389.908 145.595C391.245 145.711 392.119 144.879 393.34 144.721C395.035 144.5 395.393 145.374 396.888 146.079C399.257 147.195 400.394 146.511 400.836 144.911Z" fill="#EBEBEB"/>
<path d="M386.084 152.017C386.2 151.562 386.267 151.096 386.284 150.627C386.463 147.753 389.211 148.206 391.548 147.816C393.38 147.511 388.537 142.889 392.222 141.394C392.938 141.199 393.566 140.764 394.001 140.162C394.185 139.709 394.207 139.206 394.061 138.739C393.915 138.272 393.611 137.871 393.201 137.604C392.358 137.095 391.383 136.85 390.4 136.898C389.8 136.172 390.295 135.066 390.874 134.319C391.453 133.571 392.169 132.729 391.927 131.803C391.59 130.413 389.653 130.36 388.242 130.634C387.855 129.728 387.599 128.77 387.484 127.791C387.231 126.833 386.431 125.833 385.494 125.949C384.557 126.065 384.01 127.107 383.104 127.318C382.199 127.528 381.135 126.633 380.314 125.938C379.493 125.244 378.051 124.812 377.482 125.728C377.135 126.275 377.345 127.044 376.987 127.581C376.377 128.518 374.882 127.939 374.018 127.276C373.155 126.612 371.681 126.002 371.049 126.928C370.89 127.234 370.773 127.56 370.702 127.897C370.27 129.128 368.944 129.739 367.901 130.529C366.859 131.318 366.048 132.887 366.922 133.856C367.354 134.329 368.123 134.519 368.333 135.13C368.544 135.74 367.828 136.561 367.217 137.077C366.164 137.951 366.017 140.541 367.364 141.289C367.922 141.594 368.754 141.678 368.891 142.341C369.028 143.005 368.449 143.331 368.08 143.763C367.842 144.067 367.672 144.419 367.583 144.795C367.494 145.171 367.488 145.562 367.565 145.94C367.642 146.319 367.8 146.676 368.029 146.987C368.259 147.299 368.553 147.556 368.891 147.742C369.217 147.9 369.618 148.027 369.733 148.364C369.787 148.618 369.762 148.883 369.66 149.122C369.523 149.589 369.48 150.08 369.533 150.564C369.53 150.647 369.543 150.73 369.572 150.807C369.601 150.885 369.645 150.956 369.702 151.017C369.829 151.103 369.981 151.143 370.133 151.133C372.081 151.227 373.018 150.532 374.208 152.185C374.31 152.356 374.446 152.503 374.608 152.617C374.775 152.701 374.958 152.747 375.145 152.754C376.482 152.859 377.356 152.027 378.577 151.869C380.272 151.648 380.63 152.522 382.125 153.228C384.494 154.302 385.642 153.617 386.084 152.017Z" fill="#EBEBEB"/>
<path d="M371.17 148.743C371.283 148.287 371.353 147.822 371.38 147.353C371.549 144.468 374.297 144.921 376.644 144.531C378.466 144.226 373.623 139.604 377.318 138.12C378.034 137.918 378.661 137.48 379.097 136.877C379.281 136.423 379.3 135.919 379.152 135.452C379.004 134.985 378.698 134.585 378.287 134.319C377.445 133.809 376.469 133.564 375.486 133.614C374.886 132.887 375.381 131.782 375.96 131.034C376.539 130.287 377.255 129.444 377.013 128.518C376.686 127.128 374.739 127.086 373.338 127.349C372.942 126.446 372.682 125.487 372.57 124.507C372.317 123.549 371.517 122.548 370.58 122.664C369.643 122.78 369.096 123.822 368.19 124.033C367.285 124.243 366.232 123.359 365.4 122.654C364.568 121.948 363.137 121.527 362.568 122.443C362.231 122.991 362.431 123.759 362.073 124.307C361.463 125.244 359.968 124.654 359.115 123.991C358.262 123.327 356.778 122.727 356.135 123.643C355.98 123.951 355.864 124.276 355.788 124.612C355.367 125.844 354.03 126.454 352.998 127.244C351.966 128.034 351.134 129.602 352.008 130.571C352.45 131.045 353.208 131.234 353.419 131.845C353.63 132.455 352.914 133.277 352.303 133.803C351.25 134.666 351.103 137.256 352.45 138.014C353.019 138.309 353.84 138.404 353.988 139.067C354.135 139.73 353.545 140.057 353.166 140.489C352.93 140.795 352.762 141.148 352.675 141.525C352.587 141.902 352.582 142.293 352.66 142.672C352.738 143.051 352.897 143.409 353.126 143.721C353.355 144.032 353.649 144.291 353.988 144.479C354.303 144.626 354.703 144.752 354.819 145.089C354.879 145.343 354.853 145.61 354.746 145.847C354.614 146.316 354.571 146.805 354.619 147.29C354.618 147.373 354.633 147.456 354.663 147.534C354.694 147.612 354.74 147.683 354.798 147.742C354.922 147.828 355.069 147.872 355.219 147.869C357.167 147.953 358.104 147.258 359.294 148.922C359.393 149.094 359.53 149.241 359.694 149.353C359.862 149.434 360.044 149.481 360.231 149.49C361.568 149.595 362.442 148.764 363.663 148.606C365.358 148.395 365.769 149.269 367.211 149.964C369.548 151.017 370.727 150.343 371.17 148.743Z" fill="#EBEBEB"/>
<path d="M370.96 164.693C371.056 164.349 371.112 163.996 371.128 163.64C371.265 161.376 373.434 161.734 375.276 161.429C376.708 161.187 372.897 157.544 375.803 156.376C376.368 156.22 376.863 155.874 377.203 155.396C377.35 155.04 377.368 154.644 377.252 154.276C377.137 153.909 376.896 153.593 376.571 153.385C375.91 152.985 375.143 152.79 374.371 152.828C373.897 152.248 374.276 151.385 374.739 150.796C375.203 150.206 375.792 149.543 375.582 148.816C375.318 147.763 373.792 147.679 372.686 147.9C372.379 147.186 372.176 146.43 372.086 145.658C371.886 144.9 371.286 144.11 370.517 144.205C369.749 144.3 369.349 145.121 368.633 145.258C367.917 145.395 367.085 144.721 366.443 144.205C365.801 143.689 364.653 143.31 364.211 144.036C363.937 144.468 364.106 145.089 363.821 145.489C363.337 146.237 362.2 145.774 361.484 145.247C360.768 144.721 359.642 144.247 359.147 144.984C359.017 145.221 358.924 145.477 358.873 145.742C358.536 146.711 357.483 147.195 356.673 147.848C355.862 148.5 355.209 149.701 355.894 150.459C356.241 150.838 356.841 150.985 357.01 151.511C357.178 152.038 356.61 152.638 356.125 153.049C355.325 153.733 355.178 155.775 356.241 156.333C356.683 156.565 357.294 156.639 357.452 157.123C357.61 157.607 357.104 157.913 356.799 158.25C356.609 158.491 356.473 158.771 356.402 159.07C356.332 159.369 356.327 159.68 356.389 159.981C356.452 160.282 356.579 160.566 356.763 160.812C356.946 161.059 357.181 161.262 357.452 161.408C357.705 161.524 358.02 161.629 358.115 161.892C358.153 162.094 358.131 162.303 358.052 162.492C357.948 162.862 357.912 163.247 357.947 163.629C357.947 163.758 357.996 163.882 358.084 163.977C358.18 164.049 358.3 164.083 358.42 164.072C359.958 164.145 360.695 163.598 361.632 164.935C361.708 165.071 361.817 165.187 361.947 165.272C362.078 165.339 362.222 165.375 362.369 165.377C363.421 165.461 364.116 164.809 365.074 164.682C366.411 164.514 366.696 165.209 367.864 165.735C369.717 166.493 370.591 165.956 370.96 164.693Z" fill="#EBEBEB"/>
<path d="M362.606 159.208C362.724 158.753 362.795 158.287 362.816 157.818C362.995 154.933 365.743 155.386 368.08 154.997C369.912 154.691 365.069 150.069 368.754 148.585C369.472 148.386 370.099 147.947 370.534 147.343C370.718 146.89 370.739 146.386 370.593 145.92C370.447 145.453 370.143 145.051 369.733 144.784C368.891 144.276 367.916 144.03 366.933 144.079C366.333 143.352 366.817 142.247 367.407 141.499C367.996 140.752 368.702 139.91 368.459 138.983C368.123 137.593 366.185 137.541 364.775 137.814C364.386 136.909 364.131 135.951 364.017 134.972C363.764 134.014 362.964 133.014 362.027 133.129C361.09 133.245 360.542 134.288 359.637 134.498C358.731 134.709 357.668 133.824 356.847 133.119C356.026 132.413 354.583 131.992 354.015 132.908C353.667 133.456 353.878 134.224 353.52 134.772C352.909 135.709 351.414 135.119 350.551 134.456C349.688 133.793 348.214 133.193 347.582 134.109C347.418 134.412 347.301 134.739 347.235 135.077C346.803 136.309 345.476 136.92 344.434 137.709C343.392 138.499 342.581 140.068 343.455 141.036C343.887 141.51 344.655 141.699 344.866 142.31C345.076 142.921 344.36 143.742 343.75 144.268C342.697 145.132 342.549 147.722 343.887 148.48C344.455 148.774 345.287 148.869 345.424 149.532C345.561 150.196 344.981 150.522 344.602 150.954C344.366 151.26 344.198 151.613 344.111 151.99C344.023 152.367 344.018 152.759 344.096 153.137C344.174 153.516 344.333 153.874 344.562 154.186C344.792 154.498 345.085 154.756 345.424 154.944C345.75 155.091 346.15 155.218 346.266 155.555C346.314 155.809 346.289 156.072 346.192 156.313C346.056 156.78 346.013 157.271 346.066 157.755C346.062 157.838 346.075 157.921 346.104 157.998C346.133 158.076 346.177 158.147 346.234 158.208C346.362 158.293 346.513 158.337 346.666 158.334C348.614 158.418 349.551 157.723 350.73 159.387C350.833 159.56 350.973 159.707 351.14 159.819C351.308 159.902 351.491 159.949 351.677 159.955C353.015 160.061 353.888 159.229 355.11 159.071C356.805 158.86 357.163 159.734 358.658 160.429C361.027 161.461 362.174 160.787 362.606 159.208Z" fill="#EBEBEB"/>
<path d="M386.084 134.466C386.2 134.011 386.267 133.545 386.284 133.076C386.463 130.202 389.211 130.655 391.548 130.265C393.38 129.96 388.537 125.338 392.222 123.843C392.938 123.648 393.566 123.213 394.001 122.611C394.185 122.158 394.207 121.655 394.061 121.188C393.915 120.721 393.611 120.32 393.201 120.053C392.358 119.544 391.383 119.299 390.4 119.347C389.8 118.621 390.295 117.516 390.874 116.768C391.453 116.02 392.169 115.178 391.927 114.252C391.59 112.862 389.653 112.809 388.242 113.083C387.855 112.177 387.599 111.219 387.484 110.24C387.231 109.282 386.431 108.282 385.494 108.398C384.557 108.514 384.01 109.556 383.104 109.767C382.199 109.977 381.135 109.082 380.314 108.388C379.493 107.693 378.051 107.261 377.482 108.177C377.135 108.724 377.345 109.493 376.987 110.03C376.377 110.967 374.882 110.388 374.018 109.725C373.155 109.061 371.681 108.451 371.049 109.377C370.89 109.683 370.773 110.009 370.702 110.346C370.27 111.578 368.944 112.188 367.901 112.978C366.859 113.767 366.048 115.336 366.922 116.305C367.354 116.779 368.123 116.968 368.333 117.579C368.544 118.189 367.828 119.011 367.217 119.526C366.164 120.4 366.017 122.99 367.364 123.738C367.922 124.043 368.754 124.127 368.891 124.791C369.028 125.454 368.449 125.78 368.08 126.212C367.842 126.516 367.672 126.868 367.583 127.244C367.494 127.62 367.488 128.011 367.565 128.389C367.642 128.768 367.8 129.125 368.029 129.436C368.259 129.748 368.553 130.005 368.891 130.192C369.217 130.349 369.618 130.476 369.733 130.813C369.787 131.067 369.762 131.332 369.66 131.571C369.523 132.039 369.48 132.529 369.533 133.013C369.53 133.096 369.543 133.179 369.572 133.256C369.601 133.334 369.645 133.405 369.702 133.466C369.829 133.552 369.981 133.592 370.133 133.582C372.081 133.676 373.018 132.981 374.208 134.634C374.31 134.805 374.446 134.952 374.608 135.066C374.775 135.15 374.958 135.196 375.145 135.203C376.482 135.308 377.356 134.477 378.577 134.319C380.272 134.097 380.63 134.971 382.125 135.677C384.494 136.751 385.642 136.045 386.084 134.466Z" fill="#EBEBEB"/>
<path d="M405.237 135.445C405.352 134.99 405.422 134.524 405.448 134.055C405.616 131.181 408.364 131.634 410.712 131.244C412.544 130.939 407.701 126.317 411.386 124.822C412.105 124.627 412.737 124.193 413.176 123.59C413.359 123.136 413.379 122.632 413.231 122.165C413.083 121.698 412.776 121.298 412.365 121.032C411.522 120.524 410.547 120.278 409.564 120.327C408.964 119.6 409.459 118.495 410.038 117.747C410.617 117 411.333 116.157 411.091 115.231C410.754 113.841 408.817 113.789 407.406 114.062C407.019 113.156 406.763 112.199 406.648 111.22C406.395 110.262 405.595 109.261 404.658 109.377C403.721 109.493 403.174 110.535 402.268 110.746C401.363 110.957 400.31 110.062 399.478 109.367C398.647 108.672 397.215 108.24 396.646 109.156C396.309 109.704 396.509 110.472 396.151 111.009C395.541 111.957 394.046 111.367 393.182 110.704C392.319 110.041 390.845 109.43 390.213 110.356C390.058 110.664 389.942 110.989 389.866 111.325C389.434 112.557 388.108 113.167 387.065 113.957C386.023 114.747 385.213 116.315 386.086 117.284C386.518 117.758 387.287 117.947 387.497 118.558C387.708 119.169 386.992 119.99 386.381 120.516C385.328 121.379 385.181 123.969 386.529 124.727C387.087 125.022 387.918 125.106 388.055 125.78C388.192 126.454 387.613 126.77 387.244 127.202C387.007 127.506 386.839 127.858 386.751 128.234C386.663 128.61 386.657 129 386.734 129.378C386.811 129.756 386.969 130.113 387.197 130.424C387.425 130.736 387.718 130.994 388.055 131.181C388.382 131.339 388.782 131.466 388.897 131.802C388.951 132.057 388.926 132.321 388.824 132.56C388.687 133.028 388.644 133.518 388.697 134.003C388.694 134.086 388.707 134.168 388.736 134.246C388.765 134.324 388.809 134.395 388.866 134.456C388.993 134.541 389.145 134.582 389.297 134.571C391.245 134.666 392.182 133.971 393.372 135.624C393.474 135.794 393.61 135.941 393.772 136.056C393.939 136.139 394.122 136.186 394.309 136.193C395.646 136.298 396.52 135.466 397.741 135.308C399.436 135.087 399.794 135.972 401.289 136.666C403.647 137.73 404.795 137.098 405.237 135.445Z" fill="#EBEBEB"/>
<path d="M416.914 143.289C417.034 142.835 417.105 142.369 417.125 141.899C417.293 139.025 420.052 139.478 422.389 139.088C424.221 138.783 419.378 134.161 423.063 132.666C423.78 132.471 424.408 132.036 424.842 131.434C425.027 130.981 425.048 130.478 424.902 130.011C424.756 129.544 424.452 129.143 424.042 128.876C423.199 128.367 422.224 128.122 421.241 128.17C420.641 127.444 421.126 126.338 421.705 125.591C422.284 124.843 423 123.991 422.758 123.075C422.431 121.685 420.483 121.632 419.083 121.906C418.696 121 418.441 120.042 418.325 119.063C418.073 118.105 417.272 117.105 416.335 117.221C415.398 117.337 414.84 118.379 413.935 118.59C413.029 118.8 411.977 117.905 411.155 117.21C410.334 116.516 408.881 116.073 408.313 117C407.976 117.547 408.176 118.316 407.829 118.853C407.218 119.79 405.723 119.211 404.86 118.547C403.996 117.884 402.522 117.274 401.891 118.2C401.728 118.505 401.607 118.831 401.533 119.169C401.112 120.4 399.774 121.011 398.743 121.801C397.711 122.59 396.879 124.159 397.764 125.128C398.195 125.601 398.953 125.791 399.174 126.402C399.395 127.012 398.669 127.833 398.058 128.349C397.005 129.223 396.848 131.813 398.195 132.561C398.764 132.866 399.595 132.95 399.732 133.613C399.869 134.277 399.29 134.603 398.911 135.035C398.675 135.34 398.507 135.693 398.42 136.069C398.332 136.445 398.328 136.835 398.406 137.214C398.484 137.592 398.643 137.949 398.872 138.259C399.101 138.57 399.394 138.828 399.732 139.014C400.059 139.172 400.448 139.299 400.575 139.636C400.625 139.891 400.595 140.155 400.49 140.394C400.364 140.863 400.321 141.351 400.364 141.836C400.367 142.004 400.431 142.164 400.543 142.289C400.666 142.374 400.815 142.415 400.964 142.404C402.912 142.489 403.849 141.804 405.039 143.457C405.144 143.628 405.284 143.775 405.449 143.889C405.615 143.974 405.8 144.017 405.986 144.015C407.323 144.131 408.197 143.299 409.418 143.141C411.113 142.92 411.471 143.794 412.966 144.5C415.293 145.573 416.43 144.889 416.914 143.289Z" fill="#EBEBEB"/>
<path d="M413.344 153.207C413.344 153.207 408.48 160.082 406.796 162.272C405.111 164.462 396.731 178.064 395.583 187.034C395.467 187.992 395.341 188.824 395.225 189.55C398.836 213.376 398.268 256.931 398.141 264.427H386.708C386.602 256.005 385.655 179.085 385.265 176.737C384.876 174.39 380.064 164.788 372.695 160.893C365.325 156.997 359.008 144.142 359.008 144.142H361.366C361.366 144.142 365.725 152.028 371.894 156.397C372.786 157.01 373.719 157.562 374.684 158.05C374.67 153.303 375.508 148.592 377.158 144.142L378.432 145.311C376.716 152.344 376.937 156.839 377.464 159.429C379.808 160.526 381.97 161.974 383.876 163.725C390.319 155.302 393.941 136.193 393.941 136.193L395.593 137.088C395.13 141.044 394.427 144.967 393.488 148.838C392.277 153.796 388.729 163.135 387.076 167.367C389.052 170.211 390.685 173.278 391.94 176.506C392.115 176.231 392.323 175.98 392.561 175.758C396.773 171.968 404.648 154.039 404.648 154.039C406.553 149.827 403.595 138.941 403.595 138.941H405.795L406.785 148.501L412.323 142.458L413.376 143.3L407.438 150.849L404.416 160.419L412.302 151.691L413.344 153.207Z" fill="#E6E6E6"/>
<path d="M123.014 281.525H130.289L130.289 47.1033H123.014L123.014 281.525Z" fill="#E6E6E6"/>
<path d="M64.2248 281.63V295.254H448.021V281.63C448.051 281.082 447.97 280.534 447.781 280.019C447.593 279.503 447.302 279.031 446.926 278.632C446.55 278.232 446.097 277.913 445.594 277.694C445.091 277.474 444.548 277.359 444 277.356H68.2045C67.6593 277.365 67.1215 277.484 66.6234 277.706C66.1253 277.928 65.677 278.248 65.3055 278.647C64.9339 279.046 64.6467 279.516 64.461 280.028C64.2753 280.541 64.195 281.086 64.2248 281.63Z" fill="#E0E0E0"/>
<path d="M426.141 277.356H402.273V295.254H426.141V277.356Z" fill="#F5F5F5"/>
<path d="M380.399 277.356H357.531V295.254H380.399V277.356Z" fill="#F5F5F5"/>
<path d="M335.649 277.356H311.781V295.254H335.649V277.356Z" fill="#F5F5F5"/>
<path d="M289.906 277.356H267.039V295.254H289.906V277.356Z" fill="#F5F5F5"/>
<path d="M245.156 277.356H222.289V295.254H245.156V277.356Z" fill="#F5F5F5"/>
<path d="M200.422 277.356H176.555V295.254H200.422V277.356Z" fill="#F5F5F5"/>
<path d="M154.672 277.356H131.805V295.254H154.672V277.356Z" fill="#F5F5F5"/>
<path d="M109.938 277.356H86.0703V295.254H109.938V277.356Z" fill="#F5F5F5"/>
<path d="M263.202 342.989C375.941 342.989 467.335 337.653 467.335 331.071C467.335 324.489 375.941 319.153 263.202 319.153C150.463 319.153 59.0703 324.489 59.0703 331.071C59.0703 337.653 150.463 342.989 263.202 342.989Z" fill="#F5F5F5"/>
<path d="M441.376 3.25269H280.504C274.457 3.25269 269.555 8.15489 269.555 14.2021V321.048C269.555 327.095 274.457 331.997 280.504 331.997H441.376C447.423 331.997 452.325 327.095 452.325 321.048V14.2021C452.325 8.15489 447.423 3.25269 441.376 3.25269Z" fill="#263238"/>
<path d="M446.155 14.2654V320.395C446.155 320.988 446.038 321.575 445.809 322.122C445.58 322.669 445.245 323.165 444.823 323.582C444.4 323.998 443.9 324.326 443.349 324.547C442.799 324.769 442.211 324.878 441.618 324.87H279.778C279.238 324.877 278.703 324.775 278.204 324.571C277.705 324.367 277.252 324.064 276.873 323.681C276.493 323.297 276.195 322.841 275.996 322.34C275.797 321.839 275.701 321.303 275.714 320.764V13.918C275.695 13.4423 275.771 12.9677 275.936 12.5212C276.101 12.0748 276.353 11.6653 276.677 11.3163C277 10.9672 277.39 10.6853 277.822 10.4868C278.255 10.2883 278.723 10.1771 279.198 10.1594H319.659C320.224 10.1699 320.773 10.3488 321.237 10.6732C321.7 10.9977 322.056 11.453 322.259 11.9808L323.933 16.1079C324.141 16.6326 324.501 17.0838 324.965 17.4043C325.43 17.7247 325.979 17.9001 326.544 17.9082H395.42C395.982 17.9069 396.53 17.7378 396.995 17.4227C397.461 17.1076 397.821 16.6607 398.031 16.1395L399.705 11.9913C399.907 11.4623 400.263 11.0056 400.726 10.6794C401.189 10.3531 401.739 10.1721 402.305 10.1594H442.186C443.253 10.1897 444.266 10.6362 445.008 11.4036C445.749 12.171 446.161 13.1982 446.155 14.2654Z" fill="#0177AA"/>
<path opacity="0.3" d="M446.153 29.2576H275.711V307.645H446.153V29.2576Z" fill="white"/>
<path opacity="0.6" d="M294.504 22.4769H296.609V19.6659H294.504V22.4769Z" fill="white"/>
<path opacity="0.6" d="M291.066 22.4769H293.172V18.7289H291.066V22.4769Z" fill="white"/>
<path opacity="0.6" d="M287.637 22.4769H289.742V17.8024H287.637V22.4769Z" fill="white"/>
<path opacity="0.6" d="M284.215 22.4669H286.32V16.8554H284.215V22.4669Z" fill="white"/>
<path opacity="0.6" d="M426.87 18.645H425.617V21.4561H426.87V18.645Z" fill="white"/>
<path opacity="0.6" d="M427.733 22.4669H437.672V17.6134H427.733V22.4669Z" fill="white"/>
<path opacity="0.4" d="M439.17 55.0623H282.71C280.169 55.0623 278.109 57.1221 278.109 59.6631V141.689C278.109 144.23 280.169 146.289 282.71 146.289H439.17C441.711 146.289 443.771 144.23 443.771 141.689V59.6631C443.771 57.1221 441.711 55.0623 439.17 55.0623Z" fill="white"/>
<path d="M401.874 57.4523H319.996C317.88 57.4523 316.164 59.168 316.164 61.2846V140.057C316.164 142.173 317.88 143.889 319.996 143.889H401.874C403.991 143.889 405.707 142.173 405.707 140.057V61.2846C405.707 59.168 403.991 57.4523 401.874 57.4523Z" fill="white"/>
<path d="M302.669 103.007C302.669 104.151 302.33 105.268 301.695 106.219C301.06 107.169 300.157 107.91 299.101 108.347C298.045 108.785 296.883 108.899 295.762 108.676C294.641 108.453 293.611 107.903 292.802 107.094C291.994 106.286 291.443 105.256 291.22 104.135C290.997 103.014 291.112 101.852 291.549 100.796C291.987 99.7394 292.728 98.8366 293.678 98.2015C294.629 97.5664 295.746 97.2274 296.889 97.2274C298.422 97.2274 299.893 97.8364 300.976 98.9203C302.06 100.004 302.669 101.474 302.669 103.007Z" fill="#263238"/>
<path opacity="0.2" d="M300.349 103.008C300.349 103.693 300.146 104.363 299.765 104.933C299.384 105.503 298.842 105.947 298.209 106.209C297.575 106.471 296.878 106.539 296.206 106.404C295.534 106.27 294.917 105.939 294.433 105.453C293.949 104.968 293.62 104.35 293.487 103.677C293.355 103.004 293.425 102.308 293.689 101.675C293.952 101.042 294.398 100.502 294.969 100.123C295.54 99.7432 296.211 99.5419 296.896 99.544C297.813 99.5467 298.691 99.9129 299.339 100.562C299.986 101.211 300.349 102.091 300.349 103.008Z" fill="black"/>
<path d="M282.992 94.438L284.498 92.2166C284.498 92.2166 290.215 92.9115 292.71 90.5426H300.058L300.406 90.8269L292.141 97.228L284.55 96.1752L282.992 94.438Z" fill="#263238"/>
<path d="M296.891 95.6061H299.649L303.881 102.27H304.85L301.797 95.6061V93.1846H299.228L296.891 95.6061Z" fill="#263238"/>
<path d="M278.109 88.047L278.257 88.5523L278.109 89.2262V88.047Z" fill="#263238"/>
<path d="M279.505 84.3306L278.873 85.4782L279.862 85.9519L280.126 86.6679L279.81 87.0363L280.863 87.8365C280.892 87.9066 280.906 87.9822 280.904 88.0583C280.902 88.1343 280.883 88.2089 280.849 88.2769C280.815 88.345 280.766 88.4048 280.707 88.4524C280.648 88.4999 280.579 88.5341 280.505 88.5524L279.147 87.8365H278.094V85.3729H278.557L279.125 84.12C279.125 84.12 278.662 82.983 280.642 82.1934L281.105 82.5618V83.5515L280.484 84.12L279.505 84.3306Z" fill="#263238"/>
<path d="M278.836 90.0578L278.109 91.0896V89.3524L278.836 90.0578Z" fill="#0177AA"/>
<path d="M303.893 91.4473L302.019 94.2163L301.808 94.0478L301.261 93.5951L297.713 95.4691L297.397 95.6165L290.217 98.9434L290.701 99.5436H294.449L294.87 100.207L293.66 101.797L291.396 104.776L290.501 105.955H278.109V95.8692C278.943 96.5759 279.943 97.0579 281.015 97.2695C281.074 97.2861 281.136 97.2861 281.194 97.2695C281.266 97.2325 281.334 97.1865 281.394 97.1326H281.447C281.495 97.0853 281.538 97.0322 281.573 96.9747C281.595 96.9454 281.612 96.9136 281.626 96.8799C281.656 96.8202 281.677 96.7564 281.689 96.6904C281.727 96.3652 281.648 96.0371 281.468 95.7639L282.994 94.5216C291.522 94.7321 293.891 92.5844 293.891 92.5844L300.335 90.9104L303.893 91.4473Z" fill="#0177AA"/>
<path d="M294.87 100.207L293.66 101.797L291.396 104.777L290.501 105.956H278.109V105.419L280.289 105.05L279.878 102.692L285.332 98.7019L287.511 99.5442L290.217 98.944L290.701 99.5442H294.449L294.87 100.207Z" fill="#263238"/>
<path d="M281.01 97.27C280.679 97.4481 280.324 97.5792 279.957 97.6595L278.125 96.7436V95.8698C278.952 96.5733 279.945 97.0551 281.01 97.27Z" fill="#263238"/>
<path opacity="0.2" d="M278.836 90.0578L278.109 91.0896V89.3524L278.836 90.0578Z" fill="black"/>
<path opacity="0.2" d="M284.037 96.1645L280.71 99.544L278.109 98.0806V95.8697C278.943 96.5764 279.943 97.0584 281.015 97.2699C281.074 97.2866 281.136 97.2866 281.194 97.2699C281.266 97.233 281.334 97.187 281.394 97.1331H281.447C281.495 97.0858 281.538 97.0327 281.573 96.9751C281.595 96.9459 281.612 96.9141 281.626 96.8804C281.656 96.8207 281.677 96.7568 281.689 96.6909C281.727 96.3656 281.648 96.0375 281.468 95.7644L284.037 96.1645Z" fill="black"/>
<path opacity="0.2" d="M303.893 91.4478L302.019 94.2167L301.808 94.0482L301.261 93.5955L297.713 95.4695L297.397 95.6169L290.217 98.9439L290.701 99.544H294.449L294.87 100.207L293.66 101.797L291.396 104.777L290.501 105.956H278.109V98.828L281.12 100.439L285.226 97.7226L289.354 98.249L291.533 97.1541L293.449 96.1749L299.124 93.3113L299.366 93.1849L300.882 92.4164L303.893 91.4478Z" fill="black"/>
<path d="M329.016 102.176H391.501L390.248 90.9742L372.245 87.1208L355.515 90.0372L335.364 92.0165L330.363 97.7438L329.016 102.176Z" fill="#263238"/>
<path opacity="0.2" d="M329.016 102.176H391.501L390.248 90.9742L372.245 87.1208L355.515 90.0372L335.364 92.0165L330.363 97.7438L329.016 102.176Z" fill="black"/>
<path d="M346.38 102.176C346.38 103.484 345.992 104.762 345.265 105.849C344.539 106.937 343.506 107.784 342.298 108.285C341.09 108.785 339.761 108.916 338.478 108.661C337.196 108.406 336.017 107.776 335.093 106.851C334.168 105.927 333.538 104.748 333.283 103.466C333.028 102.183 333.159 100.854 333.66 99.6459C334.16 98.4377 335.007 97.4051 336.095 96.6786C337.182 95.9521 338.46 95.5643 339.768 95.5643C340.636 95.5643 341.496 95.7353 342.298 96.0676C343.1 96.3999 343.829 96.8869 344.443 97.5009C345.057 98.1148 345.544 98.8437 345.876 99.6459C346.209 100.448 346.38 101.308 346.38 102.176Z" fill="#263238"/>
<path opacity="0.2" d="M339.797 106.598C342.239 106.598 344.219 104.618 344.219 102.176C344.219 99.7338 342.239 97.754 339.797 97.754C337.355 97.754 335.375 99.7338 335.375 102.176C335.375 104.618 337.355 106.598 339.797 106.598Z" fill="black"/>
<path d="M389.544 102.176C389.544 103.484 389.156 104.762 388.43 105.849C387.703 106.937 386.67 107.784 385.462 108.285C384.254 108.785 382.925 108.916 381.642 108.661C380.36 108.406 379.182 107.776 378.257 106.851C377.332 105.927 376.702 104.748 376.447 103.466C376.192 102.183 376.323 100.854 376.824 99.6459C377.324 98.4377 378.171 97.4051 379.259 96.6786C380.346 95.9521 381.624 95.5643 382.932 95.5643C383.8 95.5643 384.66 95.7353 385.462 96.0676C386.264 96.3999 386.993 96.8869 387.607 97.5009C388.221 98.1148 388.708 98.8437 389.041 99.6459C389.373 100.448 389.544 101.308 389.544 102.176Z" fill="#263238"/>
<path opacity="0.2" d="M382.953 106.598C385.395 106.598 387.375 104.618 387.375 102.176C387.375 99.7338 385.395 97.754 382.953 97.754C380.511 97.754 378.531 99.7338 378.531 102.176C378.531 104.618 380.511 106.598 382.953 106.598Z" fill="black"/>
<path d="M395.767 96.2908L395.041 101.46L390.977 102.745C390.977 102.745 390.871 94.0061 382.028 94.0061C373.184 94.0061 374.321 104.419 374.321 104.419H372.773L369.857 103.166H350.759L349.095 104.461H347.969C347.969 104.461 348.906 94.0483 339.788 94.0483C330.671 94.0483 331.829 104.461 331.829 104.461L326.617 102.218L326.102 96.954L328.281 95.5959L328.807 92.4374C329.039 92.2584 329.281 92.09 329.523 91.9321C335.619 87.8471 343.957 87.2996 343.957 87.2996C351.127 80.0036 354.033 78.9718 354.033 78.9718C364.75 78.3201 375.502 78.5279 386.186 79.593L390.977 85.7309L392.103 86.6469L393.272 87.605C393.713 89.7298 393.886 91.9014 393.788 94.0693L395.767 96.2908Z" fill="#0177AA"/>
<path opacity="0.6" d="M334.048 92.2266L330.395 95.564H328.289L328.815 92.4056C329.047 92.2266 329.289 92.0581 329.531 91.9002L332.184 91.5001L334.048 92.2266Z" fill="white"/>
<path opacity="0.6" d="M393.756 94.0059L392.429 93.5111C392.312 91.5578 391.742 89.6584 390.766 87.9627L392.071 86.5835L393.24 87.5416C393.681 89.6664 393.854 91.838 393.756 94.0059Z" fill="white"/>
<path d="M390.98 85.6676C382.315 87.7732 343.961 87.2363 343.961 87.2363L344.614 86.5835C347.029 84.0363 349.696 81.7399 352.573 79.7296C353.029 79.4024 353.52 79.127 354.036 78.9084C364.754 78.2568 375.506 78.4645 386.19 79.5296L390.98 85.6676Z" fill="#263238"/>
<path opacity="0.6" d="M354.359 79.73L348.105 86.5629H344.609C347.025 84.0156 349.691 81.7193 352.569 79.709L354.359 79.73Z" fill="white"/>
<path opacity="0.6" d="M349.875 86.5834L355.392 79.719H363.625L362.993 86.5834H349.875Z" fill="white"/>
<path opacity="0.6" d="M364.977 86.5629L365.703 79.709H377.052L379.032 85.9206C379.032 85.9206 372.167 86.5629 364.977 86.5629Z" fill="white"/>
<path opacity="0.6" d="M378.383 79.73L380.488 85.7732C380.488 85.7732 387.153 85.3626 388.09 84.9415L385.331 81.1724C385.078 80.8695 384.767 80.6204 384.417 80.4395C384.066 80.2587 383.682 80.1499 383.289 80.1195C381.664 79.8794 380.025 79.7492 378.383 79.73Z" fill="white"/>
<path opacity="0.2" d="M395.767 96.2907L395.041 101.46L390.977 102.745C390.977 102.745 390.871 94.0061 382.028 94.0061C373.184 94.0061 374.321 104.419 374.321 104.419H372.773L369.857 103.166H350.759L349.095 104.461H347.969C347.969 104.461 348.906 94.0482 339.788 94.0482C330.671 94.0482 331.829 104.461 331.829 104.461L326.617 102.218L326.102 96.954H330.397C331.522 95.3518 333.021 94.049 334.764 93.159C336.507 92.269 338.442 91.8188 340.399 91.8478C347.274 91.8478 349.485 96.954 349.485 96.954H371.531C371.531 96.954 375.279 91.7741 380.796 91.5004C383.85 91.2447 386.908 91.9476 389.545 93.5113H392.44L393.767 94.0061L395.767 96.2907Z" fill="black"/>
<path d="M443.763 90.4263V104.555H422.18C422.18 104.555 423.612 99.7227 424.728 96.4379C425.003 95.3956 425.406 94.3913 425.928 93.4479C428.802 91.8897 435.498 90.9527 443.763 90.4263Z" fill="#263238"/>
<path opacity="0.2" d="M443.763 90.4263V104.555H422.18C422.18 104.555 423.612 99.7227 424.728 96.4379C425.003 95.3956 425.406 94.3913 425.928 93.4479C428.802 91.8897 435.498 90.9527 443.763 90.4263Z" fill="black"/>
<path d="M434.179 108.777C437.656 108.777 440.475 105.958 440.475 102.481C440.475 99.0041 437.656 96.1853 434.179 96.1853C430.702 96.1853 427.883 99.0041 427.883 102.481C427.883 105.958 430.702 108.777 434.179 108.777Z" fill="#263238"/>
<path opacity="0.2" d="M434.187 108.051C437.263 108.051 439.756 105.557 439.756 102.481C439.756 99.4054 437.263 96.9119 434.187 96.9119C431.111 96.9119 428.617 99.4054 428.617 102.481C428.617 105.557 431.111 108.051 434.187 108.051Z" fill="white"/>
<path d="M435.677 84.4572C438.762 82.5727 441.425 81.0355 443.773 79.7932V106.461H441.72L441.373 104.598L440.572 100.292C440.343 99.0435 439.684 97.9153 438.708 97.1035C437.733 96.2916 436.504 95.8476 435.235 95.8488H432.718C431.529 95.8387 430.37 96.2196 429.419 96.933C428.468 97.6464 427.777 98.6527 427.454 99.7969L426.096 104.598L425.57 106.461L417.031 105.356L418.084 98.1018L418.253 96.9542L419.916 95.8488L423.18 88.3527L426.212 87.4051L435.677 84.4572Z" fill="#0177AA"/>
<path opacity="0.7" d="M427.888 87.8896L423.877 94.6908L419.992 95.8068L423.256 88.3107L426.288 87.3632C427.236 87.6158 427.888 87.8896 427.888 87.8896Z" fill="white"/>
<path opacity="0.4" d="M443.769 81.6145V85.6784C441.676 85.7341 439.582 85.5931 437.516 85.2573C437.516 85.2573 440.527 83.4569 443.769 81.6145Z" fill="black"/>
<path opacity="0.2" d="M443.773 98.2281V106.419H441.72L441.373 104.556L440.572 100.25C440.343 99.0014 439.684 97.8731 438.708 97.0613C437.733 96.2494 436.504 95.8054 435.235 95.8066H432.718C431.529 95.7965 430.37 96.1774 429.419 96.8908C428.468 97.6042 427.777 98.6105 427.454 99.7547L426.096 104.556L425.57 106.419L417.031 105.314L418.084 98.0596L424.496 96.1856L424.685 96.4383L425.886 98.028C425.886 98.028 427.991 93.9957 435.129 93.9957C440.909 93.9957 443.12 97.0173 443.773 98.2281Z" fill="black"/>
<path d="M376.228 135.519H345.696C345.042 135.519 344.395 135.39 343.792 135.14C343.188 134.889 342.64 134.522 342.178 134.06C341.717 133.597 341.351 133.048 341.102 132.444C340.853 131.84 340.725 131.193 340.727 130.539C340.727 129.221 341.25 127.957 342.182 127.025C343.114 126.093 344.378 125.57 345.696 125.57H376.228C377.546 125.57 378.81 126.093 379.742 127.025C380.674 127.957 381.197 129.221 381.197 130.539C381.197 131.858 380.674 133.123 379.742 134.057C378.811 134.99 377.547 135.516 376.228 135.519Z" fill="#0177AA"/>
<path d="M443.771 33.3528H278.109V52.5142H443.771V33.3528Z" fill="#0177AA"/>
<path opacity="0.6" d="M360.909 10.5384C360.909 11.0007 360.772 11.4526 360.515 11.837C360.258 12.2213 359.893 12.5209 359.466 12.6978C359.039 12.8747 358.569 12.921 358.116 12.8308C357.662 12.7406 357.246 12.518 356.919 12.1911C356.592 11.8643 356.369 11.4478 356.279 10.9944C356.189 10.541 356.235 10.0711 356.412 9.64401C356.589 9.21693 356.889 8.8519 357.273 8.59507C357.658 8.33825 358.109 8.20117 358.572 8.20117C358.879 8.20117 359.183 8.26163 359.466 8.37909C359.75 8.49655 360.007 8.66871 360.224 8.88574C360.441 9.10278 360.614 9.36044 360.731 9.64401C360.848 9.92758 360.909 10.2315 360.909 10.5384Z" fill="white"/>
<path opacity="0.6" d="M365.644 10.5382C365.646 10.8364 365.559 11.1285 365.395 11.3775C365.231 11.6265 364.997 11.8211 364.722 11.9366C364.447 12.0522 364.144 12.0835 363.851 12.0266C363.558 11.9697 363.289 11.8272 363.078 11.6171C362.866 11.4069 362.721 11.1387 362.663 10.8464C362.604 10.554 362.633 10.2508 362.746 9.97506C362.86 9.69935 363.053 9.46359 363.301 9.29769C363.549 9.13179 363.84 9.04322 364.138 9.04321C364.536 9.0432 364.917 9.20037 365.199 9.48044C365.481 9.76051 365.641 10.1408 365.644 10.5382Z" fill="white"/>
<path opacity="0.2" d="M309.414 98.8072L314.541 105.651V91.9744L309.414 98.8072Z" fill="black"/>
<path opacity="0.2" d="M412.455 98.8072L407.328 91.9744V105.651L412.455 98.8072Z" fill="black"/>
<path opacity="0.4" d="M438.465 149.658H283.416C280.485 149.658 278.109 152.034 278.109 154.965V259.942C278.109 262.872 280.485 265.248 283.416 265.248H438.465C441.396 265.248 443.771 262.872 443.771 259.942V154.965C443.771 152.034 441.396 149.658 438.465 149.658Z" fill="white"/>
<path opacity="0.4" d="M441.466 268.133H280.415C279.142 268.133 278.109 269.165 278.109 270.439V301.265C278.109 302.539 279.142 303.571 280.415 303.571H441.466C442.739 303.571 443.771 302.539 443.771 301.265V270.439C443.771 269.165 442.739 268.133 441.466 268.133Z" fill="white"/>
<path d="M292.682 293.316C292.663 292.855 292.782 292.398 293.025 292.005C293.268 291.611 293.623 291.3 294.044 291.11C294.465 290.92 294.933 290.86 295.389 290.939C295.844 291.017 296.266 291.23 296.599 291.55C296.933 291.87 297.163 292.282 297.26 292.734C297.357 293.185 297.317 293.656 297.145 294.085C296.973 294.513 296.677 294.881 296.294 295.14C295.911 295.399 295.46 295.537 294.998 295.538C294.698 295.554 294.397 295.508 294.115 295.403C293.833 295.298 293.576 295.137 293.359 294.928C293.142 294.72 292.97 294.47 292.853 294.192C292.737 293.915 292.678 293.617 292.682 293.316ZM296.514 293.316C296.514 293.016 296.425 292.723 296.258 292.474C296.092 292.225 295.855 292.03 295.578 291.916C295.301 291.801 294.996 291.771 294.702 291.829C294.408 291.888 294.138 292.032 293.926 292.244C293.714 292.456 293.569 292.726 293.511 293.02C293.452 293.315 293.482 293.619 293.597 293.896C293.712 294.173 293.906 294.41 294.156 294.577C294.405 294.743 294.698 294.832 294.998 294.832C295.196 294.834 295.392 294.795 295.575 294.719C295.758 294.643 295.924 294.531 296.062 294.39C296.201 294.248 296.309 294.08 296.382 293.896C296.454 293.711 296.488 293.514 296.482 293.316H296.514Z" fill="#263238"/>
<path d="M426.069 271.449H317.828C316.35 271.512 314.954 272.144 313.931 273.212C312.907 274.28 312.336 275.702 312.336 277.182C312.336 278.661 312.907 280.083 313.931 281.151C314.954 282.219 316.35 282.851 317.828 282.914H426.069C427.547 282.851 428.943 282.219 429.967 281.151C430.99 280.083 431.561 278.661 431.561 277.182C431.561 275.702 430.99 274.28 429.967 273.212C428.943 272.144 427.547 271.512 426.069 271.449Z" fill="white"/>
<path d="M426.07 287.936H317.829C316.31 287.936 314.853 288.54 313.779 289.614C312.705 290.688 312.102 292.145 312.102 293.664C312.102 295.183 312.705 296.639 313.779 297.714C314.853 298.788 316.31 299.391 317.829 299.391H426.07C427.589 299.391 429.046 298.788 430.12 297.714C431.194 296.639 431.797 295.183 431.797 293.664C431.797 292.145 431.194 290.688 430.12 289.614C429.046 288.54 427.589 287.936 426.07 287.936Z" fill="white"/>
<path d="M443.766 187.981C422.636 194.593 400.821 201.447 379.891 208.059L399.021 243.655L443.808 245.171V255.699L392.567 253.962L369.668 211.28L341.358 220.271L361.941 265.269H350.36L331.24 223.493C309.731 230.347 291.233 236.327 278.094 240.644V229.557C281.947 228.294 286.253 226.883 290.97 225.346C300.972 222.103 312.963 218.25 326.829 213.828L309.005 174.831L278.104 184.654V173.61L304.593 165.188L297.497 149.669H309.078L336.904 210.617C347.875 207.108 359.856 203.314 372.848 199.236L395.389 192.129L375.859 149.669H387.44L405.528 188.939L443.735 176.948L443.766 187.981Z" fill="#0177AA"/>
<path opacity="0.4" d="M443.772 154.996V259.963C443.779 260.659 443.648 261.349 443.386 261.994C443.125 262.638 442.738 263.225 442.248 263.719C441.759 264.214 441.176 264.606 440.534 264.874C439.892 265.142 439.203 265.28 438.507 265.28H283.426C282.726 265.287 282.032 265.154 281.383 264.889C280.735 264.625 280.146 264.233 279.651 263.738C279.156 263.243 278.765 262.654 278.5 262.006C278.235 261.358 278.103 260.663 278.11 259.963V154.996C278.11 154.301 278.248 153.612 278.515 152.97C278.783 152.328 279.176 151.745 279.67 151.255C280.164 150.766 280.751 150.379 281.396 150.118C282.04 149.856 282.731 149.725 283.426 149.732H438.465C439.16 149.727 439.849 149.859 440.493 150.121C441.136 150.383 441.722 150.77 442.215 151.259C442.708 151.749 443.1 152.331 443.367 152.972C443.634 153.614 443.772 154.302 443.772 154.996Z" fill="white"/>
<path d="M358.273 203.1C356.34 201.166 353.717 200.08 350.983 200.08C348.248 200.08 345.625 201.166 343.692 203.1C341.758 205.034 340.672 207.656 340.672 210.391C340.672 213.125 341.758 215.748 343.692 217.682L350.977 224.967L358.273 217.682C360.205 215.747 361.291 213.125 361.291 210.391C361.291 207.657 360.205 205.035 358.273 203.1ZM354.631 214.039C353.909 214.76 352.99 215.252 351.989 215.451C350.989 215.65 349.951 215.547 349.009 215.157C348.066 214.766 347.26 214.105 346.694 213.257C346.127 212.409 345.824 211.411 345.824 210.391C345.824 209.371 346.127 208.373 346.694 207.525C347.26 206.676 348.066 206.015 349.009 205.625C349.951 205.234 350.989 205.132 351.989 205.331C352.99 205.53 353.909 206.021 354.631 206.743C355.596 207.712 356.138 209.023 356.138 210.391C356.138 211.758 355.596 213.07 354.631 214.039Z" fill="#0177AA"/>
<path d="M243.73 251.719H236.055V331.997H243.73V251.719Z" fill="#263238"/>
<path opacity="0.2" d="M243.73 251.719H236.055V331.997H243.73V251.719Z" fill="black"/>
<path d="M298.675 251.719H291V331.997H298.675V251.719Z" fill="#263238"/>
<path opacity="0.2" d="M298.675 251.719H291V331.997H298.675V251.719Z" fill="black"/>
<path d="M170.464 251.719H162.789V331.997H170.464V251.719Z" fill="#263238"/>
<path d="M115.519 251.719H107.844V331.997H115.519V251.719Z" fill="#263238"/>
<path d="M314.41 248.75V254.688C314.411 254.916 314.367 255.141 314.281 255.352C314.195 255.563 314.068 255.754 313.908 255.916C313.747 256.077 313.556 256.205 313.346 256.293C313.136 256.38 312.911 256.425 312.683 256.425H100.581C100.12 256.425 99.6783 256.242 99.3526 255.917C99.0268 255.591 98.8438 255.149 98.8438 254.688V248.75C98.8438 248.289 99.0268 247.848 99.3526 247.522C99.6783 247.196 100.12 247.013 100.581 247.013H312.683C312.911 247.013 313.136 247.058 313.346 247.145C313.556 247.233 313.747 247.361 313.908 247.523C314.068 247.684 314.195 247.876 314.281 248.086C314.367 248.297 314.411 248.523 314.41 248.75Z" fill="#263238"/>
<path opacity="0.1" d="M314.41 248.75V254.688C314.411 254.916 314.367 255.141 314.281 255.352C314.195 255.563 314.068 255.754 313.908 255.916C313.747 256.077 313.556 256.205 313.346 256.293C313.136 256.38 312.911 256.425 312.683 256.425H100.581C100.12 256.425 99.6783 256.242 99.3526 255.917C99.0268 255.591 98.8438 255.149 98.8438 254.688V248.75C98.8438 248.289 99.0268 247.848 99.3526 247.522C99.6783 247.196 100.12 247.013 100.581 247.013H312.683C312.911 247.013 313.136 247.058 313.346 247.145C313.556 247.233 313.747 247.361 313.908 247.523C314.068 247.684 314.195 247.876 314.281 248.086C314.367 248.297 314.411 248.523 314.41 248.75Z" fill="white"/>
<path opacity="0.2" d="M158.718 248.75V254.688C158.719 254.916 158.676 255.141 158.589 255.352C158.503 255.563 158.376 255.754 158.216 255.916C158.055 256.077 157.865 256.205 157.654 256.293C157.444 256.38 157.219 256.425 156.991 256.425H100.581C100.12 256.425 99.6783 256.242 99.3526 255.917C99.0268 255.591 98.8438 255.149 98.8438 254.688V248.75C98.8438 248.289 99.0268 247.848 99.3526 247.522C99.6783 247.196 100.12 247.013 100.581 247.013H156.991C157.219 247.013 157.444 247.058 157.654 247.145C157.865 247.233 158.055 247.361 158.216 247.523C158.376 247.684 158.503 247.876 158.589 248.086C158.676 248.297 158.719 248.523 158.718 248.75Z" fill="white"/>
<path d="M217.67 156.049C217.67 156.049 221.607 156.849 221.597 157.565C221.586 158.281 220.06 163.977 219.354 164.672C218.621 165.271 217.823 165.787 216.975 166.209L218.028 175.4L212.648 176.79L212.574 166.999C212.574 166.999 210.679 164.114 212.037 161.292C213.395 158.471 217.67 156.049 217.67 156.049Z" fill="#EBB376"/>
<path opacity="0.2" d="M217.67 156.049C217.67 156.049 221.607 156.849 221.597 157.565C221.586 158.281 220.06 163.977 219.354 164.672C218.621 165.271 217.823 165.787 216.975 166.209L218.028 175.4L212.648 176.79L212.574 166.999C212.574 166.999 210.679 164.114 212.037 161.292C213.395 158.471 217.67 156.049 217.67 156.049Z" fill="black"/>
<path d="M203.382 157.102C206.941 159.65 208.288 173.726 209.699 175.768C211.11 177.811 211.657 171.883 211.657 171.883L218.827 171.536C218.827 171.536 219.806 179.959 215.669 185.865C211.531 191.771 203.909 187.402 199.581 177.842C195.254 168.283 203.382 157.102 203.382 157.102Z" fill="#0177AA"/>
<path opacity="0.2" d="M215.668 185.886C214.913 187.077 213.76 187.961 212.415 188.381C208.266 189.571 202.939 185.223 199.591 177.853C198.586 175.56 198.163 173.053 198.359 170.557C198.823 163.398 203.381 157.112 203.381 157.112C206.929 159.66 208.288 173.737 209.698 175.779C211.109 177.821 211.657 171.894 211.657 171.894L218.826 171.547C218.826 171.547 219.805 179.927 215.668 185.886Z" fill="white"/>
<path d="M250.167 323.09L257.273 321.143L256 303.813L248.914 305.772L250.167 323.09Z" fill="#EBB376"/>
<path d="M257.703 320.205L249.459 320.774C249.39 320.775 249.323 320.79 249.26 320.818C249.197 320.846 249.14 320.886 249.093 320.936C249.046 320.986 249.01 321.045 248.986 321.109C248.962 321.174 248.951 321.242 248.954 321.311L249.006 327.859C249.028 328.201 249.184 328.521 249.441 328.747C249.697 328.974 250.033 329.09 250.375 329.07C253.249 328.818 254.586 328.554 258.229 328.281C261.463 328.191 264.686 327.867 267.873 327.312C270.873 326.617 270.105 323.669 268.768 323.69C265.609 323.753 261.177 322.006 258.987 320.532C258.609 320.279 258.155 320.164 257.703 320.205Z" fill="#263238"/>
<path d="M260.384 321.269C259.722 321.301 259.058 321.259 258.405 321.143C258.374 321.138 258.344 321.125 258.32 321.105C258.296 321.084 258.278 321.057 258.268 321.027C258.263 320.994 258.265 320.959 258.274 320.927C258.284 320.894 258.299 320.864 258.321 320.838C258.542 320.659 260.532 319.1 261.479 319.385C261.583 319.42 261.676 319.48 261.75 319.561C261.824 319.643 261.876 319.741 261.9 319.848C261.973 320.005 261.998 320.181 261.974 320.352C261.95 320.524 261.877 320.685 261.764 320.816C261.378 321.137 260.885 321.298 260.384 321.269ZM261.353 319.743C260.858 319.595 259.69 320.29 258.868 320.89C260.195 321.059 261.164 320.953 261.49 320.585C261.553 320.498 261.593 320.396 261.606 320.289C261.619 320.182 261.604 320.074 261.564 319.974C261.552 319.921 261.526 319.871 261.489 319.83C261.452 319.79 261.405 319.76 261.353 319.743Z" fill="#0177AA"/>
<path d="M258.447 321.142H258.373C258.322 321.112 258.284 321.063 258.268 321.005C258.268 320.942 257.952 318.826 258.637 318.057C258.727 317.958 258.838 317.881 258.961 317.83C259.085 317.779 259.219 317.756 259.352 317.763C259.498 317.759 259.641 317.803 259.759 317.889C259.877 317.974 259.964 318.097 260.005 318.236C260.226 319.026 259.237 320.637 258.542 321.121L258.447 321.142ZM259.258 318.152C259.189 318.155 259.122 318.173 259.06 318.204C258.998 318.235 258.944 318.278 258.9 318.331C258.539 319.061 258.428 319.89 258.584 320.689C259.202 320.073 259.576 319.254 259.637 318.384C259.637 318.278 259.542 318.163 259.3 318.152H259.258Z" fill="#0177AA"/>
<path opacity="0.2" d="M248.914 305.771L256 303.824L256.726 313.731L249.598 315.32L248.914 305.771Z" fill="black"/>
<path d="M240.887 322.838L234.18 325.891L232.475 318.7L230.18 309.004L236.865 305.94L239.16 315.615L240.887 322.838Z" fill="#EBB376"/>
<path opacity="0.2" d="M239.16 315.615L232.475 318.7L230.18 309.004L236.865 305.94L239.16 315.615Z" fill="black"/>
<path d="M241.168 321.848L233.125 323.722C232.988 323.747 232.867 323.826 232.788 323.94C232.709 324.055 232.679 324.196 232.704 324.333L233.756 330.797C233.837 331.129 234.043 331.417 234.332 331.6C234.621 331.783 234.97 331.846 235.304 331.776C238.105 331.071 239.4 330.597 242.937 329.744C246.111 329.133 249.238 328.303 252.297 327.259C255.16 326.091 253.929 323.29 252.613 323.532C249.147 323.897 245.647 323.356 242.453 321.964C242.047 321.792 241.598 321.751 241.168 321.848Z" fill="#263238"/>
<path d="M243.983 322.469C243.336 322.606 242.675 322.67 242.014 322.658C241.981 322.66 241.949 322.651 241.921 322.635C241.893 322.618 241.87 322.593 241.856 322.564C241.843 322.534 241.836 322.502 241.836 322.469C241.836 322.436 241.843 322.404 241.856 322.374C242.056 322.164 243.762 320.269 244.72 320.437C244.829 320.453 244.932 320.497 245.019 320.566C245.106 320.634 245.174 320.724 245.215 320.827C245.307 320.973 245.357 321.143 245.357 321.316C245.357 321.489 245.307 321.659 245.215 321.806C244.901 322.172 244.462 322.409 243.983 322.469ZM244.699 320.805C244.183 320.732 243.141 321.616 242.425 322.332C243.772 322.332 244.699 322.027 244.962 321.616C245.017 321.522 245.045 321.415 245.045 321.306C245.045 321.196 245.017 321.089 244.962 320.995C244.939 320.947 244.905 320.905 244.863 320.872C244.821 320.839 244.772 320.816 244.72 320.805H244.699Z" fill="#0177AA"/>
<path d="M242.049 322.648C242.04 322.653 242.029 322.655 242.018 322.655C242.007 322.655 241.996 322.653 241.986 322.648C241.933 322.629 241.888 322.591 241.86 322.543C241.86 322.479 241.197 320.437 241.755 319.563C241.826 319.452 241.922 319.358 242.035 319.289C242.148 319.22 242.276 319.177 242.407 319.163C242.551 319.13 242.702 319.148 242.834 319.213C242.966 319.278 243.072 319.387 243.134 319.521C243.481 320.269 242.765 322.016 242.144 322.606C242.134 322.621 242.12 322.633 242.103 322.641C242.086 322.648 242.068 322.651 242.049 322.648ZM242.376 319.574C242.241 319.605 242.123 319.688 242.049 319.805C241.819 320.585 241.841 321.418 242.113 322.185C242.644 321.482 242.899 320.609 242.828 319.732C242.828 319.637 242.702 319.532 242.46 319.563L242.376 319.574Z" fill="#0177AA"/>
<path d="M191.185 224.483L189.016 200.552L149.009 201.489C149.009 201.489 144.282 234.843 147.725 240.97C153.863 251.909 194.154 245.697 203.577 246.634C207.43 248.687 228.023 316.931 228.023 316.931L239.552 312.278C239.552 312.278 227.15 254.678 224.328 243.844C220.433 228.694 204.419 228.968 191.185 224.483Z" fill="#0177AA"/>
<path opacity="0.6" d="M191.185 224.483L189.016 200.552L149.009 201.489C149.009 201.489 144.282 234.843 147.725 240.97C153.863 251.909 194.154 245.697 203.577 246.634C207.43 248.687 228.023 316.931 228.023 316.931L239.552 312.278C239.552 312.278 227.15 254.678 224.328 243.844C220.433 228.694 204.419 228.968 191.185 224.483Z" fill="white"/>
<path d="M257.429 311.067L247.259 312.015C247.259 312.015 234.772 248.498 233.814 248.235C232.077 247.74 227.023 247.182 224.339 246.455C205.44 241.549 158.969 232.516 158.969 232.516L176.098 216.06C176.098 216.06 253.807 225.388 255.534 243.623C256.355 252.341 257.429 311.067 257.429 311.067Z" fill="#0177AA"/>
<path opacity="0.6" d="M257.429 311.067L247.259 312.015C247.259 312.015 234.772 248.498 233.814 248.235C232.077 247.74 227.023 247.182 224.339 246.455C205.44 241.549 158.969 232.516 158.969 232.516L176.098 216.06C176.098 216.06 253.807 225.388 255.534 243.623C256.355 252.341 257.429 311.067 257.429 311.067Z" fill="white"/>
<path opacity="0.2" d="M231.068 248.277C229.331 247.782 227.025 247.171 224.309 246.455C225.067 246.855 222.877 236.98 220.698 234.411C216.381 229.315 199.02 226.557 192.787 225.557C187.586 224.725 170.109 223.177 170.109 223.177C170.109 223.177 200.957 220.514 224.203 226.894C235.69 230.052 233.647 241.328 231.068 248.277Z" fill="black"/>
<path d="M189.927 205.405C192.264 191.992 196.244 174.042 203.477 157.249C199.649 155.629 195.708 154.292 191.685 153.248C185.796 151.656 179.82 150.405 173.787 149.5C169.63 149.059 165.444 148.942 161.269 149.153C161.269 149.153 152.257 165.998 147.688 205.405H189.927Z" fill="#0177AA"/>
<path d="M209.978 159.208C209.953 159.292 209.947 159.382 209.96 159.469C209.973 159.557 210.006 159.64 210.055 159.714C210.104 159.787 210.169 159.849 210.245 159.894C210.321 159.939 210.406 159.968 210.494 159.976L217.285 160.934C217.474 160.956 217.665 160.91 217.823 160.804C217.981 160.698 218.097 160.539 218.148 160.355L221.538 147.163C221.565 147.074 221.574 146.98 221.563 146.888C221.552 146.795 221.523 146.706 221.477 146.625C221.43 146.544 221.368 146.474 221.294 146.418C221.219 146.362 221.134 146.322 221.043 146.3L214.253 145.353C214.05 145.347 213.852 145.41 213.691 145.533C213.53 145.656 213.416 145.83 213.368 146.026L209.978 159.208Z" fill="#263238"/>
<path opacity="0.5" d="M214.137 146.005L210.705 159.324C210.673 159.4 210.659 159.482 210.666 159.564C210.672 159.646 210.698 159.726 210.741 159.796C210.784 159.866 210.844 159.925 210.914 159.967C210.985 160.01 211.065 160.034 211.147 160.04L216.906 160.85C217.296 160.903 218.033 160.787 218.127 160.408L221.57 147.048C221.665 146.669 221.044 146.279 220.665 146.216L214.906 145.416C214.727 145.4 214.549 145.452 214.407 145.561C214.264 145.67 214.168 145.829 214.137 146.005Z" fill="white"/>
<path d="M176.92 160.86C176.92 160.86 166.392 152.491 165.108 147.542C163.823 142.594 169.951 139.257 178.584 141.162C187.217 143.068 195.198 148.532 192.65 154.849C190.102 161.166 185.638 162.703 185.638 162.703C185.638 162.703 183.785 159.081 176.92 160.86Z" fill="#0177AA"/>
<path d="M198.742 166.409L204.806 162.429C204.806 162.429 207.386 154.659 207.965 153.901C208.544 153.143 214.945 154.88 215.651 154.954C216.356 155.028 214.482 162.955 213.629 163.64C212.776 164.324 209.986 164.419 209.986 164.419L203.09 170.494L198.742 166.409Z" fill="#EBB376"/>
<path opacity="0.2" d="M176.92 160.86C176.92 160.86 166.392 152.491 165.108 147.542C163.823 142.594 169.951 139.257 178.584 141.162C187.217 143.068 195.198 148.532 192.65 154.849C190.102 161.166 185.638 162.703 185.638 162.703C185.638 162.703 183.785 159.081 176.92 160.86Z" fill="white"/>
<path d="M183.786 134.456C182.197 140.215 178.406 150.333 172.984 152.007C172.984 152.007 176.975 158.534 182.955 159.081C186.755 159.429 188.861 155.144 188.861 155.144C184.987 154.417 186.471 151.575 189.524 148.006L183.786 134.456Z" fill="#EBB376"/>
<path opacity="0.2" d="M186.12 139.983L189.51 148.006C188.783 148.827 188.131 149.711 187.562 150.648C183.751 150.932 181.014 144.889 181.951 142.436C182.288 141.425 185.446 140.804 186.12 139.983Z" fill="black"/>
<path d="M196.96 125.265C193.328 126.76 194.022 130.729 200.045 137.962C203.761 134.803 205.772 127.486 203.824 125.149C201.877 122.812 200.129 123.959 196.96 125.265Z" fill="#263238"/>
<path d="M182.021 128.36C180.757 136.224 179.62 140.762 182.642 145.626C187.18 152.933 197.55 151.532 201.151 144.205C204.362 137.614 205.899 125.865 199.045 121.043C197.528 119.983 195.767 119.328 193.926 119.139C192.086 118.95 190.228 119.234 188.528 119.963C186.828 120.692 185.342 121.843 184.211 123.307C183.079 124.771 182.34 126.499 182.063 128.328L182.021 128.36Z" fill="#EBB376"/>
<path d="M193.124 133.087C192.976 133.719 193.197 134.309 193.619 134.403C194.04 134.498 194.471 134.056 194.608 133.424C194.745 132.792 194.535 132.213 194.134 132.119C193.734 132.024 193.303 132.477 193.124 133.087Z" fill="#263238"/>
<path d="M200.291 134.708C200.154 135.34 200.375 135.929 200.785 136.024C201.196 136.119 201.649 135.687 201.838 135.045C202.028 134.403 201.754 133.824 201.343 133.74C200.933 133.655 200.427 134.087 200.291 134.708Z" fill="#263238"/>
<path d="M197.926 134.487C198.248 136.586 198.857 138.63 199.737 140.562C199.234 140.775 198.69 140.875 198.144 140.855C197.599 140.835 197.064 140.696 196.578 140.446L197.926 134.487Z" fill="#D58745"/>
<path d="M191.669 130.392C191.586 130.38 191.508 130.344 191.447 130.286C191.412 130.251 191.384 130.209 191.365 130.163C191.346 130.117 191.336 130.068 191.336 130.018C191.336 129.968 191.346 129.918 191.365 129.872C191.384 129.826 191.412 129.784 191.447 129.749C191.898 129.345 192.44 129.056 193.027 128.907C193.614 128.759 194.228 128.755 194.816 128.896C194.908 128.924 194.986 128.984 195.035 129.066C195.083 129.148 195.099 129.245 195.08 129.339C195.046 129.432 194.979 129.51 194.891 129.556C194.804 129.603 194.702 129.615 194.606 129.591C194.142 129.488 193.66 129.497 193.2 129.618C192.741 129.739 192.316 129.968 191.963 130.286C191.924 130.323 191.878 130.352 191.827 130.37C191.776 130.388 191.722 130.395 191.669 130.392Z" fill="#263238"/>
<path d="M204.105 133.024C204.034 133.009 203.969 132.974 203.917 132.924C203.865 132.874 203.828 132.81 203.81 132.74C203.711 132.28 203.505 131.849 203.209 131.484C202.913 131.118 202.534 130.827 202.105 130.634C202.058 130.618 202.015 130.592 201.977 130.559C201.94 130.525 201.91 130.485 201.889 130.44C201.867 130.395 201.855 130.346 201.852 130.297C201.849 130.247 201.857 130.197 201.873 130.15C201.89 130.103 201.915 130.06 201.949 130.023C201.982 129.986 202.022 129.955 202.067 129.934C202.112 129.912 202.161 129.9 202.211 129.897C202.261 129.895 202.31 129.902 202.358 129.918C202.912 130.159 203.4 130.53 203.781 130.999C204.162 131.468 204.425 132.022 204.547 132.614C204.57 132.71 204.554 132.811 204.503 132.896C204.451 132.98 204.369 133.041 204.274 133.066H204.105V133.024Z" fill="#263238"/>
<path d="M186.647 122.19C189.995 124.243 188.668 128.055 181.572 134.214C178.414 130.465 177.593 122.959 179.888 120.98C182.183 119 183.72 120.39 186.647 122.19Z" fill="#263238"/>
<path d="M176.928 133.74C176.985 134.729 177.236 135.698 177.668 136.591C178.1 137.483 178.703 138.282 179.444 138.94C181.445 140.688 183.582 139.172 183.982 136.698C184.34 134.466 183.74 130.855 181.276 130.065C180.734 129.898 180.159 129.869 179.604 129.982C179.048 130.096 178.53 130.347 178.097 130.713C177.664 131.079 177.33 131.548 177.125 132.077C176.921 132.606 176.853 133.177 176.928 133.74Z" fill="#EBB376"/>
<path d="M180.474 120.548C180.474 120.548 179.769 117.463 185.307 114.536C190.845 111.609 199.804 114.084 205.626 118.305C211.448 122.527 204.363 127.781 201.531 127.928L202.32 126.949C199.287 127.096 196.258 126.578 193.445 125.433L195.246 124.843C195.246 124.843 183.97 122.78 180.474 120.548Z" fill="#263238"/>
<path d="M195.225 142.152C194.688 142.941 194.209 143.768 193.793 144.626C193.629 144.587 193.467 144.538 193.309 144.479C191.13 143.805 190.34 142.763 190.151 141.826C190.036 141.104 190.162 140.364 190.509 139.72C191.667 140.739 193.032 141.497 194.509 141.942C194.941 142.079 195.225 142.152 195.225 142.152Z" fill="#263238"/>
<path d="M194.491 141.91L194.049 142.625C191.996 141.983 190.637 141.257 190.195 140.436C190.26 140.174 190.359 139.923 190.49 139.688C191.649 140.707 193.013 141.465 194.491 141.91Z" fill="white"/>
<path d="M193.315 144.468C191.135 143.794 190.346 142.752 190.156 141.815C190.981 142.088 191.751 142.505 192.43 143.047C192.867 143.416 193.177 143.913 193.315 144.468Z" fill="#A24E3F"/>
<path d="M189.494 183.907C189.459 183.906 189.425 183.898 189.394 183.883C189.362 183.869 189.334 183.848 189.311 183.823C189.287 183.797 189.269 183.767 189.257 183.735C189.245 183.702 189.24 183.668 189.241 183.633C190.126 170.726 185.809 162.314 185.767 162.229C185.75 162.199 185.74 162.166 185.736 162.131C185.732 162.097 185.735 162.062 185.745 162.029C185.755 161.995 185.771 161.964 185.793 161.937C185.815 161.91 185.842 161.888 185.872 161.871C185.935 161.841 186.008 161.837 186.074 161.858C186.141 161.88 186.196 161.926 186.23 161.987C186.23 162.072 190.662 170.61 189.768 183.665C189.762 183.733 189.731 183.796 189.68 183.841C189.629 183.886 189.562 183.91 189.494 183.907Z" fill="white"/>
<path d="M173.564 179.317C173.518 179.326 173.472 179.326 173.427 179.317C173.369 179.28 173.327 179.222 173.312 179.155C173.296 179.088 173.307 179.017 173.342 178.959C178.07 170.915 176.68 160.008 176.669 159.924C176.663 159.89 176.664 159.855 176.673 159.821C176.681 159.787 176.695 159.756 176.716 159.728C176.737 159.701 176.763 159.678 176.793 159.66C176.823 159.643 176.856 159.633 176.89 159.629C176.959 159.62 177.028 159.638 177.083 159.679C177.138 159.72 177.175 159.782 177.185 159.85C177.185 159.966 178.617 171.031 173.795 179.222C173.767 179.256 173.732 179.282 173.691 179.298C173.651 179.315 173.607 179.321 173.564 179.317Z" fill="white"/>
<path d="M189.314 183.422C189.314 183.422 190.156 183.422 190.009 184.833L188.777 184.717C188.777 184.717 188.64 183.612 189.314 183.422Z" fill="white"/>
<path d="M173.642 178.569C173.642 178.569 174.337 179.043 173.516 180.138L172.516 179.401C172.516 179.401 172.979 178.348 173.642 178.569Z" fill="white"/>
<path d="M162.316 149.164C166.37 150.101 176.087 166.904 181.267 169.999C186.447 173.094 200.829 163.135 200.829 163.135L205.745 169.252C205.745 169.252 194.112 179.517 183.931 179.78C173.75 180.043 159.316 165.63 157.168 160.345C155.02 155.059 157.4 148.027 162.316 149.164Z" fill="#0177AA"/>
<path opacity="0.2" d="M162.316 149.164C166.37 150.101 176.087 166.904 181.267 169.999C186.447 173.094 200.829 163.135 200.829 163.135L205.745 169.252C205.745 169.252 194.112 179.517 183.931 179.78C173.75 180.043 159.316 165.63 157.168 160.345C155.02 155.059 157.4 148.027 162.316 149.164Z" fill="white"/>
<path d="M152.352 192.687C152.352 192.687 160.521 198.793 163.438 212.543C166.354 226.293 177.356 256.678 152.352 244.675L153.004 241.833C153.004 241.833 160.974 248.634 163.88 244.054C166.786 239.474 165.28 214.901 153.541 201.846L152.352 192.687Z" fill="#263238"/>
<path d="M135.516 187.002C135.516 187.002 138.474 181.022 142.885 180.885C147.297 180.748 148.792 182.001 148.507 186.307L146.539 186.444C146.539 186.444 148.539 182.843 143.791 182.696C142.447 182.671 141.131 183.075 140.033 183.849C138.935 184.623 138.112 185.728 137.684 187.002H135.516Z" fill="#263238"/>
<path d="M111.694 247.012C111.694 247.012 107.852 223.229 117.853 216.017C117.853 216.017 116.264 211.027 124.318 194.634C127.655 187.833 130.487 185.959 133.298 185.833L152.797 185.033C153.786 184.989 154.755 185.318 155.515 185.953C156.275 186.588 156.77 187.484 156.903 188.465C158.271 198.635 161.577 228.114 156.997 247.012H111.694Z" fill="#263238"/>
<path opacity="0.1" d="M111.694 247.012C111.694 247.012 107.852 223.229 117.853 216.017C117.853 216.017 116.264 211.027 124.318 194.634C127.655 187.833 130.487 185.959 133.298 185.833L152.797 185.033C153.786 184.989 154.755 185.318 155.515 185.953C156.275 186.588 156.77 187.484 156.903 188.465C158.271 198.635 161.577 228.114 156.997 247.012H111.694Z" fill="white"/>
<path d="M143.013 211.027C143.463 211.044 143.91 210.958 144.322 210.775C144.733 210.592 145.096 210.317 145.384 209.971C145.672 209.625 145.877 209.218 145.982 208.78C146.088 208.342 146.091 207.886 145.992 207.447C145.087 203.573 142.56 197.909 135.517 196.856C127.947 195.719 123.167 202.562 120.946 206.858C120.762 207.21 120.671 207.604 120.68 208.001C120.69 208.399 120.801 208.787 121.002 209.13C121.203 209.473 121.488 209.76 121.829 209.962C122.171 210.165 122.559 210.278 122.957 210.29L143.013 211.027Z" fill="#263238"/>
<path d="M114.876 221.987C115.371 220.271 140.565 221.292 142.25 221.987C143.934 222.682 141.902 240.169 140.407 241.833C138.912 243.496 114.339 242.391 112.465 241.833C110.591 241.275 110.855 236 114.876 221.987Z" fill="#263238"/>
<path opacity="0.2" d="M143.013 211.027C143.463 211.044 143.91 210.958 144.322 210.775C144.733 210.592 145.096 210.317 145.384 209.971C145.672 209.625 145.877 209.218 145.982 208.78C146.088 208.342 146.091 207.886 145.992 207.447C145.087 203.573 142.56 197.909 135.517 196.856C127.947 195.719 123.167 202.562 120.946 206.858C120.762 207.21 120.671 207.604 120.68 208.001C120.69 208.399 120.801 208.787 121.002 209.13C121.203 209.473 121.488 209.76 121.829 209.962C122.171 210.165 122.559 210.278 122.957 210.29L143.013 211.027Z" fill="white"/>
<path opacity="0.2" d="M114.876 221.987C115.371 220.271 140.565 221.292 142.25 221.987C143.934 222.682 141.902 240.169 140.407 241.833C138.912 243.496 114.339 242.391 112.465 241.833C110.591 241.275 110.855 236 114.876 221.987Z" fill="white"/>
<path d="M155.273 228.335H155.209C155.071 228.317 154.946 228.245 154.861 228.134C154.776 228.024 154.739 227.884 154.757 227.746C156.104 217.597 153.957 192.918 153.514 191.15C153.388 190.374 152.99 189.668 152.393 189.158C151.795 188.647 151.036 188.364 150.251 188.36C148.082 188.223 130.742 188.36 130.573 188.36C130.435 188.357 130.302 188.301 130.204 188.202C130.106 188.104 130.05 187.972 130.047 187.833C130.047 187.694 130.102 187.56 130.201 187.461C130.3 187.362 130.434 187.307 130.573 187.307C131.289 187.307 148.113 187.17 150.324 187.307C151.331 187.335 152.297 187.706 153.063 188.359C153.829 189.012 154.349 189.908 154.536 190.897C154.957 192.571 157.22 217.218 155.799 227.883C155.781 228.009 155.718 228.125 155.621 228.208C155.524 228.291 155.4 228.337 155.273 228.335Z" fill="#263238"/>
<path d="M139.357 225.84H139.252C133.187 224.619 115.721 225.293 115.542 225.293C115.402 225.293 115.269 225.237 115.17 225.138C115.071 225.04 115.016 224.906 115.016 224.766C115.016 224.627 115.071 224.493 115.17 224.394C115.269 224.295 115.402 224.24 115.542 224.24C116.258 224.24 133.303 223.566 139.494 224.808C139.629 224.839 139.748 224.92 139.824 225.036C139.901 225.152 139.93 225.293 139.904 225.429C139.877 225.552 139.807 225.661 139.706 225.736C139.606 225.811 139.482 225.848 139.357 225.84Z" fill="#263238"/>
<path d="M144.307 207.237C144.194 207.239 144.084 207.205 143.992 207.138C143.901 207.071 143.834 206.977 143.802 206.868C142.644 203.32 139.759 197.393 133.421 197.93C126.925 198.456 124.135 205.521 124.103 205.595C124.046 205.715 123.946 205.809 123.823 205.858C123.699 205.907 123.562 205.908 123.438 205.86C123.314 205.812 123.213 205.719 123.155 205.599C123.097 205.48 123.086 205.343 123.124 205.216C123.251 204.9 126.188 197.456 133.337 196.888C140.485 196.319 143.549 202.699 144.802 206.553C144.845 206.685 144.834 206.83 144.771 206.954C144.708 207.078 144.598 207.173 144.465 207.216L144.307 207.237Z" fill="#263238"/>
</svg>
