<svg width="516" height="516" viewBox="0 0 516 516" fill="none" xmlns="http://www.w3.org/2000/svg">
<mask id="path-1-inside-1_4336_75229" fill="white">
<path d="M440.434 440.434C476.516 404.352 501.088 358.38 511.043 308.333C520.998 258.286 515.888 206.411 496.361 159.268C476.834 112.124 443.765 71.8303 401.337 43.4808C358.909 15.1314 309.028 2.33174e-06 258 0C206.972 -2.33173e-06 157.091 15.1314 114.663 43.4808C72.235 71.8302 39.1665 112.124 19.6391 159.268C0.111674 206.411 -4.99759 258.286 4.95739 308.333C14.9124 358.38 39.4845 404.352 75.5664 440.434L78.0873 437.913C42.504 402.329 18.2714 356.993 8.45399 307.638C-1.36344 258.282 3.67523 207.124 22.9328 160.632C42.1904 114.14 74.8019 74.4028 116.644 46.4451C158.485 18.4874 207.678 3.56509 258 3.56509C308.322 3.5651 357.515 18.4874 399.356 46.4451C441.198 74.4028 473.81 114.14 493.067 160.632C512.325 207.124 517.363 258.282 507.546 307.638C497.729 356.993 473.496 402.329 437.913 437.913L440.434 440.434Z"/>
</mask>
<path d="M440.434 440.434C476.516 404.352 501.088 358.38 511.043 308.333C520.998 258.286 515.888 206.411 496.361 159.268C476.834 112.124 443.765 71.8303 401.337 43.4808C358.909 15.1314 309.028 2.33174e-06 258 0C206.972 -2.33173e-06 157.091 15.1314 114.663 43.4808C72.235 71.8302 39.1665 112.124 19.6391 159.268C0.111674 206.411 -4.99759 258.286 4.95739 308.333C14.9124 358.38 39.4845 404.352 75.5664 440.434L78.0873 437.913C42.504 402.329 18.2714 356.993 8.45399 307.638C-1.36344 258.282 3.67523 207.124 22.9328 160.632C42.1904 114.14 74.8019 74.4028 116.644 46.4451C158.485 18.4874 207.678 3.56509 258 3.56509C308.322 3.5651 357.515 18.4874 399.356 46.4451C441.198 74.4028 473.81 114.14 493.067 160.632C512.325 207.124 517.363 258.282 507.546 307.638C497.729 356.993 473.496 402.329 437.913 437.913L440.434 440.434Z" stroke="url(#paint0_linear_4336_75229)" stroke-width="4" mask="url(#path-1-inside-1_4336_75229)"/>
<path opacity="0.2" d="M358.97 358.97C379.039 338.901 392.706 313.332 398.243 285.495C403.78 257.659 400.938 228.806 390.077 202.585C379.216 176.364 360.823 153.952 337.224 138.184C313.626 122.416 285.882 114 257.5 114C229.118 114 201.374 122.416 177.776 138.184C154.177 153.952 135.784 176.364 124.923 202.585C114.062 228.806 111.22 257.659 116.757 285.495C122.294 313.332 135.961 338.901 156.03 358.97L168.061 346.939C150.372 329.25 138.325 306.712 133.444 282.176C128.564 257.64 131.069 232.208 140.642 209.096C150.216 185.984 166.428 166.229 187.228 152.331C208.029 138.432 232.483 131.014 257.5 131.014C282.517 131.014 306.971 138.432 327.772 152.331C348.572 166.229 364.784 185.984 374.358 209.096C383.931 232.208 386.436 257.64 381.556 282.176C376.675 306.712 364.628 329.25 346.939 346.939L358.97 358.97Z" fill="url(#paint1_linear_4336_75229)"/>
<mask id="path-3-inside-2_4336_75229" fill="white">
<path d="M358.97 358.97C379.039 338.901 392.706 313.332 398.243 285.495C403.78 257.659 400.938 228.806 390.077 202.585C379.216 176.364 360.823 153.952 337.224 138.184C313.626 122.416 285.882 114 257.5 114C229.118 114 201.374 122.416 177.776 138.184C154.177 153.952 135.784 176.364 124.923 202.585C114.062 228.806 111.22 257.659 116.757 285.495C122.294 313.332 135.961 338.901 156.03 358.97L157.432 357.568C137.641 337.776 124.163 312.56 118.702 285.109C113.242 257.657 116.044 229.203 126.755 203.344C137.466 177.485 155.605 155.383 178.877 139.833C202.15 124.283 229.511 115.983 257.5 115.983C285.489 115.983 312.85 124.283 336.123 139.833C359.395 155.383 377.534 177.485 388.245 203.344C398.956 229.203 401.758 257.657 396.298 285.109C390.837 312.56 377.359 337.776 357.568 357.568L358.97 358.97Z"/>
</mask>
<path d="M358.97 358.97C379.039 338.901 392.706 313.332 398.243 285.495C403.78 257.659 400.938 228.806 390.077 202.585C379.216 176.364 360.823 153.952 337.224 138.184C313.626 122.416 285.882 114 257.5 114C229.118 114 201.374 122.416 177.776 138.184C154.177 153.952 135.784 176.364 124.923 202.585C114.062 228.806 111.22 257.659 116.757 285.495C122.294 313.332 135.961 338.901 156.03 358.97L157.432 357.568C137.641 337.776 124.163 312.56 118.702 285.109C113.242 257.657 116.044 229.203 126.755 203.344C137.466 177.485 155.605 155.383 178.877 139.833C202.15 124.283 229.511 115.983 257.5 115.983C285.489 115.983 312.85 124.283 336.123 139.833C359.395 155.383 377.534 177.485 388.245 203.344C398.956 229.203 401.758 257.657 396.298 285.109C390.837 312.56 377.359 337.776 357.568 357.568L358.97 358.97Z" stroke="url(#paint2_linear_4336_75229)" stroke-width="2" mask="url(#path-3-inside-2_4336_75229)"/>
<path opacity="0.5" d="M437.044 437.044C472.357 401.732 496.406 356.741 506.148 307.76C515.891 258.78 510.891 208.011 491.78 161.872C472.668 115.734 440.305 76.299 398.781 48.5539C357.258 20.8089 308.44 6 258.5 6C208.56 6 159.742 20.8089 118.219 48.5539C76.6951 76.299 44.3316 115.734 25.2204 161.872C6.10929 208.011 1.10895 258.78 10.8517 307.76C20.5945 356.741 44.6428 401.732 79.9555 437.044L90.7331 426.267C57.5519 393.086 34.9553 350.81 25.8006 304.787C16.6459 258.763 21.3444 211.058 39.302 167.705C57.2595 124.352 87.6695 87.2972 126.686 61.227C165.703 35.1567 211.575 21.2417 258.5 21.2417C305.425 21.2417 351.297 35.1567 390.314 61.227C429.331 87.2972 459.741 124.352 477.698 167.705C495.656 211.058 500.354 258.763 491.199 304.787C482.045 350.81 459.448 393.086 426.267 426.267L437.044 437.044Z" fill="url(#paint3_linear_4336_75229)"/>
<path opacity="0.2" d="M423.609 423.609C456.265 390.954 478.504 349.348 487.513 304.054C496.523 258.759 491.899 211.81 474.226 169.143C456.553 126.477 426.625 90.0092 388.226 64.3519C349.827 38.6945 304.682 25 258.5 25C212.318 25 167.173 38.6945 128.774 64.3518C90.3755 90.0091 60.4472 126.477 42.7741 169.143C25.1011 211.81 20.477 258.759 29.4866 304.054C38.4963 349.348 60.735 390.954 93.3906 423.609L99.3513 417.649C67.8747 386.172 46.4388 346.068 37.7545 302.409C29.0701 258.75 33.5272 213.496 50.5623 172.369C67.5973 131.243 96.4451 96.092 133.458 71.361C170.47 46.6299 213.985 33.4298 258.5 33.4298C303.015 33.4298 346.53 46.6299 383.542 71.361C420.555 96.092 449.403 131.243 466.438 172.369C483.473 213.496 487.93 258.75 479.246 302.409C470.561 346.068 449.125 386.172 417.649 417.649L423.609 423.609Z" fill="url(#paint4_linear_4336_75229)"/>
<mask id="path-6-outside-3_4336_75229" maskUnits="userSpaceOnUse" x="24" y="24" width="470" height="400" fill="black">
<rect fill="white" x="24" y="24" width="470" height="400"/>
<path d="M491.995 256.978C491.746 218.707 482.093 181.083 463.886 147.419C445.679 113.755 419.476 85.0821 387.583 63.9243C355.691 42.7666 319.087 29.7725 280.992 26.0858C242.898 22.3992 204.481 28.1329 169.124 42.7823C133.766 57.4317 102.551 80.5478 78.2266 110.096C53.9021 139.644 37.2136 174.718 29.6299 212.232C22.0462 249.745 23.7999 288.548 34.7365 325.224C45.6732 361.901 65.4575 395.327 92.3482 422.56L93.2466 421.673C66.5012 394.587 46.8239 361.342 35.9464 324.864C25.0689 288.385 23.3247 249.793 30.8674 212.482C38.4101 175.171 55.0084 140.287 79.2014 110.898C103.394 81.51 134.44 58.5189 169.607 43.9487C204.773 29.3784 242.982 23.6757 280.871 27.3425C318.759 31.0092 355.166 43.933 386.886 64.9764C418.606 86.0197 444.667 114.537 462.775 148.02C480.884 181.502 490.485 218.922 490.733 256.987L491.995 256.978Z"/>
</mask>
<path d="M491.995 256.978C491.746 218.707 482.093 181.083 463.886 147.419C445.679 113.755 419.476 85.0821 387.583 63.9243C355.691 42.7666 319.087 29.7725 280.992 26.0858C242.898 22.3992 204.481 28.1329 169.124 42.7823C133.766 57.4317 102.551 80.5478 78.2266 110.096C53.9021 139.644 37.2136 174.718 29.6299 212.232C22.0462 249.745 23.7999 288.548 34.7365 325.224C45.6732 361.901 65.4575 395.327 92.3482 422.56L93.2466 421.673C66.5012 394.587 46.8239 361.342 35.9464 324.864C25.0689 288.385 23.3247 249.793 30.8674 212.482C38.4101 175.171 55.0084 140.287 79.2014 110.898C103.394 81.51 134.44 58.5189 169.607 43.9487C204.773 29.3784 242.982 23.6757 280.871 27.3425C318.759 31.0092 355.166 43.933 386.886 64.9764C418.606 86.0197 444.667 114.537 462.775 148.02C480.884 181.502 490.485 218.922 490.733 256.987L491.995 256.978Z" fill="white"/>
<path d="M491.995 256.978C491.746 218.707 482.093 181.083 463.886 147.419C445.679 113.755 419.476 85.0821 387.583 63.9243C355.691 42.7666 319.087 29.7725 280.992 26.0858C242.898 22.3992 204.481 28.1329 169.124 42.7823C133.766 57.4317 102.551 80.5478 78.2266 110.096C53.9021 139.644 37.2136 174.718 29.6299 212.232C22.0462 249.745 23.7999 288.548 34.7365 325.224C45.6732 361.901 65.4575 395.327 92.3482 422.56L93.2466 421.673C66.5012 394.587 46.8239 361.342 35.9464 324.864C25.0689 288.385 23.3247 249.793 30.8674 212.482C38.4101 175.171 55.0084 140.287 79.2014 110.898C103.394 81.51 134.44 58.5189 169.607 43.9487C204.773 29.3784 242.982 23.6757 280.871 27.3425C318.759 31.0092 355.166 43.933 386.886 64.9764C418.606 86.0197 444.667 114.537 462.775 148.02C480.884 181.502 490.485 218.922 490.733 256.987L491.995 256.978Z" stroke="white" stroke-width="2" mask="url(#path-6-outside-3_4336_75229)"/>
<path d="M491.883 251.093C491.831 249.483 491.764 247.872 491.679 246.263L479.304 246.913C479.384 248.436 479.448 249.961 479.496 251.486L491.883 251.093Z" fill="#FF0000"/>
<path d="M491.564 244.234C491.465 242.626 491.35 241.018 491.219 239.412L478.867 240.425C478.992 241.946 479.101 243.468 479.194 244.992L491.564 244.234Z" fill="#FF0000"/>
<path d="M491.06 237.566C490.915 235.961 490.754 234.357 490.576 232.755L478.259 234.122C478.428 235.639 478.58 237.157 478.717 238.677L491.06 237.566Z" fill="#FF0000"/>
<path d="M490.367 230.929C490.176 229.329 489.969 227.731 489.746 226.135L477.473 227.852C477.685 229.364 477.88 230.877 478.061 232.392L490.367 230.929Z" fill="#FF0000"/>
<path d="M489.447 224.067C489.21 222.473 488.955 220.882 488.685 219.293L476.468 221.374C476.724 222.878 476.965 224.385 477.19 225.895L489.447 224.067Z" fill="#FF0000"/>
<path d="M488.345 217.35C488.061 215.763 487.761 214.18 487.444 212.6L475.293 215.036C475.593 216.532 475.878 218.031 476.147 219.533L488.345 217.35Z" fill="#FF0000"/>
<path d="M487.122 211.02C486.794 209.442 486.45 207.867 486.09 206.296L474.011 209.067C474.352 210.554 474.678 212.045 474.988 213.539L487.122 211.02Z" fill="#FF0000"/>
<path d="M485.746 204.819C485.375 203.251 484.989 201.687 484.586 200.126L472.587 203.224C472.968 204.702 473.334 206.183 473.685 207.668L485.746 204.819Z" fill="#FF0000"/>
<path d="M484.223 198.738C483.81 197.18 483.382 195.626 482.937 194.077L471.025 197.496C471.446 198.963 471.852 200.434 472.243 201.91L484.223 198.738Z" fill="#FF0000"/>
<path d="M482.538 192.702C482.083 191.155 481.613 189.614 481.127 188.077L469.312 191.815C469.772 193.27 470.217 194.729 470.647 196.194L482.538 192.702Z" fill="#FF0000"/>
<path d="M480.61 186.462C480.113 184.929 479.6 183.402 479.071 181.879L467.364 185.946C467.865 187.387 468.351 188.834 468.822 190.286L480.61 186.462Z" fill="#FF0000"/>
<path d="M478.487 180.219C477.947 178.701 477.391 177.188 476.819 175.681L465.232 180.076C465.774 181.503 466.3 182.936 466.812 184.373L478.487 180.219Z" fill="#FF0000"/>
<path d="M475.899 173.296C475.311 171.795 474.708 170.301 474.089 168.813L462.647 173.573C463.233 174.982 463.804 176.397 464.361 177.818L475.899 173.296Z" fill="#FF0000"/>
<path d="M472.97 166.169C472.333 164.689 471.68 163.215 471.012 161.749L459.734 166.884C460.366 168.272 460.984 169.668 461.587 171.07L472.97 166.169Z" fill="#FF0000"/>
<path d="M77.027 430.478C78.4629 431.985 79.9176 433.474 81.3907 434.944L93.1749 423.137C91.8001 421.765 90.4425 420.376 89.1024 418.97L77.027 430.478Z" fill="white"/>
<path d="M8 258C8 260.081 8.02599 262.163 8.07797 264.243L24.754 263.827C24.7055 261.885 24.6812 259.942 24.6812 258H8Z" fill="white"/>
<path d="M258 8C255.919 8 253.837 8.02599 251.757 8.07797L252.173 24.754C254.115 24.7055 256.058 24.6812 258 24.6812V8Z" fill="white"/>
<path d="M508 258C508 255.919 507.974 253.837 507.922 251.757L474.963 252.58C475.009 254.386 475.031 256.193 475.031 258H508Z" fill="#FF0000"/>
<path d="M434.777 81.2233C433.305 79.7516 431.815 78.2983 430.307 76.8638L418.81 88.9501C420.217 90.2889 421.608 91.6452 422.981 93.0187L434.777 81.2233Z" fill="white"/>
<path d="M102.015 412.025H104.5C106.18 412.025 107.02 411.162 107.02 409.435V398.06C107.02 396.333 106.18 395.47 104.5 395.47H102.015C100.335 395.47 99.495 396.333 99.495 398.06V409.435C99.495 411.162 100.335 412.025 102.015 412.025ZM104.99 415H101.49C99.7633 415 98.4217 414.522 97.465 413.565C96.5083 412.608 96.03 411.278 96.03 409.575V397.92C96.03 396.193 96.5083 394.863 97.465 393.93C98.4217 392.973 99.7633 392.495 101.49 392.495H104.99C106.693 392.495 108.023 392.973 108.98 393.93C109.937 394.863 110.415 396.193 110.415 397.92V409.575C110.415 411.278 109.937 412.608 108.98 413.565C108.023 414.522 106.693 415 104.99 415Z" fill="white"/>
<path d="M35.98 251.99V249.925C35.98 249.552 36.1433 249.272 36.47 249.085L40.11 246.88C40.5533 246.623 40.9267 246.495 41.23 246.495H43.33C43.7267 246.495 43.925 246.693 43.925 247.09V268.405C43.925 268.802 43.7383 269 43.365 269H41.09C40.6933 269 40.495 268.802 40.495 268.405V250.135L36.68 252.34C36.2133 252.55 35.98 252.433 35.98 251.99Z" fill="white"/>
<path d="M96.82 122.405V119.185C96.82 117.738 97.4383 116.525 98.675 115.545L105.29 110.155C106.41 109.268 106.97 108.242 106.97 107.075V105.92C106.97 104.24 106.095 103.4 104.345 103.4H102.63C101.743 103.4 101.102 103.598 100.705 103.995C100.308 104.392 100.11 105.033 100.11 105.92V107.215C100.11 107.635 99.9117 107.845 99.515 107.845H97.275C96.8783 107.845 96.68 107.635 96.68 107.215V105.85C96.68 104.147 97.1583 102.828 98.115 101.895C99.0717 100.962 100.413 100.495 102.14 100.495H104.87C106.573 100.495 107.903 100.962 108.86 101.895C109.817 102.828 110.295 104.147 110.295 105.85V107.285C110.295 109.105 109.583 110.598 108.16 111.765L101.44 117.26C100.903 117.703 100.635 118.228 100.635 118.835V119.955H109.735C110.155 119.955 110.365 120.153 110.365 120.55V122.405C110.365 122.802 110.155 123 109.735 123H97.45C97.03 123 96.82 122.802 96.82 122.405Z" fill="white"/>
<path d="M254.735 45.295H256.66C258.387 45.295 259.25 44.4433 259.25 42.74V40.92C259.25 39.24 258.387 38.4 256.66 38.4H254.595C253.732 38.4 253.09 38.5983 252.67 38.995C252.273 39.3917 252.075 40.0333 252.075 40.92V41.935C252.075 42.3317 251.877 42.53 251.48 42.53H249.24C248.843 42.53 248.645 42.3317 248.645 41.935V40.85C248.645 39.1467 249.123 37.8283 250.08 36.895C251.037 35.9617 252.378 35.495 254.105 35.495H257.15C258.877 35.495 260.218 35.9617 261.175 36.895C262.132 37.8283 262.61 39.1467 262.61 40.85V42.775C262.61 44.8283 261.677 46.135 259.81 46.695C261.677 47.1383 262.61 48.445 262.61 50.615V52.645C262.61 54.3483 262.132 55.6667 261.175 56.6C260.218 57.5333 258.877 58 257.15 58H254.105C252.378 58 251.037 57.5333 250.08 56.6C249.123 55.6667 248.645 54.3483 248.645 52.645V51.42C248.645 51 248.843 50.79 249.24 50.79H251.48C251.877 50.79 252.075 51 252.075 51.42V52.575C252.075 53.4383 252.273 54.08 252.67 54.5C253.09 54.8967 253.732 55.095 254.595 55.095H256.66C258.387 55.095 259.25 54.255 259.25 52.575V50.65C259.25 48.9467 258.387 48.095 256.66 48.095H254.735C254.338 48.095 254.14 47.8967 254.14 47.5V45.925C254.14 45.505 254.338 45.295 254.735 45.295Z" fill="white"/>
<path d="M409.585 112.72V100.33L402.69 112.72H409.585ZM412.245 120H410.18C409.783 120 409.585 119.802 409.585 119.405V115.73H400.345C399.668 115.73 399.33 115.392 399.33 114.715V113.63C399.33 113.117 399.435 112.662 399.645 112.265L407.45 98.37C407.637 98.02 407.812 97.7867 407.975 97.67C408.138 97.5533 408.383 97.495 408.71 97.495H411.79C412.467 97.495 412.805 97.8333 412.805 98.51V112.72H415.36C415.757 112.72 415.955 112.918 415.955 113.315V115.065C415.955 115.508 415.757 115.73 415.36 115.73H412.805V119.405C412.805 119.802 412.618 120 412.245 120Z" fill="white"/>
<path d="M466.66 256.1H464.49C464.047 256.1 463.673 256.182 463.37 256.345C463.09 256.508 462.903 256.683 462.81 256.87C462.553 257.407 462.238 257.675 461.865 257.675H459.66C459.263 257.675 459.065 257.477 459.065 257.08V246.09C459.065 245.693 459.263 245.495 459.66 245.495H471.525C471.945 245.495 472.155 245.693 472.155 246.09V248.085C472.155 248.482 471.945 248.68 471.525 248.68H462.495V255.05C462.892 253.907 463.872 253.335 465.435 253.335H467.5C469.18 253.335 470.463 253.778 471.35 254.665C472.237 255.528 472.68 256.812 472.68 258.515V262.575C472.68 264.278 472.202 265.608 471.245 266.565C470.288 267.522 468.958 268 467.255 268H464.28C462.553 268 461.212 267.522 460.255 266.565C459.322 265.608 458.855 264.278 458.855 262.575V261.665C458.855 261.245 459.053 261.035 459.45 261.035H461.655C462.052 261.035 462.25 261.245 462.25 261.665V262.54C462.25 264.243 463.09 265.095 464.77 265.095H466.765C468.492 265.095 469.355 264.243 469.355 262.54V259.005C469.355 257.955 469.145 257.208 468.725 256.765C468.328 256.322 467.64 256.1 466.66 256.1Z" fill="white"/>
<path d="M463.1 294H462.375C462.208 294 462.125 293.9 462.125 293.7V278.225C462.125 278.025 462.208 277.925 462.375 277.925H463.1C463.283 277.925 463.375 278.025 463.375 278.225V285.05C463.375 285.2 463.458 285.275 463.625 285.275H470.625C470.792 285.275 470.875 285.2 470.875 285.05V278.225C470.875 278.025 470.958 277.925 471.125 277.925H471.85C472.033 277.925 472.125 278.025 472.125 278.225V293.7C472.125 293.9 472.033 294 471.85 294H471.125C470.958 294 470.875 293.9 470.875 293.7V286.625C470.875 286.475 470.792 286.4 470.625 286.4H463.625C463.458 286.4 463.375 286.475 463.375 286.625V293.7C463.375 293.9 463.283 294 463.1 294Z" fill="white"/>
<path d="M409.525 416H406.375C405.292 416 404.433 415.683 403.8 415.05C403.183 414.417 402.875 413.55 402.875 412.45V403.475C402.875 402.375 403.183 401.508 403.8 400.875C404.433 400.242 405.292 399.925 406.375 399.925H409.525C410.608 399.925 411.458 400.242 412.075 400.875C412.708 401.508 413.025 402.375 413.025 403.475V404.7C413.025 404.9 412.933 405 412.75 405H412.05C411.867 405 411.775 404.9 411.775 404.7V403.525C411.775 402.725 411.567 402.117 411.15 401.7C410.75 401.267 410.167 401.05 409.4 401.05H406.475C405.708 401.05 405.125 401.267 404.725 401.7C404.325 402.133 404.125 402.742 404.125 403.525V412.4C404.125 413.183 404.325 413.792 404.725 414.225C405.125 414.658 405.708 414.875 406.475 414.875H409.4C410.167 414.875 410.75 414.667 411.15 414.25C411.567 413.817 411.775 413.2 411.775 412.4V411.225C411.775 411.025 411.867 410.925 412.05 410.925H412.75C412.933 410.925 413.025 411.025 413.025 411.225V412.45C413.025 413.55 412.708 414.417 412.075 415.05C411.458 415.683 410.608 416 409.525 416Z" fill="white"/>
<rect x="384" y="253" width="73" height="4" fill="#808080"/>
<rect x="384" y="253" width="17" height="4" fill="#FF0000"/>
<rect x="475" y="253" width="16" height="4" fill="#FF0000"/>
<path d="M465.702 356.791C466.765 354.557 467.792 352.305 468.782 350.038L408.838 323.863C408.129 325.486 407.395 327.097 406.634 328.696L465.702 356.791Z" fill="#FF0000"/>
<path d="M420.635 420.635C455.242 386.027 477.908 341.282 485.336 292.907L480.628 292.184C473.354 339.558 451.158 383.376 417.267 417.267L420.635 420.635Z" fill="url(#paint5_linear_4336_75229)"/>
<defs>
<linearGradient id="paint0_linear_4336_75229" x1="169.443" y1="-0.980684" x2="569.203" y2="19.1113" gradientUnits="userSpaceOnUse">
<stop stop-color="#1C5FE2"/>
<stop offset="1" stop-color="#0FC2EB"/>
</linearGradient>
<linearGradient id="paint1_linear_4336_75229" x1="208.245" y1="113.455" x2="430.592" y2="124.63" gradientUnits="userSpaceOnUse">
<stop stop-color="#1C5FE2"/>
<stop offset="1" stop-color="#0FC2EB"/>
</linearGradient>
<linearGradient id="paint2_linear_4336_75229" x1="208.245" y1="113.455" x2="430.592" y2="124.63" gradientUnits="userSpaceOnUse">
<stop stop-color="#1C5FE2"/>
<stop offset="1" stop-color="#0FC2EB"/>
</linearGradient>
<linearGradient id="paint3_linear_4336_75229" x1="171.831" y1="5.04022" x2="563.069" y2="24.7039" gradientUnits="userSpaceOnUse">
<stop stop-color="#1C5FE2"/>
<stop offset="1" stop-color="#0FC2EB"/>
</linearGradient>
<linearGradient id="paint4_linear_4336_75229" x1="178.353" y1="24.1124" x2="540.151" y2="42.2964" gradientUnits="userSpaceOnUse">
<stop stop-color="#1C5FE2"/>
<stop offset="1" stop-color="#0FC2EB"/>
</linearGradient>
<linearGradient id="paint5_linear_4336_75229" x1="179.054" y1="27.1257" x2="535.429" y2="45.0372" gradientUnits="userSpaceOnUse">
<stop stop-color="#1C5FE2"/>
<stop offset="1" stop-color="#0FC2EB"/>
</linearGradient>
</defs>
</svg>
