<svg width="262" height="65" viewBox="0 0 262 65" fill="none" xmlns="http://www.w3.org/2000/svg">
<g clip-path="url(#clip0_8900_34492)" filter="url(#filter0_d_8900_34492)">
<path d="M102.644 31.5852C101.615 32.4021 100.408 32.963 99.1199 33.2215C98.3514 33.3716 97.5697 33.4436 96.7867 33.4365C95.544 33.4471 94.3122 33.2053 93.1657 32.7258C92.0841 32.2801 91.1029 31.6221 90.2799 30.7907C89.457 29.9592 88.8092 28.9712 88.3747 27.8851C87.9161 26.75 87.6854 25.5358 87.6957 24.3116V24.2596C87.6724 21.8454 88.5981 19.5186 90.2734 17.7803C91.1019 16.9314 92.0934 16.2586 93.1883 15.8023C94.3806 15.3109 95.6602 15.0669 96.9496 15.0849C97.7088 15.0791 98.4668 15.1473 99.2127 15.2886C99.8508 15.4105 100.475 15.5971 101.075 15.8453C101.62 16.0756 102.139 16.3647 102.621 16.7076C103.091 17.0416 103.533 17.4148 103.94 17.8233L101.451 20.6861C100.816 20.102 100.104 19.6078 99.3349 19.2173C98.5801 18.8541 97.751 18.672 96.9134 18.6855C96.217 18.6779 95.527 18.8185 94.8891 19.0979C94.2511 19.3772 93.6799 19.789 93.2132 20.3059C92.7523 20.8225 92.3916 21.4203 92.1495 22.0689C91.893 22.7533 91.7641 23.4789 91.7693 24.2098V24.2596C91.7648 24.9955 91.8936 25.7262 92.1495 26.4163C92.3891 27.067 92.7458 27.6683 93.2019 28.1906C93.6656 28.7161 94.2372 29.1353 94.8777 29.4196C95.5183 29.704 96.2126 29.8467 96.9134 29.8381C97.8039 29.865 98.6875 29.6731 99.4866 29.2791C100.247 28.8655 100.95 28.3542 101.578 27.7583L104.067 30.2681C103.627 30.7426 103.151 31.1829 102.644 31.5852Z" fill="white"/>
<path d="M114.734 33.1309V31.6621C114.256 32.1889 113.678 32.6152 113.034 32.9159C112.278 33.2523 111.456 33.4161 110.628 33.3957C110.015 33.3989 109.404 33.3089 108.818 33.1286C108.275 32.9651 107.771 32.6933 107.336 32.3297C106.91 31.9727 106.568 31.527 106.333 31.0239C106.079 30.4636 105.954 29.8535 105.966 29.2383V29.1863C105.949 28.5215 106.087 27.8618 106.371 27.2604C106.635 26.7284 107.023 26.268 107.503 25.9184C108.022 25.5454 108.607 25.2743 109.227 25.1195C109.952 24.9341 110.698 24.8443 111.445 24.8524C112.052 24.8448 112.659 24.8956 113.256 25.0041C113.767 25.1055 114.27 25.2408 114.763 25.4092V25.1829C114.763 24.3704 114.519 23.7548 114.028 23.3316C113.536 22.9084 112.812 22.698 111.848 22.698C111.188 22.6895 110.53 22.7533 109.884 22.8881C109.276 23.0274 108.678 23.2096 108.096 23.4335L107.134 20.496C107.888 20.1707 108.668 19.9073 109.465 19.7084C110.43 19.49 111.418 19.3882 112.407 19.4051C114.519 19.4051 116.058 19.9204 117.022 20.9508C117.986 21.9813 118.462 23.4139 118.45 25.2485V33.1309H114.734ZM114.811 27.6564C114.447 27.4968 114.067 27.3739 113.679 27.2898C113.242 27.1942 112.796 27.1471 112.348 27.1495C111.52 27.1495 110.87 27.3102 110.397 27.6315C110.168 27.7825 109.983 27.9903 109.858 28.2347C109.733 28.4791 109.675 28.7516 109.687 29.0256V29.0777C109.676 29.3127 109.724 29.5467 109.826 29.7588C109.928 29.9709 110.081 30.1544 110.271 30.2929C110.717 30.5985 111.251 30.7502 111.792 30.7252C112.697 30.7252 113.427 30.5049 113.982 30.0644C114.246 29.8631 114.459 29.602 114.602 29.3026C114.746 29.0032 114.817 28.6741 114.808 28.3421L114.811 27.6564Z" fill="white"/>
<path d="M129.765 23.3225C128.479 23.3225 127.469 23.7111 126.735 24.4881C126 25.2651 125.632 26.472 125.632 28.109V33.1263H121.785V19.5477H125.632V22.286C125.971 21.4242 126.515 20.6582 127.217 20.0546C127.894 19.4979 128.807 19.2444 129.955 19.2942V23.3248L129.765 23.3225Z" fill="white"/>
<path d="M150.135 27.8218C149.673 28.9226 148.998 29.9216 148.15 30.7615C147.301 31.6015 146.296 32.2659 145.19 32.7169C143.987 33.2072 142.699 33.4527 141.4 33.4388C140.105 33.4535 138.82 33.208 137.622 32.7169C136.514 32.2616 135.503 31.5987 134.644 30.7638C133.806 29.9417 133.142 28.9587 132.693 27.8738C132.225 26.746 131.987 25.5353 131.996 24.314V24.2619C131.988 23.0383 132.231 21.8261 132.709 20.6998C133.173 19.5985 133.849 18.5995 134.699 17.7599C135.549 16.9203 136.556 16.2566 137.663 15.8069C138.866 15.3177 140.155 15.0723 141.454 15.085C142.748 15.0714 144.031 15.3169 145.229 15.8069C146.337 16.2619 147.348 16.9248 148.207 17.76C149.045 18.582 149.709 19.564 150.16 20.6477C150.628 21.7765 150.865 22.9878 150.857 24.2099V24.2597C150.862 25.4839 150.617 26.6962 150.135 27.8218ZM146.765 24.2597C146.77 23.5239 146.636 22.7939 146.372 22.1074C146.121 21.4509 145.744 20.8505 145.26 20.3409C144.776 19.8313 144.197 19.4225 143.554 19.1382C142.877 18.8349 142.142 18.6805 141.4 18.6856C140.655 18.6751 139.917 18.8216 139.234 19.1156C138.599 19.3913 138.028 19.7968 137.559 20.306C137.09 20.8214 136.721 21.4191 136.471 22.069C136.205 22.7513 136.072 23.4777 136.077 24.2099V24.2597C136.072 24.9968 136.206 25.7284 136.471 26.4164C136.976 27.7428 137.988 28.814 139.284 29.3946C139.965 29.6993 140.705 29.8537 141.452 29.8473C142.192 29.8541 142.926 29.7069 143.606 29.415C144.245 29.1417 144.819 28.736 145.29 28.2246C145.76 27.7099 146.13 27.112 146.381 26.4617C146.646 25.7793 146.78 25.0529 146.774 24.3208L146.765 24.2597Z" fill="white"/>
<path d="M162.514 33.1308V25.572C162.514 24.6668 162.311 23.9795 161.906 23.5103C161.687 23.2741 161.42 23.0893 161.121 22.9691C160.823 22.849 160.502 22.7965 160.181 22.8155C159.855 22.7993 159.529 22.8529 159.226 22.9727C158.922 23.0926 158.647 23.2758 158.42 23.5103C157.99 23.9629 157.773 24.6622 157.773 25.572V33.1308H153.926V19.5521H157.773V21.4939C157.996 21.202 158.238 20.9253 158.497 20.6656C158.761 20.399 159.054 20.1636 159.371 19.964C159.702 19.7542 160.059 19.5904 160.434 19.4775C160.863 19.3535 161.308 19.2932 161.754 19.2987C163.223 19.2987 164.359 19.7468 165.162 20.643C165.965 21.5392 166.366 22.7725 166.366 24.3431V33.1376L162.514 33.1308Z" fill="white"/>
<path d="M183.597 24.2868C183.24 25.0453 182.716 25.7125 182.062 26.2376C181.385 26.7763 180.608 27.1769 179.777 27.4167C178.868 27.6848 177.925 27.8175 176.977 27.8105H174.015V33.1311H170.113V15.3883H177.355C178.324 15.3768 179.289 15.5299 180.207 15.8409C180.995 16.1095 181.72 16.537 182.336 17.0969C182.919 17.6387 183.377 18.3005 183.678 19.0364C183.998 19.8271 184.157 20.6732 184.147 21.5258V21.5756C184.169 22.5092 183.981 23.4357 183.597 24.2868ZM180.202 21.6005C180.202 20.7209 179.919 20.0533 179.354 19.5977C178.788 19.142 178.015 18.9157 177.034 18.9188H174.015V24.3502H177.109C178.088 24.3502 178.848 24.0922 179.39 23.5762C179.652 23.3329 179.86 23.0367 180 22.707C180.14 22.3774 180.208 22.0218 180.2 21.6639L180.202 21.6005Z" fill="white"/>
<path d="M195.233 33.1308V25.572C195.233 24.6668 195.03 23.9795 194.624 23.5103C194.406 23.2741 194.138 23.0893 193.84 22.9691C193.542 22.849 193.221 22.7965 192.9 22.8155C192.574 22.7993 192.248 22.8529 191.944 22.9727C191.641 23.0926 191.366 23.2758 191.139 23.5103C190.706 23.9735 190.49 24.6607 190.492 25.572V33.1308H186.645V14.6299H190.492V21.4871C190.715 21.1953 190.957 20.9185 191.216 20.6588C191.479 20.3922 191.772 20.1568 192.09 19.9572C192.42 19.7474 192.778 19.5836 193.153 19.4707C193.582 19.3467 194.026 19.2864 194.473 19.2919C195.942 19.2919 197.078 19.74 197.881 20.6362C198.684 21.5324 199.085 22.7658 199.085 24.3363V33.1308H195.233Z" fill="white"/>
<path d="M215.92 29.1138C215.556 29.9555 215.031 30.718 214.375 31.3588C213.701 32.0088 212.909 32.5242 212.041 32.8774C211.108 33.2578 210.107 33.4478 209.099 33.4363C208.101 33.4461 207.111 33.2608 206.184 32.8909C205.321 32.5492 204.532 32.0409 203.865 31.395C203.213 30.7593 202.693 30.0019 202.333 29.1659C201.957 28.2982 201.766 27.3617 201.774 26.4162V26.3641C201.766 25.4186 201.957 24.4821 202.333 23.6145C202.696 22.7731 203.222 22.0111 203.878 21.3717C204.55 20.7198 205.342 20.2035 206.209 19.8509C207.143 19.4715 208.143 19.2815 209.151 19.2919C210.149 19.283 211.139 19.4682 212.066 19.8373C212.93 20.1799 213.718 20.6881 214.386 21.3332C215.038 21.9693 215.559 22.7265 215.92 23.5624C216.294 24.4313 216.484 25.3684 216.477 26.3143V26.3641C216.484 27.3094 216.295 28.2458 215.92 29.1138ZM212.675 26.3641C212.679 25.8752 212.593 25.3896 212.422 24.9316C212.087 24.0383 211.413 23.314 210.545 22.9174C210.092 22.7109 209.599 22.6066 209.102 22.6119C208.592 22.6033 208.087 22.7028 207.619 22.9038C207.2 23.0898 206.824 23.362 206.517 23.7027C206.209 24.0455 205.972 24.4464 205.82 24.8818C205.656 25.3414 205.574 25.8263 205.578 26.3143V26.3641C205.574 26.8531 205.66 27.3386 205.831 27.7967C206.166 28.6852 206.834 29.4079 207.694 29.8108C208.151 30.0199 208.649 30.1243 209.151 30.1164C209.661 30.1261 210.168 30.0265 210.636 29.8244C211.055 29.6381 211.431 29.3659 211.738 29.0255C212.045 28.6819 212.282 28.2813 212.435 27.8465C212.597 27.3872 212.679 26.9032 212.675 26.4162V26.3641Z" fill="white"/>
<path d="M227.854 33.1308V25.572C227.854 24.6668 227.651 23.9795 227.245 23.5103C227.027 23.2741 226.759 23.0893 226.461 22.9691C226.163 22.849 225.842 22.7965 225.521 22.8155C225.195 22.7993 224.869 22.8529 224.565 22.9727C224.262 23.0926 223.987 23.2758 223.76 23.5103C223.33 23.9629 223.113 24.6622 223.113 25.572V33.1308H219.266V19.5521H223.113V21.4939C223.336 21.202 223.578 20.9253 223.837 20.6656C224.1 20.399 224.394 20.1636 224.711 19.964C225.042 19.7546 225.399 19.5909 225.774 19.4775C226.203 19.3535 226.648 19.2932 227.094 19.2987C228.562 19.2987 229.698 19.7468 230.502 20.643C231.306 21.5392 231.707 22.7725 231.706 24.3431V33.1376L227.854 33.1308Z" fill="white"/>
<path d="M247.714 27.2017C247.714 27.3375 247.691 27.4959 247.675 27.6815H238.22C238.348 28.4641 238.759 29.1726 239.374 29.673C239.999 30.1373 240.764 30.3766 241.542 30.3519C242.133 30.362 242.719 30.2503 243.264 30.0238C243.847 29.7575 244.382 29.3974 244.849 28.9578L247.053 30.9109C246.422 31.6955 245.626 32.3315 244.722 32.7734C243.715 33.2439 242.613 33.4762 241.501 33.4524C240.536 33.4607 239.577 33.2888 238.675 32.9454C237.828 32.6259 237.057 32.1333 236.412 31.4993C235.772 30.8677 235.267 30.1133 234.927 29.2815C234.563 28.3763 234.382 27.4078 234.395 26.4322V26.3802C234.39 25.4446 234.558 24.5162 234.891 23.6418C235.202 22.806 235.671 22.0377 236.271 21.3787C236.866 20.7333 237.586 20.2158 238.387 19.8579C239.242 19.4794 240.168 19.2888 241.103 19.2989C242.117 19.2738 243.124 19.4821 244.045 19.9077C244.847 20.2916 245.553 20.8499 246.111 21.5416C246.668 22.2372 247.084 23.0353 247.333 23.8907C247.597 24.7926 247.729 25.7279 247.725 26.6676V26.7174C247.725 26.9052 247.72 27.0591 247.714 27.2017ZM243.063 23.1847C242.814 22.9184 242.511 22.7092 242.174 22.5713C241.837 22.4334 241.474 22.3701 241.11 22.3858C240.746 22.3711 240.382 22.4335 240.044 22.5688C239.705 22.7042 239.399 22.9094 239.145 23.1711C238.616 23.7587 238.276 24.4921 238.17 25.2758H243.975C243.894 24.5012 243.576 23.7707 243.063 23.1847Z" fill="white"/>
<path d="M108.558 43.0796C108.381 43.507 108.116 43.8925 107.78 44.2111C107.432 44.5372 107.024 44.7931 106.578 44.9647C106.089 45.1527 105.568 45.2464 105.044 45.2408H102.57V38.112H105.044C105.568 38.1066 106.088 38.1979 106.578 38.3814C107.024 38.5495 107.433 38.8041 107.78 39.1304C108.115 39.4495 108.38 39.8348 108.558 40.262C108.924 41.1649 108.924 42.1744 108.558 43.0773V43.0796ZM107.789 40.5901C107.656 40.251 107.455 39.9429 107.198 39.6849C106.932 39.4237 106.614 39.2196 106.266 39.0852C105.877 38.9319 105.462 38.8551 105.044 38.8589H103.374V44.5008H105.044C105.461 44.5067 105.875 44.4345 106.266 44.2881C106.61 44.1603 106.923 43.962 107.185 43.7059C107.447 43.4498 107.653 43.1416 107.789 42.8012C107.931 42.4482 108.002 42.0705 107.997 41.69C108.001 41.3104 107.93 40.9337 107.789 40.5811V40.5901Z" fill="white" fill-opacity="0.75"/>
<path d="M116.256 45.2454L114.188 42.4753H112.151V45.2454H111.348V38.1166H114.412C114.773 38.1114 115.133 38.1626 115.478 38.2682C115.773 38.3594 116.047 38.507 116.286 38.7027C116.508 38.8868 116.686 39.1189 116.806 39.3816C116.931 39.655 116.993 39.9525 116.99 40.2529C116.994 40.526 116.946 40.7973 116.847 41.0518C116.756 41.2811 116.619 41.4892 116.444 41.6629C116.265 41.8418 116.057 41.9887 115.829 42.0974C115.583 42.2128 115.323 42.2928 115.055 42.335L117.243 45.2454H116.256ZM115.704 39.2323C115.307 38.9582 114.828 38.8267 114.346 38.8589H112.14V41.7692H114.335C114.584 41.7717 114.832 41.7374 115.07 41.6674C115.28 41.6057 115.477 41.5068 115.652 41.3754C115.815 41.2518 115.946 41.0923 116.037 40.9092C116.13 40.7151 116.176 40.5021 116.173 40.2869C116.185 40.0864 116.149 39.8858 116.068 39.7021C115.986 39.5185 115.861 39.3573 115.704 39.2323Z" fill="white" fill-opacity="0.75"/>
<path d="M120.401 38.1162V45.245H119.598V38.1162H120.401Z" fill="white" fill-opacity="0.75"/>
<path d="M128.67 38.1162H129.539L126.472 45.2948H125.76L122.695 38.1162H123.601L126.124 44.2583L128.67 38.1162Z" fill="white" fill-opacity="0.75"/>
<path d="M136.913 38.8499H132.563V41.2827H136.454V42.016H132.563V44.5054H136.963V45.2387H131.758V38.1099H136.911L136.913 38.8499Z" fill="white" fill-opacity="0.75"/>
<path d="M149.254 43.0796C149.076 43.507 148.811 43.8925 148.475 44.2111C148.126 44.5378 147.718 44.7937 147.271 44.9648C146.783 45.1529 146.263 45.2466 145.739 45.2409H143.266V38.1121H145.739C146.262 38.1063 146.782 38.1977 147.271 38.3814C147.718 38.5493 148.127 38.8039 148.475 39.1305C148.811 39.4495 149.076 39.8349 149.254 40.262C149.619 41.1649 149.619 42.1744 149.254 43.0773V43.0796ZM148.484 40.5902C148.35 40.2519 148.149 39.944 147.894 39.6849C147.626 39.4242 147.309 39.2202 146.961 39.0852C146.572 38.932 146.157 38.8551 145.739 38.8589H144.069V44.5008H145.739C146.156 44.5067 146.571 44.4345 146.961 44.2881C147.31 44.1564 147.627 43.9537 147.894 43.6929C148.147 43.4374 148.348 43.1344 148.484 42.8012C148.625 42.4479 148.696 42.0705 148.693 41.69C148.695 41.3105 148.624 40.934 148.484 40.5811V40.5902Z" fill="white" fill-opacity="0.75"/>
<path d="M156.953 45.2454L154.887 42.4753H152.85V45.2454H152.047V38.1166H155.113C155.474 38.1113 155.833 38.1624 156.177 38.2682C156.473 38.3589 156.748 38.5065 156.987 38.7027C157.21 38.8868 157.388 39.119 157.508 39.3817C157.632 39.655 157.695 39.9526 157.691 40.253C157.696 40.526 157.647 40.7973 157.548 41.0518C157.457 41.2808 157.32 41.4888 157.146 41.6629C156.966 41.8411 156.758 41.988 156.53 42.0974C156.285 42.2152 156.024 42.2975 155.756 42.3418L157.945 45.2522L156.953 45.2454ZM156.401 39.2323C156.003 38.9586 155.525 38.827 155.043 38.8589H152.85V41.7693H155.045C155.294 41.7716 155.542 41.7373 155.781 41.6674C155.991 41.6057 156.188 41.5069 156.363 41.3755C156.524 41.2517 156.655 41.0922 156.745 40.9093C156.84 40.7157 156.887 40.5024 156.883 40.2869C156.894 40.0853 156.855 39.8841 156.771 39.7005C156.687 39.5169 156.56 39.3563 156.401 39.2323Z" fill="white" fill-opacity="0.75"/>
<path d="M165.376 38.8499H161.028V41.2827H164.919V42.016H161.028V44.5054H165.428V45.2387H160.223V38.1099H165.376V38.8499Z" fill="white" fill-opacity="0.75"/>
<path d="M174.497 45.2453H173.633L172.798 43.3533H168.916L168.072 45.2385H167.246L170.5 38.0645H171.254L174.497 45.2453ZM170.863 39.0127L169.233 42.6472H172.481L170.863 39.0127Z" fill="white" fill-opacity="0.75"/>
<path d="M180.137 43.2897H180.096L177.5 39.4809V45.245H176.715V38.1162H177.53L180.128 42.0065L182.719 38.1162H183.534V45.245H182.73V39.4696L180.137 43.2897Z" fill="white" fill-opacity="0.75"/>
<path d="M187.076 40.3479C187.139 40.4963 187.241 40.6252 187.37 40.7213C187.55 40.853 187.75 40.9561 187.961 41.0268C188.277 41.1368 188.601 41.2238 188.93 41.2871C189.724 41.4636 190.308 41.708 190.686 42.0226C190.874 42.1799 191.023 42.3786 191.121 42.6033C191.219 42.8279 191.264 43.0722 191.252 43.3171C191.255 43.6062 191.193 43.8924 191.071 44.1544C190.952 44.4015 190.781 44.62 190.571 44.7949C190.345 44.981 190.085 45.1203 189.806 45.2045C189.489 45.3022 189.159 45.3503 188.828 45.3471C188.294 45.3534 187.764 45.2597 187.264 45.071C186.763 44.8713 186.303 44.5814 185.906 44.2155L186.404 43.6249C186.737 43.9377 187.12 44.1938 187.536 44.383C187.951 44.5575 188.398 44.643 188.848 44.6342C189.261 44.6547 189.668 44.536 190.005 44.297C190.143 44.1945 190.254 44.0605 190.329 43.9061C190.404 43.7517 190.441 43.5815 190.437 43.4099C190.439 43.2551 190.412 43.1014 190.356 42.9572C190.293 42.8143 190.195 42.6897 190.07 42.5951C189.898 42.4678 189.706 42.3685 189.502 42.3009C189.201 42.195 188.892 42.1095 188.579 42.0452C188.217 41.9699 187.86 41.8678 187.513 41.7397C187.241 41.6419 186.988 41.5005 186.762 41.321C186.572 41.1683 186.422 40.9729 186.323 40.7507C186.222 40.5045 186.174 40.2402 186.18 39.9745C186.177 39.7028 186.237 39.4342 186.354 39.1892C186.471 38.9503 186.637 38.7395 186.843 38.5713C187.065 38.393 187.316 38.2551 187.585 38.164C187.887 38.0625 188.204 38.0127 188.522 38.0169C188.989 38.0115 189.452 38.0881 189.892 38.2432C190.301 38.3988 190.682 38.618 191.023 38.8927L190.568 39.506C190.269 39.2544 189.931 39.0548 189.566 38.9153C189.228 38.7929 188.871 38.7309 188.511 38.732C188.299 38.729 188.087 38.7595 187.884 38.8225C187.713 38.8721 187.552 38.9501 187.407 39.0534C187.278 39.1513 187.173 39.2775 187.101 39.4223C187.03 39.5626 186.994 39.7177 186.995 39.8749C186.99 40.0364 187.018 40.1972 187.076 40.3479Z" fill="white" fill-opacity="0.75"/>
<path d="M198.38 42.0359V45.245H197.574V38.1162H198.38V41.2846H202.494V38.1162H203.298V45.245H202.494V42.0359H198.38Z" fill="white" fill-opacity="0.75"/>
<path d="M212.823 43.0796C212.652 43.5157 212.399 43.9151 212.078 44.2564C211.754 44.601 211.363 44.8765 210.929 45.0666C210.459 45.2633 209.954 45.3645 209.444 45.3645C208.934 45.3645 208.43 45.2633 207.96 45.0666C207.53 44.8802 207.142 44.6098 206.818 44.2713C206.494 43.9328 206.241 43.533 206.074 43.0954C205.901 42.6456 205.814 42.1674 205.816 41.6855C205.814 41.2029 205.904 40.7243 206.081 40.2756C206.252 39.8398 206.504 39.4405 206.824 39.0988C207.15 38.7548 207.541 38.4794 207.975 38.2886C208.446 38.0929 208.95 37.9922 209.459 37.9922C209.968 37.9922 210.472 38.0929 210.942 38.2886C211.375 38.476 211.765 38.7484 212.09 39.0897C212.41 39.4278 212.66 39.8253 212.828 40.2597C213.001 40.7094 213.09 41.1876 213.088 41.6696C213.09 42.1522 213 42.6308 212.823 43.0796ZM212.042 40.5404C211.912 40.1924 211.713 39.874 211.458 39.6034C211.205 39.3374 210.902 39.123 210.567 38.972C210.21 38.8154 209.824 38.7382 209.435 38.7457C209.046 38.7396 208.66 38.8167 208.304 38.972C207.97 39.1174 207.671 39.33 207.423 39.5966C207.174 39.8681 206.979 40.1845 206.848 40.529C206.707 40.8942 206.637 41.2827 206.64 41.6742C206.637 42.0678 206.708 42.4585 206.848 42.8261C206.98 43.1741 207.179 43.4926 207.435 43.763C207.687 44.029 207.99 44.2434 208.324 44.3944C208.846 44.6303 209.428 44.6971 209.99 44.5856C210.551 44.474 211.064 44.1895 211.456 43.7721C211.705 43.5007 211.9 43.1842 212.031 42.8397C212.173 42.4747 212.244 42.0861 212.241 41.6945C212.248 41.3007 212.181 40.9092 212.042 40.5404Z" fill="white" fill-opacity="0.75"/>
<path d="M219.023 43.2897H218.983L216.387 39.4809V45.245H215.602V38.1162H216.416L219.014 42.0065L221.61 38.1162H222.425V45.245H221.621V39.4696L219.023 43.2897Z" fill="white" fill-opacity="0.75"/>
<path d="M230.411 38.8499H226.063V41.2827H229.954V42.016H226.063V44.5054H230.463V45.2387H225.258V38.1099H230.411V38.8499Z" fill="white" fill-opacity="0.75"/>
<path d="M233.218 40.2235H232.539L234.123 38.0962H234.734L236.318 40.2235H235.626L234.424 38.6552L233.218 40.2235Z" fill="white" fill-opacity="0.75"/>
<path d="M8.34813 48.6668C8.34813 48.6668 2.43462 48.1983 2.09289 44.2764C2.09289 44.2764 0.735026 52.29 8.40244 52.6318H42.245V48.6668H8.34813ZM82.4627 44.2764C82.121 48.1983 76.2075 48.6668 76.2075 48.6668H42.3016V52.6318H76.1441C83.8206 52.29 82.4627 44.2764 82.4627 44.2764Z" fill="#8099A8"/>
<path d="M42.8489 48.667H41.6562V52.632H42.8489V48.667Z" fill="#8099A8"/>
<path d="M80.5769 42.2215L74.7788 36.2515L73.8374 40.6849L63.0129 41.5426L57.5566 41.7123H42.3009V45.4216H75.9737C75.9737 45.4216 83.6728 45.6411 80.5769 42.2215ZM26.9887 41.7078L21.5324 41.5426L10.7079 40.6894L9.76648 36.256L3.96839 42.2215C0.872455 45.6321 8.57155 45.4171 8.57155 45.4171H42.2444V41.7169L26.9887 41.7078Z" fill="white"/>
<path d="M42.8528 42.0586H41.6602V45.4238H42.8528V42.0586Z" fill="white"/>
<path d="M17.7812 19.2078C17.7812 19.2078 41.9965 15.2859 66.8907 19.2078L60.7509 7.1002C60.7509 7.1002 59.7778 4.74884 51.5672 4.21927C51.5672 4.21927 36.9996 3.72591 33.1002 4.21927C33.1002 4.21927 25.4509 4.54289 23.9165 7.1002L17.7812 19.2078Z" fill="white" fill-opacity="0.5"/>
<path d="M23.3984 27.683L28.6284 23.485C28.7762 23.3652 28.961 23.3004 29.1512 23.3016H42.3406V21.4255H42.3044L28.1871 21.5025L24.4349 24.0711L15.3621 20.4501L16.858 16.5666L18.3267 12.407C18.3618 12.3071 18.3724 12.2003 18.3577 12.0955C18.343 11.9907 18.3035 11.8909 18.2423 11.8045C18.1812 11.7181 18.1002 11.6475 18.0062 11.5988C17.9123 11.5501 17.808 11.5246 17.7021 11.5244H10.6435C10.4925 11.5251 10.3463 11.5773 10.229 11.6724C10.1118 11.7674 10.0304 11.8996 9.9985 12.0472L9.23809 15.6025C9.21849 15.6913 9.21755 15.7832 9.23531 15.8723C9.25308 15.9615 9.28917 16.0459 9.34129 16.1204C9.39342 16.1949 9.46045 16.2577 9.53813 16.3049C9.61581 16.3521 9.70245 16.3827 9.79255 16.3946L14.8936 17.1007L12.3883 20.4456L12.3272 20.4773C12.3272 20.4773 9.93966 23.5574 9.76992 25.4403V42.4H42.3406V40.6959H30.0949C30.0331 40.6962 29.9715 40.6886 29.9116 40.6733H26.4174L27.61 38.9669H42.275V38.9895H42.3406V36.6019H28.513C28.3742 36.602 28.2376 36.5675 28.1155 36.5015C27.9934 36.4355 27.8897 36.3401 27.8137 36.224L23.3327 29.3419C22.9457 28.6267 22.991 28.0338 23.3984 27.683ZM11.9855 24.3246L21.0244 27.3933C21.0244 27.3933 20.6826 28.9277 21.3661 29.2695C21.3616 29.2695 10.9626 29.4392 11.9855 24.3246ZM15.568 40.3542L13.1736 38.9963L19.2501 40.7027L15.568 40.3542ZM26.0553 37.5638C24.914 38.5302 23.7038 39.4121 22.4343 40.2025C21.8255 40.5579 21.2552 40.8204 20.8501 40.8656L21.83 39.8857L13.4067 35.5202L13.0062 35.4093L13.0469 35.3323L13.7869 33.9971L26.0553 37.5638ZM42.3496 29.7809V25.3679H42.3134L29.7962 25.3475C29.6073 25.3477 29.4239 25.4115 29.2757 25.5285L25.8674 28.2443C25.7067 28.3735 25.5999 28.558 25.5676 28.7617C25.5354 28.9654 25.5802 29.1739 25.6932 29.3464L28.9226 34.2619C28.9969 34.3746 29.0976 34.4676 29.2159 34.5326C29.3342 34.5977 29.4666 34.6329 29.6016 34.6353L42.3044 34.7145H42.3406V31.1456H30.4774L29.1784 29.7877L42.3496 29.7809ZM58.7979 28.2556L55.3897 25.5398C55.2414 25.4228 55.0581 25.359 54.8692 25.3588L42.3496 25.3792H42.3134L29.7962 25.3588C29.6073 25.359 29.4239 25.4228 29.2757 25.5398L25.8674 28.2556C25.7067 28.3849 25.5999 28.5693 25.5676 28.773C25.5354 28.9767 25.5802 29.1852 25.6932 29.3577L28.9226 34.2732C28.9969 34.3859 29.0976 34.4789 29.2159 34.5439C29.3342 34.609 29.4666 34.6442 29.6016 34.6466L42.3044 34.7258H42.3406L55.048 34.6466C55.1829 34.6441 55.3152 34.6087 55.4335 34.5437C55.5518 34.4786 55.6525 34.3858 55.7269 34.2732L58.9563 29.3577C59.0701 29.186 59.1159 28.9781 59.085 28.7744C59.054 28.5707 58.9485 28.3858 58.7889 28.2556H58.7979ZM54.1767 31.1456H30.4774L29.1784 29.7877H55.4666L54.1767 31.1456ZM58.7957 28.2556L55.3874 25.5398C55.2391 25.4228 55.0558 25.359 54.8669 25.3588L42.3474 25.3792H42.3112L29.7939 25.3588C29.605 25.359 29.4217 25.4228 29.2734 25.5398L25.8652 28.2556C25.7044 28.3849 25.5976 28.5693 25.5654 28.773C25.5332 28.9767 25.5779 29.1852 25.6909 29.3577L28.9204 34.2732C28.9946 34.3859 29.0953 34.4789 29.2136 34.5439C29.3319 34.609 29.4643 34.6442 29.5993 34.6466L42.3021 34.7258H42.3383L55.0457 34.6466C55.1806 34.6441 55.313 34.6087 55.4312 34.5437C55.5495 34.4786 55.6502 34.3858 55.7246 34.2732L58.9541 29.3577C59.0681 29.1862 59.1143 28.9785 59.0838 28.7748C59.0532 28.5712 58.9481 28.3861 58.7889 28.2556H58.7957ZM54.1767 31.1456H30.4774L29.1784 29.7877H55.4666L54.1767 31.1456ZM58.7957 28.2556L55.3874 25.5398C55.2391 25.4228 55.0558 25.359 54.8669 25.3588L42.3474 25.3792H42.3112L29.7939 25.3588C29.605 25.359 29.4217 25.4228 29.2734 25.5398L25.8652 28.2556C25.7044 28.3849 25.5976 28.5693 25.5654 28.773C25.5332 28.9767 25.5779 29.1852 25.6909 29.3577L28.9204 34.2732C28.9946 34.3859 29.0953 34.4789 29.2136 34.5439C29.3319 34.609 29.4643 34.6442 29.5993 34.6466L42.3021 34.7258H42.3383L55.0457 34.6466C55.1806 34.6441 55.313 34.6087 55.4312 34.5437C55.5495 34.4786 55.6502 34.3858 55.7246 34.2732L58.9541 29.3577C59.0681 29.1862 59.1143 28.9785 59.0838 28.7748C59.0532 28.5712 58.9481 28.3861 58.7889 28.2556H58.7957ZM54.1767 31.1456H30.4774L29.1784 29.7877H55.4666L54.1767 31.1456ZM58.7957 28.2556L55.3874 25.5398C55.2391 25.4228 55.0558 25.359 54.8669 25.3588L42.3474 25.3792H42.3112L29.7939 25.3588C29.605 25.359 29.4217 25.4228 29.2734 25.5398L25.8652 28.2556C25.7044 28.3849 25.5976 28.5693 25.5654 28.773C25.5332 28.9767 25.5779 29.1852 25.6909 29.3577L28.9204 34.2732C28.9946 34.3859 29.0953 34.4789 29.2136 34.5439C29.3319 34.609 29.4643 34.6442 29.5993 34.6466L42.3021 34.7258H42.3383L55.0457 34.6466C55.1806 34.6441 55.313 34.6087 55.4312 34.5437C55.5495 34.4786 55.6502 34.3858 55.7246 34.2732L58.9541 29.3577C59.0681 29.1862 59.1143 28.9785 59.0838 28.7748C59.0532 28.5712 58.9481 28.3861 58.7889 28.2556H58.7957ZM54.1767 31.1456H30.4774L29.1784 29.7877H55.4666L54.1767 31.1456ZM75.4159 15.6116L74.6555 12.0563C74.6209 11.9097 74.5385 11.7787 74.4214 11.6841C74.3042 11.5895 74.1589 11.5365 74.0083 11.5335H66.9429C66.837 11.5336 66.7327 11.5592 66.6387 11.6079C66.5448 11.6566 66.4638 11.7271 66.4027 11.8135C66.3415 11.8999 66.3019 11.9997 66.2873 12.1045C66.2726 12.2094 66.2832 12.3162 66.3182 12.4161C66.3793 12.5994 67.7802 16.5349 67.787 16.5757L67.925 16.931L69.2829 20.4592L60.2078 24.0802L56.4579 21.5115L42.3383 21.4346H42.3021V23.3107H55.4938C55.6833 23.3096 55.8673 23.3744 56.0143 23.494L61.2443 27.6921C61.6517 28.0429 61.697 28.6358 61.3122 29.3509L56.8313 36.233C56.7553 36.3492 56.6516 36.4446 56.5295 36.5106C56.4074 36.5765 56.2708 36.6111 56.132 36.611H42.3044V38.9986H42.3406V38.9759H56.9422L58.1348 40.6823H54.7402C54.6803 40.6978 54.6187 40.7054 54.5569 40.7049H42.3044V42.4091H74.8773V25.4403C74.7053 23.5574 72.3177 20.4773 72.3177 20.4773L72.2566 20.4456L69.7514 17.1007L74.8524 16.4037C74.9426 16.3917 75.0293 16.3611 75.1071 16.3139C75.1848 16.2668 75.252 16.204 75.3043 16.1296C75.3566 16.0552 75.3929 15.9707 75.4109 15.8816C75.429 15.7924 75.4284 15.7005 75.4091 15.6116H75.4159ZM69.0792 40.3542L65.3949 40.6959L71.4713 38.9895L69.0792 40.3542ZM71.202 35.5292L62.8059 39.8789L63.7926 40.8656C63.3762 40.8204 62.8059 40.5556 62.1948 40.1867C60.9317 39.3979 59.7275 38.5182 58.592 37.5547L70.8558 33.988L71.5935 35.3165L71.6388 35.4002L71.202 35.5292ZM72.6595 24.3246C73.6824 29.4392 63.2811 29.2695 63.2811 29.2695C63.9601 28.9277 63.6206 27.3933 63.6206 27.3933L72.6595 24.3246ZM42.3338 34.7349L55.0412 34.6557C55.1761 34.6531 55.3084 34.6178 55.4267 34.5527C55.545 34.4877 55.6457 34.3948 55.7201 34.2822L58.9496 29.3668C59.0625 29.1942 59.1073 28.9858 59.0751 28.7821C59.0429 28.5784 58.936 28.3939 58.7753 28.2646L55.3671 25.5489C55.2188 25.4319 55.0354 25.3681 54.8465 25.3679L42.327 25.3882H42.2908L29.7736 25.3679C29.5846 25.3681 29.4013 25.4319 29.253 25.5489L25.8448 28.2646C25.6841 28.3939 25.5772 28.5784 25.545 28.7821C25.5128 28.9858 25.5575 29.1942 25.6705 29.3668L28.9 34.2822C28.9743 34.395 29.0749 34.4879 29.1932 34.553C29.3115 34.618 29.4439 34.6533 29.5789 34.6557L42.2817 34.7349H42.3338ZM30.4706 31.1546L29.1716 29.7968H55.4666L54.1699 31.1546H30.4706ZM58.7821 28.2646L55.3738 25.5489C55.2256 25.4319 55.0422 25.3681 54.8533 25.3679L42.3338 25.3882H42.2976L29.7803 25.3679C29.5914 25.3681 29.4081 25.4319 29.2598 25.5489L25.8516 28.2646C25.6909 28.3939 25.584 28.5784 25.5518 28.7821C25.5196 28.9858 25.5643 29.1942 25.6773 29.3668L28.9068 34.2822C28.9811 34.395 29.0817 34.4879 29.2 34.553C29.3183 34.618 29.4507 34.6533 29.5857 34.6557L42.2885 34.7349H42.3247L55.0321 34.6557C55.1671 34.6531 55.2994 34.6178 55.4176 34.5527C55.5359 34.4877 55.6366 34.3948 55.711 34.2822L58.9405 29.3668C59.0586 29.1961 59.1086 28.9874 59.0805 28.7817C59.0525 28.5761 58.9484 28.3884 58.7889 28.2556L58.7821 28.2646ZM54.1767 31.1456H30.4774L29.1784 29.7877H55.4666L54.1767 31.1456ZM58.7957 28.2556L55.3874 25.5398C55.2391 25.4228 55.0558 25.359 54.8669 25.3588L42.3474 25.3792H42.3112L29.7939 25.3588C29.605 25.359 29.4217 25.4228 29.2734 25.5398L25.8652 28.2556C25.7044 28.3849 25.5976 28.5693 25.5654 28.773C25.5332 28.9767 25.5779 29.1852 25.6909 29.3577L28.9204 34.2732C28.9946 34.3859 29.0953 34.4789 29.2136 34.5439C29.3319 34.609 29.4643 34.6442 29.5993 34.6466L42.3021 34.7258H42.3383L55.0457 34.6466C55.1806 34.6441 55.313 34.6087 55.4312 34.5437C55.5495 34.4786 55.6502 34.3858 55.7246 34.2732L58.9541 29.3577C59.0681 29.1862 59.1143 28.9785 59.0838 28.7748C59.0532 28.5712 58.9481 28.3861 58.7889 28.2556H58.7957ZM54.1767 31.1456H30.4774L29.1784 29.7877H55.4666L54.1767 31.1456ZM58.7957 28.2556L55.3874 25.5398C55.2391 25.4228 55.0558 25.359 54.8669 25.3588L42.3474 25.3792H42.3112L29.7939 25.3588C29.605 25.359 29.4217 25.4228 29.2734 25.5398L25.8652 28.2556C25.7044 28.3849 25.5976 28.5693 25.5654 28.773C25.5332 28.9767 25.5779 29.1852 25.6909 29.3577L28.9204 34.2732C28.9946 34.3859 29.0953 34.4789 29.2136 34.5439C29.3319 34.609 29.4643 34.6442 29.5993 34.6466L42.3021 34.7258H42.3383L55.0457 34.6466C55.1806 34.6441 55.313 34.6087 55.4312 34.5437C55.5495 34.4786 55.6502 34.3858 55.7246 34.2732L58.9541 29.3577C59.0681 29.1862 59.1143 28.9785 59.0838 28.7748C59.0532 28.5712 58.9481 28.3861 58.7889 28.2556H58.7957ZM54.1767 31.1456H30.4774L29.1784 29.7877H55.4666L54.1767 31.1456ZM58.7957 28.2556L55.3874 25.5398C55.2391 25.4228 55.0558 25.359 54.8669 25.3588L42.3474 25.3792H42.3112V29.7741H55.4666L54.1699 31.132H42.3044V34.7122H42.3406L55.048 34.633C55.1829 34.6305 55.3152 34.5951 55.4335 34.5301C55.5518 34.465 55.6525 34.3722 55.7269 34.2596L58.9563 29.3441C59.0662 29.1736 59.1098 28.9687 59.079 28.7681C59.0481 28.5676 58.9449 28.3853 58.7889 28.2556H58.7957Z" fill="white"/>
<path d="M73.7475 39.4196L67.9946 42.4001L62.9751 45.0004L61.6285 42.4001L60.8478 40.8951L62.192 40.1958L62.8031 39.879L71.1992 35.5293L71.5885 35.3256L71.6156 35.312L73.7475 39.4196ZM22.445 40.2026L21.834 39.8858L13.4107 35.5202L13.0509 35.3324L13.0101 35.312L10.8828 39.4196L16.6356 42.4001L21.653 45.0004L23.0108 42.4001L23.7939 40.8951L22.445 40.2026Z" fill="white"/>
</g>
<defs>
<filter id="filter0_d_8900_34492" x="0" y="0" width="262" height="65" filterUnits="userSpaceOnUse" color-interpolation-filters="sRGB">
<feFlood flood-opacity="0" result="BackgroundImageFix"/>
<feColorMatrix in="SourceAlpha" type="matrix" values="0 0 0 0 0 0 0 0 0 0 0 0 0 0 0 0 0 0 127 0" result="hardAlpha"/>
<feOffset dx="6" dy="4"/>
<feGaussianBlur stdDeviation="4"/>
<feComposite in2="hardAlpha" operator="out"/>
<feColorMatrix type="matrix" values="0 0 0 0 0 0 0 0 0 0 0 0 0 0 0 0 0 0 0.25 0"/>
<feBlend mode="normal" in2="BackgroundImageFix" result="effect1_dropShadow_8900_34492"/>
<feBlend mode="normal" in="SourceGraphic" in2="effect1_dropShadow_8900_34492" result="shape"/>
</filter>
<clipPath id="clip0_8900_34492">
<rect width="246" height="49" fill="white" transform="translate(2 4)"/>
</clipPath>
</defs>
</svg>
