<svg width="696" height="420" viewBox="0 0 696 420" fill="none" xmlns="http://www.w3.org/2000/svg">
<g clip-path="url(#clip0_9031_58194)">
<mask id="mask0_9031_58194" style="mask-type:alpha" maskUnits="userSpaceOnUse" x="0" y="0" width="696" height="421">
<path d="M54.8249 385.758C54.8249 385.758 3.75355 381.713 0.80224 347.841C0.80224 347.841 -10.9248 417.05 55.294 420.001H347.572V385.758H54.8249ZM694.908 347.841C691.957 381.713 640.885 385.758 640.885 385.758H348.06V420.001H640.338C706.635 417.05 694.908 347.841 694.908 347.841Z" fill="#0177AA"/>
<path d="M352.785 385.753H342.484V419.997H352.785V385.753Z" fill="#0177AA"/>
<path d="M678.637 330.096L628.562 278.536L620.431 316.825L526.947 324.233L479.824 325.699H348.07V357.733H638.882C638.882 357.733 705.375 359.629 678.637 330.096ZM215.828 325.659L168.705 324.233L75.2204 316.864L67.0896 278.575L17.015 330.096C-9.7227 359.551 56.7698 357.694 56.7698 357.694H347.582V325.738L215.828 325.659Z" fill="#0177AA"/>
<path d="M352.808 328.696H342.508V357.759H352.808V328.696Z" fill="#0177AA"/>
<path d="M136.297 131.341C136.297 131.341 345.43 97.4693 560.426 131.341L507.4 26.7746C507.4 26.7746 498.996 6.46726 428.086 1.8937C428.086 1.8937 302.274 -2.36713 268.598 1.8937C268.598 1.8937 202.535 4.68862 189.284 26.7746L136.297 131.341Z" fill="#0177AA"/>
<path d="M184.802 204.538L229.971 168.281C231.247 167.247 232.843 166.687 234.486 166.698H348.395V150.495H348.082L226.16 151.16L193.754 173.343L115.397 142.071L128.317 108.532L141.002 72.608C141.304 71.7453 141.396 70.8227 141.269 69.9173C141.142 69.012 140.8 68.1502 140.272 67.4039C139.744 66.6577 139.045 66.0488 138.233 65.628C137.422 65.2072 136.521 64.9868 135.607 64.9854H74.6458C73.3421 64.9914 72.0794 65.4422 71.0666 66.2631C70.0537 67.084 69.3513 68.226 69.0755 69.5003L62.5083 100.206C62.339 100.972 62.3309 101.766 62.4843 102.535C62.6377 103.305 62.9494 104.035 63.3996 104.678C63.8498 105.321 64.4287 105.864 65.0995 106.272C65.7704 106.679 66.5187 106.943 67.2969 107.046L111.352 113.145L89.7151 142.032L89.1874 142.306C89.1874 142.306 68.5673 168.907 67.1014 185.168V331.639H348.395V316.922H242.636C242.102 316.924 241.57 316.859 241.053 316.726H210.875L221.176 301.989H347.828V302.185H348.395V281.565H228.974C227.775 281.565 226.596 281.267 225.541 280.698C224.487 280.128 223.591 279.304 222.935 278.301L184.235 218.864C180.893 212.688 181.284 207.567 184.802 204.538ZM86.2361 175.533L164.299 202.036C164.299 202.036 161.348 215.287 167.251 218.239C167.212 218.239 77.4017 219.704 86.2361 175.533ZM117.176 313.971L96.4973 302.244L148.976 316.981L117.176 313.971ZM207.748 289.871C197.892 298.218 187.44 305.835 176.476 312.661C171.218 315.73 166.293 317.997 162.794 318.388L171.257 309.925L98.5104 272.222L95.0509 271.265L95.4027 270.6L101.794 259.068L207.748 289.871ZM348.473 222.656V184.543H348.16L240.056 184.367C238.425 184.369 236.841 184.92 235.561 185.931L206.126 209.385C204.738 210.501 203.815 212.094 203.537 213.854C203.259 215.613 203.645 217.413 204.621 218.903L232.512 261.355C233.153 262.329 234.023 263.131 235.044 263.693C236.066 264.255 237.209 264.56 238.375 264.58L348.082 265.264H348.395V234.442H245.939L234.72 222.714L348.473 222.656ZM490.527 209.482L461.092 186.028C459.811 185.017 458.228 184.467 456.597 184.465L348.473 184.641H348.16L240.056 184.465C238.425 184.467 236.841 185.017 235.561 186.028L206.126 209.482C204.738 210.599 203.815 212.192 203.537 213.951C203.259 215.711 203.645 217.511 204.621 219.001L232.512 261.453C233.153 262.427 234.023 263.229 235.044 263.791C236.066 264.353 237.209 264.657 238.375 264.678L348.082 265.362H348.395L458.141 264.678C459.306 264.656 460.449 264.351 461.47 263.789C462.492 263.227 463.361 262.425 464.004 261.453L491.895 219.001C492.877 217.517 493.273 215.722 493.006 213.963C492.739 212.204 491.827 210.607 490.449 209.482H490.527ZM450.616 234.442H245.939L234.72 222.714H461.757L450.616 234.442ZM490.507 209.482L461.072 186.028C459.792 185.017 458.208 184.467 456.577 184.465L348.453 184.641H348.141L240.037 184.465C238.405 184.467 236.822 185.017 235.541 186.028L206.106 209.482C204.718 210.599 203.796 212.192 203.517 213.951C203.239 215.711 203.626 217.511 204.601 219.001L232.492 261.453C233.134 262.427 234.003 263.229 235.025 263.791C236.047 264.353 237.19 264.657 238.356 264.678L348.062 265.362H348.375L458.121 264.678C459.287 264.656 460.429 264.351 461.451 263.789C462.472 263.227 463.342 262.425 463.985 261.453L491.875 219.001C492.86 217.52 493.259 215.726 492.996 213.967C492.732 212.208 491.824 210.61 490.449 209.482H490.507ZM450.616 234.442H245.939L234.72 222.714H461.757L450.616 234.442ZM490.507 209.482L461.072 186.028C459.792 185.017 458.208 184.467 456.577 184.465L348.453 184.641H348.141L240.037 184.465C238.405 184.467 236.822 185.017 235.541 186.028L206.106 209.482C204.718 210.599 203.796 212.192 203.517 213.951C203.239 215.711 203.626 217.511 204.601 219.001L232.492 261.453C233.134 262.427 234.003 263.229 235.025 263.791C236.047 264.353 237.19 264.657 238.356 264.678L348.062 265.362H348.375L458.121 264.678C459.287 264.656 460.429 264.351 461.451 263.789C462.472 263.227 463.342 262.425 463.985 261.453L491.875 219.001C492.86 217.52 493.259 215.726 492.996 213.967C492.732 212.208 491.824 210.61 490.449 209.482H490.507ZM450.616 234.442H245.939L234.72 222.714H461.757L450.616 234.442ZM490.507 209.482L461.072 186.028C459.792 185.017 458.208 184.467 456.577 184.465L348.453 184.641H348.141L240.037 184.465C238.405 184.467 236.822 185.017 235.541 186.028L206.106 209.482C204.718 210.599 203.796 212.192 203.517 213.951C203.239 215.711 203.626 217.511 204.601 219.001L232.492 261.453C233.134 262.427 234.003 263.229 235.025 263.791C236.047 264.353 237.19 264.657 238.356 264.678L348.062 265.362H348.375L458.121 264.678C459.287 264.656 460.429 264.351 461.451 263.789C462.472 263.227 463.342 262.425 463.985 261.453L491.875 219.001C492.86 217.52 493.259 215.726 492.996 213.967C492.732 212.208 491.824 210.61 490.449 209.482H490.507ZM450.616 234.442H245.939L234.72 222.714H461.757L450.616 234.442ZM634.047 100.284L627.48 69.5785C627.181 68.3125 626.469 67.1817 625.457 66.3644C624.445 65.547 623.19 65.0895 621.89 65.0636H560.87C559.956 65.0651 559.055 65.2854 558.243 65.7061C557.432 66.1269 556.733 66.7359 556.205 67.4822C555.676 68.2284 555.335 69.0902 555.208 69.9956C555.081 70.9009 555.173 71.8235 555.475 72.6861C556.003 74.2693 568.102 108.258 568.16 108.61L569.352 111.679L581.079 142.15L502.703 173.422L470.317 151.238L348.375 150.573H348.062V166.776H461.991C463.628 166.767 465.217 167.326 466.486 168.36L511.655 204.616C515.173 207.645 515.564 212.766 512.242 218.942L473.542 278.379C472.886 279.382 471.99 280.206 470.936 280.776C469.881 281.346 468.701 281.644 467.503 281.643H348.082V302.263H348.395V302.068H474.5L484.8 316.805H455.482C454.965 316.938 454.433 317.004 453.899 317H348.082V331.718H629.395V185.168C627.91 168.907 607.289 142.306 607.289 142.306L606.762 142.032L585.125 113.145L629.18 107.125C629.959 107.021 630.707 106.757 631.379 106.35C632.051 105.942 632.631 105.4 633.082 104.757C633.534 104.115 633.848 103.385 634.004 102.615C634.16 101.845 634.154 101.052 633.988 100.284H634.047ZM579.32 313.971L547.501 316.922L599.98 302.185L579.32 313.971ZM597.654 272.3L525.141 309.866L533.663 318.388C530.067 317.997 525.141 315.71 519.864 312.524C508.955 305.712 498.555 298.115 488.748 289.793L594.663 258.99L601.035 270.463L601.426 271.186L597.654 272.3ZM610.241 175.533C619.075 219.704 529.246 218.239 529.246 218.239C535.109 215.287 532.178 202.036 532.178 202.036L610.241 175.533ZM348.336 265.44L458.082 264.756C459.248 264.734 460.39 264.429 461.412 263.867C462.433 263.305 463.303 262.504 463.946 261.531L491.836 219.079C492.812 217.589 493.199 215.789 492.92 214.03C492.642 212.27 491.719 210.677 490.331 209.561L460.896 186.106C459.616 185.096 458.033 184.545 456.401 184.543L348.278 184.719H347.965L239.861 184.543C238.229 184.545 236.646 185.096 235.365 186.106L205.93 209.561C204.542 210.677 203.62 212.27 203.341 214.03C203.063 215.789 203.45 217.589 204.425 219.079L232.316 261.531C232.958 262.505 233.827 263.307 234.849 263.869C235.871 264.431 237.014 264.736 238.18 264.756L347.887 265.44H348.336ZM245.881 234.52L234.662 222.793H461.757L450.557 234.52H245.881ZM490.39 209.561L460.955 186.106C459.675 185.096 458.091 184.545 456.46 184.543L348.336 184.719H348.023L239.919 184.543C238.288 184.545 236.705 185.096 235.424 186.106L205.989 209.561C204.601 210.677 203.678 212.27 203.4 214.03C203.122 215.789 203.508 217.589 204.484 219.079L232.375 261.531C233.017 262.505 233.886 263.307 234.908 263.869C235.929 264.431 237.073 264.736 238.238 264.756L347.945 265.44H348.258L458.004 264.756C459.169 264.734 460.312 264.429 461.333 263.867C462.355 263.305 463.224 262.504 463.867 261.531L491.758 219.079C492.779 217.605 493.21 215.803 492.968 214.026C492.725 212.25 491.827 210.629 490.449 209.482L490.39 209.561ZM450.616 234.442H245.939L234.72 222.714H461.757L450.616 234.442ZM490.507 209.482L461.072 186.028C459.792 185.017 458.208 184.467 456.577 184.465L348.453 184.641H348.141L240.037 184.465C238.405 184.467 236.822 185.017 235.541 186.028L206.106 209.482C204.718 210.599 203.796 212.192 203.517 213.951C203.239 215.711 203.626 217.511 204.601 219.001L232.492 261.453C233.134 262.427 234.003 263.229 235.025 263.791C236.047 264.353 237.19 264.657 238.356 264.678L348.062 265.362H348.375L458.121 264.678C459.287 264.656 460.429 264.351 461.451 263.789C462.472 263.227 463.342 262.425 463.985 261.453L491.875 219.001C492.86 217.52 493.259 215.726 492.996 213.967C492.732 212.208 491.824 210.61 490.449 209.482H490.507ZM450.616 234.442H245.939L234.72 222.714H461.757L450.616 234.442ZM490.507 209.482L461.072 186.028C459.792 185.017 458.208 184.467 456.577 184.465L348.453 184.641H348.141L240.037 184.465C238.405 184.467 236.822 185.017 235.541 186.028L206.106 209.482C204.718 210.599 203.796 212.192 203.517 213.951C203.239 215.711 203.626 217.511 204.601 219.001L232.492 261.453C233.134 262.427 234.003 263.229 235.025 263.791C236.047 264.353 237.19 264.657 238.356 264.678L348.062 265.362H348.375L458.121 264.678C459.287 264.656 460.429 264.351 461.451 263.789C462.472 263.227 463.342 262.425 463.985 261.453L491.875 219.001C492.86 217.52 493.259 215.726 492.996 213.967C492.732 212.208 491.824 210.61 490.449 209.482H490.507ZM450.616 234.442H245.939L234.72 222.714H461.757L450.616 234.442ZM490.507 209.482L461.072 186.028C459.792 185.017 458.208 184.467 456.577 184.465L348.453 184.641H348.141V222.597H461.757L450.557 234.324H348.082V265.245H348.395L458.141 264.561C459.306 264.538 460.449 264.233 461.47 263.672C462.492 263.11 463.361 262.308 464.004 261.336L491.895 218.884C492.844 217.41 493.221 215.641 492.954 213.909C492.688 212.177 491.797 210.602 490.449 209.482H490.507Z" fill="#0177AA"/>
<path d="M619.631 305.895L569.948 331.636L526.597 354.093L514.967 331.636L508.224 318.638L519.834 312.599L525.111 309.863L597.624 272.297L600.985 270.538L601.22 270.42L619.631 305.895ZM176.563 312.658L171.286 309.921L98.5389 272.219L95.4313 270.596L95.0795 270.42L76.707 305.895L126.391 331.636L169.722 354.093L181.449 331.636L188.212 318.638L176.563 312.658Z" fill="#0177AA"/>
</mask>
<g mask="url(#mask0_9031_58194)">
<rect x="-342.086" y="-569.13" width="1484.06" height="1484.06" fill="white"/>
</g>
</g>
<defs>
<clipPath id="clip0_9031_58194">
<rect width="696" height="420" fill="white"/>
</clipPath>
</defs>
</svg>
