<svg width="246" height="49" viewBox="0 0 246 49" fill="none" xmlns="http://www.w3.org/2000/svg">
<path d="M100.644 27.585C99.6153 28.4019 98.4075 28.9627 97.1199 29.2213C96.3514 29.3714 95.5697 29.4434 94.7867 29.4362C93.544 29.4469 92.3122 29.2051 91.1657 28.7256C90.0841 28.2799 89.1029 27.6219 88.2799 26.7904C87.457 25.959 86.8092 24.971 86.3747 23.8849C85.9161 22.7498 85.6854 21.5356 85.6957 20.3114V20.2593C85.6724 17.8452 86.5981 15.5184 88.2734 13.7801C89.1019 12.9311 90.0934 12.2584 91.1883 11.8021C92.3806 11.3107 93.6602 11.0667 94.9496 11.0847C95.7088 11.0789 96.4668 11.1471 97.2127 11.2884C97.8508 11.4103 98.4749 11.5968 99.0752 11.8451C99.6203 12.0754 100.139 12.3645 100.621 12.7073C101.091 13.0414 101.533 13.4146 101.94 13.8231L99.4509 16.6859C98.8161 16.1018 98.1042 15.6076 97.3349 15.2171C96.5801 14.8539 95.751 14.6718 94.9134 14.6853C94.217 14.6777 93.527 14.8183 92.8891 15.0976C92.2511 15.377 91.6799 15.7888 91.2132 16.3057C90.7523 16.8223 90.3916 17.4201 90.1495 18.0687C89.893 18.753 89.7641 19.4787 89.7693 20.2095V20.2593C89.7648 20.9953 89.8936 21.726 90.1495 22.4161C90.3891 23.0668 90.7458 23.6681 91.2019 24.1904C91.6656 24.7158 92.2372 25.1351 92.8777 25.4194C93.5183 25.7037 94.2126 25.8465 94.9134 25.8379C95.8039 25.8648 96.6875 25.6729 97.4866 25.2789C98.2469 24.8653 98.9499 24.354 99.5777 23.7581L102.067 26.2679C101.627 26.7424 101.151 27.1827 100.644 27.585Z" fill="#023452"/>
<path d="M112.734 29.1307V27.6619C112.256 28.1887 111.678 28.615 111.034 28.9157C110.278 29.2521 109.456 29.4159 108.628 29.3955C108.015 29.3987 107.404 29.3087 106.818 29.1284C106.275 28.9649 105.771 28.6931 105.336 28.3295C104.91 27.9725 104.568 27.5268 104.333 27.0237C104.079 26.4634 103.954 25.8532 103.966 25.2381V25.1861C103.949 24.5213 104.087 23.8616 104.371 23.2602C104.635 22.7282 105.023 22.2678 105.503 21.9182C106.022 21.5451 106.607 21.274 107.227 21.1193C107.952 20.9339 108.698 20.8441 109.445 20.8522C110.052 20.8446 110.659 20.8954 111.256 21.0038C111.767 21.1053 112.27 21.2406 112.763 21.409V21.1826C112.763 20.3702 112.519 19.7546 112.028 19.3314C111.536 18.9082 110.812 18.6977 109.848 18.6977C109.188 18.6893 108.53 18.7531 107.884 18.8878C107.276 19.0272 106.678 19.2094 106.096 19.4333L105.134 16.4957C105.888 16.1705 106.668 15.9071 107.465 15.7082C108.43 15.4898 109.418 15.388 110.407 15.4049C112.519 15.4049 114.058 15.9202 115.022 16.9506C115.986 17.9811 116.462 19.4136 116.45 21.2483V29.1307H112.734ZM112.811 23.6562C112.447 23.4966 112.067 23.3737 111.679 23.2896C111.242 23.194 110.796 23.1469 110.348 23.1493C109.52 23.1493 108.87 23.31 108.397 23.6313C108.168 23.7823 107.983 23.9901 107.858 24.2345C107.733 24.4789 107.675 24.7514 107.687 25.0254V25.0774C107.676 25.3125 107.724 25.5465 107.826 25.7586C107.928 25.9707 108.081 26.1542 108.271 26.2927C108.717 26.5982 109.251 26.75 109.792 26.725C110.697 26.725 111.427 26.5047 111.982 26.0642C112.246 25.8628 112.459 25.6018 112.602 25.3024C112.746 25.003 112.817 24.6739 112.808 24.3419L112.811 23.6562Z" fill="#023452"/>
<path d="M127.765 19.3225C126.479 19.3225 125.469 19.711 124.735 20.488C124 21.265 123.632 22.472 123.632 24.1089V29.1262H119.785V15.5476H123.632V18.2859C123.971 17.4241 124.515 16.6581 125.217 16.0545C125.894 15.4978 126.807 15.2443 127.955 15.2941V19.3247L127.765 19.3225Z" fill="#023452"/>
<path d="M148.135 23.8216C147.673 24.9224 146.998 25.9214 146.15 26.7613C145.301 27.6013 144.296 28.2657 143.19 28.7167C141.987 29.207 140.699 29.4524 139.4 29.4386C138.105 29.4533 136.82 29.2078 135.622 28.7167C134.514 28.2614 133.503 27.5985 132.644 26.7636C131.806 25.9415 131.142 24.9585 130.693 23.8736C130.225 22.7458 129.987 21.5351 129.996 20.3137V20.2617C129.988 19.0381 130.231 17.8259 130.709 16.6996C131.173 15.5983 131.849 14.5992 132.699 13.7597C133.549 12.9201 134.556 12.2564 135.663 11.8067C136.866 11.3175 138.155 11.0721 139.454 11.0848C140.748 11.0712 142.031 11.3167 143.229 11.8067C144.337 12.2617 145.348 12.9246 146.207 13.7598C147.045 14.5818 147.709 15.5638 148.16 16.6475C148.628 17.7763 148.865 18.9876 148.857 20.2096V20.2594C148.862 21.4837 148.617 22.696 148.135 23.8216ZM144.765 20.2594C144.77 19.5237 144.636 18.7937 144.372 18.1072C144.121 17.4507 143.744 16.8503 143.26 16.3407C142.776 15.8311 142.197 15.4223 141.554 15.138C140.877 14.8347 140.142 14.6803 139.4 14.6854C138.655 14.6749 137.917 14.8214 137.234 15.1154C136.599 15.3911 136.028 15.7966 135.559 16.3058C135.09 16.8212 134.721 17.4189 134.471 18.0687C134.205 18.7511 134.072 19.4775 134.077 20.2096V20.2594C134.072 20.9966 134.206 21.7281 134.471 22.4162C134.976 23.7426 135.988 24.8138 137.284 25.3944C137.965 25.6991 138.705 25.8535 139.452 25.8471C140.192 25.8539 140.926 25.7067 141.606 25.4148C142.245 25.1415 142.819 24.7358 143.29 24.2244C143.76 23.7097 144.13 23.1118 144.381 22.4614C144.646 21.7791 144.78 21.0526 144.774 20.3205L144.765 20.2594Z" fill="#023452"/>
<path d="M160.514 29.1307V21.5719C160.514 20.6667 160.311 19.9794 159.906 19.5102C159.687 19.274 159.42 19.0892 159.121 18.9691C158.823 18.8489 158.502 18.7964 158.181 18.8155C157.855 18.7992 157.529 18.8528 157.226 18.9726C156.922 19.0925 156.647 19.2757 156.42 19.5102C155.99 19.9629 155.773 20.6621 155.773 21.5719V29.1307H151.926V15.5521H155.773V17.4938C155.996 17.202 156.238 16.9252 156.497 16.6655C156.761 16.3989 157.054 16.1635 157.371 15.9639C157.702 15.7541 158.059 15.5904 158.434 15.4774C158.863 15.3534 159.308 15.2931 159.754 15.2986C161.223 15.2986 162.359 15.7467 163.162 16.6429C163.965 17.5391 164.366 18.7725 164.366 20.3431V29.1375L160.514 29.1307Z" fill="#023452"/>
<path d="M181.597 20.2865C181.24 21.0449 180.716 21.7121 180.062 22.2373C179.385 22.776 178.608 23.1766 177.777 23.4164C176.868 23.6845 175.925 23.8172 174.977 23.8102H172.015V29.1307H168.113V11.388H175.355C176.324 11.3765 177.289 11.5295 178.207 11.8406C178.995 12.1091 179.72 12.5366 180.336 13.0966C180.919 13.6384 181.377 14.3001 181.678 15.0361C181.998 15.8267 182.157 16.6729 182.147 17.5255V17.5753C182.169 18.5088 181.981 19.4354 181.597 20.2865ZM178.202 17.6002C178.202 16.7206 177.919 16.053 177.354 15.5974C176.788 15.1417 176.015 14.9154 175.034 14.9184H172.015V20.3499H175.109C176.088 20.3499 176.848 20.0919 177.39 19.5759C177.652 19.3326 177.86 19.0363 178 18.7067C178.14 18.377 178.208 18.0215 178.2 17.6636L178.202 17.6002Z" fill="#023452"/>
<path d="M193.233 29.1307V21.5719C193.233 20.6667 193.03 19.9794 192.624 19.5102C192.406 19.274 192.138 19.0892 191.84 18.9691C191.542 18.8489 191.221 18.7964 190.9 18.8155C190.574 18.7992 190.248 18.8528 189.944 18.9726C189.641 19.0925 189.366 19.2757 189.139 19.5102C188.706 19.9734 188.49 20.6606 188.492 21.5719V29.1307H184.645V10.6298H188.492V17.487C188.715 17.1952 188.957 16.9185 189.216 16.6587C189.479 16.3921 189.772 16.1567 190.09 15.9571C190.42 15.7473 190.778 15.5836 191.153 15.4706C191.582 15.3466 192.026 15.2864 192.473 15.2918C193.942 15.2918 195.078 15.7399 195.881 16.6361C196.684 17.5323 197.085 18.7657 197.085 20.3363V29.1307H193.233Z" fill="#023452"/>
<path d="M213.92 25.1137C213.556 25.9554 213.031 26.718 212.375 27.3587C211.701 28.0087 210.909 28.5241 210.041 28.8773C209.108 29.2577 208.107 29.4478 207.099 29.4363C206.101 29.446 205.111 29.2607 204.184 28.8908C203.321 28.5491 202.532 28.0408 201.865 27.3949C201.213 26.7592 200.693 26.0018 200.333 25.1658C199.957 24.2981 199.766 23.3616 199.774 22.4161V22.364C199.766 21.4186 199.957 20.482 200.333 19.6144C200.696 18.773 201.222 18.011 201.878 17.3716C202.55 16.7197 203.342 16.2034 204.209 15.8508C205.143 15.4714 206.143 15.2814 207.151 15.2918C208.149 15.2829 209.139 15.4681 210.066 15.8372C210.93 16.1798 211.718 16.688 212.386 17.3331C213.038 17.9692 213.559 18.7264 213.92 19.5623C214.294 20.4312 214.484 21.3683 214.477 22.3143V22.364C214.484 23.3093 214.295 24.2457 213.92 25.1137ZM210.675 22.364C210.679 21.8751 210.593 21.3896 210.422 20.9315C210.087 20.0382 209.413 19.3139 208.545 18.9173C208.092 18.7108 207.599 18.6065 207.102 18.6118C206.592 18.6032 206.087 18.7027 205.619 18.9037C205.2 19.0897 204.824 19.3619 204.517 19.7026C204.209 20.0455 203.972 20.4463 203.82 20.8817C203.656 21.3413 203.574 21.8262 203.578 22.3143V22.364C203.574 22.853 203.66 23.3385 203.831 23.7966C204.166 24.6851 204.834 25.4078 205.694 25.8107C206.151 26.0199 206.649 26.1242 207.151 26.1163C207.661 26.126 208.168 26.0264 208.636 25.8243C209.055 25.638 209.431 25.3659 209.738 25.0255C210.045 24.6818 210.282 24.2812 210.435 23.8464C210.597 23.3871 210.679 22.9032 210.675 22.4161V22.364Z" fill="#023452"/>
<path d="M225.854 29.1307V21.5719C225.854 20.6667 225.651 19.9794 225.245 19.5102C225.027 19.274 224.759 19.0892 224.461 18.9691C224.163 18.8489 223.842 18.7964 223.521 18.8155C223.195 18.7992 222.869 18.8528 222.565 18.9726C222.262 19.0925 221.987 19.2757 221.76 19.5102C221.33 19.9629 221.113 20.6621 221.113 21.5719V29.1307H217.266V15.5521H221.113V17.4938C221.336 17.202 221.578 16.9252 221.837 16.6655C222.1 16.3989 222.394 16.1635 222.711 15.9639C223.042 15.7545 223.399 15.5908 223.774 15.4774C224.203 15.3534 224.648 15.2931 225.094 15.2986C226.562 15.2986 227.698 15.7467 228.502 16.6429C229.306 17.5391 229.707 18.7725 229.706 20.3431V29.1375L225.854 29.1307Z" fill="#023452"/>
<path d="M245.714 23.2013C245.714 23.3371 245.691 23.4955 245.675 23.6811H236.22C236.348 24.4638 236.759 25.1723 237.374 25.6727C237.999 26.137 238.764 26.3763 239.542 26.3516C240.133 26.3616 240.719 26.2499 241.264 26.0234C241.847 25.7572 242.382 25.3971 242.849 24.9575L245.053 26.9106C244.422 27.6952 243.626 28.3311 242.722 28.7731C241.715 29.2436 240.613 29.4759 239.501 29.452C238.536 29.4603 237.577 29.2884 236.675 28.9451C235.828 28.6255 235.057 28.133 234.412 27.499C233.772 26.8673 233.267 26.1129 232.927 25.2811C232.563 24.3759 232.382 23.4075 232.395 22.4319V22.3798C232.39 21.4443 232.558 20.5159 232.891 19.6415C233.202 18.8057 233.671 18.0374 234.271 17.3784C234.866 16.733 235.586 16.2155 236.387 15.8575C237.242 15.4791 238.168 15.2885 239.103 15.2986C240.117 15.2735 241.124 15.4818 242.045 15.9073C242.847 16.2913 243.553 16.8495 244.111 17.5413C244.668 18.2369 245.084 19.035 245.333 19.8904C245.597 20.7923 245.729 21.7276 245.725 22.6672V22.717C245.725 22.9049 245.72 23.0588 245.714 23.2013ZM241.063 19.1843C240.814 18.9181 240.511 18.7088 240.174 18.5709C239.837 18.433 239.474 18.3697 239.11 18.3854C238.746 18.3708 238.382 18.4332 238.044 18.5685C237.705 18.7038 237.399 18.909 237.145 19.1707C236.616 19.7584 236.276 20.4918 236.17 21.2754H241.975C241.894 20.5009 241.576 19.7704 241.063 19.1843Z" fill="#023452"/>
<path d="M106.558 39.0794C106.381 39.5068 106.116 39.8923 105.78 40.211C105.432 40.5371 105.024 40.793 104.578 40.9646C104.089 41.1526 103.568 41.2462 103.044 41.2407H100.57V34.1119H103.044C103.568 34.1064 104.088 34.1977 104.578 34.3812C105.024 34.5494 105.433 34.8039 105.78 35.1303C106.115 35.4493 106.38 35.8347 106.558 36.2619C106.924 37.1648 106.924 38.1742 106.558 39.0772V39.0794ZM105.789 36.59C105.656 36.2509 105.455 35.9427 105.198 35.6847C104.932 35.4235 104.614 35.2194 104.266 35.085C103.877 34.9318 103.462 34.8549 103.044 34.8587H101.374V40.5007H103.044C103.461 40.5065 103.875 40.4344 104.266 40.2879C104.61 40.1602 104.923 39.9619 105.185 39.7058C105.447 39.4497 105.653 39.1415 105.789 38.8011C105.931 38.448 106.002 38.0704 105.997 37.6899C106.001 37.3102 105.93 36.9335 105.789 36.5809V36.59Z" fill="#023452" fill-opacity="0.75"/>
<path d="M114.256 41.2453L112.188 38.4752H110.151V41.2453H109.348V34.1165H112.412C112.773 34.1113 113.133 34.1625 113.478 34.2681C113.773 34.3593 114.047 34.5069 114.286 34.7026C114.508 34.8867 114.686 35.1188 114.806 35.3816C114.931 35.6549 114.993 35.9524 114.99 36.2528C114.994 36.5259 114.946 36.7972 114.847 37.0517C114.756 37.281 114.619 37.4891 114.444 37.6628C114.265 37.8417 114.057 37.9886 113.829 38.0973C113.583 38.2127 113.323 38.2927 113.055 38.3349L115.243 41.2453H114.256ZM113.704 35.2322C113.307 34.9581 112.828 34.8266 112.346 34.8588H110.14V37.7691H112.335C112.584 37.7716 112.832 37.7373 113.07 37.6673C113.28 37.6056 113.477 37.5067 113.652 37.3754C113.815 37.2518 113.946 37.0922 114.037 36.9092C114.13 36.715 114.176 36.502 114.173 36.2868C114.185 36.0863 114.149 35.8857 114.068 35.702C113.986 35.5184 113.861 35.3572 113.704 35.2322Z" fill="#023452" fill-opacity="0.75"/>
<path d="M118.401 34.1163V41.2451H117.598V34.1163H118.401Z" fill="#023452" fill-opacity="0.75"/>
<path d="M126.67 34.1163H127.539L124.472 41.2949H123.76L120.695 34.1163H121.601L124.124 40.2584L126.67 34.1163Z" fill="#023452" fill-opacity="0.75"/>
<path d="M134.913 34.8498H130.563V37.2827H134.454V38.0159H130.563V40.5054H134.963V41.2386H129.758V34.1098H134.911L134.913 34.8498Z" fill="#023452" fill-opacity="0.75"/>
<path d="M147.254 39.0794C147.076 39.5069 146.811 39.8923 146.475 40.211C146.126 40.5376 145.718 40.7936 145.271 40.9646C144.783 41.1528 144.263 41.2465 143.739 41.2407H141.266V34.1119H143.739C144.262 34.1062 144.782 34.1975 145.271 34.3812C145.718 34.5491 146.127 34.8037 146.475 35.1303C146.811 35.4493 147.076 35.8347 147.254 36.2619C147.619 37.1648 147.619 38.1743 147.254 39.0772V39.0794ZM146.484 36.59C146.35 36.2517 146.149 35.9439 145.894 35.6848C145.626 35.424 145.309 35.22 144.961 35.0851C144.572 34.9318 144.157 34.855 143.739 34.8587H142.069V40.5007H143.739C144.156 40.5065 144.571 40.4344 144.961 40.2879C145.31 40.1563 145.627 39.9536 145.894 39.6927C146.147 39.4372 146.348 39.1342 146.484 38.8011C146.625 38.4477 146.696 38.0703 146.693 37.6899C146.695 37.3103 146.624 36.9339 146.484 36.581V36.59Z" fill="#023452" fill-opacity="0.75"/>
<path d="M154.953 41.2453L152.887 38.4752H150.85V41.2453H150.047V34.1165H153.113C153.474 34.1112 153.833 34.1623 154.177 34.2681C154.473 34.3588 154.748 34.5064 154.987 34.7026C155.21 34.8867 155.388 35.1189 155.508 35.3816C155.632 35.6549 155.695 35.9525 155.691 36.2529C155.696 36.5259 155.647 36.7972 155.548 37.0518C155.457 37.2807 155.32 37.4887 155.146 37.6628C154.966 37.841 154.758 37.9879 154.53 38.0973C154.285 38.2151 154.024 38.2974 153.756 38.3417L155.945 41.2521L154.953 41.2453ZM154.401 35.2322C154.003 34.9585 153.525 34.8269 153.043 34.8588H150.85V37.7692H153.045C153.294 37.7715 153.542 37.7372 153.781 37.6673C153.991 37.6057 154.188 37.5068 154.363 37.3754C154.524 37.2516 154.655 37.0921 154.745 36.9092C154.84 36.7156 154.887 36.5023 154.883 36.2868C154.894 36.0852 154.855 35.884 154.771 35.7004C154.687 35.5168 154.56 35.3562 154.401 35.2322Z" fill="#023452" fill-opacity="0.75"/>
<path d="M163.376 34.8498H159.028V37.2827H162.919V38.0159H159.028V40.5054H163.428V41.2386H158.223V34.1098H163.376V34.8498Z" fill="#023452" fill-opacity="0.75"/>
<path d="M172.497 41.2452H171.633L170.798 39.3533H166.916L166.072 41.2385H165.246L168.5 34.0644H169.254L172.497 41.2452ZM168.863 35.0126L167.233 38.6472H170.481L168.863 35.0126Z" fill="#023452" fill-opacity="0.75"/>
<path d="M178.137 39.2898H178.096L175.5 35.481V41.2451H174.715V34.1163H175.53L178.128 38.0066L180.719 34.1163H181.534V41.2451H180.73V35.4697L178.137 39.2898Z" fill="#023452" fill-opacity="0.75"/>
<path d="M185.076 36.348C185.139 36.4965 185.241 36.6254 185.37 36.7214C185.55 36.8532 185.75 36.9562 185.961 37.0269C186.277 37.137 186.601 37.224 186.93 37.2872C187.724 37.4637 188.308 37.7082 188.686 38.0227C188.874 38.18 189.023 38.3788 189.121 38.6034C189.219 38.828 189.264 39.0724 189.252 39.3172C189.255 39.6064 189.193 39.8925 189.071 40.1546C188.952 40.4016 188.781 40.6201 188.571 40.795C188.345 40.9812 188.085 41.1204 187.806 41.2047C187.489 41.3024 187.159 41.3505 186.828 41.3472C186.294 41.3535 185.764 41.2599 185.264 41.0711C184.763 40.8715 184.303 40.5815 183.906 40.2157L184.404 39.625C184.737 39.9379 185.12 40.194 185.536 40.3831C185.951 40.5576 186.398 40.6432 186.848 40.6343C187.261 40.6549 187.668 40.5361 188.005 40.2971C188.143 40.1947 188.254 40.0606 188.329 39.9062C188.404 39.7519 188.441 39.5817 188.437 39.41C188.439 39.2553 188.412 39.1016 188.356 38.9574C188.293 38.8144 188.195 38.6898 188.07 38.5953C187.898 38.4679 187.706 38.3686 187.502 38.3011C187.201 38.1951 186.892 38.1097 186.579 38.0453C186.217 37.9701 185.86 37.8679 185.513 37.7398C185.241 37.6421 184.988 37.5007 184.762 37.3212C184.572 37.1685 184.422 36.973 184.323 36.7509C184.222 36.5046 184.174 36.2404 184.18 35.9746C184.177 35.703 184.237 35.4343 184.354 35.1893C184.471 34.9504 184.637 34.7397 184.843 34.5715C185.065 34.3932 185.316 34.2553 185.585 34.1641C185.887 34.0626 186.204 34.0129 186.522 34.017C186.989 34.0117 187.452 34.0883 187.892 34.2433C188.301 34.3989 188.682 34.6181 189.023 34.8928L188.568 35.5061C188.269 35.2546 187.931 35.0549 187.566 34.9155C187.228 34.7931 186.871 34.731 186.511 34.7322C186.299 34.7291 186.087 34.7597 185.884 34.8227C185.713 34.8722 185.552 34.9503 185.407 35.0535C185.278 35.1515 185.173 35.2777 185.101 35.4224C185.03 35.5627 184.994 35.7179 184.995 35.875C184.99 36.0365 185.018 36.1973 185.076 36.348Z" fill="#023452" fill-opacity="0.75"/>
<path d="M196.38 38.036V41.2451H195.574V34.1163H196.38V37.2847H200.494V34.1163H201.298V41.2451H200.494V38.036H196.38Z" fill="#023452" fill-opacity="0.75"/>
<path d="M210.823 39.0795C210.652 39.5156 210.399 39.915 210.078 40.2563C209.754 40.6009 209.363 40.8764 208.929 41.0665C208.459 41.2632 207.954 41.3645 207.444 41.3645C206.934 41.3645 206.43 41.2632 205.96 41.0665C205.53 40.8801 205.142 40.6097 204.818 40.2712C204.494 39.9327 204.241 39.5329 204.074 39.0953C203.901 38.6455 203.814 38.1673 203.816 37.6854C203.814 37.2028 203.904 36.7243 204.081 36.2755C204.252 35.8398 204.504 35.4404 204.824 35.0987C205.15 34.7547 205.541 34.4793 205.975 34.2885C206.446 34.0928 206.95 33.9921 207.459 33.9921C207.968 33.9921 208.472 34.0928 208.942 34.2885C209.375 34.4759 209.765 34.7483 210.09 35.0896C210.41 35.4277 210.66 35.8252 210.828 36.2596C211.001 36.7093 211.09 37.1875 211.088 37.6696C211.09 38.1521 211 38.6307 210.823 39.0795ZM210.042 36.5403C209.912 36.1923 209.713 35.8739 209.458 35.6033C209.205 35.3373 208.902 35.1229 208.567 34.9719C208.21 34.8153 207.824 34.7381 207.435 34.7456C207.046 34.7395 206.66 34.8166 206.304 34.9719C205.97 35.1173 205.671 35.33 205.423 35.5965C205.174 35.868 204.979 36.1844 204.848 36.5289C204.707 36.8941 204.637 37.2827 204.64 37.6741C204.637 38.0677 204.708 38.4584 204.848 38.826C204.98 39.174 205.179 39.4925 205.435 39.7629C205.687 40.0289 205.99 40.2433 206.324 40.3943C206.846 40.6302 207.428 40.6971 207.99 40.5855C208.551 40.4739 209.064 40.1894 209.456 39.772C209.705 39.5006 209.9 39.1841 210.031 38.8396C210.173 38.4746 210.244 38.086 210.241 37.6944C210.248 37.3006 210.181 36.9091 210.042 36.5403Z" fill="#023452" fill-opacity="0.75"/>
<path d="M217.023 39.2898H216.983L214.387 35.481V41.2451H213.602V34.1163H214.416L217.014 38.0066L219.61 34.1163H220.425V41.2451H219.621V35.4697L217.023 39.2898Z" fill="#023452" fill-opacity="0.75"/>
<path d="M228.411 34.8498H224.063V37.2827H227.954V38.0159H224.063V40.5054H228.463V41.2386H223.258V34.1098H228.411V34.8498Z" fill="#023452" fill-opacity="0.75"/>
<path d="M231.218 36.2234H230.539L232.123 34.0961H232.734L234.318 36.2234H233.626L232.424 34.6551L231.218 36.2234Z" fill="#023452" fill-opacity="0.75"/>
<path d="M6.34813 44.667C6.34813 44.667 0.43462 44.1985 0.0928906 40.2766C0.0928906 40.2766 -1.26497 48.2902 6.40244 48.6319H40.245V44.667H6.34813ZM80.4627 40.2766C80.121 44.1985 74.2075 44.667 74.2075 44.667H40.3016V48.6319H74.1441C81.8206 48.2902 80.4627 40.2766 80.4627 40.2766Z" fill="#8099A8"/>
<path d="M40.8489 44.6669H39.6562V48.6319H40.8489V44.6669Z" fill="#8099A8"/>
<path d="M78.5769 38.2217L72.7788 32.2516L71.8374 36.685L61.0129 37.5427L55.5566 37.7125H40.3009V41.4217H73.9737C73.9737 41.4217 81.6728 41.6412 78.5769 38.2217ZM24.9887 37.7079L19.5324 37.5427L8.70793 36.6895L7.76648 32.2561L1.96839 38.2217C-1.12754 41.6322 6.57155 41.4172 6.57155 41.4172H40.2444V37.717L24.9887 37.7079Z" fill="#023452"/>
<path d="M40.8528 38.0587H39.6602V41.424H40.8528V38.0587Z" fill="#023452"/>
<path d="M15.7812 15.2078C15.7812 15.2078 39.9965 11.2859 64.8907 15.2078L58.7509 3.1002C58.7509 3.1002 57.7778 0.748838 49.5672 0.21927C49.5672 0.21927 34.9996 -0.274088 31.1002 0.21927C31.1002 0.21927 23.4509 0.54289 21.9165 3.1002L15.7812 15.2078Z" fill="#023452" fill-opacity="0.75"/>
<path d="M21.3984 23.6832L26.6284 19.4851C26.7762 19.3653 26.961 19.3005 27.1512 19.3018H40.3406V17.4257H40.3044L26.1871 17.5026L22.4349 20.0712L13.3621 16.4503L14.858 12.5668L16.3267 8.40718C16.3618 8.3073 16.3724 8.20047 16.3577 8.09563C16.343 7.9908 16.3035 7.89102 16.2423 7.80461C16.1812 7.7182 16.1002 7.6477 16.0062 7.59898C15.9123 7.55026 15.808 7.52474 15.7021 7.52457H8.64348C8.49252 7.52527 8.34632 7.57746 8.22905 7.67252C8.11177 7.76757 8.03044 7.8998 7.9985 8.04734L7.23809 11.6027C7.21849 11.6915 7.21755 11.7833 7.23531 11.8725C7.25308 11.9616 7.28917 12.0461 7.34129 12.1206C7.39342 12.195 7.46045 12.2578 7.53813 12.3051C7.61581 12.3523 7.70245 12.3828 7.79255 12.3948L12.8936 13.1009L10.3883 16.4458L10.3272 16.4774C10.3272 16.4774 7.93966 19.5575 7.76992 21.4404V38.4002H40.3406V36.6961H28.0949C28.0331 36.6963 27.9715 36.6887 27.9116 36.6734H24.4174L25.61 34.967H40.275V34.9897H40.3406V32.6021H26.513C26.3742 32.6022 26.2376 32.5676 26.1155 32.5017C25.9934 32.4357 25.8897 32.3403 25.8137 32.2241L21.3327 25.342C20.9457 24.6269 20.991 24.034 21.3984 23.6832ZM9.98551 20.3247L19.0244 23.3935C19.0244 23.3935 18.6826 24.9279 19.3661 25.2696C19.3616 25.2696 8.96258 25.4393 9.98551 20.3247ZM13.568 36.3543L11.1736 34.9965L17.2501 36.7028L13.568 36.3543ZM24.0553 33.5639C22.914 34.5304 21.7038 35.4123 20.4343 36.2027C19.8255 36.558 19.2552 36.8205 18.8501 36.8658L19.83 35.8859L11.4067 31.5203L11.0062 31.4094L11.0469 31.3325L11.7869 29.9972L24.0553 33.5639ZM40.3496 25.7811V21.368H40.3134L27.7962 21.3476C27.6073 21.3479 27.4239 21.4117 27.2757 21.5287L23.8674 24.2444C23.7067 24.3737 23.5999 24.5581 23.5676 24.7619C23.5354 24.9656 23.5802 25.174 23.6932 25.3466L26.9226 30.262C26.9969 30.3748 27.0976 30.4677 27.2159 30.5328C27.3342 30.5978 27.4666 30.6331 27.6016 30.6354L40.3044 30.7147H40.3406V27.1457H28.4774L27.1784 25.7879L40.3496 25.7811ZM56.7979 24.2557L53.3897 21.54C53.2414 21.423 53.0581 21.3592 52.8692 21.359L40.3496 21.3793H40.3134L27.7962 21.359C27.6073 21.3592 27.4239 21.423 27.2757 21.54L23.8674 24.2557C23.7067 24.385 23.5999 24.5695 23.5676 24.7732C23.5354 24.9769 23.5802 25.1853 23.6932 25.3579L26.9226 30.2733C26.9969 30.3861 27.0976 30.479 27.2159 30.5441C27.3342 30.6091 27.4666 30.6444 27.6016 30.6468L40.3044 30.726H40.3406L53.048 30.6468C53.1829 30.6442 53.3152 30.6089 53.4335 30.5438C53.5518 30.4788 53.6525 30.386 53.7269 30.2733L56.9563 25.3579C57.0701 25.1861 57.1159 24.9782 57.085 24.7745C57.054 24.5709 56.9485 24.386 56.7889 24.2557H56.7979ZM52.1767 27.1457H28.4774L27.1784 25.7879H53.4666L52.1767 27.1457ZM56.7957 24.2557L53.3874 21.54C53.2391 21.423 53.0558 21.3592 52.8669 21.359L40.3474 21.3793H40.3112L27.7939 21.359C27.605 21.3592 27.4217 21.423 27.2734 21.54L23.8652 24.2557C23.7044 24.385 23.5976 24.5695 23.5654 24.7732C23.5332 24.9769 23.5779 25.1853 23.6909 25.3579L26.9204 30.2733C26.9946 30.3861 27.0953 30.479 27.2136 30.5441C27.3319 30.6091 27.4643 30.6444 27.5993 30.6468L40.3021 30.726H40.3383L53.0457 30.6468C53.1806 30.6442 53.313 30.6089 53.4312 30.5438C53.5495 30.4788 53.6502 30.386 53.7246 30.2733L56.9541 25.3579C57.0681 25.1864 57.1143 24.9786 57.0838 24.775C57.0532 24.5713 56.9481 24.3863 56.7889 24.2557H56.7957ZM52.1767 27.1457H28.4774L27.1784 25.7879H53.4666L52.1767 27.1457ZM56.7957 24.2557L53.3874 21.54C53.2391 21.423 53.0558 21.3592 52.8669 21.359L40.3474 21.3793H40.3112L27.7939 21.359C27.605 21.3592 27.4217 21.423 27.2734 21.54L23.8652 24.2557C23.7044 24.385 23.5976 24.5695 23.5654 24.7732C23.5332 24.9769 23.5779 25.1853 23.6909 25.3579L26.9204 30.2733C26.9946 30.3861 27.0953 30.479 27.2136 30.5441C27.3319 30.6091 27.4643 30.6444 27.5993 30.6468L40.3021 30.726H40.3383L53.0457 30.6468C53.1806 30.6442 53.313 30.6089 53.4312 30.5438C53.5495 30.4788 53.6502 30.386 53.7246 30.2733L56.9541 25.3579C57.0681 25.1864 57.1143 24.9786 57.0838 24.775C57.0532 24.5713 56.9481 24.3863 56.7889 24.2557H56.7957ZM52.1767 27.1457H28.4774L27.1784 25.7879H53.4666L52.1767 27.1457ZM56.7957 24.2557L53.3874 21.54C53.2391 21.423 53.0558 21.3592 52.8669 21.359L40.3474 21.3793H40.3112L27.7939 21.359C27.605 21.3592 27.4217 21.423 27.2734 21.54L23.8652 24.2557C23.7044 24.385 23.5976 24.5695 23.5654 24.7732C23.5332 24.9769 23.5779 25.1853 23.6909 25.3579L26.9204 30.2733C26.9946 30.3861 27.0953 30.479 27.2136 30.5441C27.3319 30.6091 27.4643 30.6444 27.5993 30.6468L40.3021 30.726H40.3383L53.0457 30.6468C53.1806 30.6442 53.313 30.6089 53.4312 30.5438C53.5495 30.4788 53.6502 30.386 53.7246 30.2733L56.9541 25.3579C57.0681 25.1864 57.1143 24.9786 57.0838 24.775C57.0532 24.5713 56.9481 24.3863 56.7889 24.2557H56.7957ZM52.1767 27.1457H28.4774L27.1784 25.7879H53.4666L52.1767 27.1457ZM73.4159 11.6117L72.6555 8.05641C72.6209 7.90982 72.5385 7.77889 72.4214 7.68424C72.3042 7.5896 72.1589 7.53663 72.0083 7.53363H64.9429C64.837 7.5338 64.7327 7.5593 64.6387 7.60802C64.5448 7.65674 64.4638 7.72726 64.4027 7.81367C64.3415 7.90008 64.3019 7.99986 64.2873 8.1047C64.2726 8.20953 64.2832 8.31635 64.3182 8.41623C64.3793 8.59954 65.7802 12.5351 65.787 12.5758L65.925 12.9311L67.2829 16.4593L58.2078 20.0803L54.4579 17.5117L40.3383 17.4347H40.3021V19.3108H53.4938C53.6833 19.3097 53.8673 19.3745 54.0143 19.4942L59.2443 23.6922C59.6517 24.043 59.697 24.6359 59.3122 25.3511L54.8313 32.2332C54.7553 32.3493 54.6516 32.4447 54.5295 32.5107C54.4074 32.5767 54.2708 32.6112 54.132 32.6111H40.3044V34.9987H40.3406V34.9761H54.9422L56.1348 36.6825H52.7402C52.6803 36.6979 52.6187 36.7055 52.5569 36.7051H40.3044V38.4092H72.8773V21.4404C72.7053 19.5575 70.3177 16.4774 70.3177 16.4774L70.2566 16.4458L67.7514 13.1009L72.8524 12.4038C72.9426 12.3918 73.0293 12.3613 73.1071 12.3141C73.1848 12.2669 73.252 12.2041 73.3043 12.1297C73.3566 12.0553 73.3929 11.9709 73.4109 11.8817C73.429 11.7926 73.4284 11.7006 73.4091 11.6117H73.4159ZM67.0792 36.3543L63.3949 36.6961L69.4713 34.9897L67.0792 36.3543ZM69.202 31.5294L60.8059 35.8791L61.7926 36.8658C61.3762 36.8205 60.8059 36.5557 60.1948 36.1869C58.9317 35.398 57.7275 34.5184 56.592 33.5549L68.8558 29.9882L69.5935 31.3166L69.6388 31.4004L69.202 31.5294ZM70.6595 20.3247C71.6824 25.4393 61.2811 25.2696 61.2811 25.2696C61.9601 24.9279 61.6206 23.3935 61.6206 23.3935L70.6595 20.3247ZM40.3338 30.735L53.0412 30.6558C53.1761 30.6533 53.3084 30.6179 53.4267 30.5529C53.545 30.4878 53.6457 30.395 53.7201 30.2824L56.9496 25.3669C57.0625 25.1944 57.1073 24.986 57.0751 24.7822C57.0429 24.5785 56.936 24.3941 56.7753 24.2648L53.3671 21.5491C53.2188 21.432 53.0354 21.3683 52.8465 21.368L40.327 21.3884H40.2908L27.7736 21.368C27.5846 21.3683 27.4013 21.432 27.253 21.5491L23.8448 24.2648C23.6841 24.3941 23.5772 24.5785 23.545 24.7822C23.5128 24.986 23.5575 25.1944 23.6705 25.3669L26.9 30.2824C26.9743 30.3951 27.0749 30.4881 27.1932 30.5531C27.3115 30.6182 27.4439 30.6534 27.5789 30.6558L40.2817 30.735H40.3338ZM28.4706 27.1548L27.1716 25.7969H53.4666L52.1699 27.1548H28.4706ZM56.7821 24.2648L53.3738 21.5491C53.2256 21.432 53.0422 21.3683 52.8533 21.368L40.3338 21.3884H40.2976L27.7803 21.368C27.5914 21.3683 27.4081 21.432 27.2598 21.5491L23.8516 24.2648C23.6909 24.3941 23.584 24.5785 23.5518 24.7822C23.5196 24.986 23.5643 25.1944 23.6773 25.3669L26.9068 30.2824C26.9811 30.3951 27.0817 30.4881 27.2 30.5531C27.3183 30.6182 27.4507 30.6534 27.5857 30.6558L40.2885 30.735H40.3247L53.0321 30.6558C53.1671 30.6533 53.2994 30.6179 53.4176 30.5529C53.5359 30.4878 53.6366 30.395 53.711 30.2824L56.9405 25.3669C57.0586 25.1963 57.1086 24.9875 57.0805 24.7819C57.0525 24.5762 56.9484 24.3885 56.7889 24.2557L56.7821 24.2648ZM52.1767 27.1457H28.4774L27.1784 25.7879H53.4666L52.1767 27.1457ZM56.7957 24.2557L53.3874 21.54C53.2391 21.423 53.0558 21.3592 52.8669 21.359L40.3474 21.3793H40.3112L27.7939 21.359C27.605 21.3592 27.4217 21.423 27.2734 21.54L23.8652 24.2557C23.7044 24.385 23.5976 24.5695 23.5654 24.7732C23.5332 24.9769 23.5779 25.1853 23.6909 25.3579L26.9204 30.2733C26.9946 30.3861 27.0953 30.479 27.2136 30.5441C27.3319 30.6091 27.4643 30.6444 27.5993 30.6468L40.3021 30.726H40.3383L53.0457 30.6468C53.1806 30.6442 53.313 30.6089 53.4312 30.5438C53.5495 30.4788 53.6502 30.386 53.7246 30.2733L56.9541 25.3579C57.0681 25.1864 57.1143 24.9786 57.0838 24.775C57.0532 24.5713 56.9481 24.3863 56.7889 24.2557H56.7957ZM52.1767 27.1457H28.4774L27.1784 25.7879H53.4666L52.1767 27.1457ZM56.7957 24.2557L53.3874 21.54C53.2391 21.423 53.0558 21.3592 52.8669 21.359L40.3474 21.3793H40.3112L27.7939 21.359C27.605 21.3592 27.4217 21.423 27.2734 21.54L23.8652 24.2557C23.7044 24.385 23.5976 24.5695 23.5654 24.7732C23.5332 24.9769 23.5779 25.1853 23.6909 25.3579L26.9204 30.2733C26.9946 30.3861 27.0953 30.479 27.2136 30.5441C27.3319 30.6091 27.4643 30.6444 27.5993 30.6468L40.3021 30.726H40.3383L53.0457 30.6468C53.1806 30.6442 53.313 30.6089 53.4312 30.5438C53.5495 30.4788 53.6502 30.386 53.7246 30.2733L56.9541 25.3579C57.0681 25.1864 57.1143 24.9786 57.0838 24.775C57.0532 24.5713 56.9481 24.3863 56.7889 24.2557H56.7957ZM52.1767 27.1457H28.4774L27.1784 25.7879H53.4666L52.1767 27.1457ZM56.7957 24.2557L53.3874 21.54C53.2391 21.423 53.0558 21.3592 52.8669 21.359L40.3474 21.3793H40.3112V25.7743H53.4666L52.1699 27.1322H40.3044V30.7124H40.3406L53.048 30.6332C53.1829 30.6306 53.3152 30.5953 53.4335 30.5302C53.5518 30.4652 53.6525 30.3724 53.7269 30.2598L56.9563 25.3443C57.0662 25.1737 57.1098 24.9688 57.079 24.7683C57.0481 24.5677 56.9449 24.3854 56.7889 24.2557H56.7957Z" fill="#023452"/>
<path d="M71.7475 35.4196L65.9946 38.4001L60.9751 41.0004L59.6285 38.4001L58.8478 36.8951L60.192 36.1958L60.8031 35.879L69.1992 31.5293L69.5885 31.3256L69.6156 31.312L71.7475 35.4196ZM20.445 36.2026L19.834 35.8858L11.4107 31.5203L11.0509 31.3324L11.0101 31.312L8.88281 35.4196L14.6356 38.4001L19.653 41.0004L21.0108 38.4001L21.7939 36.8951L20.445 36.2026Z" fill="#023452"/>
</svg>
