<svg width="55" height="55" viewBox="0 0 55 55" fill="none" xmlns="http://www.w3.org/2000/svg">
<path d="M44.6016 27.9727C46.9219 27.9727 48.8125 29.8633 48.8125 32.1836C48.8125 33.3008 48.3828 34.375 47.5664 35.1484H52.5938V36.3516H1.20312V35.1484H8.07812C6.44531 33.5156 6.44531 30.8516 8.07812 29.2188C9.71094 27.5859 12.375 27.5859 14.0078 29.2188C15.6406 30.8516 15.6406 33.5156 14.0078 35.1484H41.6367C40.0039 33.5156 40.0039 30.8516 41.6367 29.2188C42.4102 28.4453 43.4844 27.9727 44.6016 27.9727ZM1.20312 32.0547L0 29.6484H2.44922L1.20312 28.4453V25.9961H4.85547L6.05859 24.793H2.44922L3.65234 22.3438H9.75391L8.55078 21.0547H13.4492L14.6523 19.8516H15.8984V21.0547H17.1016L22 22.2578H23.2031V21.0547H24.4062L25.6094 22.2578H34.2031L30.5508 18.6055H31.7969L36.6523 21.0547L35.4492 22.2578H39.1016L50.1016 24.707L53.7539 27.1563H51.3047L52.5078 28.3594H54.957V29.6484L53.7539 30.8516H51.3047L53.7539 32.0977L52.5508 33.3008H49.8867C50.4883 30.3789 48.6406 27.5 45.7188 26.8555C42.7969 26.2109 39.918 28.1016 39.2734 31.0234C39.1016 31.7539 39.1016 32.5273 39.2734 33.2578H16.3711C16.9727 30.3359 15.125 27.457 12.2031 26.8125C9.28125 26.168 6.40234 28.0586 5.75781 30.9805C5.58594 31.7109 5.58594 32.4844 5.75781 33.2148H4.89844L1.20312 32.0547ZM44.6016 31.0234C43.957 31.0234 43.4414 31.5391 43.4414 32.1836C43.4414 32.8281 43.957 33.3438 44.6016 33.3438C45.2461 33.3438 45.7617 32.8281 45.7617 32.1836C45.7617 31.5391 45.2031 31.0234 44.6016 31.0234ZM11.0859 31.0234C10.4414 31.0234 9.92578 31.5391 9.92578 32.1836C9.92578 32.8281 10.4414 33.3438 11.0859 33.3438C11.7305 33.3438 12.2031 32.8281 12.2031 32.1836C12.2031 31.5391 11.6875 31.0234 11.0859 31.0234ZM44.6016 29.8203C43.3125 29.8203 42.2383 30.8945 42.2383 32.1836C42.2383 33.4727 43.3125 34.5469 44.6016 34.5469C45.8906 34.5469 46.9648 33.4727 46.9648 32.1836C46.9648 30.8516 45.8906 29.8203 44.6016 29.8203ZM11.0859 29.8203C9.79688 29.8203 8.72266 30.8945 8.72266 32.1836C8.72266 33.4727 9.79688 34.5469 11.0859 34.5469C12.375 34.5469 13.4492 33.4727 13.4492 32.1836C13.4492 30.8516 12.375 29.8203 11.0859 29.8203Z" fill="#565F64"/>
</svg>
