<svg width="55" height="55" viewBox="0 0 55 55" fill="none" xmlns="http://www.w3.org/2000/svg">
<path d="M43.3555 29.3906C45.6328 29.3906 47.4805 31.2383 47.4805 33.5156C47.4805 34.6328 47.0508 35.707 46.2344 36.4805H52.6367V37.6406H1.16016V36.4375H5.58594C3.95312 34.8477 3.91016 32.2266 5.5 30.5937C7.08984 28.9609 9.71094 28.918 11.3438 30.5078C12.9766 32.0977 13.0195 34.7187 11.4297 36.3516C11.3867 36.3945 11.3867 36.3945 11.3438 36.4375H40.4766C38.8438 34.8477 38.8438 32.2266 40.4336 30.5937C41.207 29.8633 42.2812 29.3906 43.3555 29.3906ZM0.0429688 33.6875V31.3242H1.20312L2.36328 30.1641H0.0429688V25.4805H1.20312L2.36328 24.3203L0 24.3633L1.16016 19.6797L4.68359 17.3594H35.0625L43.2266 23.2031H40.9062L35.0625 18.5195H7.00391L5.84375 19.6797V22L8.16406 24.3203H10.4844V19.6797H11.6445V24.3633H23.375V19.6797H25.6953V24.3633H36.2227L35.0625 19.6797L38.5859 24.3633H45.5898L52.5938 26.6836L53.7539 27.8438H51.4336L52.5938 29.0039H54.9141V30.207L51.3906 31.3672H55V32.5273L52.6797 34.8477H48.5117C49.2422 32.0117 47.5664 29.1328 44.7305 28.4023C41.8945 27.6719 39.0156 29.3477 38.2852 32.1836C38.0703 33.043 38.0703 33.9883 38.2852 34.8477H13.5781C14.3086 32.0117 12.6328 29.1328 9.79688 28.4023C6.96094 27.6719 4.08203 29.3477 3.35156 32.1836C3.13672 33.043 3.13672 33.9883 3.35156 34.8477H1.20312L0.0429688 33.6875ZM43.3555 32.3125C42.668 32.3125 42.1523 32.8711 42.1523 33.5156C42.1523 34.2031 42.7109 34.7188 43.3555 34.7188C44.043 34.7188 44.5586 34.1602 44.5586 33.5156C44.5586 32.8711 44.043 32.3125 43.3555 32.3125ZM8.46484 32.3125C7.77734 32.3125 7.26172 32.8711 7.26172 33.5156C7.26172 34.1602 7.82031 34.7188 8.46484 34.7188C9.10938 34.7188 9.66797 34.1602 9.66797 33.5156C9.66797 32.8711 9.15234 32.3125 8.46484 32.3125ZM43.3555 31.1094C42.0234 31.1094 40.9922 32.1836 40.9922 33.4727C40.9922 34.8047 42.0664 35.8359 43.3555 35.8359C44.6875 35.8359 45.7188 34.7617 45.7188 33.4727C45.7617 32.1836 44.6875 31.1094 43.3555 31.1094ZM8.46484 31.1094C7.13281 31.1094 6.10156 32.1836 6.10156 33.4727C6.10156 34.8047 7.17578 35.8359 8.46484 35.8359C9.75391 35.8359 10.8281 34.7617 10.8281 33.4727C10.8281 32.1836 9.79688 31.1094 8.46484 31.1094Z" fill="#565F64"/>
</svg>
