<svg width="24" height="24" viewBox="0 0 24 24" fill="none" xmlns="http://www.w3.org/2000/svg">
<path d="M4.05775 20.7497C3.56058 20.7497 3.135 20.5727 2.781 20.2187C2.427 19.8647 2.25 19.4391 2.25 18.942V3.60547L3.675 5.03047L5.325 3.35547L7 5.03047L8.675 3.35547L10.325 5.03047L12 3.35547L13.675 5.03047L15.325 3.35547L17 5.03047L18.675 3.35547L20.325 5.03047L21.75 3.60547V18.942C21.75 19.4391 21.573 19.8647 21.219 20.2187C20.865 20.5727 20.4394 20.7497 19.9423 20.7497H4.05775ZM4.05775 19.2497H11.25V12.7497H3.75V18.942C3.75 19.0318 3.77883 19.1056 3.8365 19.1632C3.89417 19.2209 3.96792 19.2497 4.05775 19.2497ZM12.75 19.2497H19.9423C20.0321 19.2497 20.1058 19.2209 20.1635 19.1632C20.2212 19.1056 20.25 19.0318 20.25 18.942V16.7497H12.75V19.2497ZM12.75 15.2497H20.25V12.7497H12.75V15.2497ZM3.75 11.2497H20.25V7.65347H3.75V11.2497Z" fill="white"/>
</svg>
