<svg width="445" height="307" viewBox="0 0 445 307" fill="none" xmlns="http://www.w3.org/2000/svg">
<path d="M65.1636 87.6376C-21.7212 137.826 -21.7212 219.184 65.1636 269.362C152.049 319.541 292.939 319.55 379.833 269.362C466.727 219.174 466.718 137.826 379.833 87.6376C292.948 37.4495 152.058 37.4587 65.1636 87.6376Z" fill="#455A64"/>
<path opacity="0.2" d="M150.1 63.6093L49.7002 121.319C35.5302 129.469 37.2202 143.669 53.4702 153.039L244.18 263.099C325.44 310.099 461.06 212.449 396.11 176.029L197.82 61.2093C181.57 51.8393 164.26 55.4593 150.1 63.6093Z" fill="black"/>
<path d="M333.52 80.86L334.38 84.45C336.38 88.17 340.75 92.86 342.32 92.45C343.73 92.11 344.59 90.06 345.03 87.53C345.238 86.3202 345.358 85.0971 345.39 83.87C345.53 79.87 343.76 70.61 338.24 68.15C337.687 67.9084 337.071 67.849 336.481 67.9802C335.891 68.1114 335.359 68.4265 334.96 68.88C334.228 69.6172 333.683 70.519 333.37 71.51C332.44 74.3 333.39 80.72 333.52 80.86Z" fill="#263238"/>
<path d="M334.38 84.45C336.38 88.17 340.75 92.86 342.32 92.45C343.73 92.11 344.59 90.06 345.03 87.53C345.238 86.3202 345.358 85.0971 345.39 83.87C345.53 79.87 343.76 70.61 338.24 68.15C337.686 67.9084 337.07 67.849 336.481 67.9802C335.891 68.1114 335.359 68.4265 334.96 68.88L335.72 70.59C339.58 72.24 340.62 78.2 340.26 82.73C339.9 87.26 336.59 86.79 334.38 84.45Z" fill="#455A64"/>
<path d="M333.38 71.5105C334.77 70.0305 338.24 69.9505 341.15 73.9605C344.06 77.9705 345 84.8505 345 87.5205C345.212 86.3077 345.335 85.0812 345.37 83.8505C345.51 79.8505 343.74 70.6005 338.22 68.1305C335.94 67.1005 334 69.4605 333.38 71.5105Z" fill="#37474F"/>
<path d="M339.4 88.1505C339.4 88.1505 314.71 77.2305 274.47 56.1505C264.795 50.9378 255.701 44.7129 247.34 37.5805C236.77 26.8805 235.78 22.0005 231.1 20.0005C225.313 17.7359 219.4 15.8094 213.39 14.2305L99.7998 86.2905L211.33 175.36L242.1 152.36L339.57 91.3005H339.24L339.4 91.2205C341.37 90.3805 339.4 88.1505 339.4 88.1505Z" fill="#E0E0E0"/>
<path d="M213.39 14.1908C209.76 12.0908 206.78 10.3908 204.62 9.19077C193.67 2.85189 181.035 0.0377656 168.43 1.13077C161.69 1.74077 158.01 2.65077 154.8 3.83077C152.487 4.57877 150.365 5.82143 148.581 7.47235C146.797 9.12328 145.394 11.1429 144.47 13.3908L69.7998 62.3908L99.7998 86.3908" fill="#E0E0E0"/>
<path d="M247.2 33.9105L235.79 26.2305L141.76 77.5505L156.75 86.2005L156.73 144.19L247.2 91.9405V33.9105Z" fill="#E0E0E0"/>
<path opacity="0.15" d="M220.89 17.4707C228.42 19.7807 233.49 21.2207 231.61 22.2407C229.73 23.2607 181.37 10.0807 171.93 8.34073C162.49 6.60073 155.18 5.87073 166.93 3.25073C177.4 0.920733 184.11 1.67074 190.34 3.85074C196.57 6.03074 208.34 12.4507 208.34 12.4507C208.34 12.4507 178.09 5.00073 177 4.86073C175.91 4.72073 173 4.86073 180.11 6.86073C187.22 8.86073 213.35 15.1507 220.89 17.4707Z" fill="white"/>
<path opacity="0.1" d="M271.88 122.54C271.88 122.54 260.82 76.46 259.67 53C267.22 56.88 280.14 63.53 299.12 73.6C305.4 76.94 328.12 87.95 336.4 90.53L339.4 91.14L282.22 127L271.88 122.54Z" fill="black"/>
<path opacity="0.5" d="M333.87 85.0007C320.95 78.3307 293.23 64.0607 280.06 57.5207C261.48 48.2807 249.13 40.2707 240.95 26.6007C237.95 21.5407 234.95 16.4007 232.62 12.4707C237.83 14.4707 245.29 17.4707 253.39 21.3807C269 29.0007 288 38.1507 299.53 45.9007C308.42 51.8707 328.72 75.5207 333.87 85.0007Z" fill="black"/>
<path d="M301.18 43.45C289.44 35.56 270.18 26.28 254.68 18.73C245.413 14.1997 235.859 10.2813 226.08 7C226.08 7 232.14 17.61 238.41 28.07C247.41 43.07 261.13 51.36 278.74 60.07C296.35 68.78 339.41 91.07 339.41 91.07C339.39 85.38 312.92 51.35 301.18 43.45ZM241 26.6C238 21.54 235 16.4 232.67 12.47C237.88 14.47 245.34 17.47 253.44 21.38C269 29 288 38.15 299.53 45.9C308.42 51.9 326.6 74.46 333.87 85C320.95 78.33 293.23 64.06 280.06 57.52C261.48 48.28 249.13 40.27 241 26.6Z" fill="#37474F"/>
<path d="M232.62 12.4707L232.93 13.0107H233.87L232.62 12.4707ZM260 21.3807V24.7007C260 31.7007 260 40.5307 260 46.1407V47.9407C260.004 48.5056 259.971 49.0702 259.9 49.6307C261.07 50.4107 262.28 51.1607 263.52 51.9107V23.2307L260 21.3807Z" fill="#37474F"/>
<path d="M129.25 113.002L187 85.7319L213.06 71.1719C214.503 70.4456 216.083 70.0303 217.697 69.9528C219.311 69.8752 220.924 70.1372 222.43 70.7219L241.19 79.1818L254.05 78.9318V86.4318C253.988 86.9575 253.788 87.4574 253.47 87.8807C253.152 88.3039 252.728 88.6355 252.24 88.8419L160.37 141.052C159.007 141.755 157.475 142.063 155.947 141.941C154.418 141.819 152.954 141.272 151.72 140.362L130.8 123.362C130.341 123.031 129.964 122.599 129.697 122.1C129.43 121.601 129.281 121.047 129.26 120.482L129.25 113.002Z" fill="#263238"/>
<path d="M252.25 81.3426L160.38 133.553C159.017 134.256 157.485 134.564 155.957 134.442C154.428 134.32 152.964 133.773 151.73 132.863L130.81 115.863C128.55 114.033 128.81 111.373 131.29 109.923L213.08 63.6426C214.523 62.9163 216.103 62.501 217.717 62.4235C219.331 62.3459 220.944 62.6079 222.45 63.1926L252 76.5425C254.66 77.7425 254.77 79.8926 252.25 81.3426Z" fill="#37474F"/>
<path d="M129.24 113.002V120.502C129.262 121.066 129.412 121.618 129.678 122.115C129.945 122.612 130.322 123.042 130.78 123.372L151.7 140.372C152.884 141.276 154.305 141.817 155.79 141.932V134.432C154.305 134.317 152.884 133.776 151.7 132.872L130.78 115.872C130.325 115.539 129.951 115.109 129.684 114.612C129.418 114.115 129.266 113.565 129.24 113.002Z" fill="#263238"/>
<path d="M129.25 108.731C129.196 109.066 129.234 109.409 129.359 109.724C129.484 110.039 129.691 110.315 129.96 110.521L135.59 113.771C135.31 113.577 135.092 113.305 134.962 112.989C134.833 112.673 134.797 112.327 134.86 111.991L136.72 70.0815C136.817 69.1267 137.125 68.2056 137.624 67.3855C138.122 66.5654 138.797 65.8671 139.6 65.3415L214.28 22.6915C214.589 22.478 214.948 22.3499 215.322 22.32C215.696 22.2902 216.072 22.3597 216.41 22.5215L210.84 19.3015C210.497 19.131 210.114 19.0541 209.731 19.0787C209.349 19.1033 208.979 19.2284 208.66 19.4415L134 62.0915C133.193 62.6128 132.515 63.31 132.016 64.131C131.517 64.9519 131.211 65.8752 131.12 66.8315L129.25 108.731Z" fill="#263238"/>
<path d="M214.28 22.6813L139.6 65.3313C138.797 65.8569 138.122 66.5553 137.624 67.3754C137.126 68.1955 136.817 69.1166 136.72 70.0713L134.86 112.001C134.78 113.751 135.95 114.461 137.46 113.581L220.7 66.0013C221.477 65.5042 222.101 64.8022 222.503 63.9728C222.905 63.1433 223.07 62.2188 222.98 61.3013L217.48 24.3013C217.484 23.9282 217.383 23.5615 217.19 23.2426C216.996 22.9237 216.717 22.6654 216.384 22.4969C216.051 22.3284 215.677 22.2563 215.306 22.2889C214.934 22.3215 214.579 22.4574 214.28 22.6813Z" fill="#263238"/>
<path d="M132 64.1417L137.61 67.3917C138.096 66.5503 138.783 65.8425 139.61 65.3317L214.29 22.6817C214.599 22.4682 214.958 22.3401 215.332 22.3103C215.706 22.2804 216.081 22.3499 216.42 22.5117L210.85 19.2917C210.506 19.1212 210.124 19.0444 209.741 19.0689C209.358 19.0935 208.989 19.2186 208.67 19.4317L134 62.0917C133.176 62.6013 132.489 63.3052 132 64.1417Z" fill="#455A64"/>
<path d="M238.27 114.45L249.5 114.23L266.59 104.45C268.183 103.649 269.926 103.191 271.707 103.105C273.488 103.019 275.267 103.306 276.93 103.95L297.64 113.29L311.84 113.01V121.299C311.77 121.881 311.548 122.433 311.197 122.902C310.846 123.371 310.378 123.739 309.84 123.969L272.66 145.429C271.155 146.207 269.462 146.548 267.773 146.416C266.084 146.283 264.466 145.682 263.1 144.679L240 125.929C239.495 125.565 239.079 125.09 238.785 124.54C238.49 123.991 238.325 123.382 238.3 122.76L238.27 114.45Z" fill="#37474F"/>
<path d="M309.83 115.68L272.65 137.14C271.144 137.918 269.452 138.259 267.763 138.127C266.074 137.994 264.455 137.393 263.09 136.39L240 117.64C237.51 115.64 237.74 112.64 240.53 111.08L266.59 96.1604C268.183 95.3599 269.926 94.9018 271.707 94.8157C273.488 94.7296 275.267 95.0173 276.93 95.6604L309.56 110.38C312.49 111.7 312.61 114.07 309.83 115.68Z" fill="#455A64"/>
<path d="M238.27 114.461V122.731C238.295 123.354 238.46 123.963 238.755 124.512C239.049 125.061 239.465 125.536 239.97 125.901L263.06 144.641C264.368 145.642 265.938 146.243 267.58 146.371V138.081C265.938 137.961 264.367 137.363 263.06 136.361L240 117.641C239.49 117.276 239.07 116.8 238.77 116.25C238.47 115.699 238.299 115.087 238.27 114.461Z" fill="#263238"/>
<path d="M236 114C236.007 114.37 236.115 114.73 236.31 115.043C236.505 115.356 236.782 115.611 237.11 115.78L243.69 119.01C243.35 118.854 243.062 118.603 242.862 118.287C242.661 117.972 242.557 117.604 242.56 117.23L238.65 74.4104C238.633 73.412 238.876 72.4264 239.355 71.55C239.833 70.6736 240.531 69.9364 241.38 69.4104L263.69 56.5404C264.06 56.3068 264.478 56.1602 264.913 56.1117C265.347 56.0632 265.788 56.1141 266.2 56.2604L259.7 53.0604C259.281 52.9015 258.831 52.8414 258.386 52.8848C257.94 52.9281 257.51 53.0738 257.13 53.3104L234.83 66.1904C233.976 66.7104 233.273 67.4464 232.794 68.3242C232.315 69.202 232.075 70.1906 232.1 71.1904L236 114Z" fill="#263238"/>
<path d="M263.72 56.541L241.41 69.421C240.56 69.9455 239.861 70.6824 239.382 71.5591C238.903 72.4359 238.661 73.4222 238.68 74.421L242.59 117.251C242.75 119.031 244.24 119.691 245.91 118.731L277.67 100.391C278.49 99.9001 279.129 99.1557 279.49 98.2701C279.851 97.3845 279.914 96.4056 279.67 95.481L267.75 58.001C267.638 57.5967 267.43 57.2252 267.145 56.9174C266.86 56.6096 266.506 56.3744 266.111 56.2315C265.717 56.0886 265.294 56.0421 264.878 56.096C264.462 56.1498 264.065 56.3024 263.72 56.541Z" fill="#37474F"/>
<path d="M232.79 68.3902L239.34 71.6202C239.823 70.7163 240.537 69.9571 241.41 69.4202L263.72 56.5502C264.09 56.3166 264.508 56.17 264.943 56.1215C265.378 56.073 265.818 56.1238 266.23 56.2702L259.73 53.0702C259.311 52.9113 258.862 52.8512 258.416 52.8945C257.97 52.9379 257.54 53.0836 257.16 53.3202L234.86 66.2002C233.988 66.7332 233.273 67.4892 232.79 68.3902Z" fill="#455A64"/>
<path d="M236.1 62.0001C235.73 59.4601 235.98 61.1701 235.37 56.9001C234.27 49.2501 238.67 39.9901 245.2 36.2201C248.2 34.4901 251.1 34.2201 253.49 35.2201L257.49 37.3701L254.86 43.1601L255.41 47.0101C255.66 48.8001 258.85 52.4201 257.18 53.3801L250 57.4801L241.22 65.8901L237.34 63.7701C236.993 63.6142 236.694 63.3675 236.476 63.0559C236.258 62.7443 236.128 62.3795 236.1 62.0001Z" fill="#263238"/>
<path d="M243 49.9994L236.66 46.8694C238.23 42.4779 241.226 38.7391 245.17 36.2494C248.17 34.5194 251.07 34.2494 253.46 35.2494L257.46 37.3994L254.83 43.1894L255.09 45.0394L243 49.9994Z" fill="#455A64"/>
<path d="M239.94 64.1007C239.57 61.5607 239.82 63.2707 239.21 59.0007C238.11 51.3507 242.51 42.0907 249.03 38.3207C255.55 34.5507 261.74 37.7107 262.83 45.3207L263.56 50.4207C263.636 51.4092 263.438 52.3996 262.986 53.2821C262.534 54.1646 261.847 54.9048 261 55.4207L243.42 65.5707C241.75 66.5507 240.19 65.8807 239.94 64.1007Z" fill="#37474F"/>
<path d="M187 144.508L198.23 144.288L215.31 134.508C216.905 133.708 218.65 133.249 220.432 133.163C222.215 133.077 223.995 133.365 225.66 134.008L246.37 143.348L260.56 143.068V151.358C260.56 152.288 259.9 153.248 258.56 154.028L221.38 175.488C219.876 176.266 218.186 176.608 216.498 176.475C214.811 176.343 213.194 175.741 211.83 174.738L188.74 155.998C188.234 155.632 187.817 155.156 187.523 154.605C187.228 154.054 187.063 153.443 187.04 152.818L187 144.508Z" fill="#37474F"/>
<path d="M258.56 145.739L221.38 167.199C219.876 167.977 218.186 168.319 216.498 168.186C214.811 168.054 213.194 167.452 211.83 166.449L188.74 147.699C186.24 145.699 186.48 142.699 189.27 141.139L215.27 126.219C216.865 125.419 218.61 124.96 220.392 124.874C222.175 124.788 223.955 125.076 225.62 125.719L258.25 140.439C261.23 141.759 261.34 144.129 258.56 145.739Z" fill="#455A64"/>
<path d="M187 144.52V152.79C187.024 153.412 187.19 154.021 187.485 154.57C187.779 155.12 188.195 155.595 188.7 155.96L211.79 174.7C213.094 175.7 214.661 176.297 216.3 176.42V168.14C214.661 168.017 213.094 167.42 211.79 166.42L188.74 147.7C188.229 147.335 187.808 146.859 187.506 146.309C187.205 145.758 187.032 145.146 187 144.52Z" fill="#263238"/>
<path d="M184.77 144.059C184.772 144.429 184.877 144.792 185.073 145.106C185.269 145.421 185.548 145.674 185.88 145.839L192.46 149.069C192.118 148.914 191.829 148.664 191.626 148.348C191.424 148.032 191.318 147.664 191.32 147.289L187.42 104.469C187.4 103.47 187.641 102.483 188.12 101.606C188.599 100.729 189.298 99.992 190.15 99.469L212.46 86.589C212.83 86.3593 213.246 86.2157 213.679 86.169C214.112 86.1222 214.55 86.1735 214.96 86.319L208.46 83.119C208.041 82.9601 207.592 82.9 207.146 82.9434C206.7 82.9867 206.27 83.1324 205.89 83.369L183.59 96.249C182.738 96.7702 182.037 97.5067 181.56 98.3845C181.082 99.2622 180.844 100.25 180.87 101.249L184.77 144.059Z" fill="#263238"/>
<path d="M212.46 86.5998L190.15 99.4799C189.3 100.004 188.601 100.741 188.122 101.618C187.643 102.495 187.401 103.481 187.42 104.48L191.33 147.31C191.49 149.1 192.98 149.76 194.65 148.8L226.4 130.46C227.218 129.967 227.855 129.222 228.216 128.337C228.576 127.452 228.641 126.474 228.4 125.55L216.49 87.9998C216.371 87.6007 216.158 87.2356 215.87 86.9346C215.582 86.6337 215.227 86.4054 214.833 86.2687C214.44 86.132 214.019 86.0907 213.607 86.1483C213.194 86.2059 212.801 86.3606 212.46 86.5998Z" fill="#37474F"/>
<path d="M181.53 98.4488L188.08 101.679C188.563 100.775 189.277 100.016 190.15 99.4788L212.46 86.5988C212.83 86.369 213.247 86.2255 213.679 86.1787C214.112 86.132 214.55 86.1833 214.96 86.3288L208.46 83.1288C208.042 82.9699 207.592 82.9098 207.146 82.9531C206.7 82.9965 206.271 83.1422 205.89 83.3788L183.59 96.2588C182.723 96.795 182.013 97.5504 181.53 98.4488Z" fill="#455A64"/>
<path d="M184.83 92.0587C184.47 89.5187 184.71 91.2287 184.1 86.9587C183.01 79.3087 187.41 70.0487 193.93 66.2787C196.93 64.5487 199.84 64.2787 202.23 65.2787L206.23 67.4287L203.6 73.2187L204.15 77.0687C204.41 78.8487 207.6 82.4787 205.93 83.4387L198.74 87.5887L189.92 95.9987L186 93.8286C185.667 93.6624 185.383 93.4113 185.177 93.1006C184.972 92.7898 184.852 92.4305 184.83 92.0587Z" fill="#263238"/>
<path d="M191.77 79.9994L185.42 76.8694C186.994 72.4798 189.989 68.742 193.93 66.2494C196.93 64.5194 199.84 64.2494 202.23 65.2494L206.23 67.3994L203.6 73.1894L203.87 75.0394L191.77 79.9994Z" fill="#455A64"/>
<path d="M188.67 94.1593C188.31 91.6193 188.55 93.3293 187.94 89.0592C186.85 81.4093 191.25 72.1493 197.77 68.3793C204.29 64.6093 210.47 67.7693 211.57 75.3793L212.3 80.4792C212.374 81.4675 212.175 82.457 211.723 83.3391C211.271 84.2212 210.585 84.9617 209.74 85.4793L192.16 95.6293C190.49 96.5993 188.93 95.9393 188.67 94.1593Z" fill="#37474F"/>
<path d="M283.63 99.5195C288.19 102.3 291.75 104.66 297.63 108.62C304.03 112.92 309.33 116.52 311.31 120.3C313.08 123.68 312.99 128.22 310.85 133.74C308.71 139.26 297.3 158.22 297.3 158.22L289.75 151C289.75 151 291.87 138.71 293.29 135.32C293.746 134.004 294.487 132.805 295.46 131.81L274.83 123.95L270.08 112.95C271.18 106.89 277.73 101.17 283.63 99.5195Z" fill="#263238"/>
<path d="M249.16 105.269C249.087 109.309 249.298 113.349 249.79 117.359C250.51 121.749 251.64 125.799 258.59 130.839C265.26 135.679 282.36 143.069 283.13 144.509C283.306 148.662 284.385 152.726 286.29 156.419L293.09 169.839C297.09 170.519 302.26 169.259 304.45 167.219C304.45 167.219 302.61 157.319 301.18 150.719C298.74 139.419 298.55 133.959 296.18 131.269C293.81 128.579 280.61 117.799 280.61 117.799C280.61 117.799 282.81 116.479 284.22 108.889C284.9 105.249 284.22 99.3594 284.22 99.3594C284.22 99.3594 261.55 107.999 249.16 105.269Z" fill="#263238"/>
<path d="M272.91 62.6504C277.59 63.4004 279.91 65.7304 285.1 72.6504C290.95 80.4504 293.59 84.1704 293.59 84.1704L316.39 93.1704L311.84 98.4604C311.84 98.4604 298.19 96.0004 293 94.5504C289.15 93.4904 287.94 93.5004 284.23 89.6704C280.99 86.3204 274.16 78.1404 274.16 78.1404L272.91 62.6504Z" fill="#FFA8A7"/>
<path d="M272.88 62C275.34 62.25 277.65 63.3045 279.45 65C280.45 66 286.17 73.55 289.13 77.7C289.13 77.7 288.6 79.7 285.54 82.49C284.05 83.9756 282.086 84.892 279.99 85.08L273.76 77.69L272.88 62Z" fill="#0177AA"/>
<path d="M263.65 62.4497C259.65 62.7397 253.57 65.9697 249.14 68.4497C246.14 70.7897 246.23 78.9997 246.78 85.2397C247.7 95.6697 247.72 97.8997 248.62 107.6C249.11 113.41 249.26 114.95 249.26 114.95C261.26 116.88 278.26 112.62 284.19 99.4097C284.19 99.4097 281.83 93.1297 279.98 75.0897C278.98 65.9097 274.88 63.6297 272.88 62.4897C269.812 62.171 266.721 62.1576 263.65 62.4497Z" fill="#FAFAFA"/>
<path d="M256.62 59.18C256.12 56.62 253.5 53.99 252.3 51.78C251.1 49.57 250.44 47.98 250.52 45.94C250.52 44.74 251.28 43.09 252.17 42.73C251.947 42.0032 251.874 41.2385 251.956 40.4826C252.038 39.7266 252.273 38.9954 252.648 38.3336C253.022 37.6718 253.528 37.0934 254.133 36.6337C254.739 36.174 255.432 35.8426 256.17 35.66C257.001 35.4635 257.819 35.2164 258.62 34.92C259.62 34.49 259.78 33.7 260.54 33.02C261.78 31.92 264.19 31.73 264.97 33.47C265.847 32.8058 266.92 32.4538 268.02 32.47C268.741 32.4559 269.445 32.6849 270.02 33.12C270.301 33.3423 270.517 33.6359 270.645 33.9702C270.773 34.3044 270.81 34.6669 270.75 35.02C271.434 34.8535 272.151 34.8773 272.822 35.0888C273.494 35.3003 274.095 35.6915 274.56 36.22C275.009 36.7635 275.276 37.4345 275.323 38.138C275.369 38.8415 275.194 39.5419 274.82 40.14C275.228 40.4619 275.53 40.8987 275.688 41.394C275.845 41.8894 275.85 42.4205 275.703 42.9188C275.555 43.4172 275.262 43.8599 274.86 44.1899C274.459 44.5198 273.968 44.7219 273.45 44.77C273.71 44.77 273.22 46.45 273.14 46.58C272.788 47.1675 272.279 47.6454 271.67 47.96C269.749 48.7884 267.734 49.3794 265.67 49.72L263.26 50.28C263.12 50.28 262.38 50.37 262.26 50.5L256.62 59.18Z" fill="#263238"/>
<path d="M253.43 55.9207C253.879 56.2241 254.414 56.3735 254.955 56.3464C255.496 56.3194 256.014 56.1173 256.43 55.7707L256.69 64.7707C258.88 67.8607 263.61 68.0907 266.05 67.4107C269.21 66.5307 268.44 64.1107 266.93 62.8707V61.3907C267.83 61.3806 268.729 61.3138 269.62 61.1907C270.643 60.9126 271.58 60.3825 272.345 59.6487C273.111 58.915 273.68 58.0011 274 56.9907C274.599 54.1367 274.616 51.1913 274.05 48.3307C273.892 47.6392 273.838 46.928 273.89 46.2207C274.001 44.6745 273.751 43.1237 273.16 41.6907C270.9 39.9607 265.07 39.6907 260.36 42.6907C260.97 45.5207 260.6 47.6007 258.55 48.6907C258.67 49.4607 258.81 51.4007 257.55 51.3907C256.64 51.3907 256.55 50.2407 255.6 49.2607C254.65 48.2807 252.45 48.0607 251.6 49.5607C251.057 50.6581 250.944 51.9187 251.283 53.0953C251.621 54.2719 252.387 55.2796 253.43 55.9207Z" fill="#FFA8A7"/>
<path d="M267 61.4395C263.79 61.1295 261.35 60.8394 259.64 58.5594C258.882 57.4439 258.29 56.2246 257.88 54.9395C257.975 56.5358 258.39 58.0969 259.1 59.5294C259.94 60.9894 261.98 62.1794 267 62.5294V61.4395Z" fill="#F28F8F"/>
<path d="M265.58 48.9204C265.581 49.1739 265.485 49.4182 265.312 49.6039C265.14 49.7895 264.903 49.9026 264.65 49.9204C264.385 49.9204 264.13 49.815 263.943 49.6275C263.755 49.44 263.65 49.1856 263.65 48.9204C263.636 48.7881 263.651 48.6545 263.692 48.5281C263.733 48.4017 263.801 48.2854 263.89 48.1866C263.979 48.0879 264.088 48.009 264.209 47.955C264.331 47.901 264.462 47.873 264.595 47.873C264.728 47.873 264.859 47.901 264.981 47.955C265.102 48.009 265.211 48.0879 265.3 48.1866C265.389 48.2854 265.457 48.4017 265.498 48.5281C265.539 48.6545 265.554 48.7881 265.54 48.9204H265.58Z" fill="#263238"/>
<path d="M264.66 46.0603L262.79 47.2203C262.642 46.962 262.597 46.6568 262.666 46.3669C262.735 46.0771 262.911 45.8243 263.16 45.6603C263.284 45.5857 263.422 45.5367 263.565 45.5165C263.709 45.4962 263.855 45.505 263.995 45.5423C264.135 45.5796 264.266 45.6447 264.38 45.7337C264.494 45.8227 264.59 45.9337 264.66 46.0603Z" fill="#263238"/>
<path d="M272.61 46.2208L270.53 45.4708C270.571 45.3316 270.639 45.2022 270.732 45.0909C270.825 44.9795 270.94 44.8886 271.069 44.8237C271.199 44.7589 271.341 44.7217 271.485 44.7143C271.63 44.7069 271.775 44.7295 271.91 44.7808C272.19 44.8849 272.418 45.0925 272.549 45.3607C272.679 45.6288 272.701 45.9368 272.61 46.2208Z" fill="#263238"/>
<path d="M272.65 48.3496C272.64 48.5351 272.576 48.7136 272.466 48.8631C272.356 49.0126 272.205 49.1265 272.03 49.1908C271.856 49.2551 271.667 49.267 271.486 49.2249C271.305 49.1827 271.141 49.0886 271.013 48.9539C270.885 48.8193 270.799 48.6501 270.766 48.4673C270.734 48.2845 270.755 48.0961 270.828 47.9254C270.901 47.7547 271.023 47.6092 271.178 47.5069C271.333 47.4045 271.514 47.3499 271.7 47.3496C271.957 47.3624 272.198 47.4734 272.375 47.6596C272.552 47.8458 272.65 48.0928 272.65 48.3496Z" fill="#263238"/>
<path d="M272 52.4191L268.9 53.8791L267.81 47.7591C268.93 47.3191 270.49 50.1091 272 52.4191Z" fill="#F28F8F"/>
<path d="M264.92 54.8105L268.7 55.5305C268.664 55.7821 268.577 56.0238 268.445 56.2411C268.314 56.4585 268.139 56.647 267.933 56.7954C267.727 56.9439 267.493 57.0492 267.245 57.105C266.997 57.1609 266.74 57.1662 266.49 57.1205C265.979 57.0164 265.528 56.7166 265.235 56.285C264.942 55.8534 264.829 55.3243 264.92 54.8105Z" fill="#B16668"/>
<path d="M265.39 55.4098C265.234 55.3946 265.077 55.3946 264.92 55.4098C264.976 55.8192 265.156 56.2014 265.437 56.504C265.718 56.8066 266.086 57.0147 266.49 57.0998C266.696 57.1347 266.905 57.1347 267.11 57.0998C267.09 56.6529 266.902 56.2302 266.583 55.9166C266.264 55.6031 265.838 55.422 265.39 55.4098Z" fill="#F28F8F"/>
<path d="M239.27 121.909C238.43 118.909 237.61 119.059 240.4 117.649C244.12 115.769 247.96 113.919 248.6 114.769C249.59 116.688 250.31 118.734 250.74 120.849C251.03 122.419 245.41 123.649 243.01 124.089C239.56 124.709 239.79 123.759 239.27 121.909Z" fill="#263238"/>
<path d="M272.19 62.1191C274.19 71.8591 275.62 102.359 247.19 115.839L249.19 120.839C249.19 120.839 266.88 117.989 276.42 112.459C285.96 106.929 286.75 100.259 286.75 100.259L284.22 97.7091C284.22 97.7091 280.72 109.249 255.75 115.349C269.33 107.509 280.92 87.8491 275.75 62.6991L272.19 62.1191Z" fill="black"/>
<path d="M317.39 99.7691C316.91 96.2491 315.32 93.5691 312.78 92.0991C311.459 91.344 309.962 90.9507 308.44 90.9591C306.077 91.0307 303.774 91.7203 301.76 92.9591C294.18 97.3391 288.25 107.629 288.25 116.369V116.509L293.03 113.779C293.263 112.325 293.642 110.898 294.16 109.519C294.44 108.779 294.75 108.049 295.11 107.319C297.16 102.979 300.44 99.0091 304.04 96.9291C305.363 96.0983 306.879 95.6262 308.44 95.5591C309.156 95.5393 309.864 95.712 310.49 96.0591C310.822 96.2523 311.122 96.4951 311.38 96.7791C311.933 97.4057 312.334 98.1518 312.55 98.9591C312.844 99.9759 312.986 101.031 312.97 102.089V102.309L317.39 99.7691Z" fill="#263238"/>
<path d="M307.11 105.679L299.58 109.999L298.68 110.529C298.704 110.328 298.748 110.131 298.81 109.939C298.999 109.165 299.288 108.418 299.67 107.719C300.404 106.261 301.521 105.031 302.9 104.159C303.314 103.873 303.79 103.688 304.288 103.619C304.786 103.549 305.294 103.597 305.77 103.759C306.134 103.944 306.446 104.217 306.68 104.551C306.914 104.886 307.061 105.273 307.11 105.679Z" fill="#263238"/>
<path d="M314.48 96.5496L312.55 98.9996L307.19 105.66L307.13 105.75L299.58 110L298.81 109.94L294.16 109.52L292.09 109.34L292.28 107.06L295.11 107.32L299.67 107.72L302.39 107.96L305.77 103.76L311.38 96.7596L312.71 95.0996L314.48 96.5496Z" fill="#263238"/>
<path d="M316.14 95.6798C316.456 96.1227 316.587 96.6714 316.505 97.2091C316.422 97.7469 316.134 98.2315 315.7 98.5598C314.888 99.3157 313.897 99.8525 312.82 100.12L312.55 98.9598C312.55 98.9598 311.2 99.9598 311.12 100.74C311.06 101.28 311.42 101.63 311.35 101.92C311.218 102.253 311.166 102.613 311.2 102.97L319.97 98.3899C319.97 98.3899 319.49 96.8998 319.16 96.1498C318.524 94.9188 317.567 93.8823 316.39 93.1498C315.666 92.9865 314.914 92.9865 314.19 93.1498C314.986 93.8702 315.646 94.727 316.14 95.6798Z" fill="#FFA8A7"/>
<path d="M295.6 109.499C295.06 109.009 294.6 108.499 294.6 108.499L294.07 109.869C293.733 110.293 293.304 110.634 292.815 110.868C292.327 111.102 291.791 111.222 291.25 111.219C290.481 111.182 289.735 110.94 289.09 110.519L289.87 108.009C289.87 108.009 288.87 108.259 287.4 108.599C285.93 108.939 284.84 109.709 283.26 109.949C279.36 110.519 262.89 101.619 260.43 100.169L256.37 81.6591C256.37 81.6591 254.96 71.2191 249.21 68.7891C242.56 72.6991 242.88 76.3091 244.65 85.1991C246.141 92.5683 248.004 99.8576 250.23 107.039C250.67 108.299 251.15 110.569 255.23 111.759C261.72 113.649 275.81 118.329 282.29 118.589C287.83 115.259 296.29 111.169 296.29 111.169C296.222 110.558 295.983 109.979 295.6 109.499Z" fill="#FFA8A7"/>
<path d="M249.14 68.4004C244.45 70.8304 242.22 74.1804 243.52 81.1104C244.82 88.0404 246.52 94.4504 246.52 94.4504C248.714 95.065 251.035 95.065 253.23 94.4504C257.37 93.4504 258.79 91.1704 258.79 91.1704C258.79 91.1704 256.4 79.3404 255.66 76.3204C254.92 73.3004 252.57 69.1604 249.14 68.4004Z" fill="#0177AA"/>
<path d="M259.91 144.301C257.73 142.041 256.32 141.231 247.6 136.861C241.918 134.097 236.1 131.621 230.17 129.441L222.62 141.221L232.36 147.921L246.49 153.921C245.316 155.652 244.463 157.579 243.97 159.611C243.69 160.721 241.5 172.901 241.5 172.901L249.44 179.601C249.44 179.601 256.58 163.341 259.58 155.501C262.42 148.091 260.72 145.151 259.91 144.301Z" fill="#C8856A"/>
<path d="M232.26 124.5C234.69 126.13 237.26 127.31 243.59 130.74C249.29 133.83 258.59 139.07 260.74 142.8C262.74 146.13 262.41 149.51 260.51 155.21C258.61 160.91 249.15 180.79 249.15 180.79L241.15 173.79C241.15 173.79 242.69 161.23 243.96 157.72C244.346 156.366 245.029 155.116 245.96 154.06L224.68 147.12L219.32 136.21C220.16 130.09 226.37 126.46 232.26 124.5Z" fill="#37474F"/>
<path d="M249.15 180.792L241.15 173.792C241.15 173.792 242.69 161.232 243.96 157.722C244.285 156.809 244.7 155.931 245.2 155.102C247.2 157.182 248.32 158.342 249.87 163.882C250.57 166.402 251.5 170.402 252.31 174.022C250.51 177.932 249.15 180.792 249.15 180.792Z" fill="#263238"/>
<path d="M230.3 133.182C231.01 137.802 231.2 141.342 231.2 141.342L244 153.472L224.7 147.172L230.3 133.182Z" fill="#263238"/>
<path d="M241.62 134.691C244.32 135.981 250.62 140.491 252.08 141.571C253.594 142.658 255.01 143.876 256.31 145.211C256.799 145.719 257.223 146.287 257.57 146.901C257.728 147.185 257.84 147.492 257.9 147.811C257.923 148.144 257.923 148.478 257.9 148.811C257.785 150.268 257.534 151.711 257.15 153.121C256.79 154.561 256.36 155.991 255.92 157.411C255.02 160.265 254.073 163.105 253.08 165.931C254.422 163.243 255.608 160.478 256.63 157.651C257.15 156.241 257.63 154.811 258.02 153.351C258.444 151.88 258.715 150.369 258.83 148.841C258.849 148.437 258.829 148.032 258.77 147.631C258.697 147.214 258.555 146.812 258.35 146.441C257.96 145.751 257.471 145.121 256.9 144.571C255.568 143.236 254.115 142.027 252.56 140.961C250.06 139.171 244.45 135.661 241.62 134.691Z" fill="#263238"/>
<path d="M199.87 130C198.855 133.573 198.516 137.303 198.87 141C199.44 145.07 200.04 149.66 208.54 155.05C215.6 159.52 233.21 166.27 234.07 167.68C234.449 171.878 235.739 175.942 237.85 179.59L245.4 192.85C249.52 193.34 253.16 192.24 255.28 190.06C255.28 190.06 252.67 179.78 250.9 173.17C247.9 161.84 247.23 158.28 244.67 155.67C242.11 153.06 241.22 152.25 241.22 152.25L229.59 141.9C230.158 139.03 230.396 136.105 230.3 133.18C230.115 130.276 229.55 127.408 228.62 124.65C228.62 124.65 212.56 132.14 199.87 130Z" fill="#37474F"/>
<path d="M207.51 143.551L207.4 143.351C204.76 140.181 204.99 136.801 205.3 132.351C205.3 131.601 205.4 130.831 205.45 130.031H205.92C205.92 130.831 205.82 131.611 205.77 132.351C205.47 136.571 205.25 139.811 207.65 142.821C210.65 140.821 209.33 135.701 208.55 132.611C208.42 132.101 208.3 131.611 208.22 131.251L208.68 131.151C208.76 131.541 208.88 131.991 209.01 132.491C209.82 135.701 211.15 140.971 207.95 143.201C208.402 143.706 208.89 144.177 209.41 144.611C212.27 146.981 219.35 151.861 225.59 156.171C230.52 159.571 234.78 162.511 235.75 163.381C236.97 164.491 238.03 168.131 239.36 172.741C240.45 176.521 247.79 190.271 249.51 192.491H248.94C247.14 190.131 240 176.621 238.94 172.831C237.68 168.471 236.59 164.711 235.47 163.691C234.52 162.841 230.27 159.911 225.35 156.521C219.1 152.201 212.02 147.321 209.14 144.931C208.579 144.468 208.057 143.96 207.58 143.411L207.51 143.551Z" fill="#263238"/>
<path d="M213.94 132C213.972 133.511 214.221 135.01 214.68 136.45C215.12 137.9 215.71 139.301 216.44 140.63C217.172 141.965 218.029 143.227 219 144.4C219.952 145.574 221.036 146.634 222.23 147.56C221.31 146.37 220.42 145.18 219.59 143.96C218.755 142.75 217.987 141.494 217.29 140.2C216.575 138.907 215.941 137.571 215.39 136.2C214.823 134.83 214.339 133.428 213.94 132Z" fill="#263238"/>
<path d="M212.91 132.17C212.599 133.415 212.451 134.696 212.47 135.98C212.468 137.263 212.572 138.544 212.78 139.81C212.981 141.071 213.278 142.315 213.67 143.53C214.031 144.761 214.549 145.941 215.21 147.04C214.89 145.8 214.63 144.58 214.37 143.35C214.11 142.12 213.89 140.89 213.7 139.66C213.51 138.43 213.33 137.19 213.19 135.94C213.05 134.69 213 133.45 212.91 132.17Z" fill="#263238"/>
<path d="M234.37 150.791C236.16 152.641 238.02 154.431 239.79 156.271C240.67 157.201 241.54 158.141 242.31 159.131C243.097 160.096 243.741 161.171 244.22 162.321C244.64 163.491 245.07 164.721 245.48 165.931L246.74 169.581C247.566 172.014 248.443 174.434 249.37 176.841C248.816 174.321 248.18 171.824 247.46 169.351C246.74 166.871 245.99 164.421 245.08 161.971C244.557 160.743 243.849 159.603 242.98 158.591C242.148 157.591 241.249 156.649 240.29 155.771C238.4 154.001 236.39 152.391 234.37 150.791Z" fill="#263238"/>
<path d="M254.89 188.4C253.62 190.11 247.18 192.16 244.62 191.4L246.02 194.59C246.02 194.59 247.77 195.16 251.67 194.19C255.57 193.22 255.8 191.6 255.8 191.6L254.89 188.4Z" fill="#263238"/>
<path d="M202.8 126.681C205.2 127.611 209.25 128.501 215.29 127.561C221.33 126.621 226.99 123.131 228.5 121.131L229.57 124.191C229.57 124.191 225.26 129.191 215.9 130.831C206.54 132.471 202.7 129.741 202.7 129.741L202.8 126.681Z" fill="#455A64"/>
<path d="M219.17 92.5508C225.57 93.5508 226.25 94.9008 229.34 98.1708C233.54 102.611 238.84 108.541 238.84 108.541L255.54 102.231L256.03 111.351C256.03 111.351 244.38 117.651 240.46 119.221C237.52 120.391 235.75 119.091 233.28 117.051C229.51 113.921 221.86 107.461 221.86 107.461L219.17 92.5508Z" fill="#C8856A"/>
<path d="M261.55 90.3809L241.53 99.0109L237.23 125.121L237.72 125.571L256.72 116.971L262.04 90.8409L261.55 90.3809Z" fill="#0177AA"/>
<path opacity="0.25" d="M261.55 90.3809L241.53 99.0109L237.23 125.121L237.72 125.571L256.72 116.971L262.04 90.8409L261.55 90.3809Z" fill="white"/>
<path d="M262.04 90.8418L242.03 99.4618L237.72 125.572L256.72 116.972L262.04 90.8418Z" fill="#0177AA"/>
<g opacity="0.1">
<path d="M256.2 96.2611L256.31 95.4311C256.38 94.9711 255.19 95.2911 253.66 96.1411L250 97.5111C248.47 98.3611 247 99.0211 247 99.5111L246.89 100.341L256.2 96.2611Z" fill="black"/>
</g>
<path d="M257.17 92.4708C257.17 92.1908 256.74 92.2808 256.1 92.4708L255 93.0008C255 93.0008 255.32 91.5708 252.66 92.7208C249.25 94.2008 249.66 95.3108 249.66 95.3108C249.188 95.5469 248.704 95.7572 248.21 95.9408C247.21 96.3408 247.12 96.5508 247.05 96.8408L246.94 97.3708L257.14 92.9809C257.14 92.9809 257.13 92.7608 257.17 92.4708Z" fill="#37474F"/>
<path d="M256.18 94.1212C255.24 94.6212 254.85 94.8613 254.75 95.5713C254.65 96.2813 254.63 96.7112 254.63 96.7112L249.33 99.2313C249.33 99.2313 249.55 98.0313 249.59 97.6413C249.63 97.2513 248.92 97.2913 248.01 97.7913L248.16 96.7913L256.37 93.2812L256.18 94.1212Z" fill="#263238"/>
<path d="M256.48 96.2513C256.48 96.2513 256.53 95.8813 256.6 95.4213C256.67 94.9613 255.47 95.2813 253.94 96.1313L250.32 97.5013C248.79 98.3613 247.32 99.0113 247.32 99.5013L247.2 100.331L256.48 96.2513Z" fill="#263238"/>
<path d="M261.16 102C261.67 100.72 261.56 100.6 261 100.15C260.575 99.782 260.068 99.5222 259.521 99.3933C258.974 99.2644 258.404 99.2703 257.86 99.4104C257.033 99.5591 256.238 99.85 255.51 100.27C255.08 100.65 255.76 101.58 257.08 101.55C259.15 101.55 259.27 102.04 259.27 102.04C258.384 102.054 257.499 102.114 256.62 102.22C255.669 102.534 254.743 102.919 253.85 103.37C253.06 103.71 253.16 104.82 254.65 104.84L253.19 105.45C252.19 105.89 251.95 106.54 252.95 106.99C253.276 107.149 253.645 107.195 254 107.12C254 107.12 252.87 107.39 252.94 107.78C253.14 108.87 253.94 108.98 256.36 109.08C256.694 109.099 257.015 109.221 257.278 109.428C257.541 109.636 257.734 109.919 257.83 110.24C257.956 110.576 257.984 110.94 257.91 111.29C257.85 111.62 257.75 112.07 257.7 112.29C257.7 112.29 259.95 110.43 260.6 109.7C260.885 109.478 261.08 109.16 261.148 108.805C261.216 108.45 261.153 108.082 260.97 107.77C260.97 107.77 262.22 107.48 262.11 106.7C261.985 106.13 261.744 105.592 261.4 105.12C261.592 104.938 261.729 104.706 261.795 104.449C261.86 104.192 261.852 103.922 261.77 103.67C261.653 103.18 261.375 102.743 260.98 102.43L261.16 102Z" fill="#C8856A"/>
<path d="M254.65 104.88C255.078 104.67 255.527 104.505 255.99 104.39C256.472 104.344 256.958 104.374 257.43 104.48C258.354 104.636 259.264 104.867 260.15 105.17C259.214 105.153 258.281 105.059 257.36 104.89C256.923 104.788 256.478 104.728 256.03 104.71C255.6 104.74 255.12 104.85 254.65 104.88Z" fill="#AF6152"/>
<path d="M254 107.161C254.451 106.901 254.96 106.757 255.48 106.741C255.992 106.724 256.505 106.757 257.01 106.841C258.014 106.985 258.999 107.237 259.95 107.591C258.95 107.591 257.95 107.391 256.95 107.251C255.981 107.036 254.98 107.005 254 107.161Z" fill="#AF6152"/>
<path d="M200.37 121.851C200.035 119.544 199.315 117.309 198.24 115.241C196.6 111.881 196.42 107.691 195.9 104.711C195.11 100.301 195.43 97.8611 196.74 96.8311C198.062 96.1125 199.428 95.4779 200.83 94.9311C202.32 94.5111 204.76 93.8611 207.83 93.1411C211.569 92.4018 215.395 92.2031 219.19 92.5511C222.627 94.4331 225.704 96.9078 228.28 99.8611C230.68 102.451 232.61 107.221 229.02 111.491C229.22 112.391 229.76 112.491 230.43 118.661C231.79 121.101 233.1 122.031 232.79 125.051C232.79 125.051 228.69 132.391 217.91 133.661C205.77 135.081 201.39 131.151 200.05 130.401C198.29 129.381 200.72 124.271 200.37 121.851Z" fill="#F5F5F5"/>
<path d="M200 130.401C199.75 130.263 199.558 130.039 199.46 129.771C199.359 129.505 199.302 129.225 199.29 128.941C199.271 128.379 199.308 127.816 199.4 127.261C199.56 126.151 199.82 125.071 199.99 123.981C200.075 123.448 200.122 122.91 200.13 122.371C200.087 121.833 200.007 121.298 199.89 120.771C199.666 119.696 199.352 118.642 198.95 117.621C198.75 117.111 198.54 116.621 198.32 116.101C198.1 115.581 197.84 115.101 197.63 114.571C197.221 113.525 196.91 112.444 196.7 111.341C196.48 110.241 196.34 109.131 196.21 108.031C196.08 106.931 195.99 105.821 195.87 104.711C196.35 106.891 196.59 109.101 197.11 111.251C197.363 112.318 197.697 113.365 198.11 114.381C198.32 114.871 198.57 115.381 198.81 115.881C199.05 116.381 199.26 116.881 199.47 117.421C199.869 118.477 200.18 119.564 200.4 120.671C200.511 121.228 200.582 121.793 200.61 122.361C200.596 122.93 200.526 123.496 200.4 124.051C200.18 125.151 199.88 126.221 199.66 127.301C199.537 127.837 199.464 128.382 199.44 128.931C199.406 129.203 199.439 129.479 199.537 129.736C199.635 129.992 199.793 130.22 200 130.401Z" fill="#E0E0E0"/>
<path d="M223 113.271C222.91 107.941 221.51 105.841 220 103.611C219.77 103.261 219.53 102.911 219.29 102.531L218.81 102.841C219.04 103.221 219.28 103.581 219.52 103.941C221.01 106.181 222.3 108.121 222.4 113.281C222.47 117.511 223.78 125.351 224.97 131.651L225.51 131.391C224.39 125.141 223.11 117.431 223 113.271Z" fill="#E0E0E0"/>
<path d="M219.34 113.371C219.34 113.371 216.57 117.461 211.85 117.371C210.048 117.366 208.301 116.745 206.9 115.611C206.838 115.561 206.761 115.536 206.682 115.541C206.603 115.545 206.528 115.578 206.473 115.634C206.417 115.69 206.384 115.764 206.379 115.843C206.375 115.922 206.4 116 206.45 116.061C207.14 116.939 208.036 117.634 209.057 118.086C210.079 118.537 211.196 118.731 212.31 118.651C213.894 118.645 215.433 118.127 216.7 117.176C217.966 116.225 218.892 114.89 219.34 113.371Z" fill="#E0E0E0"/>
<path d="M196.54 66.0898C195.821 66.8061 195.271 67.6739 194.93 68.6298C194.16 70.6998 192.08 71.6998 190.93 73.5098C190.483 74.1272 190.173 74.833 190.022 75.5797C189.87 76.3265 189.879 77.097 190.05 77.8398C190.43 79.1498 191.46 80.1998 191.82 81.5098C192.27 83.1398 191.63 84.8798 191.91 86.5098C192.077 87.4464 192.521 88.3115 193.184 88.994C193.846 89.6765 194.698 90.1452 195.63 90.3398C196.893 90.4415 198.163 90.408 199.42 90.2398C200.65 90.3371 201.871 90.5344 203.07 90.8298C204.07 90.9598 206.25 90.6698 206.54 89.4598C206.599 88.8098 206.579 88.1549 206.48 87.5098C206.48 86.5898 206.39 85.6598 206.29 84.7398C205.92 81.1298 205.11 77.5798 204.41 74.0298C204.02 72.0998 204.59 70.3598 204.76 68.4198C204.85 67.4198 205.08 66.1398 204.28 65.3598C203.883 64.99 203.403 64.7223 202.88 64.5798C202.054 64.3303 201.187 64.247 200.329 64.3345C199.47 64.422 198.638 64.6787 197.88 65.0898C197.39 65.3611 196.939 65.6975 196.54 66.0898Z" fill="black"/>
<path d="M201.76 64.8214C201.199 65.1933 200.738 65.6983 200.42 66.2914C200.122 66.8851 199.958 67.5372 199.94 68.2014C199.906 68.5429 199.961 68.8873 200.1 69.2014C200.38 69.7314 201 69.7214 201.52 69.7014C202.141 69.6343 202.717 69.3427 203.14 68.8814C204.01 68.0514 205.08 66.5114 204.89 65.2214C204.73 64.1714 203.7 64.0714 202.89 64.3114C202.485 64.4122 202.103 64.5849 201.76 64.8214Z" fill="#0177AA"/>
<path d="M204.52 64.3704C204.868 64.1451 205.233 63.9446 205.61 63.7704C207.668 62.8343 209.921 62.4023 212.18 62.5104C213.82 62.5004 215.441 62.854 216.928 63.5456C218.415 64.2372 219.731 65.2498 220.78 66.5104C221.969 67.9402 222.608 69.7484 222.581 71.6082C222.553 73.4679 221.861 75.2564 220.63 76.6504C217.29 80.6504 210.41 81.0104 208.35 86.2804C208.019 87.3853 207.601 88.462 207.1 89.5004C207.03 89.6104 206.93 89.7304 206.8 89.7204C206.708 89.7043 206.626 89.6543 206.57 89.5804C203.34 86.2904 200.26 82.7504 198.36 78.5804C197.75 77.2827 197.53 75.8358 197.727 74.4156C197.924 72.9954 198.529 71.663 199.47 70.5804C199.766 70.2955 200.041 69.9879 200.29 69.6604C200.529 69.2405 200.726 68.7984 200.88 68.3404C201.669 66.6832 202.937 65.3005 204.52 64.3704Z" fill="black"/>
<path d="M217.12 69.3197C219.52 69.7897 220.39 72.9096 220.44 74.9996C220.769 76.5786 221.013 78.1743 221.17 79.7796C221.36 84.2796 220.23 87.6696 217.74 88.7796C216.634 89.2891 215.445 89.5909 214.23 89.6697V92.9996C215.818 94.219 217.106 95.7857 217.995 97.5797C218.884 99.3737 219.351 101.347 219.36 103.35C207.97 99.3497 203.92 93.7796 203.92 93.7796L203.65 84.4597C203.65 84.4597 202.76 85.5497 200.84 84.4597C199.28 83.5597 198.34 80.8196 199.57 79.2796C200.8 77.7396 202.57 78.0096 203.22 79.6096C203.48 80.2296 204.22 80.9496 204.79 80.2596C205.07 79.8349 205.194 79.3257 205.14 78.8197C205.151 78.5876 205.21 78.3603 205.314 78.1521C205.417 77.9439 205.562 77.7592 205.74 77.6096C205.973 77.2628 206.125 76.8675 206.184 76.4536C206.243 76.0397 206.207 75.6179 206.08 75.2196C205.817 74.4258 205.678 73.5959 205.67 72.7596C205.754 72.1683 205.998 71.6111 206.375 71.1477C206.752 70.6844 207.248 70.3325 207.81 70.1296C208.944 69.7396 210.176 69.7396 211.31 70.1296C212.2 70.4096 213.16 70.8496 214.01 70.4696C214.363 70.2667 214.698 70.0324 215.01 69.7696C215.626 69.3469 216.385 69.1852 217.12 69.3197Z" fill="#C8856A"/>
<path d="M204 93V93.8C204 93.8 209.59 97.32 219.44 103.37C215.53 103.24 209.73 103.68 207.51 102.48C207.04 102.22 208.01 99.87 208.01 99.87L200.07 95.22L204 93Z" fill="#E0E0E0"/>
<path d="M219.44 103.35C220.254 102.259 220.667 100.92 220.61 99.56C220.61 99.16 218.61 97.39 218.61 97.39L218.09 92.46L214.3 92V93C217.255 95.6796 219.091 99.3758 219.44 103.35Z" fill="#E0E0E0"/>
<path d="M212.07 82.9102L215.07 83.8401C215.019 84.0386 214.929 84.2247 214.804 84.3872C214.68 84.5496 214.523 84.685 214.344 84.7851C214.166 84.8852 213.969 84.9479 213.765 84.9694C213.561 84.9909 213.355 84.9707 213.16 84.9102C212.756 84.7808 212.417 84.5008 212.214 84.1284C212.011 83.756 211.96 83.3197 212.07 82.9102Z" fill="#AF6152"/>
<path d="M213.95 75.4395L214.64 81.7794L217.79 80.8195L213.95 75.4395Z" fill="#AF6152"/>
<path d="M211.82 77.3705C211.808 77.5653 211.74 77.7525 211.623 77.9088C211.506 78.0652 211.346 78.184 211.163 78.2506C210.979 78.3171 210.781 78.3286 210.591 78.2835C210.401 78.2384 210.228 78.1387 210.094 77.9968C209.96 77.8548 209.871 77.6768 209.837 77.4846C209.803 77.2925 209.826 77.0945 209.903 76.9153C209.98 76.736 210.108 76.5833 210.271 76.4758C210.434 76.3683 210.625 76.3109 210.82 76.3105C210.957 76.3103 211.092 76.338 211.217 76.392C211.342 76.4459 211.455 76.525 211.549 76.6243C211.643 76.7236 211.715 76.8411 211.762 76.9694C211.808 77.0978 211.828 77.2343 211.82 77.3705Z" fill="#263238"/>
<path d="M219.07 76.8596C219.047 76.9921 218.998 77.1186 218.925 77.2316C218.852 77.3446 218.758 77.4418 218.647 77.5174C218.536 77.593 218.41 77.6455 218.279 77.6716C218.147 77.6978 218.011 77.6971 217.88 77.6696C217.748 77.6458 217.623 77.5958 217.511 77.5226C217.399 77.4494 217.303 77.3546 217.228 77.2436C217.154 77.1327 217.102 77.0079 217.077 76.8767C217.051 76.7455 217.052 76.6104 217.08 76.4796C217.104 76.3491 217.153 76.2247 217.226 76.1136C217.298 76.0025 217.392 75.9069 217.502 75.8324C217.612 75.758 217.735 75.7061 217.865 75.6799C217.995 75.6537 218.129 75.6536 218.26 75.6796C218.391 75.7024 218.516 75.7513 218.629 75.8233C218.741 75.8953 218.838 75.9891 218.913 76.099C218.989 76.209 219.041 76.3329 219.068 76.4635C219.095 76.5942 219.096 76.7288 219.07 76.8596Z" fill="#263238"/>
<path d="M219.32 74.2713L216.79 73.6313C216.874 73.2958 217.089 73.0078 217.386 72.8306C217.684 72.6534 218.039 72.6015 218.375 72.6863C218.71 72.7712 218.998 72.9859 219.175 73.2831C219.353 73.5804 219.404 73.9358 219.32 74.2713Z" fill="#263238"/>
<path d="M208.86 75.6608L211.17 74.4508C211.009 74.1445 210.734 73.9145 210.404 73.8113C210.074 73.7082 209.716 73.7404 209.41 73.9008C209.103 74.0613 208.873 74.3368 208.77 74.6669C208.667 74.997 208.699 75.3545 208.86 75.6608Z" fill="#263238"/>
<path d="M214.28 89.6699C210.58 89.4699 207.65 88.6199 205.18 85.4199C205.518 86.855 206.35 88.1257 207.53 89.0099C209.48 90.6999 214.29 90.7099 214.29 90.7099L214.28 89.6699Z" fill="#AF6152"/>
<path d="M213.85 84.9999C213.832 84.6294 213.668 84.2809 213.395 84.0301C213.122 83.7793 212.76 83.6463 212.39 83.6599C212.277 83.6446 212.163 83.6446 212.05 83.6599C212.108 83.9478 212.241 84.2152 212.436 84.4348C212.631 84.6544 212.881 84.8183 213.16 84.9099C213.379 84.9947 213.616 85.0255 213.85 84.9999Z" fill="#FFA8A7"/>
<path d="M211.61 117.911C210.37 118.911 199.43 122.461 199.43 122.461L199.86 111.561C199.86 111.561 202.27 101.371 197.25 97.5605C192.58 98.7105 190.95 99.3205 189.52 103.751C188.09 108.181 187.67 128.001 188.12 131.001C188.63 134.361 188.84 137.301 194.27 136.141C199.7 134.981 209.39 127.221 215.44 124.311L211.61 117.911Z" fill="#C8856A"/>
<path d="M199.52 121.281L199.43 122.461C197.01 123.461 194.53 125.551 194.1 127.001C194.3 124.771 195.26 123.001 199.52 121.281Z" fill="#AF6152"/>
<path d="M222.62 110.509C215.62 104.559 195.78 92.7595 180.03 90.1895L180.29 93.9495C204.29 98.9495 228.2 118.949 232.77 125.049L234.37 122.419C234.37 122.419 231.05 117.689 222.62 110.509Z" fill="black"/>
<path d="M218.53 109.889C219.557 108.752 220.78 107.807 222.14 107.099C223.03 106.719 226.14 104.969 227.3 104.509C228.06 104.209 228.54 105.419 227.64 106.409C226.571 107.318 225.434 108.144 224.24 108.879C223.365 109.756 222.596 110.733 221.95 111.789L218.53 109.889Z" fill="#AF6152"/>
<path d="M227.6 113.31C227.464 113.181 227.286 113.106 227.1 113.1C227.099 112.761 227.045 112.423 226.94 112.1C226.65 110.93 225.57 111.1 224.83 111.1C224.814 110.891 224.745 110.689 224.63 110.514C224.514 110.339 224.356 110.197 224.17 110.1C223.54 109.8 222.92 109.65 220.17 109.58C219.32 109.58 218.48 109.45 217.03 111.23C215.97 112.54 212.87 116.85 211.64 117.87L215.47 124.29C216.595 123.803 217.763 123.421 218.96 123.15C221.81 122.09 221.53 118.95 223.55 117.1L224.55 116.91C224.55 116.91 224.31 117.7 225.05 117.71C225.397 117.759 225.751 117.73 226.087 117.627C226.422 117.523 226.73 117.347 226.99 117.11C227.56 116.48 228.29 113.93 227.6 113.31Z" fill="#C8856A"/>
<path d="M224.83 111.129L221.51 110.889L224.71 110.689C224.776 110.828 224.817 110.977 224.83 111.129Z" fill="#AF6152"/>
<path d="M227.1 113.1H223.31L227.05 112.68C227.081 112.818 227.098 112.958 227.1 113.1Z" fill="#AF6152"/>
<path d="M226.81 114.801C226.714 115.006 226.561 115.179 226.37 115.301C226.179 115.425 225.974 115.525 225.76 115.601C225.69 115.801 225.6 116.011 225.52 116.211L225.43 116.121C225.531 116.092 225.637 116.083 225.742 116.095C225.847 116.107 225.948 116.14 226.04 116.191C226.21 116.3 226.346 116.457 226.43 116.641C226.316 116.489 226.169 116.366 226 116.281C225.832 116.221 225.648 116.221 225.48 116.281L225.34 116.331L225.39 116.191C225.47 115.981 225.54 115.781 225.63 115.571C225.834 115.506 226.032 115.423 226.22 115.321C226.468 115.216 226.675 115.034 226.81 114.801Z" fill="#AF6152"/>
<path d="M225.88 115.41C225.442 115.522 224.998 115.609 224.55 115.67C224.501 115.958 224.369 116.226 224.17 116.44C223.968 116.687 223.751 116.921 223.52 117.14L224.52 116.95C224.64 116.751 224.799 116.579 224.988 116.445C225.178 116.311 225.393 116.217 225.62 116.17L225.88 115.41Z" fill="#AF6152"/>
<path d="M234.37 122.42L232.77 125.05C220.77 136.64 190.25 139.86 190.25 139.86L195.44 142.6C195.44 142.6 212.34 139.88 221.95 135.95C231.26 132.13 235.46 126.5 235.46 126.5L234.37 122.42Z" fill="black"/>
<path d="M54.93 116.19L93.29 94.0305L71.98 81.7305L51.23 94.8305L54.93 116.19Z" fill="#263238"/>
<path d="M71.0998 110.931L65.5898 100.001L78.6998 92.4106C82.8698 90.0106 88.4298 90.2806 94.5198 93.8006C107.52 101.281 117.97 120.561 117.97 136.871C117.97 145.411 115.09 151.441 110.49 154.171L110.31 154.281L96.8698 162.041L90.9998 150.511C79.9998 142.081 71.5298 125.481 71.0998 110.931Z" fill="#37474F"/>
<path d="M71.0998 110.931L65.5898 100.001L78.6998 92.4106C82.8698 90.0106 88.4298 90.2806 94.5198 93.8006C107.52 101.281 117.97 120.561 117.97 136.871C117.97 145.411 115.09 151.441 110.49 154.171L110.31 154.281L96.8698 162.041L90.9998 150.511C79.9998 142.081 71.5298 125.481 71.0998 110.931Z" fill="#263238"/>
<path d="M57.4399 117.66C57.4399 131.72 65.2399 148 75.6999 157C75.6999 157 75.6999 157 75.6999 157.05C77.3006 158.427 79.0207 159.659 80.8399 160.73C93.8399 168.21 104.3 161.04 104.29 144.73C104.29 132.4 98.2899 118.37 89.7799 109.03L89.7099 108.96C87.1437 106.088 84.1522 103.626 80.8399 101.66C67.9299 94.1902 57.4399 101.35 57.4399 117.66Z" fill="#37474F"/>
<path d="M80.88 111.51C72.64 106.75 65.96 111.71 65.96 122.58C65.96 133.45 72.64 146.13 80.88 150.89C89.12 155.65 95.8 150.69 95.8 139.81C95.8 128.93 89.12 116.27 80.88 111.51Z" fill="#455A64"/>
<path d="M74.1601 128.141C74.6901 133.551 78.1601 139.311 81.8301 141.001C82.4603 141.361 83.184 141.524 83.9077 141.469C84.6314 141.413 85.3219 141.142 85.8901 140.691C87.2101 139.581 87.8901 137.301 87.6001 134.261C87.0701 128.851 83.6501 123.081 79.9301 121.401C79.0911 120.964 78.1292 120.823 77.2001 121.001C75.0501 121.541 73.7801 124.201 74.1601 128.141Z" fill="#FAFAFA"/>
<path d="M75.5002 127.451C76.0202 132.861 79.5002 138.621 83.1702 140.311C84.0096 140.736 84.9665 140.869 85.8902 140.691C87.2102 139.581 87.8902 137.301 87.6002 134.261C87.0702 128.851 83.6502 123.081 79.9302 121.401C79.0912 120.964 78.1293 120.823 77.2002 121.001C75.8902 122.141 75.2002 124.421 75.5002 127.451Z" fill="#E0E0E0"/>
<path d="M57.4399 117.66C57.4399 131.72 65.2399 148 75.6999 157C68.4409 148.787 63.3318 138.902 60.8299 128.23C58.8299 118.82 59.5899 105.33 67.6599 101.92C75.7299 98.5102 86.3799 105.7 89.7499 109C87.1837 106.128 84.1922 103.666 80.8799 101.7C67.9299 94.1902 57.4399 101.35 57.4399 117.66Z" fill="#455A64"/>
<path d="M51.07 63.0007C55.82 51.7707 75.65 40.1107 84.07 44.3407C86.71 45.6507 94.2 50.1907 103.63 55.6307C103.63 55.6307 134.63 74.4007 137.53 76.0507C137.53 76.0507 122.69 75.8007 119.33 77.0507C115.97 78.3007 116.62 80.8507 116.85 81.8007L118.54 87.3007C122.4 106.111 156.83 122.451 156.83 122.451C156.83 122.451 162.27 125.391 166.03 127.331C169.79 129.271 191.16 140.601 194.33 142.431C200.03 145.721 209.27 149.921 209.27 149.921V205.101L111.77 149.201C111.772 147.688 111.695 146.176 111.54 144.671C109.8 126.731 96.65 105.921 82.54 97.7807C67.23 88.9407 54.83 97.2008 54.83 116.231L52.35 114.801C43.57 109.451 46.33 74.2207 51.07 63.0007Z" fill="#E0E0E0"/>
<path d="M126 106.26C128.68 108.26 144 117.38 146.08 118.73C144.84 119.93 143.922 121.422 143.41 123.07C143.41 123.07 89.16 91.7498 75.92 80.0698C62.68 68.3898 55.42 57.4198 65.63 51.7398C68.74 50.0098 71.63 47.7398 75.4 49.0898C75.676 49.1774 75.9312 49.3203 76.15 49.5098C76.4762 49.8947 76.6906 50.3616 76.77 50.8598C79.77 62.5198 89.32 71.2498 97.02 80.0698C104.54 88.6698 116.48 99.1698 126 106.26Z" fill="#EBEBEB"/>
<path d="M120.24 96.7109L126.24 100.451C139.24 111.244 149.443 118.578 156.85 122.451C166.05 127.231 207.5 149.031 207.5 149.031V199.431C207.481 199.694 207.395 199.948 207.251 200.168C207.107 200.389 206.91 200.57 206.677 200.694C206.445 200.818 206.184 200.88 205.921 200.876C205.657 200.872 205.399 200.802 205.17 200.671C192.3 193.351 130.4 158.101 122.8 153.401C114.32 148.161 114.15 145.881 111.8 136.011C108.8 123.561 103.29 115.421 100.08 109.461C97.2201 104.121 113.73 100.321 120.24 96.7109Z" fill="#0177AA"/>
<path opacity="0.15" d="M128 107.111C125 104.831 119.65 101.351 116.32 98.541C113.73 99.601 110.73 100.701 108 101.861C125.67 112.861 143.41 123.071 143.41 123.071C143.922 121.423 144.84 119.931 146.08 118.731C143.91 117.381 130.65 109.121 128 107.111Z" fill="white"/>
<path d="M114.3 144.939L202.57 195.939V193.649L113.31 142.119C113.586 143.077 113.917 144.019 114.3 144.939Z" fill="#455A64"/>
<path opacity="0.15" d="M207.51 153.44L155.26 123.5C154.727 123.902 154.303 124.431 154.027 125.039C153.751 125.647 153.632 126.314 153.68 126.98L207.51 153.44Z" fill="white"/>
<path d="M105.14 76.2809C111.14 76.2809 111.38 79.4008 113.33 85.5808C114.87 90.4308 117.24 94.7309 114.33 93.3109C111.42 91.8909 101.47 81.2309 99.6102 79.3809C95.8002 75.5709 102.41 76.2809 105.14 76.2809Z" fill="black"/>
<path d="M76 43.8897C79.16 43.1797 82 43.2297 84.17 44.3097C86.81 45.6197 94.3 50.1597 103.73 55.5997L116.44 62.9097L184.13 23.9097C184.13 23.9097 157.87 10.5097 148.55 6.90971C139.23 3.30971 78.62 36.8997 76 43.8897Z" fill="#EBEBEB"/>
<path d="M163 135.43C163.049 135.458 163.104 135.473 163.161 135.473C163.217 135.473 163.272 135.458 163.321 135.429C163.37 135.401 163.41 135.36 163.438 135.311C163.466 135.262 163.48 135.206 163.48 135.15V133.66C163.48 132.53 161.79 130.66 159.71 129.43L156.63 127.66C154.55 126.45 152.86 126.39 152.86 127.52V128.74C152.86 128.991 152.926 129.237 153.05 129.454C153.175 129.672 153.354 129.853 153.57 129.98L163 135.43Z" fill="#263238"/>
<path opacity="0.15" d="M96.5002 94.8293C94.6202 97.2693 93.2902 103.759 93.2902 103.759C94.7451 101.077 96.4422 98.5329 98.3602 96.1593C100.51 93.8693 108.3 91.1593 108.3 91.1593C108.3 91.1593 98.3702 92.3893 96.5002 94.8293ZM52.3102 85.4393C50.1802 81.7193 49.3102 69.2893 49.3102 69.2893C49.3102 69.2893 48.4602 83.5193 50.9302 86.9293C53.4002 90.3393 64.3702 94.8293 64.3702 94.8293C64.3702 94.8293 54.4402 89.1693 52.3102 85.4393ZM106.31 60.2493C94.0802 52.9993 83.0002 46.8693 81.3802 47.7893C76.1602 50.7893 84.6302 59.8393 95.9202 69.1393L106.31 60.2493ZM146.22 131.359C147.22 138.919 148.93 163.009 148.93 163.009C148.93 163.009 149.03 141.369 149.03 132.259C149.03 124.679 152.03 121.189 152.03 121.189L149.03 119.539C149.03 119.539 145.19 123.799 146.22 131.359ZM204.7 162.639C205.7 170.199 207.42 194.289 207.42 194.289C207.42 194.289 207.51 172.649 207.51 163.539C207.51 155.959 210.51 152.469 210.51 152.469L207.51 150.819C207.51 150.819 203.68 155.079 204.7 162.639ZM156.84 7.71934C152.28 10.4093 212.98 37.2293 212.98 37.2293L225.69 23.1393C225.69 23.1393 161.4 4.99934 156.84 7.71934Z" fill="black"/>
<path d="M254.68 18.7301L156.88 75.1901L154.93 76.3201C151.235 75.3768 147.458 74.7874 143.65 74.5601C133.5 73.6601 122.1 76.2901 122.1 76.2901L92.3002 70.0001C91.8002 69.8901 89.6202 69.3701 89.0402 69.1901C88.6872 69.1077 88.3632 68.931 88.1029 68.6787C87.8426 68.4265 87.6557 68.1083 87.5623 67.7581C87.4688 67.4078 87.4723 67.0388 87.5723 66.6904C87.6723 66.342 87.8652 66.0274 88.1302 65.7801C96.4602 57.7801 106.63 52.0201 116.4 45.9901C126.17 39.9601 135.82 34.1301 145.66 28.4101C154.19 23.4101 162.76 18.5101 171.61 14.1501C173.464 13.2501 175.34 12.4134 177.24 11.6401C177.75 11.4401 178.24 11.2501 178.65 11.1101H178.76C179.94 10.7401 181.41 10.3201 183.11 9.88009C191.82 7.62009 206.66 4.88008 219.7 5.67008C224.9 5.89008 254.68 18.7301 254.68 18.7301Z" fill="#E0E0E0"/>
<path d="M254.68 18.7294L156.88 75.1894C150.99 72.7894 146.5 73.7094 137.15 73.6694C130.24 73.6694 123.39 73.7994 117.05 75.2194L96.46 70.8194C104.7 67.9894 120.9 66.4694 128.58 62.5894C135.21 59.2294 141.71 55.5194 148.19 51.8294C165.99 41.6594 182.77 32.0194 200.45 20.2594C216.94 9.2594 219.35 5.8694 226.08 7.0394C227.86 7.5894 230.71 8.41941 232.9 9.24941C239.63 11.7694 243.01 13.1894 249.9 16.3394C252.8 17.6894 254.66 18.7194 254.68 18.7294Z" fill="#F5F5F5"/>
<path d="M107.09 65.6393C118.409 63.6594 129.26 59.5901 139.09 53.6393C146.23 49.5193 179.81 29.1093 192.09 21.9993C204.37 14.8893 207.97 11.4193 201.82 11.1793C198.2 11.1293 191.5 12.3093 187.47 12.9493C180.668 14.0322 174.148 16.4557 168.29 20.0793C152.15 29.3993 137.36 38.5493 116.57 50.5493C82.3802 70.3093 93.0002 67.9393 107.09 65.6393Z" fill="#455A64"/>
<path d="M156.88 75.1895C152.99 73.1895 145.31 72.9595 139.24 72.9395C131.74 72.9395 119.36 73.5194 115.3 76.0394C112.77 77.6094 114.9 80.6494 116.89 88.1494C118.57 94.4594 119.81 96.9895 124.17 100.569C132.23 107.199 152.36 119.639 156.86 122.419L156.88 75.1895ZM150.43 114.589C144.33 110.589 127.77 100.239 124.85 97.8694C121.09 94.8194 118.33 82.2094 117.62 79.1694C116.73 75.3394 144.84 76.0094 149.03 76.7294C152.41 77.3094 153.47 78.9494 153.32 83.0894C153.32 90.9194 153.32 104.809 153.32 111.429C153.34 114.049 152.84 116.189 150.43 114.589Z" fill="#37474F"/>
<path opacity="0.5" d="M117.62 79.1699C118.33 82.1699 121.09 94.8199 124.85 97.8699C127.77 100.24 144.33 110.56 150.43 114.59C152.84 116.19 153.34 114.05 153.34 111.43C153.34 104.81 153.34 90.9199 153.34 83.0899C153.49 78.9499 152.43 77.3099 149.05 76.7299C144.84 75.9999 116.73 75.3399 117.62 79.1699Z" fill="black"/>
<path d="M228.1 152.919C245.285 140.081 263.133 128.155 281.57 117.189C309.66 100.799 339.35 91.1895 339.41 91.1895C338.6 94.1895 333.81 99.0495 327.36 104.289C322.8 108.009 317.65 111.809 311.69 115.809C297.63 125.629 284.3 132.399 279.48 135.289C255.3 148.399 230.69 158.589 226.63 153.759L228.1 152.919Z" fill="#455A64"/>
<path d="M226.63 153.74C227.78 153.02 266.02 129.45 283.69 118.83C300.51 108.71 335.19 93.0799 339.4 91.1699C319.283 97.8311 299.904 106.544 281.57 117.17C262.654 128.43 244.318 140.635 226.63 153.74Z" fill="#37474F"/>
<path d="M209.36 205.06L247.73 182.91L226.42 170.6L209.36 180.48V205.06Z" fill="#263238"/>
<path d="M225.16 199.55L219.65 188.61L232.76 181C236.93 178.6 242.48 178.88 248.58 182.4C261.53 189.87 272.03 209.16 272.03 225.47C272.03 234.01 269.15 240.03 264.55 242.77L264.36 242.87L250.92 250.63L245.11 239.08C234.08 230.71 225.59 214.1 225.16 199.55Z" fill="#37474F"/>
<path d="M225.16 199.55L219.65 188.61L232.76 181C236.93 178.6 242.48 178.88 248.58 182.4C261.53 189.87 272.03 209.16 272.03 225.47C272.03 234.01 269.15 240.03 264.55 242.77L264.36 242.87L250.92 250.63L245.11 239.08C234.08 230.71 225.59 214.1 225.16 199.55Z" fill="#263238"/>
<path d="M211.49 206.29C211.49 220.35 219.3 236.63 229.75 245.63C229.767 245.626 229.784 245.626 229.8 245.63C231.396 247.015 233.117 248.251 234.94 249.32C247.89 256.8 258.39 249.63 258.38 233.32C258.38 221 252.38 206.97 243.88 197.63L243.81 197.56C241.241 194.688 238.25 192.223 234.94 190.25C222 182.82 211.49 190 211.49 206.29Z" fill="#37474F"/>
<path d="M234.94 200.141C226.7 195.381 220.02 200.341 220.02 211.211C220.02 222.081 226.7 234.761 234.94 239.511C243.18 244.261 249.86 239.311 249.86 228.441C249.86 217.571 243.18 204.891 234.94 200.141Z" fill="#455A64"/>
<path d="M228.2 216.82C228.76 222.22 232.25 227.96 235.97 229.61C236.601 229.968 237.325 230.127 238.047 230.066C238.77 230.005 239.458 229.728 240.02 229.27C241.33 228.16 242.02 225.87 241.68 222.83C241.11 217.43 237.68 211.69 233.91 210.03C233.069 209.608 232.11 209.485 231.19 209.68C229 210.21 227.79 212.88 228.2 216.82Z" fill="#FAFAFA"/>
<path d="M229.53 216.12C230.09 221.52 233.58 227.26 237.3 228.92C238.142 229.337 239.099 229.46 240.02 229.27C241.33 228.16 242.02 225.87 241.68 222.83C241.11 217.43 237.68 211.69 233.91 210.03C233.069 209.608 232.11 209.485 231.19 209.68C229.88 210.8 229.21 213.09 229.53 216.12Z" fill="#E0E0E0"/>
<path d="M211.49 206.29C211.49 220.35 219.3 236.63 229.75 245.63C222.499 237.408 217.391 227.522 214.88 216.85C212.88 207.45 213.65 193.95 221.72 190.54C229.79 187.13 240.44 194.32 243.81 197.6C241.241 194.728 238.25 192.263 234.94 190.29C222 182.82 211.49 190 211.49 206.29Z" fill="#455A64"/>
<path d="M209.3 149.89C209.3 149.89 211.52 149.46 211 147.53C211 147.53 224.07 153.53 226.81 154.42C232.81 156.42 255.3 148.42 279.47 135.26C284.31 132.38 297.62 125.61 311.69 115.79C317.64 111.79 322.79 107.99 327.37 104.27C331.251 101.137 334.812 97.6264 338 93.7904C338.77 92.8504 340.36 90.2604 339.42 88.1504C387.42 122.25 413.65 136.37 408.02 175.27C407.761 178.159 407.354 181.033 406.8 183.88C405.22 192.65 400.53 207.57 388.47 216.09C377.4 223.9 376.63 224.47 361.62 232.57C346.61 240.67 326.37 246.57 306.62 245.95C284.41 245.23 264.97 236.77 264.37 231.63C264.105 229.316 263.691 227.021 263.13 224.76C261.69 218.913 259.491 213.278 256.59 208C252.16 199.93 246.23 192.85 239.59 188.26C238.72 187.66 237.84 187.1 236.96 186.59C222.69 178.35 210.96 184.98 209.42 201.35C209.301 202.58 209.245 203.815 209.25 205.05L209.3 149.89Z" fill="#EBEBEB"/>
<path d="M362.67 207.711C339.41 218.711 310.03 219.921 289.2 204.831C280.86 198.831 274.39 190.601 267.2 183.241C255.814 171.598 242.565 161.936 228 154.651C227.6 154.613 227.205 154.536 226.82 154.421C224.08 153.511 211.01 147.531 211.01 147.531C211.53 149.461 209.31 149.891 209.31 149.891V205.071C209.304 203.836 209.361 202.601 209.48 201.371C210.99 185.001 222.75 178.371 237.02 186.611C237.9 187.121 238.78 187.681 239.65 188.281C246.25 192.871 252.18 199.951 256.65 208.021C259.557 213.292 261.762 218.919 263.21 224.761C263.771 227.022 264.185 229.317 264.45 231.631C265.05 236.771 284.45 245.231 306.7 245.951C326.41 246.581 346.65 240.671 361.7 232.571C376.75 224.471 377.48 223.901 388.55 216.091C400.61 207.571 405.3 192.651 406.88 183.881C407.433 181.034 407.841 178.16 408.1 175.271C408.28 174.021 408.43 172.801 408.54 171.601C395.16 186.161 380.38 199.341 362.67 207.711Z" fill="#E0E0E0"/>
<path d="M353.4 214.08C347.62 216.44 342.4 214.56 336.14 209.42C329.88 204.28 322.73 194.36 314.62 187.21C306.51 180.06 267.62 151.83 267.62 151.83C264.066 153.233 260.381 154.282 256.62 154.96C265.08 157.22 265.62 154.85 274.54 160.77C283.46 166.69 306.86 184.23 314.62 192.21C321.62 199.39 327.81 210.21 332.4 215.91C336.99 221.61 346.36 217.42 353.4 214.08Z" fill="#F5F5F5"/>
<path d="M340.53 235.09C354.36 231.65 364.4 226.2 374.21 220.42C384.02 214.64 390.41 209.23 394.06 204.64C397.51 200.31 399.61 194.64 397.43 195.47C393.81 198.59 385.98 205.21 380.99 208.24C366.05 217.29 350.2 228.51 325.81 228.93C324.235 228.869 322.658 228.989 321.11 229.29C315.16 231.07 331.13 237.44 340.53 235.09Z" fill="#455A64"/>
<path d="M290.26 223.999C291.62 223.809 295.01 224.719 300.77 226.379C306.53 228.039 307.93 228.189 310.07 229.659C311.88 230.909 316.71 234.839 319.07 236.039C322.76 237.949 319.07 239.329 308.73 239.339C298.39 239.349 294.9 236.249 292.52 233.079C290.14 229.909 287.16 224.419 290.26 223.999Z" fill="#455A64"/>
<path d="M407.73 177.77C407.55 179.19 407.26 181.22 406.73 183.88C405.932 188.237 404.692 192.503 403.03 196.61C402.538 197.192 401.866 197.593 401.12 197.75C399.36 197.63 400.87 194.6 402.12 190.07C403.37 185.54 406.59 181.13 407.73 177.77Z" fill="#455A64"/>
<path opacity="0.85" d="M336.1 201.821C338.323 204.814 341.147 207.311 344.39 209.151C346.59 210.351 350.57 209.971 352.91 209.081C366.077 204.088 377.053 197.818 385.84 190.271C387.73 188.641 389.96 185.271 390.03 182.811C390.178 178.905 389.626 175.003 388.4 171.291C387.48 168.961 383.9 169.291 381.89 170.801C368.19 180.699 353.498 189.144 338.05 196.001C335.77 197.051 334.62 199.791 336.1 201.821ZM338.19 199.581C338.267 199.339 338.396 199.116 338.569 198.929C338.742 198.743 338.954 198.597 339.19 198.501C354.795 191.549 369.64 183.004 383.49 173.001C384.03 172.611 385.49 171.501 385.89 172.391C386.959 175.729 387.44 179.228 387.31 182.731C387.31 184.161 385.69 186.821 384.06 188.211C375.56 195.511 364.76 201.681 351.94 206.551C350.711 206.974 349.42 207.19 348.12 207.191C347.291 207.236 346.463 207.089 345.7 206.761C342.804 205.117 340.281 202.89 338.29 200.221C338.22 200.132 338.175 200.026 338.157 199.914C338.14 199.802 338.151 199.688 338.19 199.581Z" fill="#263238"/>
<path d="M338.29 200.21C340.281 202.879 342.804 205.106 345.7 206.75C346.463 207.078 347.291 207.225 348.12 207.18C349.42 207.179 350.711 206.963 351.94 206.54C364.76 201.67 375.56 195.54 384.06 188.2C385.69 186.81 387.27 184.15 387.31 182.72C387.44 179.217 386.959 175.718 385.89 172.38C385.46 171.49 384.03 172.6 383.49 172.99C369.634 182.997 354.782 191.546 339.17 198.5C338.934 198.595 338.722 198.742 338.549 198.928C338.376 199.115 338.247 199.338 338.17 199.58C338.136 199.687 338.129 199.8 338.15 199.91C338.17 200.02 338.219 200.123 338.29 200.21Z" fill="black"/>
<path d="M337.4 200.771L337.26 200.341C346.605 196.474 355.685 191.994 364.44 186.931C363.75 185.551 363.28 184.711 363.26 184.691L365.63 183.341C365.69 183.441 366.13 184.231 366.78 185.511C376.88 179.251 386.54 172.301 386.64 172.221L386.91 172.591C386.81 172.661 377.11 179.641 366.98 185.921C367.16 186.291 367.36 186.691 367.56 187.121C377.67 180.871 386.74 174.261 386.83 174.191L387.1 174.551C387.01 174.621 377.89 181.261 367.76 187.551L368.31 188.771C378.45 182.501 386.94 176.231 387.02 176.161L387.29 176.531C387.21 176.591 378.67 182.901 368.5 189.191L369.02 190.431C379.22 184.141 387.13 178.191 387.21 178.131L387.48 178.491C387.4 178.551 379.48 184.491 369.2 190.861L369.7 192.111C380 185.771 387.33 180.111 387.4 180.111L387.67 180.471C387.6 180.531 380.22 186.191 369.86 192.571C370.02 192.991 370.17 193.411 370.32 193.851C376.283 190.211 382.048 186.255 387.59 182.001L387.87 182.361C382.294 186.608 376.5 190.56 370.51 194.201C370.65 194.631 370.8 195.061 370.94 195.501L371.22 195.331C376.959 191.891 382.486 188.107 387.77 184.001L388.06 184.351C382.748 188.481 377.195 192.291 371.43 195.761L371.05 195.981C371.37 196.981 371.66 198.071 371.92 199.141L369.27 199.771C369.08 198.981 368.86 198.191 368.63 197.411C361.209 201.631 353.493 205.308 345.54 208.411L345.39 207.981C353.351 204.882 361.075 201.206 368.5 196.981C368.373 196.541 368.233 196.111 368.08 195.691C360.398 200.085 352.411 203.921 344.18 207.171L344.04 206.741C352.267 203.485 360.251 199.646 367.93 195.251C367.79 194.821 367.64 194.391 367.48 193.971C359.557 198.524 351.319 202.508 342.83 205.891L342.68 205.461C351.167 202.081 359.402 198.097 367.32 193.541C367.16 193.111 366.99 192.701 366.83 192.281C358.679 196.987 350.205 201.107 341.47 204.611L341.32 204.181C350.048 200.68 358.516 196.563 366.66 191.861L366.14 190.621C357.771 195.442 349.085 199.689 340.14 203.331L340 202.901C348.947 199.269 357.635 195.025 366 190.201C365.81 189.771 365.63 189.361 365.45 188.971C356.865 193.917 347.962 198.29 338.8 202.061L338.65 201.631C347.8 197.869 356.689 193.502 365.26 188.561L364.68 187.351C355.891 192.418 346.778 196.901 337.4 200.771Z" fill="#263238"/>
<path d="M408.08 170C405.18 178.31 394.97 191 379.82 199.87C364.67 208.74 345 221 322.74 221.72C300.48 222.44 277.84 212.72 277.84 212.72C291.621 220.295 307.028 224.432 322.75 224.78C348.92 225.36 365.04 213.78 380.59 204.33C396.75 194.53 406.24 180.57 408.08 170Z" fill="#455A64"/>
<path opacity="0.15" d="M261.46 215.91C269.72 210.183 278.832 205.796 288.46 202.91C278.162 203.757 268.543 208.388 261.46 215.91ZM268.6 208.8C263.92 193.19 251.87 183.87 242.79 183.15C251.17 186.07 261.22 196.63 266.52 210.09C267.24 209.61 268.6 208.8 268.6 208.8ZM267.6 213.01C269.339 218.09 270.231 223.421 270.24 228.79C270.907 223.209 270.643 217.556 269.46 212.06L267.6 213.01Z" fill="black"/>
<path d="M196.16 150.561C197.93 159.001 207.29 160.791 214.3 160.561C218.02 160.451 221.07 159.771 222 159.241C224.71 157.671 223.46 154.431 222 152.551C219.55 149.371 208.53 142.991 201.61 142.771C197.57 142.651 194.92 144.631 196.16 150.561Z" fill="#263238"/>
<path d="M196.16 150.561C197.93 159.001 207.29 160.791 214.3 160.561C218.02 160.451 221.07 159.771 222 159.241C224.71 157.671 223.46 154.431 222 152.551C223.37 155.131 216.15 156.731 209.72 154.421C203.29 152.111 198.49 147.141 201.61 142.771C197.57 142.651 194.92 144.631 196.16 150.561Z" fill="#455A64"/>
<path d="M196.16 150.561C197.93 159.001 207.29 160.791 214.3 160.561C207.3 160.361 201.76 156.341 199.66 151.951C197.56 147.561 199.16 143.331 201.66 142.771C197.57 142.651 194.92 144.631 196.16 150.561Z" fill="#37474F"/>
<path d="M362.66 178.671C352 159.121 329.1 142.941 309.9 132.301C328.37 146.211 348.73 159.961 362.66 178.671Z" fill="#F5F5F5"/>
<path d="M388.06 194.291C393.77 188.551 395.32 174.221 390.06 164.231C385.06 154.671 366.89 136.611 355.76 126.341C344.63 116.071 338.76 110.541 339.19 106.131C339.523 103.335 340.363 100.624 341.67 98.1309C341.67 98.1309 338.77 107.531 348.73 116.341C358.69 125.151 382.17 148.591 388.07 156.761C392.24 162.531 397.97 171.411 397.33 180.361C397.06 184.061 395.73 188.451 388.06 194.291Z" fill="#F5F5F5"/>
<path d="M317.85 204.28C319.06 204.177 320.276 204.401 321.371 204.929C322.465 205.457 323.397 206.269 324.07 207.28C326.28 210.64 329.39 215.45 329.74 216.97C330.27 219.26 326.95 220.35 320.27 220.39C313.59 220.43 299.36 218.63 292.15 216.31C283.48 213.53 287.15 207.15 298.58 206C306.18 205.27 313.5 204.64 317.85 204.28Z" fill="#FAFAFA"/>
<path d="M298.58 206.001L300.52 205.811C303.493 208.832 305.339 212.782 305.75 217.001C305.825 217.722 305.825 218.449 305.75 219.171C301.161 218.576 296.624 217.63 292.18 216.341C283.48 213.561 287.19 207.181 298.58 206.001Z" fill="#0177AA"/>
<path opacity="0.6" d="M298.58 206.001L300.52 205.811C303.493 208.832 305.339 212.782 305.75 217.001C305.825 217.722 305.825 218.449 305.75 219.171C301.161 218.576 296.624 217.63 292.18 216.341C283.48 213.561 287.19 207.181 298.58 206.001Z" fill="white"/>
<path d="M396.32 162C395.639 163.49 395.542 165.182 396.05 166.74C398.42 173.74 398.16 178.09 399.16 180.28C400.27 182.71 404.93 174.94 406.26 169.62C407.59 164.3 406.83 156.06 404.77 150.09C402.71 144.12 401.15 149.35 399.82 152.83C398.79 155.52 397.61 159.11 396.32 162Z" fill="#FAFAFA"/>
<path d="M400.77 150.321C401.89 147.531 403.18 145.461 404.77 150.081C406.367 154.914 407.082 159.995 406.88 165.081C406.15 161.71 405.067 158.425 403.65 155.281C402.94 153.495 401.969 151.823 400.77 150.321Z" fill="#0177AA"/>
<path opacity="0.6" d="M400.77 150.321C401.89 147.531 403.18 145.461 404.77 150.081C406.367 154.914 407.082 159.995 406.88 165.081C406.15 161.71 405.067 158.425 403.65 155.281C402.94 153.495 401.969 151.823 400.77 150.321Z" fill="white"/>
</svg>
