<svg width="308" height="190" viewBox="0 0 308 190" fill="none" xmlns="http://www.w3.org/2000/svg">
<g clip-path="url(#clip0_9241_35276)">
<path d="M299.137 134.803H218.893C218.204 134.802 217.543 134.527 217.055 134.04C216.567 133.552 216.293 132.891 216.292 132.201V15.305C216.293 14.6153 216.567 13.9542 217.055 13.4665C217.543 12.9788 218.204 12.7043 218.893 12.7031H299.137C299.828 12.7031 300.49 12.9771 300.979 13.4649C301.467 13.9527 301.743 14.6145 301.744 15.305V132.201C301.743 132.892 301.467 133.554 300.979 134.041C300.49 134.529 299.828 134.803 299.137 134.803ZM218.893 12.8141C218.233 12.8141 217.599 13.0766 217.132 13.5437C216.665 14.0108 216.403 14.6444 216.403 15.305V132.201C216.403 132.862 216.665 133.495 217.132 133.963C217.599 134.43 218.233 134.692 218.893 134.692H299.137C299.798 134.692 300.432 134.43 300.9 133.963C301.368 133.496 301.632 132.862 301.633 132.201V15.305C301.632 14.6439 301.368 14.0104 300.9 13.5434C300.432 13.0764 299.798 12.8141 299.137 12.8141H218.893Z" fill="#E0E0E0"/>
<path d="M206.597 134.803H126.344C125.654 134.802 124.993 134.527 124.506 134.04C124.018 133.552 123.743 132.891 123.742 132.201V15.305C123.743 14.6153 124.018 13.9542 124.506 13.4665C124.993 12.9788 125.654 12.7043 126.344 12.7031H206.597C207.287 12.7043 207.948 12.9788 208.436 13.4665C208.923 13.9542 209.198 14.6153 209.199 15.305V132.201C209.198 132.891 208.923 133.552 208.436 134.04C207.948 134.527 207.287 134.802 206.597 134.803ZM126.344 12.8141C125.688 12.8211 125.06 13.0865 124.598 13.5527C124.136 14.019 123.877 14.6485 123.875 15.305V132.201C123.877 132.862 124.139 133.494 124.606 133.961C125.073 134.428 125.706 134.691 126.366 134.692H206.597C207.257 134.691 207.89 134.428 208.357 133.961C208.824 133.494 209.087 132.862 209.088 132.201V15.305C209.087 14.6447 208.824 14.0118 208.357 13.545C207.89 13.0781 207.257 12.8153 206.597 12.8141H126.344Z" fill="#E0E0E0"/>
<path d="M114.108 134.803H33.8638C33.1734 134.803 32.5111 134.529 32.0225 134.041C31.5339 133.554 31.2587 132.892 31.2576 132.201V15.305C31.2587 14.6145 31.5339 13.9527 32.0225 13.4649C32.5111 12.9771 33.1734 12.7031 33.8638 12.7031H114.108C114.798 12.7043 115.459 12.9788 115.946 13.4665C116.434 13.9542 116.709 14.6153 116.71 15.305V132.201C116.709 132.891 116.434 133.552 115.946 134.04C115.459 134.527 114.798 134.802 114.108 134.803ZM33.8638 12.8141C33.2028 12.8141 32.5688 13.0764 32.101 13.5434C31.6332 14.0104 31.3697 14.6439 31.3686 15.305V132.201C31.3697 132.862 31.6332 133.496 32.101 133.963C32.5688 134.43 33.2028 134.692 33.8638 134.692H114.108C114.769 134.692 115.402 134.43 115.869 133.963C116.336 133.495 116.599 132.862 116.599 132.201V15.305C116.599 14.6444 116.336 14.0108 115.869 13.5437C115.402 13.0766 114.769 12.8141 114.108 12.8141H33.8638Z" fill="#E0E0E0"/>
<path d="M333 161.918H0V161.971H333V161.918Z" fill="#E0E0E0"/>
<path d="M314.956 174.965H290.212V175.151H314.956V174.965Z" fill="#EBEBEB"/>
<path d="M226.293 176.988H219.798V177.175H226.293V176.988Z" fill="#EBEBEB"/>
<path d="M50.3084 169.281H18.043V169.468H50.3084V169.281Z" fill="#EBEBEB"/>
<path d="M61.6962 169.281H56.9631V169.468H61.6962V169.281Z" fill="#EBEBEB"/>
<path d="M147.052 172.434H77.0735V172.62H147.052V172.434Z" fill="#EBEBEB"/>
<path d="M136.001 63.8292C135.272 63.3888 134.428 63.1769 133.577 63.2209C133.057 62.586 133.479 61.6359 133.981 61.0009C134.483 60.366 135.104 59.6245 134.913 58.8253C134.616 57.6265 132.933 57.5777 131.721 57.813C131.277 57.0893 131.277 56.1924 131.064 55.3533C130.851 54.5141 130.136 53.6394 129.341 53.7593C128.546 53.8792 128.058 54.7539 127.276 54.9403C126.366 55.1535 125.576 54.3498 124.866 53.746C124.776 53.6715 124.683 53.6018 124.586 53.5373C124.737 51.042 127.112 51.4416 129.132 51.0997C130.713 50.8378 126.526 46.8418 129.718 45.5542C130.338 45.384 130.881 45.0082 131.259 44.4886C131.421 44.095 131.439 43.6571 131.311 43.2514C131.183 42.8456 130.916 42.4978 130.558 42.2686C129.831 41.8314 128.99 41.6212 128.142 41.6647C127.623 41.0298 128.04 40.0752 128.546 39.4447C129.052 38.8143 129.665 38.0683 129.479 37.2691C129.177 36.0703 127.498 36.0215 126.286 36.2568C125.842 35.5331 125.842 34.6318 125.629 33.7971C125.416 32.9623 124.706 32.0832 123.907 32.1987C123.107 32.3141 122.623 33.1977 121.837 33.3841C120.927 33.5973 120.141 32.7892 119.427 32.1898C118.712 31.5904 117.469 31.2085 116.98 32.0033C116.687 32.4739 116.86 33.1311 116.536 33.6017C116.008 34.4009 114.76 33.9081 113.97 33.3353C113.179 32.7625 111.936 32.2386 111.403 33.0378C111.266 33.2996 111.164 33.5789 111.102 33.8681C111.024 34.0729 110.918 34.2658 110.786 34.4409C110.631 33.8859 110.582 33.2865 110.44 32.727C110.222 31.8967 109.512 31.0132 108.713 31.1286C107.914 31.2441 107.43 32.1321 106.648 32.3141C105.738 32.5317 104.952 31.7191 104.237 31.1197C103.522 30.5203 102.279 30.1385 101.786 30.9377C101.493 31.4083 101.671 32.0655 101.342 32.5361C101.279 32.6418 101.193 32.7315 101.089 32.7981C100.824 32.754 100.555 32.7361 100.286 32.7448C99.7618 32.1143 100.184 31.1686 100.69 30.5248C101.196 29.881 101.813 29.1439 101.622 28.3492C101.325 27.1459 99.6419 27.1015 98.4253 27.3369C97.9813 26.6087 97.9814 25.7074 97.7727 24.8771C97.564 24.0468 96.8447 23.1588 96.0455 23.2831C95.2463 23.4075 94.7624 24.2821 93.9809 24.4686C93.0707 24.6817 92.2848 23.8825 91.57 23.2743C90.8552 22.666 89.6119 22.2975 89.1191 23.0878C88.8305 23.5318 89.0037 24.22 88.6751 24.6862C88.1468 25.4809 86.8991 24.9881 86.1132 24.4153C85.3273 23.8426 84.0753 23.3187 83.5425 24.1179C83.4009 24.38 83.2977 24.6611 83.2361 24.9526C82.872 26.0182 81.7132 26.551 80.8207 27.2303C79.9283 27.9096 79.2179 29.2727 79.9727 30.103C80.3457 30.5159 81.0072 30.6713 81.1937 31.2041C81.4201 31.8301 80.7497 32.4429 80.2258 32.8957C79.8832 33.2758 79.6522 33.743 79.5582 34.246C79.4642 34.7489 79.5108 35.2681 79.693 35.7462C79.4267 35.9867 79.1117 36.1669 78.7695 36.2746C77.8815 36.4877 77.0734 35.6841 76.3585 35.0847C75.6437 34.4853 74.4005 34.1034 73.9121 34.8982C73.6191 35.3422 73.7922 36.0259 73.4681 36.4966C72.9397 37.2913 71.6921 36.8029 70.9062 36.2302C70.1203 35.6574 68.8683 35.1335 68.3355 35.9327C68.1968 36.1946 68.0937 36.4738 68.0291 36.763C67.665 37.8241 66.5062 38.3569 65.6137 39.0407C64.7213 39.7245 64.0109 41.0787 64.7657 41.9134C65.1253 42.3307 65.7425 42.4995 65.9556 42.979C65.3251 42.7303 64.6014 42.7925 64.3084 43.2631C64.0153 43.7338 64.1929 44.3909 63.8644 44.8571C63.3405 45.6563 62.0884 45.1679 61.3069 44.5907C60.5255 44.0135 59.2645 43.494 58.7317 44.2932C58.5946 44.5569 58.4931 44.8376 58.4298 45.1279C58.0613 46.1935 56.9069 46.7175 56.0145 47.4012C55.122 48.085 54.4116 49.4481 55.1664 50.2783C55.5394 50.6868 56.2009 50.8467 56.3874 51.3795C56.6183 52.0099 55.9434 52.6227 55.4239 53.0711C54.5359 53.817 54.3805 56.0592 55.5438 56.6764C56.0367 56.9339 56.7648 57.0671 56.8758 57.5644C56.9868 58.0617 56.4895 58.4213 56.1654 58.7943C56.0907 58.8908 56.0239 58.9933 55.9656 59.1006C55.819 59.3664 55.7262 59.6586 55.6926 59.9603C55.6589 60.262 55.6851 60.5674 55.7697 60.8589C55.8542 61.1505 55.9954 61.4225 56.1853 61.6595C56.3751 61.8964 56.6097 62.0936 56.8758 62.2397C57.1556 62.364 57.4974 62.4795 57.604 62.7725C57.6452 62.9908 57.6205 63.2165 57.5329 63.4207C57.4229 63.8284 57.3853 64.2522 57.4219 64.6728C57.413 64.7424 57.4206 64.8132 57.4443 64.8793C57.468 64.9454 57.507 65.0049 57.5581 65.053C57.6092 65.1011 57.671 65.1364 57.7384 65.156C57.8058 65.1756 57.8769 65.1789 57.9459 65.1657C59.6286 65.2411 60.4367 64.6462 61.4623 66.1069C61.5533 66.2548 61.6743 66.3818 61.8175 66.4799C61.9555 66.5494 62.1071 66.5874 62.2615 66.5909C63.4159 66.6886 64.1619 65.9693 65.2275 65.8317C66.7015 65.6452 67.0035 66.4 68.2999 67.0083C70.3246 67.9673 71.3103 67.3768 71.6965 65.9915C71.7957 65.5988 71.8552 65.1972 71.8741 64.7927C71.8707 64.4909 71.9324 64.1919 72.055 63.916C72.1776 63.6402 72.3582 63.394 72.5845 63.1943H72.6156C73.6945 63.2875 74.4271 62.6704 75.3729 62.4795L75.9767 62.4129C77.1 62.4129 77.473 63.0789 78.6407 63.6117C79.1788 63.888 79.7721 64.0398 80.3767 64.0557C80.5455 64.6861 79.9328 65.25 79.3955 65.6851C78.5075 66.4355 78.361 68.6777 79.5243 69.2904C80.0082 69.5479 80.7453 69.69 80.8563 70.1784C80.9673 70.6668 80.47 71.0353 80.1459 71.4039C80.0702 71.4982 80.0033 71.5992 79.9461 71.7058C79.6507 72.2442 79.5806 72.8777 79.7512 73.4677C79.9218 74.0577 80.3191 74.556 80.8563 74.8537C81.1315 74.9869 81.4779 75.0935 81.58 75.3821C81.625 75.6028 81.6017 75.832 81.5134 76.0392C81.3988 76.4445 81.3612 76.8677 81.4024 77.2869C81.3934 77.3565 81.4011 77.4272 81.4247 77.4933C81.4484 77.5594 81.4874 77.6189 81.5385 77.667C81.5897 77.7151 81.6515 77.7504 81.7189 77.77C81.7863 77.7896 81.8574 77.7929 81.9263 77.7797C83.6091 77.8552 84.4172 77.2602 85.4428 78.721C85.5296 78.8706 85.6496 78.9982 85.7935 79.0939C85.9395 79.1642 86.098 79.205 86.2598 79.2138C87.4142 79.3071 88.1601 78.5833 89.2257 78.4501C90.6953 78.2637 91.0017 79.0185 92.2893 79.6267C94.3228 80.5813 95.3085 79.9953 95.6903 78.61C95.7931 78.2164 95.8541 77.8131 95.8723 77.4067C96.0233 74.9159 98.3987 75.3111 100.423 74.9736C100.494 74.9692 100.562 74.9458 100.621 74.906C100.679 74.8662 100.726 74.8113 100.756 74.7472H100.885C102.04 74.8404 102.785 74.1211 103.847 73.9835C105.325 73.797 105.623 74.5518 106.919 75.1601C108.948 76.1191 109.934 75.5286 110.316 74.1433C110.418 73.7498 110.479 73.3465 110.498 72.9401C110.631 71.0043 112.096 70.8133 113.69 70.6624C113.715 71.0399 113.835 71.4048 114.04 71.7226C114.245 72.0405 114.528 72.3006 114.862 72.4783C115.146 72.6071 115.488 72.7181 115.595 73.0111C115.634 73.2296 115.609 73.4546 115.524 73.6594C115.411 74.0651 115.374 74.4879 115.413 74.907C115.409 75.0513 115.462 75.1913 115.559 75.2977C115.669 75.3721 115.8 75.4095 115.932 75.4043C117.615 75.4798 118.423 74.8848 119.453 76.35C119.543 76.4964 119.662 76.622 119.804 76.7185C119.942 76.7895 120.093 76.8289 120.248 76.834C121.402 76.9272 122.148 76.2079 123.214 76.0703C124.688 75.8838 124.99 76.6386 126.286 77.2469C128.315 78.2059 129.301 77.6154 129.683 76.2301C129.784 75.8376 129.845 75.436 129.865 75.0313C130.012 72.5361 132.391 72.9357 134.416 72.5938C135.997 72.3318 131.801 68.3358 134.998 67.0482C135.616 66.8778 136.158 66.502 136.534 65.9826C136.697 65.6155 136.733 65.2045 136.637 64.8145C136.54 64.4246 136.317 64.0779 136.001 63.8292Z" fill="#E0E0E0"/>
<path d="M77.1947 78.707C76.5895 78.338 75.8866 78.1615 75.1789 78.2008C74.7349 77.668 75.099 76.8688 75.5163 76.3404C75.9337 75.8121 76.4532 75.2127 76.2889 74.5245C76.0491 73.521 74.6505 73.49 73.6249 73.6853C73.2475 73.077 73.2608 72.3222 73.0655 71.634C72.8701 70.9458 72.3329 70.2266 71.6269 70.302C70.9209 70.3775 70.5569 71.1368 69.9042 71.2877C69.1494 71.4698 68.4878 70.7993 67.8973 70.2976C67.3068 69.7959 66.2634 69.4806 65.8505 70.1378C65.6107 70.5329 65.7572 71.0924 65.5041 71.4698C65.0601 72.1491 64.0167 71.7273 63.3641 71.2478C62.7114 70.7682 61.6724 70.3331 61.2195 70.9991C61.1084 71.2193 61.0234 71.4518 60.9665 71.6918C60.6645 72.5798 59.7055 73.0238 58.9551 73.5876C58.2048 74.1515 57.6231 75.2793 58.2536 75.9852C58.5644 76.3271 59.1105 76.4692 59.2659 76.9043C59.4569 77.4638 58.9019 77.9388 58.4623 78.3118C57.7297 78.9378 57.5743 80.8071 58.5644 81.3132C58.9729 81.5264 59.5723 81.5974 59.6877 82.0458C59.8032 82.4943 59.3725 82.7607 59.1239 83.0715C58.8117 83.4758 58.6724 83.9873 58.7365 84.494C58.8006 85.0008 59.0628 85.4615 59.4657 85.7754C59.5456 85.8368 59.6302 85.8918 59.7188 85.9397C59.9497 86.0507 60.2339 86.144 60.3182 86.3837C60.3625 86.5725 60.3438 86.7705 60.2649 86.9476C60.1697 87.2851 60.1381 87.6375 60.1717 87.9866C60.1716 88.1063 60.2159 88.2217 60.296 88.3107C60.3861 88.3759 60.4957 88.4088 60.6068 88.4039C62.0054 88.4661 62.6803 87.9599 63.5372 89.1854C63.6121 89.3083 63.7119 89.4142 63.8303 89.4962C63.9503 89.556 64.0824 89.5879 64.2165 89.5894C65.18 89.6693 65.8061 89.0744 66.6896 88.9589C67.9106 88.8035 68.1681 89.434 69.2426 89.9402C70.9343 90.7349 71.7601 90.2465 72.062 89.0877C72.1457 88.7621 72.1963 88.4289 72.213 88.0931C72.3373 86.0152 74.3175 86.3171 76.0047 86.0596C77.3367 85.8376 73.8336 82.5076 76.4887 81.4376C77.0065 81.2995 77.4602 80.9855 77.7719 80.5496C77.9079 80.2236 77.9245 79.8601 77.819 79.5231C77.7134 79.1861 77.4923 78.8971 77.1947 78.707Z" fill="#E0E0E0"/>
<path d="M102.959 67.2214L105.13 60.335L109.357 54.9004L108.634 54.2966L104.638 58.6433L103.932 51.7569H102.777C102.777 51.7569 103.723 59.9398 102.36 62.9324C102.36 62.9324 97.4048 75.542 94.3678 78.2681C94.1985 78.4285 94.0494 78.6089 93.9238 78.8054C93.0214 76.4836 91.8454 74.2776 90.4207 72.2342C91.615 69.1883 94.168 62.4884 95.0383 58.9142C95.7172 56.1356 96.2273 53.3184 96.5656 50.4782L95.58 50.3672C95.58 50.3672 92.7739 63.6073 88.1385 69.6368C86.7674 68.3727 85.2119 67.3247 83.5254 66.5288C83.148 64.6684 82.9881 61.4317 84.218 56.3745L83.2412 56.1259C82.0519 59.1188 81.4708 62.3187 81.5318 65.5387C80.8347 65.1872 80.1627 64.7881 79.5205 64.3443C75.0849 61.183 71.9281 55.4998 71.9281 55.4998L71.0401 56.3878C71.0401 56.3878 74.854 64.7572 80.1643 67.5544C85.4745 70.3516 88.92 77.1626 89.1952 78.9475C89.2707 79.4581 89.8834 83.5029 89.031 90.5891C83.3788 88.1782 72.159 81.5404 71.4352 80.9277L70.1299 82.7037L88.254 95.6685C88.5381 112.949 87.2328 130.927 87.2772 134.816H97.831C97.5735 129.452 95.3491 109.273 96.3348 88.196C96.4191 87.6765 96.5079 87.0816 96.5923 86.3889C97.4181 79.9243 102.324 71.0842 104.66 68.5712C106.301 66.8357 108.067 65.2226 109.943 63.7449L109.304 62.3685L102.959 67.2214Z" fill="#E6E6E6"/>
<path d="M186.482 13.8088C186.481 13.1462 186.217 12.5111 185.748 12.0425C185.28 11.574 184.645 11.3102 183.982 11.3091C183.74 11.3087 183.499 11.3446 183.267 11.4156C183.303 11.1611 183.321 10.9045 183.32 10.6475C183.32 9.24693 182.765 7.90345 181.777 6.91142C180.788 5.9194 179.446 5.35973 178.046 5.35503C177.72 5.35554 177.394 5.38525 177.073 5.44383C176.552 4.58645 175.765 3.92202 174.833 3.55078C173.9 3.17953 172.872 3.1216 171.904 3.38573C170.935 3.64986 170.079 4.22172 169.464 5.01504C168.85 5.80837 168.509 6.78012 168.495 7.78371H168.415C167.308 7.81944 166.258 8.2844 165.488 9.08027C164.717 9.87614 164.286 10.9405 164.286 12.0483C164.286 13.1561 164.717 14.2205 165.488 15.0164C166.258 15.8123 167.308 16.2772 168.415 16.3129H184.071C184.719 16.291 185.334 16.0173 185.784 15.5497C186.234 15.0822 186.484 14.4578 186.482 13.8088Z" fill="#F0F0F0"/>
<path d="M226.697 38.6278C226.697 38.0131 226.453 37.4236 226.018 36.9889C225.583 36.5543 224.994 36.3101 224.379 36.3101C224.155 36.3067 223.932 36.3397 223.718 36.4078C223.75 36.1708 223.766 35.932 223.767 35.6929C223.76 34.3952 223.239 33.153 222.319 32.2378C221.399 31.3226 220.154 30.8089 218.856 30.8089C218.558 30.8097 218.261 30.8364 217.968 30.8888C217.483 30.0957 216.754 29.4813 215.891 29.1378C215.027 28.7944 214.075 28.7405 213.178 28.9843C212.281 29.228 211.488 29.7562 210.917 30.4896C210.346 31.2229 210.028 32.1218 210.011 33.0511H209.94C208.891 33.0511 207.885 33.4679 207.143 34.2098C206.401 34.9517 205.984 35.958 205.984 37.0072C205.984 38.0564 206.401 39.0626 207.143 39.8045C207.885 40.5464 208.891 40.9632 209.94 40.9632H224.464C225.067 40.9424 225.638 40.6865 226.056 40.2501C226.473 39.8137 226.703 39.2315 226.697 38.6278Z" fill="#E0E0E0"/>
<path d="M93.5127 5.91486C93.5127 5.54511 93.3658 5.1905 93.1043 4.92904C92.8429 4.66759 92.4882 4.5207 92.1185 4.5207C91.983 4.51747 91.8479 4.53698 91.7189 4.57842C91.7374 4.43116 91.7463 4.28285 91.7455 4.13442C91.742 3.3556 91.4305 2.60981 90.8789 2.05993C90.3274 1.51005 89.5806 1.20075 88.8018 1.19958C88.6186 1.19819 88.4357 1.21455 88.2557 1.24842C87.9645 0.770834 87.5259 0.400836 87.0061 0.194196C86.4863 -0.0124447 85.9135 -0.0445303 85.3738 0.102776C84.8342 0.250082 84.3571 0.568797 84.0144 1.01088C83.6717 1.45297 83.482 1.99448 83.4738 2.55378H83.4294C82.8166 2.58027 82.2377 2.84235 81.8134 3.28534C81.3892 3.72833 81.1523 4.31802 81.1523 4.9314C81.1523 5.54478 81.3892 6.13448 81.8134 6.57747C82.2377 7.02046 82.8166 7.28254 83.4294 7.30902H92.1585C92.5212 7.29862 92.8657 7.14716 93.1185 6.88682C93.3714 6.62648 93.5128 6.2778 93.5127 5.91486Z" fill="#F0F0F0"/>
<path d="M296.151 13.698C296.151 13.3787 296.088 13.0625 295.966 12.7676C295.844 12.4726 295.664 12.2047 295.438 11.9791C295.212 11.7535 294.944 11.5747 294.649 11.4529C294.354 11.3311 294.037 11.2687 293.718 11.2693C293.483 11.2677 293.25 11.3022 293.025 11.3714C293.061 11.1244 293.079 10.8751 293.079 10.6255C293.076 9.87034 292.908 9.12492 292.586 8.44183C292.264 7.75873 291.796 7.15457 291.215 6.67195C290.634 6.18932 289.955 5.83997 289.224 5.64853C288.494 5.45708 287.73 5.4282 286.987 5.56392C286.478 4.73177 285.713 4.08735 284.807 3.7276C283.9 3.36785 282.901 3.31223 281.96 3.56912C281.019 3.826 280.187 4.38149 279.589 5.15201C278.991 5.92254 278.66 6.86642 278.644 7.84164H278.569C277.469 7.84164 276.414 8.27855 275.636 9.05626C274.859 9.83396 274.422 10.8888 274.422 11.9886C274.422 13.0884 274.859 14.1432 275.636 14.9209C276.414 15.6986 277.469 16.1356 278.569 16.1356H293.789C294.423 16.1182 295.025 15.8534 295.467 15.3979C295.908 14.9424 296.154 14.3323 296.151 13.698Z" fill="#F0F0F0"/>
<path d="M165.45 43.2319C165.45 42.503 165.16 41.8039 164.645 41.2885C164.129 40.7731 163.43 40.4835 162.702 40.4835C162.435 40.4842 162.171 40.5231 161.916 40.5989C161.957 40.3197 161.976 40.0376 161.973 39.7553C161.972 38.9012 161.783 38.0579 161.419 37.285C161.056 36.5121 160.527 35.8286 159.87 35.2829C159.213 34.7373 158.444 34.3428 157.617 34.1274C156.79 33.912 155.927 33.881 155.087 34.0366C154.514 33.0945 153.649 32.3643 152.625 31.9563C151.6 31.5483 150.47 31.4846 149.406 31.7748C148.342 32.065 147.402 32.6934 146.726 33.5651C146.05 34.4368 145.676 35.5046 145.661 36.6074H145.572C144.364 36.66 143.223 37.1769 142.386 38.0505C141.55 38.924 141.083 40.0867 141.083 41.296C141.083 42.5054 141.55 43.668 142.386 44.5416C143.223 45.4151 144.364 45.9321 145.572 45.9847H162.781C163.498 45.965 164.178 45.666 164.676 45.1516C165.175 44.6372 165.452 43.9482 165.45 43.2319Z" fill="#E0E0E0"/>
<path d="M272.131 134.657H274.995V32.4392C274.995 29.9664 274.013 27.5948 272.264 25.8462C270.516 24.0976 268.144 23.1152 265.671 23.1152H263.14V25.979H265.671C267.378 25.9814 269.014 26.6604 270.221 27.8673C271.428 29.0741 272.107 30.7103 272.109 32.417L272.131 134.657Z" fill="#E0E0E0"/>
<path d="M244.83 26.6413H265.45L264.979 23.5333C264.902 23.0248 264.663 22.5545 264.299 22.1917C263.935 21.8288 263.463 21.5925 262.954 21.5175C261.596 21.3177 259.82 21.0735 258.985 21.0735C256.547 21.0202 250.549 21.6463 247.592 21.9615C247.103 22.0146 246.642 22.2176 246.272 22.5426C245.903 22.8677 245.643 23.299 245.527 23.7775L244.83 26.6413Z" fill="#EBEBEB"/>
<path d="M247.01 28.8201H263.287C263.865 28.8201 264.419 28.5911 264.827 28.1832C265.236 27.7753 265.466 27.2219 265.467 26.6445H244.83C244.83 26.9306 244.887 27.2139 244.996 27.4781C245.106 27.7424 245.267 27.9824 245.469 28.1845C245.672 28.3866 245.912 28.5467 246.176 28.6558C246.441 28.7649 246.724 28.8207 247.01 28.8201Z" fill="#F5F5F5"/>
<path d="M258.463 33.3457L262.33 42.4699" stroke="#E0E0E0" stroke-width="0.222" stroke-linecap="round" stroke-linejoin="round"/>
<path d="M254.678 33.3457C254.678 38.6115 254.354 42.9938 254.354 48.2597" stroke="#E0E0E0" stroke-width="0.222" stroke-linecap="round" stroke-linejoin="round"/>
<path d="M251.455 32.9414L245.812 40.3606" stroke="#E0E0E0" stroke-width="0.222" stroke-linecap="round" stroke-linejoin="round"/>
<path d="M283.098 187.204C283.098 188.709 230.897 189.926 166.504 189.926C102.111 189.926 49.9094 188.7 49.9094 187.204C49.9094 185.708 102.124 184.482 166.504 184.482C230.884 184.482 283.098 185.703 283.098 187.204Z" fill="#F5F5F5"/>
<path d="M131.888 67.2965C133.707 62.718 131.469 57.5324 126.89 55.714C122.312 53.8957 117.126 56.1333 115.308 60.7118C113.49 65.2903 115.727 70.476 120.306 72.2943C124.884 74.1126 130.07 71.875 131.888 67.2965Z" fill="#0177AA"/>
<path d="M127.105 70.0586L126.488 72.2742L129.045 73.6328L129.356 70.8045L127.105 70.0586Z" fill="#0177AA"/>
<path d="M130.855 56.0645C132.028 56.9251 132.97 58.0619 133.598 59.3739C134.227 60.6859 134.521 62.1326 134.456 63.5858" stroke="#0177AA" stroke-width="0.222" stroke-linecap="round" stroke-linejoin="round"/>
<path d="M134.33 64.9082C134.339 65.3525 134.255 65.7939 134.086 66.2047" stroke="#0177AA" stroke-width="0.222" stroke-linecap="round" stroke-linejoin="round"/>
<path d="M123.604 64.27C124.592 64.27 125.393 63.4689 125.393 62.4807C125.393 61.4925 124.592 60.6914 123.604 60.6914C122.616 60.6914 121.814 61.4925 121.814 62.4807C121.814 63.4689 122.616 64.27 123.604 64.27Z" fill="white"/>
<path d="M123.601 64.4785C122.844 64.4785 122.118 64.7793 121.583 65.3147C121.047 65.8501 120.746 66.5763 120.746 67.3334H126.461C126.461 66.9581 126.387 66.5865 126.243 66.2399C126.099 65.8932 125.888 65.5783 125.623 65.3131C125.357 65.048 125.042 64.8378 124.695 64.6946C124.348 64.5514 123.977 64.4779 123.601 64.4785Z" fill="white"/>
<path d="M265.751 159.422L32.2739 164.892V124.959H267.998L265.751 159.422Z" fill="#263238"/>
<path opacity="0.5" d="M265.751 159.422L32.2739 164.892V124.959H267.998L265.751 159.422Z" fill="black"/>
<path d="M23.2891 135.206V155.457C23.2894 157.57 23.9663 159.628 25.2206 161.329C26.475 163.03 28.2409 164.285 30.2599 164.91L31.9115 165.411C32.9267 165.729 33.9871 165.879 35.0506 165.855L45.9553 165.598C44.7949 161.54 44.5799 157.269 45.3268 153.115C46.0737 148.961 47.7626 145.033 50.264 141.633C52.7653 138.233 56.0125 135.451 59.7562 133.501C63.4999 131.552 67.6406 130.486 71.8604 130.385C76.0802 130.285 80.2669 131.153 84.0989 132.923C87.931 134.693 91.3066 137.317 93.9666 140.594C96.6265 143.872 98.5001 147.715 99.4435 151.829C100.387 155.944 100.375 160.219 99.4084 164.328L210.364 161.691C210.186 160.395 210.098 159.088 210.102 157.779C210.074 154.124 210.772 150.499 212.156 147.115C213.539 143.732 215.58 140.656 218.161 138.067C220.742 135.478 223.811 133.427 227.19 132.033C230.569 130.638 234.191 129.929 237.847 129.945C241.502 129.96 245.118 130.702 248.485 132.125C251.852 133.549 254.903 135.626 257.461 138.238C260.019 140.849 262.034 143.942 263.388 147.338C264.742 150.733 265.408 154.364 265.349 158.019C265.349 158.556 265.309 159.084 265.309 159.617C265.46 159.561 265.608 159.498 265.753 159.426L269.549 157.735C271.382 156.907 272.937 155.568 274.027 153.879C275.118 152.19 275.698 150.222 275.699 148.211V106.963C275.699 105.06 275.18 103.193 274.196 101.564C273.213 99.9343 271.802 98.6049 270.118 97.7192L241.599 82.7209C241.344 82.5843 241.133 82.3767 240.992 82.123C240.851 81.8693 240.787 81.5803 240.807 81.2909C240.826 81.0014 240.929 80.7239 241.103 80.4916C241.277 80.2593 241.514 80.0821 241.786 79.9814L245.276 78.7294C245.45 78.6705 245.599 78.5542 245.699 78.3994C245.799 78.2447 245.843 78.0607 245.824 77.8775C245.806 77.6944 245.726 77.523 245.597 77.3914C245.468 77.2598 245.299 77.1758 245.116 77.1532C231.561 75.2529 178.858 68.3753 151.152 71.7497C119.184 75.6613 88.5704 103.394 88.5704 103.394C65.0384 102.506 43.1003 110.697 33.6476 114.804C32.1393 115.464 30.7855 116.432 29.673 117.645C28.5605 118.858 27.7139 120.291 27.1874 121.851L23.9728 131.423C23.5429 132.639 23.312 133.917 23.2891 135.206Z" fill="#0177AA"/>
<path d="M210.396 161.682C210.232 160.465 210.152 159.238 210.156 158.01C210.156 157.384 210.156 156.767 210.214 156.15L190.15 147.94C188.975 147.464 187.708 147.258 186.442 147.337L116.654 151.919C115.514 151.985 114.4 152.288 113.382 152.807L100.124 159.627C100.031 161.207 99.8063 162.776 99.4539 164.32L210.396 161.682Z" fill="#263238"/>
<path d="M275.722 148.203V147.15L264.373 150.622C265.036 153.029 265.371 155.514 265.368 158.011C265.368 158.548 265.328 159.076 265.328 159.609C265.479 159.553 265.627 159.489 265.772 159.418L269.577 157.726C271.408 156.898 272.962 155.559 274.052 153.87C275.142 152.181 275.722 150.213 275.722 148.203Z" fill="#263238"/>
<path d="M26.511 162.725C27.5934 163.728 28.8879 164.475 30.2983 164.909L31.9633 165.411C32.9799 165.73 34.0418 165.88 35.1068 165.855L45.9937 165.611C45.599 164.234 45.314 162.828 45.1412 161.406L26.511 162.725Z" fill="#263238"/>
<path d="M237.797 127.791C233.512 127.787 229.275 128.694 225.368 130.454C221.461 132.214 217.973 134.785 215.136 137.996C212.3 141.208 210.179 144.987 208.916 149.081C207.653 153.176 207.275 157.492 207.809 161.744L210.428 161.682C209.903 157.922 210.158 154.095 211.177 150.439C212.196 146.783 213.958 143.375 216.353 140.43C218.747 137.485 221.723 135.065 225.094 133.321C228.466 131.577 232.16 130.546 235.947 130.293C239.735 130.04 243.534 130.57 247.107 131.851C250.68 133.131 253.951 135.134 256.716 137.735C259.481 140.335 261.68 143.478 263.176 146.966C264.673 150.455 265.434 154.214 265.413 158.01C265.413 158.547 265.369 159.075 265.369 159.608C265.52 159.552 265.668 159.488 265.813 159.417L267.993 158.431V158.01C267.985 149.997 264.798 142.315 259.132 136.649C253.465 130.984 245.783 127.798 237.77 127.791H237.797Z" fill="#263238"/>
<path d="M72.5555 127.791C67.9352 127.79 63.3761 128.848 59.2287 130.884C55.0813 132.92 51.456 135.88 48.6315 139.536C45.807 143.193 43.8585 147.448 42.9358 151.975C42.0132 156.502 42.1409 161.181 43.3092 165.651L45.9732 165.589C44.825 161.534 44.6199 157.27 45.3736 153.123C46.1273 148.977 47.8198 145.058 50.3215 141.667C52.8233 138.275 56.068 135.501 59.8071 133.557C63.5462 131.613 67.6806 130.55 71.8938 130.45C76.107 130.35 80.2872 131.215 84.1144 132.98C87.9416 134.744 91.3143 137.361 93.9742 140.63C96.6341 143.899 98.5107 147.733 99.4604 151.839C100.41 155.945 100.407 160.214 99.453 164.319L102.117 164.252C103.047 159.851 102.983 155.298 101.929 150.925C100.874 146.552 98.8571 142.469 96.0239 138.975C93.1906 135.481 89.613 132.664 85.5521 130.729C81.4911 128.794 77.0494 127.79 72.551 127.791H72.5555Z" fill="#263238"/>
<path d="M98.8533 104.553C98.589 104.788 98.3892 105.088 98.2728 105.422C98.1564 105.757 98.1273 106.115 98.1882 106.464C98.2491 106.813 98.398 107.141 98.6208 107.416C98.8437 107.692 99.133 107.906 99.4616 108.038L111.006 111.27C112.022 111.559 113.087 111.639 114.136 111.506L199.65 100.912C201.789 100.61 203.74 99.5243 205.125 97.8659L216.353 84.8034C216.735 84.3531 216.969 83.7968 217.024 83.2094C217.179 81.722 216.242 80.3812 214.942 80.2124C194.469 77.4907 168.57 75.0354 152.222 77.0156C130.795 79.6308 109.221 95.7391 98.8533 104.553Z" fill="#0177AA"/>
<path opacity="0.8" d="M99.241 104.553C98.9767 104.789 98.7769 105.088 98.6605 105.423C98.5442 105.758 98.515 106.116 98.5759 106.465C98.6368 106.814 98.7857 107.142 99.0085 107.417C99.2313 107.692 99.5207 107.906 99.8493 108.039L111.393 111.271C112.41 111.559 113.475 111.639 114.523 111.506L198.129 105.779C200.211 105.512 203.426 101.69 205.699 98.5816L216.737 84.8042C217.121 84.3554 217.357 83.7986 217.412 83.2103C217.563 81.7229 216.63 80.382 215.329 80.2133C194.848 77.5004 168.958 75.0318 152.61 77.0253C131.178 79.6316 109.608 95.74 99.241 104.553Z" fill="white"/>
<g opacity="0.3">
<path d="M155.099 112.706C154.841 112.609 154.631 112.417 154.512 112.168C154.394 111.92 154.377 111.635 154.464 111.374C154.584 111.042 154.799 110.754 155.083 110.545C155.367 110.336 155.706 110.217 156.058 110.201L166.235 109.757C166.372 109.75 166.509 109.769 166.639 109.815C166.903 109.912 167.119 110.108 167.24 110.362C167.36 110.617 167.376 110.908 167.283 111.174C167.162 111.506 166.945 111.794 166.659 112.002C166.374 112.21 166.033 112.328 165.68 112.342L155.503 112.786C155.365 112.786 155.227 112.759 155.099 112.706Z" fill="black"/>
</g>
<path d="M230.79 83.5422C230.359 83.9282 230.099 84.4689 230.065 85.0463C230.032 85.6236 230.229 86.1907 230.612 86.6236L233.023 89.2476C233.302 89.5409 233.655 89.7541 234.044 89.8648L263.606 98.0655C264.121 98.2035 264.653 98.2737 265.186 98.2741H271.061C270.754 98.0699 270.439 97.8834 270.115 97.7103L241.597 82.6986C241.252 82.5278 240.989 82.227 240.866 81.8623C240.742 81.4976 240.769 81.0989 240.94 80.7539L231.678 83.0716C231.35 83.1585 231.046 83.3195 230.79 83.5422Z" fill="#0177AA"/>
<path d="M46.6891 118.668L36.6015 117.566L30.8295 119.937C30.228 120.182 29.6925 120.565 29.266 121.055C28.8396 121.544 28.5341 122.127 28.3741 122.757C28.1828 123.496 28.2896 124.28 28.6716 124.941L28.7737 125.114C29.0903 125.66 29.5621 126.099 30.129 126.376C30.6959 126.653 31.3323 126.754 31.9572 126.668L37.7736 125.869C38.3343 125.781 38.864 125.553 39.3143 125.208L46.0231 120.115L46.6891 118.668Z" fill="white"/>
<path d="M88.5952 103.38L90.2025 103.824C90.8173 103.999 91.4657 104.02 92.0906 103.885C92.7155 103.751 93.2976 103.464 93.7856 103.051C103.136 95.1436 119.391 83.0091 136.929 77.3569C136.99 77.3371 137.043 77.3 137.083 77.2501C137.123 77.2002 137.148 77.1398 137.154 77.0761C137.16 77.0125 137.148 76.9485 137.118 76.8919C137.088 76.8353 137.043 76.7886 136.987 76.7576L134.807 75.6387C109.503 84.4254 88.5952 103.38 88.5952 103.38Z" fill="#0177AA"/>
<path opacity="0.8" d="M88.5952 103.38L90.2025 103.824C90.8173 103.999 91.4657 104.02 92.0906 103.885C92.7155 103.751 93.2976 103.464 93.7856 103.051C103.136 95.1436 119.391 83.0091 136.929 77.3569C136.99 77.3371 137.043 77.3 137.083 77.2501C137.123 77.2002 137.148 77.1398 137.154 77.0761C137.16 77.0125 137.148 76.9485 137.118 76.8919C137.088 76.8353 137.043 76.7886 136.987 76.7576L134.807 75.6387C109.503 84.4254 88.5952 103.38 88.5952 103.38Z" fill="white"/>
<path opacity="0.2" d="M184.462 114.059L99.4539 120.137L101.057 130.624C101.546 133.836 102.736 136.901 104.542 139.602L111.646 150.222L184.205 140.41L218.512 114.059H184.462Z" fill="white"/>
<path d="M237.775 181.022C250.487 181.022 260.792 170.717 260.792 158.005C260.792 145.293 250.487 134.988 237.775 134.988C225.063 134.988 214.758 145.293 214.758 158.005C214.758 170.717 225.063 181.022 237.775 181.022Z" fill="#263238"/>
<path opacity="0.4" d="M237.771 172.115C245.564 172.115 251.882 165.798 251.882 158.005C251.882 150.212 245.564 143.895 237.771 143.895C229.979 143.895 223.661 150.212 223.661 158.005C223.661 165.798 229.979 172.115 237.771 172.115Z" fill="white"/>
<g opacity="0.3">
<path d="M237.774 145.316H237.769C237.147 145.316 236.642 145.821 236.642 146.444V153.677C236.642 154.3 237.147 154.805 237.769 154.805H237.774C238.397 154.805 238.902 154.3 238.902 153.677V146.444C238.902 145.821 238.397 145.316 237.774 145.316Z" fill="white"/>
</g>
<g opacity="0.3">
<path d="M237.774 161.215H237.769C237.147 161.215 236.642 161.72 236.642 162.343V169.575C236.642 170.198 237.147 170.703 237.769 170.703H237.774C238.397 170.703 238.902 170.198 238.902 169.575V162.343C238.902 161.72 238.397 161.215 237.774 161.215Z" fill="white"/>
</g>
<g opacity="0.3">
<path d="M242.085 156.825C241.825 156.973 241.518 157.011 241.23 156.932C240.942 156.853 240.697 156.663 240.549 156.403C240.401 156.145 240.361 155.838 240.438 155.55C240.516 155.262 240.704 155.017 240.962 154.867L247.222 151.231C247.483 151.081 247.793 151.041 248.083 151.119C248.374 151.197 248.621 151.388 248.772 151.648C248.919 151.908 248.957 152.216 248.879 152.504C248.801 152.792 248.612 153.038 248.354 153.189L242.098 156.821L242.085 156.825Z" fill="white"/>
</g>
<g opacity="0.3">
<path d="M228.311 164.724C228.052 164.872 227.746 164.912 227.458 164.834C227.17 164.757 226.924 164.569 226.775 164.311C226.701 164.183 226.653 164.042 226.634 163.895C226.614 163.749 226.624 163.6 226.663 163.457C226.701 163.314 226.767 163.181 226.857 163.063C226.947 162.946 227.06 162.848 227.188 162.775L233.448 159.138C233.576 159.063 233.717 159.015 233.864 158.995C234.011 158.975 234.16 158.984 234.304 159.022C234.447 159.06 234.581 159.126 234.699 159.216C234.816 159.306 234.915 159.418 234.989 159.547C235.064 159.675 235.113 159.817 235.133 159.964C235.153 160.111 235.143 160.261 235.106 160.404C235.068 160.548 235.002 160.682 234.912 160.8C234.821 160.918 234.709 161.017 234.58 161.092L228.316 164.724H228.311Z" fill="white"/>
</g>
<g opacity="0.3">
<path d="M247.225 164.769L240.964 161.137C240.705 160.985 240.515 160.737 240.438 160.447C240.361 160.157 240.401 159.847 240.551 159.587C240.704 159.329 240.952 159.141 241.242 159.065C241.532 158.989 241.841 159.029 242.101 159.179L248.357 162.815C248.615 162.965 248.803 163.211 248.882 163.5C248.96 163.788 248.921 164.095 248.774 164.356C248.7 164.485 248.601 164.598 248.482 164.688C248.364 164.779 248.229 164.845 248.085 164.884C247.941 164.922 247.791 164.932 247.643 164.912C247.496 164.892 247.353 164.843 247.225 164.769Z" fill="white"/>
</g>
<g opacity="0.3">
<path d="M234.989 156.409C234.839 156.667 234.592 156.855 234.303 156.932C234.014 157.008 233.707 156.967 233.448 156.817L227.188 153.181C227.06 153.107 226.947 153.009 226.857 152.892C226.767 152.775 226.701 152.641 226.663 152.498C226.624 152.356 226.614 152.207 226.634 152.06C226.653 151.914 226.701 151.772 226.775 151.644C226.925 151.386 227.172 151.198 227.46 151.121C227.749 151.043 228.056 151.083 228.316 151.232L234.58 154.868C234.708 154.942 234.82 155.041 234.91 155.159C235 155.277 235.065 155.411 235.103 155.554C235.14 155.697 235.149 155.847 235.129 155.993C235.108 156.14 235.059 156.281 234.984 156.409H234.989Z" fill="white"/>
</g>
<path d="M235.881 158.001C235.881 157.499 236.08 157.018 236.435 156.663C236.79 156.309 237.271 156.109 237.772 156.109C238.148 156.109 238.516 156.219 238.829 156.427C239.142 156.636 239.387 156.932 239.531 157.279C239.676 157.627 239.714 158.009 239.641 158.378C239.568 158.747 239.388 159.086 239.122 159.352C238.856 159.618 238.518 159.799 238.149 159.873C237.78 159.947 237.398 159.909 237.051 159.766C236.703 159.622 236.406 159.379 236.197 159.066C235.988 158.753 235.876 158.386 235.876 158.01L235.881 158.001Z" fill="#263238"/>
<path d="M72.5543 181.028C85.2662 181.028 95.5713 170.723 95.5713 158.011C95.5713 145.299 85.2662 134.994 72.5543 134.994C59.8424 134.994 49.5374 145.299 49.5374 158.011C49.5374 170.723 59.8424 181.028 72.5543 181.028Z" fill="#263238"/>
<path opacity="0.4" d="M72.5551 172.119C80.3481 172.119 86.6655 165.802 86.6655 158.009C86.6655 150.216 80.3481 143.898 72.5551 143.898C64.7622 143.898 58.4448 150.216 58.4448 158.009C58.4448 165.802 64.7622 172.119 72.5551 172.119Z" fill="white"/>
<g opacity="0.3">
<path d="M72.5551 145.316H72.5506C71.9278 145.316 71.4229 145.821 71.4229 146.444V153.677C71.4229 154.3 71.9278 154.805 72.5506 154.805H72.5551C73.1779 154.805 73.6828 154.3 73.6828 153.677V146.444C73.6828 145.821 73.1779 145.316 72.5551 145.316Z" fill="white"/>
</g>
<g opacity="0.3">
<path d="M72.5551 161.215H72.5506C71.9278 161.215 71.4229 161.72 71.4229 162.343V169.575C71.4229 170.198 71.9278 170.703 72.5506 170.703H72.5551C73.1779 170.703 73.6828 170.198 73.6828 169.575V162.343C73.6828 161.72 73.1779 161.215 72.5551 161.215Z" fill="white"/>
</g>
<g opacity="0.3">
<path d="M76.8547 156.825C76.7271 156.898 76.5864 156.944 76.4406 156.963C76.2949 156.981 76.147 156.97 76.0055 156.931C75.864 156.892 75.7316 156.825 75.616 156.734C75.5004 156.644 75.4038 156.531 75.3317 156.403C75.2567 156.276 75.2077 156.134 75.1874 155.988C75.1671 155.841 75.176 155.692 75.2135 155.549C75.251 155.406 75.3165 155.271 75.4061 155.154C75.4958 155.036 75.6078 154.937 75.7358 154.863L82.0051 151.226C82.1336 151.152 82.2754 151.104 82.4225 151.085C82.5695 151.066 82.7189 151.077 82.8619 151.115C83.005 151.154 83.1391 151.221 83.2564 151.311C83.3738 151.402 83.4721 151.515 83.5457 151.644C83.6196 151.772 83.6674 151.914 83.6865 152.061C83.7055 152.208 83.6953 152.357 83.6565 152.5C83.6178 152.644 83.5512 152.778 83.4605 152.895C83.3699 153.012 83.257 153.111 83.1284 153.184L76.8724 156.816L76.8547 156.825Z" fill="white"/>
</g>
<g opacity="0.3">
<path d="M61.5607 164.329C61.4868 164.201 61.4388 164.06 61.4195 163.913C61.4002 163.767 61.4101 163.618 61.4484 163.475C61.4868 163.333 61.5529 163.199 61.643 163.082C61.7332 162.965 61.8455 162.866 61.9737 162.793L68.234 159.156C68.3626 159.081 68.5047 159.032 68.6521 159.012C68.7996 158.992 68.9496 159.001 69.0935 159.039C69.2375 159.077 69.3725 159.143 69.4909 159.233C69.6093 159.324 69.7088 159.436 69.7836 159.565C69.933 159.825 69.973 160.134 69.8947 160.424C69.8165 160.714 69.6264 160.96 69.3663 161.11L63.1103 164.724C62.852 164.876 62.5444 164.919 62.2543 164.845C61.9641 164.771 61.7149 164.586 61.5607 164.329Z" fill="white"/>
</g>
<g opacity="0.3">
<path d="M83.5452 164.359C83.4716 164.487 83.3734 164.6 83.2562 164.69C83.1389 164.78 83.005 164.846 82.8622 164.884C82.7194 164.922 82.5704 164.931 82.424 164.911C82.2775 164.891 82.1364 164.842 82.0089 164.768L75.7396 161.136C75.4815 160.983 75.2941 160.734 75.2184 160.444C75.1427 160.154 75.1849 159.845 75.3356 159.586C75.4859 159.328 75.7325 159.14 76.0214 159.063C76.3103 158.986 76.6178 159.028 76.8763 159.178L83.1322 162.814C83.3904 162.964 83.5787 163.211 83.6561 163.499C83.7334 163.788 83.6936 164.095 83.5452 164.355V164.359Z" fill="white"/>
</g>
<g opacity="0.3">
<path d="M69.7747 156.417C69.7 156.545 69.6008 156.656 69.4829 156.746C69.3649 156.835 69.2305 156.9 69.0874 156.937C68.9442 156.974 68.7952 156.983 68.6487 156.962C68.5023 156.941 68.3614 156.892 68.234 156.817L61.9737 153.18C61.8455 153.107 61.7332 153.009 61.643 152.891C61.5529 152.774 61.4868 152.641 61.4484 152.498C61.4101 152.355 61.4002 152.206 61.4195 152.06C61.4388 151.913 61.4868 151.772 61.5607 151.644C61.7112 151.384 61.9588 151.194 62.2493 151.115C62.5397 151.037 62.8493 151.077 63.1103 151.227L69.3663 154.863C69.6244 155.013 69.8127 155.26 69.8901 155.548C69.9674 155.837 69.9276 156.144 69.7792 156.404L69.7747 156.417Z" fill="white"/>
</g>
<path d="M72.5558 156.109C72.9318 156.109 73.2997 156.219 73.6128 156.427C73.9258 156.636 74.1701 156.932 74.3146 157.279C74.4591 157.627 74.4974 158.009 74.4246 158.378C74.3518 158.747 74.1711 159.086 73.9055 159.352C73.64 159.618 73.3014 159.799 72.9326 159.873C72.5639 159.947 72.1815 159.909 71.834 159.766C71.4865 159.622 71.1895 159.379 70.9805 159.066C70.7715 158.753 70.6599 158.386 70.6599 158.01C70.6599 157.506 70.8595 157.024 71.2149 156.668C71.5704 156.311 72.0526 156.111 72.5558 156.109Z" fill="#263238"/>
<path opacity="0.3" d="M273.286 114.591C273.468 114.535 273.638 114.443 273.784 114.32C273.931 114.198 274.052 114.048 274.141 113.879C274.229 113.71 274.284 113.525 274.301 113.335C274.318 113.145 274.298 112.953 274.24 112.771C273.974 107.922 272.944 103.611 269.974 100.645C269.877 100.329 269.675 100.055 269.401 99.8681C269.128 99.6816 268.799 99.594 268.468 99.6196L250.93 101.276C250.624 101.307 250.336 101.436 250.109 101.644C249.967 101.772 249.852 101.926 249.77 102.099C249.688 102.271 249.641 102.458 249.631 102.649C249.622 102.839 249.65 103.03 249.714 103.21C249.779 103.389 249.878 103.554 250.007 103.696L255.029 109.112C255.203 109.299 255.424 109.437 255.668 109.512L272.46 114.6C272.731 114.675 273.017 114.672 273.286 114.591Z" fill="black"/>
<path d="M98.2052 105.672C98.0788 106.153 98.1379 106.663 98.3707 107.103C98.6034 107.542 98.9929 107.878 99.4617 108.043L111.006 111.275C112.047 111.594 113.124 111.779 114.211 111.826L117.843 111.582L114.416 93.0801C106.508 98.2749 105.98 98.5146 98.8756 104.562C98.5337 104.846 98.2974 105.237 98.2052 105.672Z" fill="#263238"/>
<path d="M173.341 76.4219L166.095 108.017L175.575 107.333L179.899 76.6972C177.685 76.5847 175.499 76.4929 173.341 76.4219Z" fill="#263238"/>
<path d="M203.409 101.422L216.729 84.7945C217.122 84.3412 217.362 83.7759 217.417 83.1784C217.555 81.6954 216.622 80.3634 215.335 80.1858C212.608 79.8173 209.705 79.4621 206.805 79.1113" fill="#263238"/>
<path d="M108.694 108.868C108.147 108.874 107.603 108.773 107.095 108.569C106.587 108.366 106.124 108.064 105.732 107.681C105.34 107.299 105.028 106.843 104.812 106.339C104.597 105.836 104.483 105.295 104.476 104.747C104.465 103.796 104.779 102.869 105.366 102.12C105.953 101.371 106.778 100.844 107.704 100.627L113.263 99.3262L114.679 108.65L108.805 108.877L108.694 108.868Z" fill="#0177AA"/>
<path opacity="0.3" d="M113.05 108.703L114.679 108.641L113.263 99.3262L111.678 99.6991L113.05 108.703Z" fill="black"/>
<path opacity="0.6" d="M175.378 107.336C175.449 110.608 175.414 114.071 175.059 115.843C174.273 119.777 168.141 148.539 168.141 148.539" stroke="black" stroke-width="0.222" stroke-linecap="round" stroke-linejoin="round"/>
<path opacity="0.6" d="M98.1531 106.352C98.1531 106.352 99.9868 131.216 102.775 136.255C105.497 141.161 113.382 152.821 113.382 152.821" stroke="black" stroke-width="0.222" stroke-linecap="round" stroke-linejoin="round"/>
<path opacity="0.6" d="M91.7565 103.988C91.7565 103.988 72.1583 108.828 66.3907 109.76C61.6533 110.52 42.4147 115.204 36.6028 117.575" stroke="black" stroke-width="0.222" stroke-linecap="round" stroke-linejoin="round"/>
<path opacity="0.8" d="M230.79 83.5422C230.359 83.9282 230.099 84.4689 230.065 85.0463C230.032 85.6236 230.229 86.1907 230.612 86.6236L233.023 89.2476C233.302 89.5409 233.655 89.7541 234.044 89.8648L263.606 98.0655C264.121 98.2035 264.653 98.2737 265.186 98.2741H271.061C270.754 98.0699 270.439 97.8834 270.115 97.7103L241.597 82.6986C241.252 82.5278 240.989 82.227 240.866 81.8623C240.742 81.4976 240.769 81.0989 240.94 80.7539L231.678 83.0716C231.35 83.1585 231.046 83.3195 230.79 83.5422Z" fill="white"/>
<path d="M119.752 102.439C119.486 102.599 116.347 105.845 116.347 105.845L116.959 109.868L120.907 105.792L119.752 102.439Z" fill="#263238"/>
<path d="M124.48 110.827C124.146 110.992 123.761 111.017 123.409 110.898C123.057 110.779 122.767 110.525 122.602 110.192L116.328 97.5026C116.246 97.3379 116.198 97.1587 116.186 96.9754C116.174 96.7921 116.198 96.6082 116.257 96.4342C116.316 96.2602 116.409 96.0995 116.53 95.9613C116.651 95.8232 116.798 95.7102 116.963 95.6289C117.128 95.5468 117.307 95.4981 117.491 95.4856C117.675 95.4731 117.859 95.4971 118.034 95.5561C118.208 95.6151 118.369 95.708 118.508 95.8294C118.646 95.9509 118.76 96.0985 118.841 96.2638L125.101 108.953C125.267 109.284 125.294 109.667 125.177 110.019C125.061 110.37 124.81 110.66 124.48 110.827Z" fill="#263238"/>
<path d="M131.314 95.5523C131.314 95.5523 134.422 107.949 136.238 108.428C139.542 109.276 150.89 108.326 150.668 107.962L150.189 102.261C150.189 102.261 138.747 104.153 138.836 103.953L134.533 94.3047L131.314 95.5523Z" fill="#EBB373"/>
<path d="M134.165 95.0552C134.165 95.0552 135.186 94.1051 135.213 92.9507C135.239 91.7963 135.572 90.8861 135.532 90.0291C135.493 89.1722 134.778 90.0824 134.494 90.6418C134.209 91.2013 133.881 91.8407 133.495 91.5565C133.108 91.2723 131.421 87.5161 130.831 87.1875C130.24 86.859 130.333 87.5516 130.333 87.5516C130.333 87.5516 129.889 86.6636 129.494 86.7258C129.388 86.7258 129.174 86.9611 129.312 87.4007C129.61 88.3952 130.347 90.4509 130.347 90.4509C130.307 90.3311 129.214 87.8624 129.015 87.5117C128.735 87.0677 128.375 86.9833 128.127 87.152C127.758 87.3918 129.015 90.4998 128.97 90.6685C128.97 90.6685 128.309 88.857 127.749 88.7682C127.19 88.6794 127.54 89.8471 128.047 90.815C128.491 91.703 129.188 93.5634 129.747 94.4203C130.435 95.4726 131.132 96.0276 132.3 95.85C132.98 95.7497 133.622 95.476 134.165 95.0552Z" fill="#EBB373"/>
<path opacity="0.3" d="M130.423 87.6582C130.751 88.3923 131.047 89.1323 131.311 89.8782" stroke="black" stroke-width="0.111" stroke-linecap="round" stroke-linejoin="round"/>
<path opacity="0.3" d="M129.204 91.3842C130.011 90.722 130.994 90.3113 132.032 90.2031" stroke="black" stroke-width="0.111" stroke-linecap="round" stroke-linejoin="round"/>
<path opacity="0.3" d="M133.24 92.0059C132.883 92.2402 132.618 92.5897 132.489 92.996C132.361 93.402 132.378 93.8401 132.538 94.2347" stroke="black" stroke-width="0.111" stroke-linecap="round" stroke-linejoin="round"/>
<path d="M163.719 101.391C161.641 98.6472 158.342 98.9225 156.197 99.2999L151.953 99.997C151.817 100.018 151.683 100.051 151.553 100.095L150.585 100.392L141.497 103.305L143.69 109.121L146.66 108.757L146.163 109.561L149.076 109.374L164.975 108.544V105.321C164.994 103.909 164.553 102.53 163.719 101.391Z" fill="#263238"/>
<path d="M162.858 105.969C162.858 105.969 160.865 119.338 159.453 120.755C156.087 124.138 143.624 114.832 143.624 114.832L144.011 111.24L154.773 115.68L156.789 104.34L162.858 105.969Z" fill="#EBB373"/>
<path d="M164.493 105.059C164.395 105.387 163.538 114.716 163.538 114.716L154.41 113.863C154.41 113.863 154.885 111.275 155.573 106.759C156.297 102.04 156.714 99.6554 159.054 99.2736C163.481 98.5321 164.493 105.059 164.493 105.059Z" fill="#263238"/>
<path d="M161.438 83.9366C162.815 86.352 163.294 87.795 163.418 90.1127C163.565 92.8166 163.441 95.2053 162.837 95.8847C162.046 96.7727 153.486 97.6607 148.686 97.452C148.513 97.452 148.371 95.9246 148.371 95.9246C148.371 95.9246 147.692 97.412 147.483 97.3987C146.173 97.341 145.334 97.2921 145.334 97.2921C145.334 97.2921 146.422 95.0721 147.75 87.0002C148.398 83.0664 152.358 81.4946 154.689 81.1971C158.561 80.7176 161.438 83.9366 161.438 83.9366Z" fill="#263238"/>
<path d="M150.029 91.5388C148.772 89.3676 147.524 83.5157 152.759 81.7131C159.29 79.4576 162.212 83.6223 162.776 87.7515C163.34 91.8807 161 94.9976 156.693 94.6868C152.386 94.376 150.894 93.044 150.029 91.5388Z" fill="#263238"/>
<path d="M159.097 91.832L155.238 95.384L154.51 96.1744C154.725 96.7154 154.874 97.2804 154.954 97.8571C155.009 98.4657 154.837 99.0732 154.47 99.5621L153.604 101.533C155.536 100.019 159.936 99.2069 159.936 99.2069C159.202 96.8217 158.917 94.3211 159.097 91.832Z" fill="#EBB373"/>
<path opacity="0.2" d="M154.952 98.0697C155.991 97.5147 157.172 96.5246 157.075 95.3258C157.051 94.8862 156.975 94.4509 156.848 94.0293L154.659 96.6578C154.807 97.1166 154.905 97.59 154.952 98.0697Z" fill="black"/>
<path d="M160.326 87.9113C159.802 91.6853 159.66 93.2881 157.613 95.184C154.536 98.0345 150.065 96.8179 149.457 93.0306C148.911 89.6162 149.856 84.0218 153.648 82.6055C154.452 82.2748 155.33 82.1647 156.19 82.2865C157.051 82.4083 157.864 82.7576 158.544 83.2984C159.225 83.8391 159.749 84.5518 160.062 85.3627C160.375 86.1736 160.466 87.0534 160.326 87.9113Z" fill="#EBB373"/>
<path d="M155.514 89.0435C155.474 89.4253 155.225 89.7273 154.959 89.7184C154.692 89.7095 154.515 89.3987 154.541 89.0169C154.568 88.635 154.83 88.3331 155.096 88.342C155.363 88.3509 155.554 88.6617 155.514 89.0435Z" fill="#263238"/>
<path d="M151.578 88.7994C151.538 89.1635 151.294 89.4521 151.032 89.4476C150.77 89.4432 150.588 89.1368 150.624 88.7772C150.659 88.4176 150.908 88.1245 151.17 88.129C151.432 88.1334 151.614 88.4264 151.578 88.7994Z" fill="#263238"/>
<path d="M156.112 87.6676C156.087 87.6731 156.06 87.6727 156.035 87.6666C156.009 87.6604 155.986 87.6486 155.966 87.632C155.775 87.4831 155.552 87.38 155.315 87.3307C155.078 87.2815 154.833 87.2873 154.598 87.3479C154.575 87.3569 154.55 87.3611 154.525 87.3601C154.5 87.3592 154.476 87.3531 154.453 87.3422C154.431 87.3314 154.411 87.3161 154.394 87.2972C154.378 87.2783 154.366 87.2563 154.358 87.2324C154.347 87.1819 154.356 87.1291 154.382 87.0846C154.408 87.0401 154.451 87.0072 154.5 86.9927C154.796 86.9098 155.106 86.8975 155.407 86.9569C155.708 87.0163 155.99 87.1457 156.232 87.3346C156.251 87.3508 156.266 87.3709 156.276 87.3935C156.286 87.4161 156.292 87.4407 156.292 87.4655C156.292 87.4904 156.286 87.515 156.276 87.5376C156.266 87.5602 156.251 87.5803 156.232 87.5965C156.201 87.6332 156.159 87.6583 156.112 87.6676Z" fill="#263238"/>
<path d="M150.322 86.8896C150.281 86.8681 150.251 86.8314 150.237 86.7875C150.225 86.7398 150.232 86.6892 150.257 86.6468C150.282 86.6044 150.323 86.5736 150.371 86.561C150.656 86.468 150.959 86.442 151.257 86.4851C151.554 86.5282 151.837 86.6393 152.085 86.8097C152.102 86.8255 152.117 86.845 152.127 86.8668C152.137 86.8886 152.142 86.9123 152.142 86.9362C152.142 86.9602 152.137 86.9838 152.127 87.0056C152.117 87.0275 152.102 87.0469 152.085 87.0628C152.047 87.0958 151.999 87.1141 151.949 87.1141C151.899 87.1141 151.851 87.0958 151.814 87.0628C151.616 86.9318 151.391 86.8474 151.155 86.8158C150.92 86.7843 150.681 86.8065 150.455 86.8807C150.413 86.8992 150.366 86.9024 150.322 86.8896Z" fill="#263238"/>
<path d="M157.316 84.3596C156.055 85.5673 156.428 90.3758 159.785 91.1573C163.723 90.438 161.09 80.7677 157.316 84.3596Z" fill="#263238"/>
<path d="M152.415 92.3728C152.653 92.8327 152.858 93.309 153.028 93.798L153.299 93.7536C154.515 93.5272 155.008 93.0166 155.181 92.5237C155.261 92.2806 155.283 92.0219 155.244 91.7689C155.224 91.6252 155.185 91.4848 155.128 91.3516C154.555 91.8577 153.432 92.1552 152.828 92.2884C152.575 92.3506 152.415 92.3728 152.415 92.3728Z" fill="#263238"/>
<path d="M152.829 92.2884L153.02 92.7058C154.17 92.4882 154.947 92.1818 155.24 91.7689C155.22 91.6252 155.182 91.4848 155.124 91.3516C154.556 91.8577 153.433 92.1552 152.829 92.2884Z" fill="white"/>
<path d="M153.298 93.7553C154.515 93.5288 155.008 93.0182 155.181 92.5254C154.72 92.6206 154.28 92.7965 153.88 93.0449C153.616 93.2142 153.412 93.4629 153.298 93.7553Z" fill="#DC5753"/>
<path d="M152.656 88.5723C152.237 89.4612 151.708 90.2936 151.08 91.0498C151.524 91.5382 152.412 91.3339 152.412 91.3339L152.656 88.5723Z" fill="#E4873E"/>
<path d="M154.349 88.125L155.211 88.3736C154.793 88.7999 154.349 88.125 154.349 88.125Z" fill="#263238"/>
<path d="M150.469 87.9121L151.325 88.1607C150.913 88.5781 150.469 87.9121 150.469 87.9121Z" fill="#263238"/>
<path d="M153.719 81.771C152.196 82.215 150.491 84.7236 150.167 85.7093C152.276 86.1533 158.101 84.4261 158.101 84.4261C158.101 84.4261 161.88 85.6604 160.028 83.6314C158.177 81.6023 153.719 81.771 153.719 81.771Z" fill="#263238"/>
<path d="M161.33 91.0195C160.894 91.6974 160.208 92.176 159.421 92.3515C158.409 92.5557 157.965 90.9174 158.351 89.9317C158.532 89.4862 158.867 89.1203 159.295 88.9004C159.722 88.6805 160.214 88.6211 160.682 88.7329C161.615 88.9948 161.881 90.167 161.33 91.0195Z" fill="#EBB373"/>
<path d="M148.294 86.3125C148.062 87.9794 147.653 89.6167 147.073 91.1965C146.438 92.7505 145.119 95.9651 143.676 96.8353" stroke="#263238" stroke-width="0.222" stroke-miterlimit="10"/>
<path d="M159.123 92.2632C159.116 92.4028 159.15 92.5412 159.222 92.6611C159.294 92.7809 159.4 92.8767 159.526 92.9364C159.653 92.996 159.794 93.0168 159.932 92.9962C160.07 92.9755 160.199 92.9142 160.303 92.8202C160.406 92.7262 160.479 92.6036 160.513 92.4679C160.547 92.3323 160.539 92.1897 160.492 92.0583C160.444 91.9268 160.359 91.8124 160.246 91.7295C160.134 91.6467 159.999 91.5991 159.86 91.5927C159.767 91.588 159.675 91.6016 159.587 91.6327C159.5 91.6639 159.42 91.712 159.352 91.7744C159.283 91.8367 159.227 91.912 159.188 91.9959C159.149 92.0798 159.127 92.1706 159.123 92.2632Z" fill="#0177AA"/>
<path opacity="0.1" d="M160.584 89.9144C160.418 89.8593 160.243 89.8425 160.07 89.8654C159.897 89.8883 159.731 89.9502 159.586 90.0464C159.44 90.1427 159.319 90.2707 159.23 90.4209C159.141 90.5711 159.088 90.7395 159.074 90.9134" stroke="black" stroke-width="0.222" stroke-linecap="round" stroke-linejoin="round"/>
<path d="M148.243 113.724L144.007 111.238L142.853 109.76C142.853 109.76 141.663 108.357 140.704 108.263C140.222 108.248 139.744 108.348 139.31 108.556C139.31 108.556 138.2 109.258 138.866 110.332C138.866 110.332 137.769 110.896 138.515 112.108C138.515 112.108 137.463 112.131 138.364 113.232C138.711 113.648 139.138 113.991 139.62 114.239C140.102 114.488 140.629 114.638 141.17 114.679C141.795 114.738 142.425 114.682 143.03 114.515L147.706 117.587L148.243 113.724Z" fill="#EBB373"/>
<path d="M155.215 109.068L155.978 104.277L153.647 109.121L155.215 109.068Z" fill="black"/>
<path d="M146.657 108.758L148.562 104.891L144.904 108.975L146.657 108.758Z" fill="black"/>
</g>
<defs>
<clipPath id="clip0_9241_35276">
<rect width="308" height="190" fill="white"/>
</clipPath>
</defs>
</svg>
