<svg width="344" height="196" viewBox="0 0 344 196" fill="none" xmlns="http://www.w3.org/2000/svg">
<g clip-path="url(#clip0_9053_132494)">
<path d="M308.53 139.037H225.766C225.054 139.036 224.372 138.753 223.869 138.25C223.366 137.747 223.083 137.065 223.082 136.354V15.7861C223.083 15.0747 223.366 14.3929 223.869 13.8899C224.372 13.3869 225.054 13.1037 225.766 13.1025H308.53C309.242 13.1025 309.925 13.3851 310.429 13.8883C310.933 14.3914 311.217 15.0739 311.218 15.7861V136.354C311.217 137.066 310.933 137.748 310.429 138.251C309.925 138.755 309.242 139.037 308.53 139.037ZM225.766 13.217C225.084 13.217 224.431 13.4877 223.949 13.9695C223.467 14.4513 223.197 15.1047 223.197 15.7861V136.354C223.197 137.035 223.467 137.688 223.949 138.17C224.431 138.652 225.084 138.923 225.766 138.923H308.53C309.212 138.923 309.865 138.652 310.348 138.17C310.831 137.689 311.102 137.035 311.103 136.354V15.7861C311.102 15.1043 310.831 14.4509 310.348 13.9692C309.865 13.4875 309.212 13.217 308.53 13.217H225.766Z" fill="#E0E0E0"/>
<path d="M213.086 139.037H130.312C129.601 139.036 128.919 138.753 128.416 138.25C127.913 137.747 127.63 137.065 127.629 136.354V15.7861C127.63 15.0747 127.913 14.3929 128.416 13.8899C128.919 13.3869 129.601 13.1037 130.312 13.1025H213.086C213.797 13.1037 214.479 13.3869 214.982 13.8899C215.485 14.3929 215.768 15.0747 215.769 15.7861V136.354C215.768 137.065 215.485 137.747 214.982 138.25C214.479 138.753 213.797 139.036 213.086 139.037ZM130.312 13.217C129.635 13.2243 128.989 13.498 128.512 13.9788C128.035 14.4597 127.767 15.109 127.766 15.7861V136.354C127.767 137.035 128.039 137.687 128.52 138.169C129.002 138.65 129.654 138.921 130.335 138.923H213.086C213.767 138.921 214.42 138.65 214.901 138.169C215.383 137.687 215.654 137.035 215.655 136.354V15.7861C215.654 15.1051 215.383 14.4524 214.901 13.9708C214.42 13.4893 213.767 13.2182 213.086 13.217H130.312Z" fill="#E0E0E0"/>
<path d="M117.691 139.037H34.9264C34.2143 139.037 33.5312 138.755 33.0272 138.251C32.5232 137.748 32.2395 137.066 32.2383 136.354V15.7861C32.2395 15.0739 32.5232 14.3914 33.0272 13.8883C33.5312 13.3851 34.2143 13.1025 34.9264 13.1025H117.691C118.402 13.1037 119.084 13.3869 119.587 13.8899C120.09 14.3929 120.373 15.0747 120.374 15.7861V136.354C120.373 137.065 120.09 137.747 119.587 138.25C119.084 138.753 118.402 139.036 117.691 139.037ZM34.9264 13.217C34.2446 13.217 33.5907 13.4875 33.1082 13.9692C32.6257 14.4509 32.354 15.1043 32.3528 15.7861V136.354C32.354 137.035 32.6257 137.689 33.1082 138.17C33.5907 138.652 34.2446 138.923 34.9264 138.923H117.691C118.372 138.923 119.025 138.652 119.507 138.17C119.989 137.688 120.26 137.035 120.26 136.354V15.7861C120.26 15.1047 119.989 14.4513 119.507 13.9695C119.025 13.4877 118.372 13.217 117.691 13.217H34.9264Z" fill="#E0E0E0"/>
<path d="M343.458 167.004H0V167.059H343.458V167.004Z" fill="#E0E0E0"/>
<path d="M324.845 180.458H299.324V180.65H324.845V180.458Z" fill="#EBEBEB"/>
<path d="M233.399 182.546H226.699V182.738H233.399V182.546Z" fill="#EBEBEB"/>
<path d="M51.8882 174.597H18.6094V174.789H51.8882V174.597Z" fill="#EBEBEB"/>
<path d="M63.6356 174.597H58.7539V174.789H63.6356V174.597Z" fill="#EBEBEB"/>
<path d="M151.673 177.848H79.4961V178.04H151.673V177.848Z" fill="#EBEBEB"/>
<path d="M140.273 65.8338C139.521 65.3795 138.65 65.161 137.773 65.2064C137.237 64.5516 137.672 63.5716 138.189 62.9167C138.707 62.2619 139.348 61.4971 139.151 60.6728C138.844 59.4363 137.108 59.386 135.858 59.6287C135.4 58.8822 135.4 57.9572 135.181 57.0917C134.961 56.2262 134.223 55.324 133.404 55.4477C132.584 55.5713 132.08 56.4734 131.274 56.6658C130.335 56.8856 129.52 56.0567 128.788 55.4339C128.695 55.3571 128.599 55.2852 128.499 55.2187C128.655 52.645 131.105 53.0572 133.188 52.7046C134.819 52.4344 130.5 48.3129 133.793 46.9848C134.432 46.8093 134.992 46.4217 135.382 45.8858C135.549 45.4798 135.568 45.0282 135.435 44.6097C135.303 44.1912 135.028 43.8325 134.658 43.5961C133.909 43.1452 133.041 42.9283 132.167 42.9733C131.631 42.3184 132.062 41.3338 132.584 40.6835C133.106 40.0333 133.738 39.2639 133.546 38.4396C133.234 37.2032 131.503 37.1528 130.253 37.3955C129.795 36.6491 129.795 35.7194 129.575 34.8585C129.355 33.9976 128.623 33.0908 127.798 33.2099C126.974 33.329 126.475 34.2403 125.664 34.4326C124.726 34.6524 123.915 33.819 123.178 33.2007C122.441 32.5825 121.158 32.1887 120.655 33.0084C120.352 33.4938 120.531 34.1716 120.197 34.657C119.652 35.4813 118.365 34.973 117.55 34.3822C116.735 33.7915 115.452 33.2511 114.903 34.0754C114.761 34.3454 114.656 34.6335 114.591 34.9318C114.511 35.143 114.402 35.3419 114.266 35.5225C114.106 34.9501 114.056 34.3319 113.909 33.7548C113.685 32.8985 112.952 31.9872 112.128 32.1062C111.303 32.2253 110.804 33.1412 109.998 33.329C109.059 33.5534 108.249 32.7153 107.512 32.0971C106.774 31.4789 105.492 31.085 104.984 31.9093C104.681 32.3948 104.865 33.0725 104.526 33.5579C104.461 33.667 104.372 33.7595 104.265 33.8281C103.991 33.7826 103.713 33.7642 103.436 33.7732C102.895 33.1229 103.331 32.1475 103.853 31.4834C104.375 30.8194 105.011 30.0592 104.814 29.2395C104.507 27.9985 102.772 27.9527 101.517 28.1954C101.059 27.4444 101.059 26.5148 100.844 25.6584C100.629 24.802 99.8868 23.8862 99.0625 24.0144C98.2382 24.1426 97.739 25.0448 96.9331 25.2371C95.9943 25.4569 95.1837 24.6326 94.4464 24.0052C93.7091 23.3778 92.4269 22.9977 91.9186 23.8129C91.6209 24.2708 91.7995 24.9806 91.4606 25.4615C90.9157 26.2812 89.6289 25.7729 88.8183 25.1821C88.0077 24.5914 86.7163 24.051 86.1668 24.8753C86.0208 25.1457 85.9143 25.4356 85.8508 25.7362C85.4753 26.8353 84.2801 27.3848 83.3596 28.0855C82.4391 28.7862 81.7064 30.192 82.4849 31.0484C82.8696 31.4743 83.5519 31.6346 83.7443 32.1841C83.9778 32.8298 83.2863 33.4618 82.746 33.9289C82.3926 34.3209 82.1544 34.8028 82.0574 35.3215C81.9604 35.8403 82.0085 36.3757 82.1964 36.8689C81.9218 37.1169 81.5969 37.3028 81.2439 37.4138C80.328 37.6336 79.4946 36.8048 78.7573 36.1865C78.02 35.5683 76.7377 35.1745 76.234 35.9942C75.9318 36.4521 76.1104 37.1574 75.7761 37.6428C75.2311 38.4625 73.9443 37.9588 73.1337 37.368C72.3232 36.7773 71.0318 36.2369 70.4822 37.0612C70.3392 37.3313 70.2329 37.6193 70.1662 37.9176C69.7907 39.012 68.5955 39.5616 67.675 40.2668C66.7546 40.972 66.0219 42.3688 66.8004 43.2297C67.1713 43.6602 67.8078 43.8342 68.0276 44.3288C67.3774 44.0723 66.6309 44.1364 66.3287 44.6219C66.0264 45.1073 66.2096 45.785 65.8707 46.2659C65.3304 47.0902 64.039 46.5864 63.233 45.9911C62.427 45.3958 61.1264 44.86 60.5769 45.6843C60.4355 45.9562 60.3308 46.2457 60.2655 46.5452C59.8854 47.6443 58.6948 48.1847 57.7743 48.8899C56.8538 49.5951 56.1211 51.001 56.8996 51.8574C57.2843 52.2787 57.9666 52.4435 58.159 52.9931C58.3971 53.6434 57.701 54.2753 57.1652 54.7378C56.2493 55.5072 56.089 57.8198 57.2889 58.4563C57.7972 58.7219 58.5482 58.8593 58.6627 59.3722C58.7772 59.8851 58.2643 60.2561 57.93 60.6407C57.8529 60.7403 57.784 60.846 57.7239 60.9567C57.5727 61.2309 57.4769 61.5322 57.4423 61.8434C57.4076 62.1545 57.4346 62.4695 57.5218 62.7702C57.609 63.071 57.7547 63.3516 57.9504 63.5959C58.1462 63.8403 58.3882 64.0437 58.6627 64.1944C58.9512 64.3226 59.3038 64.4417 59.4137 64.7439C59.4562 64.9691 59.4307 65.2019 59.3405 65.4125C59.227 65.833 59.1882 66.2701 59.226 66.7039C59.2167 66.7757 59.2246 66.8487 59.249 66.9169C59.2734 66.985 59.3136 67.0464 59.3664 67.096C59.4191 67.1456 59.4829 67.182 59.5524 67.2022C59.6219 67.2224 59.6952 67.2259 59.7663 67.2122C61.5019 67.2901 62.3354 66.6764 63.3933 68.1831C63.4871 68.3355 63.6119 68.4666 63.7596 68.5677C63.9018 68.6395 64.0583 68.6786 64.2176 68.6822C65.4082 68.783 66.1776 68.0411 67.2766 67.8991C68.797 67.7068 69.1084 68.4853 70.4456 69.1127C72.5338 70.1019 73.5504 69.4928 73.9489 68.064C74.0511 67.659 74.1124 67.2448 74.132 66.8276C74.1285 66.5162 74.1922 66.2078 74.3186 65.9233C74.445 65.6388 74.6313 65.385 74.8647 65.179H74.8968C76.0096 65.2751 76.7652 64.6386 77.7406 64.4417L78.3634 64.373C79.522 64.373 79.9067 65.0599 81.1111 65.6094C81.666 65.8945 82.278 66.051 82.9017 66.0674C83.0757 66.7177 82.4437 67.2992 81.8896 67.748C80.9737 68.5219 80.8226 70.8346 82.0224 71.4665C82.5216 71.7321 83.2818 71.8787 83.3962 72.3824C83.5107 72.8862 82.9978 73.2663 82.6635 73.6463C82.5855 73.7436 82.5165 73.8479 82.4575 73.9577C82.1528 74.5131 82.0805 75.1665 82.2565 75.775C82.4324 76.3835 82.8422 76.8975 83.3962 77.2046C83.6802 77.3419 84.0374 77.4519 84.1427 77.7495C84.1891 77.9772 84.1651 78.2136 84.074 78.4273C83.9559 78.8453 83.917 79.2818 83.9595 79.7141C83.9503 79.7859 83.9582 79.8589 83.9826 79.927C84.007 79.9952 84.0472 80.0566 84.0999 80.1062C84.1527 80.1558 84.2164 80.1922 84.2859 80.2124C84.3555 80.2326 84.4288 80.236 84.4999 80.2224C86.2355 80.3003 87.069 79.6866 88.1268 81.1933C88.2163 81.3475 88.3401 81.4791 88.4886 81.5779C88.6392 81.6504 88.8026 81.6924 88.9694 81.7016C90.1601 81.7977 90.9294 81.0513 92.0285 80.9139C93.5443 80.7216 93.8603 81.5001 95.1883 82.1275C97.2857 83.112 98.3023 82.5076 98.6962 81.0788C98.8021 80.6728 98.8651 80.2569 98.8839 79.8377C99.0396 77.2687 101.49 77.6762 103.578 77.3282C103.651 77.3236 103.721 77.2996 103.782 77.2585C103.842 77.2174 103.89 77.1608 103.921 77.0947H104.054C105.245 77.1908 106.014 76.449 107.109 76.307C108.634 76.1147 108.94 76.8932 110.278 77.5205C112.37 78.5097 113.387 77.9006 113.781 76.4719C113.887 76.0659 113.95 75.6499 113.969 75.2308C114.106 73.2342 115.617 73.0373 117.261 72.8816C117.286 73.2709 117.411 73.6473 117.622 73.9751C117.834 74.3029 118.126 74.5712 118.47 74.7546C118.763 74.8874 119.116 75.0019 119.226 75.3041C119.266 75.5294 119.24 75.7614 119.153 75.9727C119.037 76.3911 118.998 76.8272 119.038 77.2595C119.035 77.4083 119.089 77.5527 119.189 77.6625C119.302 77.7392 119.437 77.7778 119.574 77.7724C121.309 77.8503 122.143 77.2366 123.205 78.7478C123.298 78.8988 123.421 79.0284 123.567 79.1279C123.709 79.2011 123.865 79.2418 124.025 79.247C125.216 79.3432 125.985 78.6013 127.084 78.4593C128.604 78.267 128.916 79.0455 130.253 79.6729C132.346 80.662 133.362 80.053 133.756 78.6242C133.86 78.2193 133.923 77.8051 133.944 77.3877C134.095 74.8141 136.55 75.2262 138.638 74.8736C140.268 74.6034 135.941 70.4819 139.238 69.1539C139.876 68.9781 140.434 68.5905 140.822 68.0548C140.991 67.6762 141.028 67.2523 140.929 66.8501C140.829 66.4479 140.598 66.0903 140.273 65.8338Z" fill="#E0E0E0"/>
<path d="M79.622 81.1792C78.9978 80.7986 78.2728 80.6165 77.5429 80.6571C77.085 80.1076 77.4605 79.2833 77.8909 78.7383C78.3214 78.1934 78.8572 77.5752 78.6878 76.8653C78.4405 75.8304 76.9979 75.7983 75.9401 75.9998C75.5508 75.3724 75.5646 74.5939 75.3631 73.8841C75.1616 73.1743 74.6075 72.4324 73.8793 72.5103C73.1512 72.5881 72.7757 73.3712 72.1025 73.5269C71.324 73.7147 70.6417 73.0232 70.0326 72.5057C69.4235 71.9882 68.3474 71.6631 67.9215 72.3409C67.6742 72.7484 67.8253 73.3254 67.5643 73.7147C67.1063 74.4153 66.0302 73.9803 65.357 73.4857C64.6838 72.9911 63.6122 72.5424 63.1451 73.2293C63.0305 73.4564 62.9429 73.6961 62.8841 73.9437C62.5727 74.8595 61.5835 75.3175 60.8096 75.8991C60.0357 76.4807 59.4358 77.6438 60.0861 78.372C60.4066 78.7246 60.9699 78.8711 61.1302 79.3199C61.3271 79.8969 60.7547 80.3869 60.3013 80.7716C59.5457 81.4173 59.3854 83.3452 60.4066 83.8673C60.8279 84.0871 61.4462 84.1604 61.5652 84.6229C61.6843 85.0854 61.2401 85.3602 60.9836 85.6808C60.6617 86.0978 60.518 86.6253 60.5841 87.148C60.6502 87.6707 60.9206 88.1459 61.3363 88.4696C61.4186 88.5329 61.5059 88.5896 61.5973 88.6391C61.8354 88.7536 62.1285 88.8497 62.2155 89.097C62.2612 89.2917 62.2419 89.4959 62.1606 89.6786C62.0623 90.0268 62.0297 90.3901 62.0644 90.7502C62.0643 90.8737 62.11 90.9928 62.1926 91.0845C62.2855 91.1518 62.3985 91.1857 62.5132 91.1807C63.9557 91.2448 64.6518 90.7227 65.5356 91.9866C65.6128 92.1134 65.7158 92.2227 65.8378 92.3072C65.9617 92.369 66.0979 92.4018 66.2363 92.4034C67.23 92.4858 67.8757 91.8722 68.787 91.7531C70.0464 91.5928 70.312 92.2431 71.4202 92.7652C73.165 93.5849 74.0167 93.0811 74.3281 91.8859C74.4145 91.5501 74.4666 91.2064 74.4838 90.8601C74.6121 88.7169 76.6545 89.0283 78.3947 88.7627C79.7685 88.5338 76.1553 85.0992 78.8938 83.9955C79.4279 83.8531 79.8958 83.5293 80.2173 83.0796C80.3575 82.7435 80.3748 82.3686 80.2659 82.021C80.157 81.6733 79.929 81.3753 79.622 81.1792Z" fill="#E0E0E0"/>
<path d="M106.192 69.3328L108.432 62.2301L112.791 56.6248L112.045 56.002L107.923 60.4853L107.195 53.3826H106.005C106.005 53.3826 106.98 61.8225 105.574 64.909C105.574 64.909 100.464 77.9146 97.3312 80.7264C97.1565 80.8918 97.0027 81.0778 96.8732 81.2805C95.9425 78.8858 94.7295 76.6105 93.2601 74.503C94.4919 71.3615 97.1251 64.4511 98.0227 60.7646C98.7229 57.8988 99.249 54.9932 99.598 52.0637L98.5814 51.9492C98.5814 51.9492 95.6872 65.6051 90.9062 71.824C89.4921 70.5202 87.8877 69.4393 86.1482 68.6184C85.7589 66.6996 85.5941 63.3612 86.8626 58.1452L85.8551 57.8888C84.6285 60.9757 84.0291 64.276 84.092 67.5972C83.3731 67.2346 82.6799 66.823 82.0175 66.3653C77.4427 63.1047 74.1867 57.243 74.1867 57.243L73.2708 58.1589C73.2708 58.1589 77.2046 66.7912 82.6816 69.6762C88.1586 72.5613 91.7122 79.5861 91.9961 81.4271C92.074 81.9537 92.706 86.1256 91.8267 93.4344C85.9971 90.9477 74.4248 84.1015 73.6784 83.4695L72.332 85.3013L91.0253 98.6732C91.3184 116.496 89.972 135.039 90.0178 139.05H100.903C100.638 133.518 98.3432 112.705 99.3599 90.966C99.4469 90.4302 99.5385 89.8166 99.6255 89.1022C100.477 82.4345 105.538 73.3169 107.946 70.7249C109.639 68.9349 111.46 67.2712 113.396 65.7471L112.736 64.3274L106.192 69.3328Z" fill="#E6E6E6"/>
<path d="M192.338 14.2428C192.337 13.5594 192.065 12.9043 191.581 12.4211C191.098 11.9378 190.443 11.6658 189.76 11.6646C189.51 11.6642 189.261 11.7012 189.022 11.7745C189.059 11.512 189.077 11.2473 189.077 10.9822C189.077 9.53768 188.505 8.15201 187.485 7.12883C186.465 6.10566 185.082 5.52841 183.637 5.52356C183.301 5.52408 182.965 5.55473 182.634 5.61515C182.096 4.73084 181.285 4.04555 180.323 3.66264C179.361 3.27974 178.301 3.21999 177.302 3.49241C176.303 3.76484 175.42 4.35466 174.786 5.1729C174.152 5.99114 173.801 6.9934 173.787 8.02851H173.704C172.562 8.06536 171.479 8.54493 170.685 9.36579C169.89 10.1867 169.445 11.2845 169.445 12.4271C169.445 13.5697 169.89 14.6675 170.685 15.4883C171.479 16.3092 172.562 16.7888 173.704 16.8256H189.851C190.52 16.803 191.154 16.5206 191.618 16.0384C192.083 15.5562 192.341 14.9122 192.338 14.2428Z" fill="#F0F0F0"/>
<path d="M233.816 39.8416C233.816 39.2076 233.564 38.5996 233.116 38.1513C232.668 37.703 232.06 37.4511 231.426 37.4511C231.194 37.4476 230.964 37.4817 230.743 37.5519C230.776 37.3075 230.793 37.0612 230.794 36.8146C230.787 35.4761 230.25 34.1948 229.301 33.2509C228.352 32.307 227.067 31.7772 225.729 31.7772C225.422 31.778 225.115 31.8055 224.813 31.8596C224.313 31.0416 223.561 30.4079 222.671 30.0536C221.78 29.6994 220.798 29.6438 219.873 29.8952C218.948 30.1466 218.129 30.6915 217.54 31.4478C216.951 32.2042 216.624 33.1313 216.607 34.0898H216.533C215.451 34.0898 214.413 34.5197 213.648 35.2849C212.883 36.0501 212.453 37.0879 212.453 38.1701C212.453 39.2523 212.883 40.2901 213.648 41.0553C214.413 41.8205 215.451 42.2504 216.533 42.2504H231.513C232.135 42.2289 232.724 41.9649 233.155 41.5149C233.585 41.0648 233.823 40.4643 233.816 39.8416Z" fill="#E0E0E0"/>
<path d="M96.4477 6.10025C96.4477 5.71889 96.2962 5.35314 96.0265 5.08347C95.7569 4.81381 95.3911 4.66231 95.0098 4.66231C94.87 4.65897 94.7307 4.6791 94.5976 4.72184C94.6167 4.56995 94.6258 4.41698 94.6251 4.2639C94.6215 3.46062 94.3001 2.69141 93.7313 2.12426C93.1624 1.5571 92.3922 1.23809 91.5889 1.23689C91.4 1.23546 91.2113 1.25233 91.0257 1.28726C90.7253 0.794674 90.273 0.413056 89.7369 0.199926C89.2007 -0.0132036 88.6099 -0.0462969 88.0533 0.105636C87.4967 0.257568 87.0046 0.586292 86.6512 1.04226C86.2977 1.49824 86.102 2.05675 86.0936 2.63362H86.0478C85.4157 2.66094 84.8186 2.93124 84.3811 3.38815C83.9435 3.84505 83.6992 4.45326 83.6992 5.08591C83.6992 5.71855 83.9435 6.32677 84.3811 6.78367C84.8186 7.24057 85.4157 7.51088 86.0478 7.5382H95.051C95.4252 7.52747 95.7804 7.37125 96.0412 7.10273C96.302 6.83422 96.4479 6.47459 96.4477 6.10025Z" fill="#F0F0F0"/>
<path d="M305.451 14.1275C305.451 13.7982 305.386 13.4721 305.26 13.1679C305.134 12.8637 304.949 12.5873 304.716 12.3546C304.482 12.122 304.206 11.9376 303.901 11.8119C303.597 11.6863 303.271 11.622 302.941 11.6226C302.699 11.621 302.458 11.6565 302.227 11.7279C302.263 11.4731 302.282 11.216 302.282 10.9586C302.279 10.1797 302.106 9.41084 301.774 8.70629C301.441 8.00174 300.959 7.37861 300.36 6.88083C299.761 6.38305 299.06 6.02273 298.306 5.82527C297.553 5.62781 296.765 5.59802 295.999 5.738C295.474 4.87973 294.685 4.21506 293.75 3.84401C292.815 3.47297 291.785 3.4156 290.814 3.68055C289.844 3.94551 288.985 4.51844 288.369 5.31316C287.752 6.10788 287.41 7.08141 287.394 8.08726H287.316C286.182 8.08726 285.094 8.53789 284.292 9.34002C283.49 10.1421 283.039 11.2301 283.039 12.3645C283.039 13.4988 283.49 14.5868 284.292 15.3889C285.094 16.191 286.182 16.6416 287.316 16.6416H303.015C303.669 16.6237 304.29 16.3507 304.745 15.8808C305.2 15.411 305.453 14.7817 305.451 14.1275Z" fill="#F0F0F0"/>
<path d="M170.648 44.5895C170.648 43.8377 170.349 43.1167 169.817 42.5851C169.286 42.0535 168.565 41.7548 167.813 41.7548C167.539 41.7556 167.266 41.7957 167.002 41.8739C167.045 41.5859 167.065 41.2949 167.062 41.0038C167.061 40.1228 166.866 39.253 166.491 38.4558C166.116 37.6587 165.57 36.9537 164.892 36.3909C164.215 35.8281 163.421 35.4212 162.569 35.1991C161.716 34.977 160.826 34.945 159.959 35.1055C159.368 34.1337 158.477 33.3807 157.42 32.9599C156.363 32.539 155.198 32.4733 154.1 32.7727C153.003 33.072 152.033 33.72 151.336 34.6191C150.639 35.5182 150.253 36.6195 150.237 37.757H150.146C148.899 37.8112 147.722 38.3444 146.86 39.2454C145.997 40.1463 145.516 41.3455 145.516 42.5929C145.516 43.8402 145.997 45.0394 146.86 45.9403C147.722 46.8413 148.899 47.3745 150.146 47.4287H167.895C168.634 47.4084 169.335 47.1 169.85 46.5695C170.364 46.039 170.65 45.3284 170.648 44.5895Z" fill="#E0E0E0"/>
<path d="M280.684 138.886H283.637V33.4586C283.637 30.9081 282.624 28.462 280.821 26.6585C279.017 24.855 276.571 23.8418 274.02 23.8418H271.41V26.7955H274.02C275.781 26.798 277.468 27.4983 278.713 28.7431C279.958 29.9878 280.658 31.6754 280.661 33.4357L280.684 138.886Z" fill="#E0E0E0"/>
<path d="M252.523 27.4774H273.79L273.305 24.2718C273.225 23.7473 272.979 23.2623 272.604 22.888C272.228 22.5137 271.742 22.27 271.217 22.1927C269.815 21.9866 267.984 21.7347 267.123 21.7347C264.609 21.6798 258.422 22.3255 255.372 22.6506C254.867 22.7054 254.392 22.9148 254.011 23.25C253.629 23.5853 253.361 24.0301 253.242 24.5236L252.523 27.4774Z" fill="#EBEBEB"/>
<path d="M254.772 29.7254H271.56C272.156 29.7254 272.727 29.4891 273.148 29.0684C273.57 28.6477 273.807 28.077 273.809 27.4814H252.523C252.523 27.7765 252.582 28.0687 252.695 28.3412C252.808 28.6138 252.973 28.8613 253.182 29.0698C253.391 29.2782 253.639 29.4434 253.912 29.5559C254.185 29.6684 254.477 29.726 254.772 29.7254Z" fill="#F5F5F5"/>
<path d="M266.586 34.3916L270.575 43.8023" stroke="#E0E0E0" stroke-width="0.228972" stroke-linecap="round" stroke-linejoin="round"/>
<path d="M262.682 34.3916C262.682 39.8228 262.348 44.3427 262.348 49.7739" stroke="#E0E0E0" stroke-width="0.228972" stroke-linecap="round" stroke-linejoin="round"/>
<path d="M259.356 33.9746L253.535 41.6269" stroke="#E0E0E0" stroke-width="0.228972" stroke-linecap="round" stroke-linejoin="round"/>
<path d="M291.985 193.083C291.985 194.635 238.144 195.89 171.729 195.89C105.313 195.89 51.4727 194.626 51.4727 193.083C51.4727 191.539 105.327 190.275 171.729 190.275C238.131 190.275 291.985 191.535 291.985 193.083Z" fill="#F5F5F5"/>
<path d="M136.028 69.409C137.903 64.6867 135.595 59.3382 130.873 57.4627C126.151 55.5873 120.802 57.8952 118.927 62.6175C117.052 67.3398 119.359 72.6883 124.082 74.5637C128.804 76.4391 134.153 74.1313 136.028 69.409Z" fill="#0177AA"/>
<path d="M131.094 72.2588L130.457 74.5439L133.095 75.9452L133.415 73.0281L131.094 72.2588Z" fill="#0177AA"/>
<path d="M134.961 57.8242C136.17 58.7119 137.142 59.8843 137.79 61.2376C138.438 62.5908 138.742 64.083 138.675 65.5818" stroke="#0177AA" stroke-width="0.228972" stroke-linecap="round" stroke-linejoin="round"/>
<path d="M138.549 66.9463C138.557 67.4046 138.472 67.8598 138.297 68.2835" stroke="#0177AA" stroke-width="0.228972" stroke-linecap="round" stroke-linejoin="round"/>
<path d="M127.482 66.2877C128.501 66.2877 129.328 65.4614 129.328 64.4422C129.328 63.4229 128.501 62.5967 127.482 62.5967C126.463 62.5967 125.637 63.4229 125.637 64.4422C125.637 65.4614 126.463 66.2877 127.482 66.2877Z" fill="white"/>
<path d="M127.48 66.502C126.699 66.502 125.95 66.8122 125.398 67.3644C124.845 67.9166 124.535 68.6656 124.535 69.4465H130.429C130.429 69.0595 130.353 68.6762 130.204 68.3186C130.056 67.9611 129.839 67.6363 129.565 67.3628C129.291 67.0893 128.966 66.8725 128.608 66.7248C128.25 66.5771 127.867 66.5014 127.48 66.502Z" fill="white"/>
<path d="M274.099 164.43L33.2891 170.072V128.885H276.416L274.099 164.43Z" fill="#263238"/>
<path opacity="0.5" d="M274.099 164.43L33.2891 170.072V128.885H276.416L274.099 164.43Z" fill="black"/>
<path d="M24.0234 139.453V160.34C24.0238 162.52 24.7219 164.643 26.0157 166.397C27.3094 168.151 29.1308 169.445 31.2132 170.09L32.9167 170.607C33.9638 170.935 35.0574 171.09 36.1544 171.065L47.4015 170.8C46.2046 166.614 45.9829 162.21 46.7532 157.925C47.5236 153.64 49.2656 149.588 51.8455 146.082C54.4254 142.575 57.7745 139.706 61.6358 137.695C65.4971 135.684 69.7679 134.585 74.1202 134.481C78.4725 134.378 82.7906 135.273 86.7431 137.099C90.6955 138.924 94.1771 141.631 96.9206 145.011C99.6641 148.391 101.597 152.355 102.569 156.599C103.542 160.842 103.53 165.252 102.533 169.49L216.974 166.77C216.79 165.433 216.7 164.085 216.703 162.735C216.675 158.965 217.395 155.227 218.822 151.737C220.248 148.247 222.354 145.075 225.015 142.404C227.677 139.734 230.842 137.618 234.328 136.18C237.813 134.742 241.549 134.01 245.319 134.027C249.09 134.043 252.819 134.807 256.292 136.276C259.765 137.744 262.911 139.887 265.55 142.58C268.188 145.274 270.266 148.464 271.663 151.966C273.059 155.468 273.747 159.213 273.685 162.983C273.685 163.537 273.644 164.082 273.644 164.631C273.8 164.573 273.953 164.508 274.102 164.434L278.017 162.69C279.908 161.836 281.511 160.455 282.636 158.713C283.761 156.97 284.36 154.941 284.36 152.867V110.324C284.361 108.361 283.825 106.435 282.81 104.754C281.796 103.074 280.341 101.703 278.604 100.789L249.19 85.3199C248.926 85.179 248.708 84.9648 248.563 84.7031C248.418 84.4415 248.352 84.1434 248.372 83.8449C248.392 83.5464 248.499 83.2601 248.678 83.0205C248.857 82.7809 249.102 82.5982 249.382 82.4944L252.982 81.203C253.162 81.1423 253.315 81.0223 253.418 80.8627C253.521 80.703 253.567 80.5133 253.547 80.3244C253.528 80.1355 253.446 79.9587 253.313 79.823C253.18 79.6873 253.005 79.6006 252.817 79.5773C238.836 77.6173 184.478 70.5237 155.902 74.0041C122.93 78.0386 91.3549 106.642 91.3549 106.642C67.0839 105.726 44.4569 114.175 34.7073 118.411C33.1516 119.091 31.7553 120.089 30.6079 121.341C29.4604 122.592 28.5872 124.07 28.0442 125.678L24.7287 135.552C24.2852 136.806 24.0471 138.123 24.0234 139.453Z" fill="#0177AA"/>
<path d="M217.005 166.761C216.835 165.506 216.753 164.241 216.757 162.974C216.757 162.328 216.757 161.692 216.817 161.055L196.122 152.588C194.91 152.097 193.604 151.884 192.299 151.965L120.319 156.691C119.143 156.76 117.993 157.072 116.944 157.607L103.27 164.641C103.173 166.271 102.942 167.89 102.578 169.481L217.005 166.761Z" fill="#263238"/>
<path d="M284.385 152.858V151.772L272.68 155.354C273.363 157.836 273.709 160.399 273.705 162.974C273.705 163.528 273.664 164.073 273.664 164.622C273.82 164.565 273.973 164.499 274.122 164.425L278.047 162.681C279.936 161.826 281.539 160.445 282.663 158.703C283.787 156.961 284.385 154.931 284.385 152.858Z" fill="#263238"/>
<path d="M27.3477 167.837C28.4641 168.871 29.7992 169.641 31.2539 170.09L32.9712 170.607C34.0198 170.936 35.115 171.09 36.2135 171.065L47.4422 170.813C47.0352 169.393 46.7412 167.943 46.563 166.477L27.3477 167.837Z" fill="#263238"/>
<path d="M245.27 131.807C240.85 131.802 236.48 132.738 232.451 134.553C228.421 136.368 224.824 139.02 221.898 142.332C218.972 145.645 216.785 149.542 215.482 153.765C214.179 157.988 213.79 162.44 214.34 166.826L217.042 166.762C216.5 162.884 216.763 158.937 217.814 155.166C218.866 151.395 220.683 147.881 223.152 144.843C225.622 141.805 228.691 139.309 232.168 137.51C235.646 135.711 239.456 134.648 243.362 134.387C247.269 134.126 251.187 134.673 254.872 135.994C258.558 137.314 261.932 139.38 264.783 142.063C267.635 144.745 269.903 147.986 271.447 151.584C272.99 155.182 273.775 159.059 273.754 162.974C273.754 163.528 273.708 164.073 273.708 164.623C273.864 164.565 274.017 164.499 274.166 164.426L276.414 163.409V162.974C276.406 154.71 273.119 146.787 267.275 140.943C261.43 135.1 253.507 131.814 245.242 131.807H245.27Z" fill="#263238"/>
<path d="M74.8378 131.807C70.0724 131.805 65.3702 132.896 61.0925 134.996C56.8148 137.096 53.0757 140.149 50.1625 143.921C47.2492 147.692 45.2396 152.081 44.2879 156.75C43.3363 161.42 43.4681 166.245 44.6731 170.856L47.4207 170.791C46.2364 166.609 46.0249 162.211 46.8022 157.935C47.5796 153.658 49.3253 149.616 51.9056 146.118C54.4859 142.62 57.8325 139.759 61.689 137.753C65.5456 135.748 69.8099 134.652 74.1554 134.549C78.5009 134.446 82.8124 135.338 86.7598 137.158C90.7072 138.978 94.1857 141.677 96.9292 145.049C99.6726 148.42 101.608 152.375 102.588 156.61C103.567 160.845 103.565 165.248 102.58 169.482L105.328 169.413C106.287 164.874 106.221 160.177 105.133 155.667C104.046 151.156 101.965 146.946 99.0432 143.342C96.121 139.738 92.431 136.833 88.2426 134.837C84.0541 132.841 79.4729 131.806 74.8332 131.807H74.8378Z" fill="#263238"/>
<path d="M101.96 107.837C101.688 108.081 101.481 108.389 101.361 108.734C101.241 109.079 101.211 109.449 101.274 109.809C101.337 110.169 101.491 110.507 101.72 110.791C101.95 111.075 102.249 111.296 102.588 111.432L114.494 114.766C115.543 115.063 116.641 115.146 117.723 115.009L205.923 104.082C208.129 103.771 210.141 102.651 211.569 100.941L223.15 87.468C223.544 87.0036 223.785 86.4298 223.842 85.824C224.002 84.2899 223.036 82.9069 221.694 82.7329C200.578 79.9257 173.866 77.3933 157.005 79.4357C134.905 82.133 112.653 98.7472 101.96 107.837Z" fill="#0177AA"/>
<path opacity="0.8" d="M102.359 107.837C102.086 108.08 101.88 108.389 101.76 108.734C101.64 109.079 101.61 109.449 101.673 109.809C101.735 110.169 101.889 110.507 102.119 110.791C102.349 111.075 102.647 111.295 102.986 111.432L114.892 114.766C115.941 115.063 117.039 115.146 118.121 115.009L204.352 109.101C206.5 108.826 209.815 104.883 212.16 101.678L223.544 87.4678C223.941 87.0048 224.184 86.4305 224.24 85.8237C224.396 84.2896 223.434 82.9066 222.093 82.7326C200.968 79.9346 174.265 77.3884 157.403 79.4446C135.298 82.1327 113.052 98.7469 102.359 107.837Z" fill="white"/>
<g opacity="0.3">
<path d="M159.977 116.246C159.711 116.146 159.494 115.947 159.372 115.691C159.25 115.435 159.232 115.141 159.323 114.872C159.446 114.53 159.668 114.232 159.961 114.017C160.253 113.802 160.604 113.678 160.967 113.663L171.463 113.205C171.604 113.197 171.746 113.217 171.879 113.264C172.152 113.364 172.375 113.566 172.499 113.829C172.623 114.091 172.639 114.392 172.543 114.666C172.419 115.008 172.195 115.306 171.901 115.52C171.606 115.735 171.254 115.856 170.89 115.87L160.394 116.328C160.251 116.329 160.109 116.301 159.977 116.246Z" fill="black"/>
</g>
<path d="M238.04 86.1669C237.596 86.565 237.327 87.1227 237.293 87.7182C237.258 88.3137 237.461 88.8985 237.857 89.345L240.343 92.0515C240.631 92.354 240.995 92.5738 241.397 92.688L271.887 101.146C272.418 101.289 272.966 101.361 273.517 101.361H279.575C279.259 101.151 278.934 100.958 278.6 100.78L249.186 85.2968C248.83 85.1206 248.559 84.8104 248.432 84.4342C248.305 84.0581 248.332 83.6469 248.508 83.291L238.956 85.6815C238.617 85.7711 238.304 85.9372 238.04 86.1669Z" fill="#0177AA"/>
<path d="M48.1579 122.395L37.7534 121.26L31.8001 123.705C31.1798 123.958 30.6275 124.352 30.1876 124.858C29.7477 125.363 29.4326 125.964 29.2677 126.613C29.0703 127.375 29.1805 128.185 29.5745 128.866L29.6798 129.045C30.0063 129.608 30.4929 130.061 31.0776 130.346C31.6623 130.631 32.3187 130.736 32.9633 130.648L38.9624 129.823C39.5407 129.732 40.087 129.497 40.5514 129.141L47.471 123.888L48.1579 122.395Z" fill="white"/>
<path d="M91.3789 106.628L93.0367 107.086C93.6707 107.267 94.3396 107.289 94.9841 107.15C95.6286 107.011 96.229 106.715 96.7323 106.289C106.377 98.1331 123.142 85.6175 141.231 79.7879C141.293 79.7674 141.349 79.7291 141.39 79.6776C141.431 79.6262 141.456 79.5638 141.463 79.4982C141.469 79.4326 141.456 79.3666 141.425 79.3082C141.395 79.2499 141.348 79.2017 141.29 79.1696L139.042 78.0156C112.943 87.0783 91.3789 106.628 91.3789 106.628Z" fill="#0177AA"/>
<path opacity="0.8" d="M91.3789 106.628L93.0367 107.086C93.6707 107.267 94.3396 107.289 94.9841 107.15C95.6286 107.011 96.229 106.715 96.7323 106.289C106.377 98.1331 123.142 85.6175 141.231 79.7879C141.293 79.7674 141.349 79.7291 141.39 79.6776C141.431 79.6262 141.456 79.5638 141.463 79.4982C141.469 79.4326 141.456 79.3666 141.425 79.3082C141.395 79.2499 141.348 79.2017 141.29 79.1696L139.042 78.0156C112.943 87.0783 91.3789 106.628 91.3789 106.628Z" fill="white"/>
<path opacity="0.2" d="M190.256 117.643L102.578 123.912L104.231 134.728C104.736 138.041 105.963 141.203 107.826 143.988L115.153 154.942L189.99 144.822L225.376 117.643H190.256Z" fill="white"/>
<path d="M245.244 186.709C258.355 186.709 268.984 176.08 268.984 162.969C268.984 149.858 258.355 139.229 245.244 139.229C232.133 139.229 221.504 149.858 221.504 162.969C221.504 176.08 232.133 186.709 245.244 186.709Z" fill="#263238"/>
<path opacity="0.4" d="M245.241 177.523C253.279 177.523 259.794 171.007 259.794 162.969C259.794 154.932 253.279 148.416 245.241 148.416C237.203 148.416 230.688 154.932 230.688 162.969C230.688 171.007 237.203 177.523 245.241 177.523Z" fill="white"/>
<g opacity="0.3">
<path d="M245.246 149.881H245.241C244.599 149.881 244.078 150.402 244.078 151.044V158.504C244.078 159.146 244.599 159.667 245.241 159.667H245.246C245.888 159.667 246.409 159.146 246.409 158.504V151.044C246.409 150.402 245.888 149.881 245.246 149.881Z" fill="white"/>
</g>
<g opacity="0.3">
<path d="M245.246 166.28H245.241C244.599 166.28 244.078 166.801 244.078 167.443V174.903C244.078 175.546 244.599 176.067 245.241 176.067H245.246C245.888 176.067 246.409 175.546 246.409 174.903V167.443C246.409 166.801 245.888 166.28 245.246 166.28Z" fill="white"/>
</g>
<g opacity="0.3">
<path d="M249.688 161.751C249.42 161.903 249.102 161.942 248.805 161.861C248.508 161.779 248.256 161.583 248.103 161.316C247.95 161.049 247.909 160.732 247.989 160.435C248.069 160.139 248.263 159.885 248.529 159.731L254.986 155.981C255.255 155.826 255.574 155.785 255.874 155.866C256.174 155.946 256.429 156.142 256.584 156.411C256.736 156.679 256.775 156.996 256.695 157.294C256.614 157.591 256.42 157.845 256.154 158L249.701 161.746L249.688 161.751Z" fill="white"/>
</g>
<g opacity="0.3">
<path d="M235.486 169.897C235.219 170.05 234.903 170.091 234.606 170.011C234.309 169.931 234.056 169.737 233.902 169.471C233.825 169.339 233.776 169.194 233.756 169.043C233.736 168.891 233.746 168.738 233.786 168.591C233.825 168.443 233.894 168.306 233.987 168.185C234.08 168.064 234.195 167.963 234.328 167.887L240.785 164.136C240.916 164.059 241.062 164.009 241.214 163.988C241.365 163.968 241.519 163.977 241.667 164.016C241.814 164.055 241.953 164.123 242.074 164.216C242.196 164.309 242.297 164.425 242.374 164.558C242.451 164.69 242.501 164.836 242.522 164.988C242.543 165.139 242.533 165.294 242.494 165.442C242.455 165.59 242.387 165.729 242.294 165.851C242.201 165.972 242.085 166.074 241.952 166.151L235.491 169.897H235.486Z" fill="white"/>
</g>
<g opacity="0.3">
<path d="M254.989 169.944L248.532 166.198C248.264 166.042 248.069 165.786 247.989 165.487C247.909 165.187 247.951 164.868 248.106 164.6C248.263 164.334 248.519 164.14 248.818 164.061C249.117 163.982 249.436 164.025 249.704 164.178L256.156 167.929C256.423 168.084 256.617 168.338 256.697 168.635C256.778 168.933 256.738 169.25 256.587 169.518C256.51 169.651 256.408 169.768 256.286 169.861C256.164 169.955 256.025 170.023 255.876 170.063C255.728 170.102 255.573 170.112 255.421 170.092C255.268 170.071 255.121 170.021 254.989 169.944Z" fill="white"/>
</g>
<g opacity="0.3">
<path d="M242.374 161.321C242.219 161.587 241.964 161.781 241.666 161.86C241.368 161.939 241.051 161.897 240.785 161.742L234.328 157.992C234.195 157.916 234.08 157.815 233.987 157.694C233.894 157.573 233.825 157.435 233.786 157.288C233.746 157.141 233.736 156.987 233.756 156.836C233.776 156.685 233.825 156.539 233.902 156.407C234.057 156.141 234.311 155.947 234.608 155.867C234.906 155.787 235.223 155.828 235.491 155.981L241.952 159.732C242.084 159.809 242.2 159.911 242.292 160.032C242.385 160.154 242.452 160.292 242.491 160.44C242.53 160.587 242.539 160.741 242.518 160.893C242.497 161.044 242.446 161.189 242.369 161.321H242.374Z" fill="white"/>
</g>
<path d="M243.29 162.965C243.29 162.447 243.495 161.951 243.861 161.585C244.227 161.219 244.723 161.014 245.241 161.014C245.628 161.013 246.008 161.127 246.331 161.342C246.654 161.557 246.906 161.862 247.055 162.22C247.204 162.578 247.243 162.973 247.168 163.353C247.093 163.734 246.907 164.083 246.633 164.358C246.359 164.633 246.01 164.82 245.629 164.896C245.249 164.972 244.855 164.933 244.496 164.785C244.138 164.637 243.831 164.385 243.616 164.063C243.4 163.741 243.285 163.362 243.285 162.974L243.29 162.965Z" fill="#263238"/>
<path d="M74.8375 186.714C87.9486 186.714 98.5773 176.085 98.5773 162.974C98.5773 149.863 87.9486 139.234 74.8375 139.234C61.7263 139.234 51.0977 149.863 51.0977 162.974C51.0977 176.085 61.7263 186.714 74.8375 186.714Z" fill="#263238"/>
<path opacity="0.4" d="M74.8386 177.527C82.8763 177.527 89.3921 171.011 89.3921 162.973C89.3921 154.936 82.8763 148.42 74.8386 148.42C66.801 148.42 60.2852 154.936 60.2852 162.973C60.2852 171.011 66.801 177.527 74.8386 177.527Z" fill="white"/>
<g opacity="0.3">
<path d="M74.8357 149.881H74.8312C74.1887 149.881 73.668 150.402 73.668 151.044V158.504C73.668 159.146 74.1887 159.667 74.8312 159.667H74.8357C75.4781 159.667 75.9989 159.146 75.9989 158.504V151.044C75.9989 150.402 75.4781 149.881 74.8357 149.881Z" fill="white"/>
</g>
<g opacity="0.3">
<path d="M74.8357 166.28H74.8312C74.1887 166.28 73.668 166.801 73.668 167.443V174.903C73.668 175.546 74.1887 176.067 74.8312 176.067H74.8357C75.4781 176.067 75.9989 175.546 75.9989 174.903V167.443C75.9989 166.801 75.4781 166.28 74.8357 166.28Z" fill="white"/>
</g>
<g opacity="0.3">
<path d="M79.2736 161.751C79.142 161.826 78.9968 161.874 78.8465 161.893C78.6962 161.911 78.5437 161.9 78.3978 161.86C78.2518 161.819 78.1153 161.75 77.996 161.657C77.8767 161.564 77.7771 161.448 77.7028 161.316C77.6254 161.184 77.5748 161.038 77.5539 160.887C77.533 160.736 77.5421 160.582 77.5809 160.434C77.6196 160.287 77.6871 160.148 77.7796 160.027C77.872 159.905 77.9876 159.803 78.1196 159.727L84.5857 155.976C84.7183 155.9 84.8646 155.85 85.0162 155.831C85.1679 155.811 85.3219 155.822 85.4695 155.862C85.6171 155.902 85.7554 155.97 85.8764 156.064C85.9974 156.157 86.0988 156.274 86.1748 156.406C86.251 156.539 86.3003 156.685 86.3199 156.837C86.3395 156.989 86.329 157.143 86.2891 157.29C86.2491 157.438 86.1804 157.576 86.0869 157.697C85.9934 157.818 85.877 157.92 85.7443 157.996L79.2919 161.742L79.2736 161.751Z" fill="white"/>
</g>
<g opacity="0.3">
<path d="M63.4954 169.49C63.4191 169.358 63.3696 169.213 63.3497 169.062C63.3299 168.911 63.34 168.757 63.3796 168.61C63.4191 168.463 63.4873 168.325 63.5803 168.204C63.6733 168.083 63.7891 167.982 63.9213 167.906L70.3783 164.155C70.5109 164.078 70.6574 164.027 70.8095 164.007C70.9616 163.986 71.1163 163.996 71.2648 164.035C71.4132 164.074 71.5525 164.142 71.6746 164.235C71.7967 164.328 71.8993 164.444 71.9765 164.577C72.1306 164.845 72.1719 165.164 72.0911 165.463C72.0104 165.761 71.8144 166.016 71.5461 166.17L65.0936 169.898C64.8272 170.054 64.51 170.099 64.2107 170.023C63.9115 169.947 63.6544 169.755 63.4954 169.49Z" fill="white"/>
</g>
<g opacity="0.3">
<path d="M86.1731 169.523C86.0972 169.655 85.9959 169.771 85.875 169.864C85.7541 169.957 85.616 170.024 85.4686 170.064C85.3213 170.103 85.1677 170.112 85.0166 170.092C84.8656 170.071 84.7201 170.021 84.5886 169.944L78.1224 166.198C77.8561 166.041 77.6629 165.784 77.5848 165.485C77.5067 165.185 77.5502 164.867 77.7057 164.6C77.8607 164.333 78.1151 164.139 78.413 164.06C78.711 163.981 79.0281 164.024 79.2947 164.179L85.7472 167.929C86.0135 168.084 86.2077 168.338 86.2874 168.636C86.3672 168.934 86.3261 169.251 86.1731 169.518V169.523Z" fill="white"/>
</g>
<g opacity="0.3">
<path d="M71.9674 161.33C71.8903 161.462 71.788 161.577 71.6663 161.669C71.5447 161.761 71.4061 161.828 71.2584 161.866C71.1108 161.904 70.957 161.913 70.806 161.892C70.655 161.871 70.5096 161.82 70.3783 161.742L63.9213 157.992C63.7891 157.916 63.6733 157.814 63.5803 157.694C63.4873 157.573 63.4191 157.435 63.3796 157.288C63.34 157.141 63.3299 156.987 63.3497 156.836C63.3696 156.685 63.4191 156.539 63.4954 156.407C63.6506 156.138 63.906 155.942 64.2056 155.862C64.5051 155.781 64.8245 155.822 65.0936 155.977L71.5461 159.727C71.8124 159.882 72.0066 160.136 72.0863 160.434C72.1661 160.732 72.125 161.049 71.9719 161.316L71.9674 161.33Z" fill="white"/>
</g>
<path d="M74.8382 161.014C75.2261 161.013 75.6055 161.127 75.9284 161.342C76.2513 161.557 76.5033 161.862 76.6523 162.22C76.8014 162.578 76.8408 162.973 76.7657 163.353C76.6906 163.734 76.5043 164.083 76.2304 164.358C75.9564 164.633 75.6072 164.82 75.2269 164.896C74.8466 164.972 74.4522 164.933 74.0938 164.785C73.7354 164.637 73.429 164.385 73.2135 164.063C72.9979 163.741 72.8828 163.362 72.8828 162.974C72.8828 162.455 73.0887 161.957 73.4553 161.589C73.8218 161.222 74.3192 161.015 74.8382 161.014Z" fill="#263238"/>
<path opacity="0.3" d="M281.872 118.191C282.06 118.133 282.235 118.038 282.386 117.912C282.537 117.786 282.662 117.631 282.754 117.457C282.845 117.283 282.901 117.092 282.919 116.896C282.937 116.7 282.916 116.502 282.857 116.314C282.582 111.313 281.519 106.867 278.456 103.807C278.356 103.481 278.148 103.198 277.865 103.006C277.583 102.814 277.244 102.723 276.903 102.75L258.815 104.458C258.499 104.49 258.201 104.623 257.967 104.838C257.821 104.969 257.702 105.129 257.617 105.307C257.533 105.484 257.484 105.677 257.475 105.874C257.465 106.07 257.494 106.267 257.56 106.452C257.627 106.638 257.729 106.808 257.862 106.954L263.041 112.54C263.221 112.733 263.449 112.875 263.701 112.953L281.02 118.201C281.299 118.278 281.595 118.275 281.872 118.191Z" fill="black"/>
<path d="M101.294 108.991C101.163 109.487 101.224 110.014 101.464 110.467C101.704 110.92 102.106 111.266 102.59 111.437L114.496 114.77C115.57 115.1 116.681 115.29 117.803 115.338L121.549 115.086L118.013 96.0039C109.857 101.362 109.312 101.609 101.985 107.846C101.632 108.139 101.389 108.543 101.294 108.991Z" fill="#263238"/>
<path d="M178.786 78.8223L171.312 111.41L181.09 110.704L185.55 79.1062C183.266 78.9902 181.012 78.8955 178.786 78.8223Z" fill="#263238"/>
<path d="M209.801 104.609L223.539 87.4593C223.944 86.9918 224.193 86.4087 224.249 85.7924C224.391 84.2629 223.429 82.8891 222.101 82.7059C219.289 82.3258 216.294 81.9594 213.304 81.5977" fill="#263238"/>
<path d="M112.109 112.288C111.544 112.295 110.983 112.19 110.459 111.981C109.935 111.771 109.457 111.459 109.053 111.065C108.649 110.67 108.327 110.2 108.105 109.681C107.882 109.161 107.765 108.603 107.758 108.039C107.747 107.057 108.071 106.101 108.676 105.329C109.281 104.556 110.132 104.013 111.087 103.789L116.821 102.447L118.282 112.064L112.223 112.298L112.109 112.288Z" fill="#0177AA"/>
<path opacity="0.3" d="M116.603 112.119L118.283 112.055L116.822 102.447L115.188 102.832L116.603 112.119Z" fill="black"/>
<path opacity="0.6" d="M180.886 110.709C180.96 114.084 180.923 117.656 180.557 119.483C179.746 123.541 173.422 153.206 173.422 153.206" stroke="black" stroke-width="0.228972" stroke-linecap="round" stroke-linejoin="round"/>
<path opacity="0.6" d="M101.238 109.692C101.238 109.692 103.13 135.337 106.005 140.535C108.813 145.595 116.946 157.621 116.946 157.621" stroke="black" stroke-width="0.228972" stroke-linecap="round" stroke-linejoin="round"/>
<path opacity="0.6" d="M94.6397 107.256C94.6397 107.256 74.4261 112.247 68.4774 113.209C63.5911 113.992 43.7484 118.824 37.7539 121.269" stroke="black" stroke-width="0.228972" stroke-linecap="round" stroke-linejoin="round"/>
<path opacity="0.8" d="M238.04 86.1669C237.596 86.565 237.327 87.1227 237.293 87.7182C237.258 88.3137 237.461 88.8985 237.857 89.345L240.343 92.0515C240.631 92.354 240.995 92.5738 241.397 92.688L271.887 101.146C272.418 101.289 272.966 101.361 273.517 101.361H279.575C279.259 101.151 278.934 100.958 278.6 100.78L249.186 85.2968C248.83 85.1206 248.559 84.8104 248.432 84.4342C248.305 84.0581 248.332 83.6469 248.508 83.291L238.956 85.6815C238.617 85.7711 238.304 85.9372 238.04 86.1669Z" fill="white"/>
<path d="M123.512 105.657C123.238 105.822 120 109.17 120 109.17L120.632 113.319L124.703 109.115L123.512 105.657Z" fill="#263238"/>
<path d="M128.389 114.308C128.045 114.478 127.648 114.504 127.285 114.381C126.922 114.258 126.622 113.997 126.452 113.653L119.981 100.565C119.897 100.395 119.848 100.21 119.835 100.021C119.823 99.8322 119.848 99.6426 119.908 99.4631C119.969 99.2836 120.065 99.1179 120.19 98.9754C120.314 98.8329 120.466 98.7164 120.636 98.6325C120.806 98.5479 120.991 98.4977 121.181 98.4848C121.371 98.4719 121.561 98.4966 121.741 98.5574C121.921 98.6183 122.087 98.7141 122.23 98.8393C122.373 98.9646 122.489 99.1169 122.573 99.2874L129.03 112.375C129.201 112.717 129.229 113.112 129.109 113.474C128.989 113.836 128.73 114.136 128.389 114.308Z" fill="#263238"/>
<path d="M135.438 98.5544C135.438 98.5544 138.643 111.34 140.516 111.835C143.923 112.709 155.628 111.729 155.399 111.354L154.905 105.474C154.905 105.474 143.103 107.425 143.195 107.219L138.758 97.2676L135.438 98.5544Z" fill="#EBB373"/>
<path d="M138.381 98.0415C138.381 98.0415 139.434 97.0615 139.461 95.8709C139.489 94.6802 139.832 93.7414 139.791 92.8576C139.75 91.9738 139.013 92.9125 138.719 93.4895C138.426 94.0666 138.087 94.726 137.689 94.4329C137.291 94.1398 135.55 90.2656 134.941 89.9267C134.332 89.5879 134.428 90.3023 134.428 90.3023C134.428 90.3023 133.971 89.3864 133.563 89.4505C133.453 89.4505 133.233 89.6932 133.375 90.1466C133.682 91.1724 134.442 93.2926 134.442 93.2926C134.401 93.169 133.274 90.6228 133.068 90.261C132.78 89.8031 132.409 89.7161 132.152 89.8901C131.772 90.1374 133.068 93.343 133.023 93.517C133.023 93.517 132.34 91.6486 131.763 91.557C131.186 91.4654 131.548 92.6698 132.07 93.6681C132.528 94.584 133.247 96.5028 133.824 97.3866C134.534 98.472 135.253 99.0444 136.457 98.8612C137.158 98.7578 137.821 98.4755 138.381 98.0415Z" fill="#EBB373"/>
<path opacity="0.3" d="M134.52 90.4121C134.858 91.1692 135.164 91.9325 135.435 92.7018" stroke="black" stroke-width="0.114486" stroke-linecap="round" stroke-linejoin="round"/>
<path opacity="0.3" d="M133.262 94.2552C134.094 93.5722 135.108 93.1487 136.179 93.0371" stroke="black" stroke-width="0.114486" stroke-linecap="round" stroke-linejoin="round"/>
<path opacity="0.3" d="M137.424 94.8955C137.057 95.1372 136.784 95.4977 136.65 95.9167C136.518 96.3355 136.536 96.7873 136.701 97.1944" stroke="black" stroke-width="0.114486" stroke-linecap="round" stroke-linejoin="round"/>
<path d="M168.861 104.577C166.718 101.746 163.316 102.03 161.104 102.42L156.726 103.139C156.586 103.16 156.448 103.194 156.314 103.239L155.316 103.546L145.941 106.55L148.204 112.549L151.267 112.174L150.754 113.003L153.759 112.81L170.157 111.954V108.629C170.177 107.174 169.722 105.751 168.861 104.577Z" fill="#263238"/>
<path d="M167.975 109.298C167.975 109.298 165.919 123.087 164.462 124.547C160.991 128.037 148.137 118.438 148.137 118.438L148.535 114.734L159.636 119.313L161.715 107.617L167.975 109.298Z" fill="#EBB373"/>
<path d="M169.662 108.36C169.561 108.698 168.677 118.32 168.677 118.32L159.262 117.441C159.262 117.441 159.752 114.771 160.462 110.114C161.208 105.246 161.638 102.786 164.052 102.393C168.618 101.628 169.662 108.36 169.662 108.36Z" fill="#263238"/>
<path d="M166.508 86.575C167.928 89.0662 168.422 90.5545 168.551 92.945C168.702 95.7338 168.573 98.1976 167.951 98.8982C167.135 99.8141 158.306 100.73 153.356 100.515C153.177 100.515 153.031 98.9395 153.031 98.9395C153.031 98.9395 152.33 100.474 152.115 100.46C150.764 100.4 149.898 100.35 149.898 100.35C149.898 100.35 151.02 98.0602 152.39 89.7348C153.058 85.6774 157.143 84.0563 159.547 83.7495C163.541 83.2549 166.508 86.575 166.508 86.575Z" fill="#263238"/>
<path d="M154.742 94.4152C153.446 92.1758 152.159 86.1401 157.558 84.2809C164.295 81.9545 167.308 86.25 167.89 90.5089C168.471 94.7678 166.058 97.9826 161.616 97.662C157.174 97.3414 155.635 95.9676 154.742 94.4152Z" fill="#263238"/>
<path d="M164.094 94.7168L160.115 98.3803L159.364 99.1955C159.586 99.7535 159.74 100.336 159.822 100.931C159.879 101.559 159.701 102.185 159.323 102.69L158.43 104.723C160.422 103.161 164.96 102.323 164.96 102.323C164.203 99.8632 163.91 97.284 164.094 94.7168Z" fill="#EBB373"/>
<path opacity="0.2" d="M159.822 101.151C160.893 100.578 162.111 99.557 162.011 98.3206C161.986 97.8672 161.908 97.4183 161.777 96.9834L159.52 99.6944C159.672 100.168 159.773 100.656 159.822 101.151Z" fill="black"/>
<path d="M165.361 90.6734C164.821 94.5659 164.674 96.2191 162.563 98.1745C159.39 101.115 154.778 99.8598 154.151 95.9535C153.588 92.4319 154.563 86.6618 158.474 85.201C159.303 84.8599 160.208 84.7463 161.096 84.872C161.984 84.9976 162.822 85.3579 163.524 85.9157C164.226 86.4734 164.766 87.2084 165.089 88.0448C165.412 88.8812 165.506 89.7886 165.361 90.6734Z" fill="#EBB373"/>
<path d="M160.4 91.8409C160.359 92.2348 160.102 92.5462 159.828 92.537C159.553 92.5279 159.37 92.2073 159.397 91.8135C159.425 91.4196 159.695 91.1082 159.97 91.1174C160.244 91.1265 160.441 91.4471 160.4 91.8409Z" fill="#263238"/>
<path d="M156.341 91.59C156.299 91.9655 156.048 92.2632 155.777 92.2586C155.507 92.254 155.319 91.938 155.356 91.5671C155.393 91.1961 155.649 90.8939 155.919 90.8985C156.19 90.9031 156.377 91.2053 156.341 91.59Z" fill="#263238"/>
<path d="M161.017 90.4215C160.991 90.4272 160.963 90.4268 160.937 90.4205C160.911 90.4142 160.887 90.402 160.866 90.3849C160.669 90.2312 160.439 90.1249 160.195 90.0741C159.95 90.0233 159.697 90.0293 159.455 90.0918C159.431 90.1011 159.406 90.1054 159.38 90.1044C159.354 90.1034 159.329 90.0971 159.306 90.086C159.283 90.0748 159.262 90.059 159.245 90.0395C159.228 90.02 159.216 89.9973 159.208 89.9727C159.197 89.9206 159.205 89.8661 159.233 89.8202C159.26 89.7743 159.303 89.7404 159.355 89.7254C159.659 89.6399 159.979 89.6273 160.29 89.6886C160.6 89.7498 160.891 89.8832 161.141 90.0781C161.16 90.0948 161.175 90.1156 161.186 90.1389C161.197 90.1622 161.202 90.1875 161.202 90.2131C161.202 90.2388 161.197 90.2641 161.186 90.2874C161.175 90.3107 161.16 90.3315 161.141 90.3482C161.109 90.3861 161.065 90.412 161.017 90.4215Z" fill="#263238"/>
<path d="M155.046 89.6197C155.004 89.5975 154.973 89.5597 154.959 89.5144C154.947 89.4652 154.954 89.4131 154.98 89.3693C155.005 89.3256 155.047 89.2938 155.096 89.2809C155.391 89.1849 155.704 89.158 156.01 89.2025C156.317 89.247 156.609 89.3616 156.864 89.5373C156.883 89.5536 156.897 89.5737 156.908 89.5962C156.918 89.6187 156.923 89.6431 156.923 89.6678C156.923 89.6925 156.918 89.7169 156.908 89.7394C156.897 89.7619 156.883 89.782 156.864 89.7983C156.826 89.8325 156.776 89.8513 156.724 89.8513C156.673 89.8513 156.623 89.8325 156.585 89.7983C156.381 89.6632 156.148 89.5762 155.906 89.5436C155.663 89.5111 155.416 89.534 155.183 89.6106C155.14 89.6297 155.092 89.6329 155.046 89.6197Z" fill="#263238"/>
<path d="M162.258 87.0097C160.957 88.2553 161.342 93.2148 164.804 94.0208C168.866 93.2789 166.15 83.3049 162.258 87.0097Z" fill="#263238"/>
<path d="M157.203 95.275C157.448 95.7493 157.66 96.2406 157.835 96.7449L158.114 96.6992C159.369 96.4656 159.878 95.939 160.056 95.4307C160.139 95.1799 160.161 94.9131 160.12 94.6521C160.1 94.5039 160.06 94.3591 160.001 94.2217C159.41 94.7437 158.252 95.0506 157.629 95.1879C157.368 95.2521 157.203 95.275 157.203 95.275Z" fill="#263238"/>
<path d="M157.629 95.1879L157.826 95.6184C159.012 95.394 159.813 95.078 160.116 94.6521C160.096 94.5039 160.056 94.3591 159.996 94.2217C159.41 94.7437 158.252 95.0506 157.629 95.1879Z" fill="white"/>
<path d="M158.113 96.7001C159.368 96.4666 159.876 95.94 160.055 95.4316C159.58 95.5298 159.125 95.7112 158.713 95.9674C158.441 96.1421 158.231 96.3986 158.113 96.7001Z" fill="#DC5753"/>
<path d="M157.45 91.3555C157.018 92.2723 156.472 93.1309 155.824 93.9108C156.282 94.4145 157.198 94.2039 157.198 94.2039L157.45 91.3555Z" fill="#E4873E"/>
<path d="M159.199 90.8936L160.088 91.15C159.657 91.5896 159.199 90.8936 159.199 90.8936Z" fill="#263238"/>
<path d="M155.195 90.6729L156.079 90.9293C155.653 91.3598 155.195 90.6729 155.195 90.6729Z" fill="#263238"/>
<path d="M158.546 84.3405C156.976 84.7984 155.217 87.3858 154.883 88.4024C157.058 88.8604 163.066 87.079 163.066 87.079C163.066 87.079 166.963 88.352 165.054 86.2592C163.144 84.1664 158.546 84.3405 158.546 84.3405Z" fill="#263238"/>
<path d="M166.399 93.8792C165.949 94.5784 165.241 95.072 164.43 95.253C163.386 95.4636 162.928 93.7738 163.326 92.7572C163.513 92.2977 163.858 91.9204 164.299 91.6935C164.74 91.4667 165.248 91.4054 165.73 91.5207C166.692 91.7909 166.967 92.9999 166.399 93.8792Z" fill="#EBB373"/>
<path d="M152.954 89.0244C152.715 90.7436 152.293 92.4324 151.695 94.0618C151.04 95.6646 149.68 98.9801 148.191 99.8777" stroke="#263238" stroke-width="0.228972" stroke-miterlimit="10"/>
<path d="M164.122 95.1612C164.115 95.3052 164.151 95.448 164.225 95.5716C164.299 95.6952 164.408 95.794 164.538 95.8556C164.669 95.9171 164.814 95.9385 164.957 95.9172C165.1 95.8959 165.233 95.8327 165.339 95.7357C165.446 95.6387 165.521 95.5123 165.556 95.3724C165.591 95.2325 165.583 95.0854 165.534 94.9499C165.485 94.8143 165.397 94.6963 165.281 94.6108C165.165 94.5253 165.026 94.4762 164.882 94.4697C164.787 94.4648 164.691 94.4788 164.601 94.511C164.511 94.5431 164.429 94.5928 164.358 94.6571C164.287 94.7214 164.23 94.799 164.19 94.8855C164.149 94.9721 164.126 95.0658 164.122 95.1612Z" fill="#0177AA"/>
<path opacity="0.1" d="M165.627 92.7385C165.457 92.6817 165.275 92.6644 165.097 92.688C164.919 92.7116 164.748 92.7754 164.598 92.8747C164.448 92.974 164.323 93.1061 164.231 93.261C164.14 93.4159 164.085 93.5896 164.07 93.7689" stroke="black" stroke-width="0.228972" stroke-linecap="round" stroke-linejoin="round"/>
<path d="M152.902 117.297L148.533 114.733L147.342 113.208C147.342 113.208 146.115 111.761 145.126 111.665C144.629 111.649 144.136 111.752 143.688 111.967C143.688 111.967 142.543 112.69 143.23 113.799C143.23 113.799 142.099 114.38 142.868 115.63C142.868 115.63 141.783 115.653 142.712 116.789C143.07 117.219 143.511 117.572 144.008 117.829C144.505 118.085 145.049 118.239 145.606 118.282C146.251 118.343 146.901 118.285 147.525 118.113L152.347 121.282L152.902 117.297Z" fill="#EBB373"/>
<path d="M160.089 112.495L160.877 107.554L158.473 112.55L160.089 112.495Z" fill="black"/>
<path d="M151.266 112.174L153.23 108.186L149.457 112.399L151.266 112.174Z" fill="black"/>
</g>
<defs>
<clipPath id="clip0_9053_132494">
<rect width="343.458" height="196" fill="white"/>
</clipPath>
</defs>
</svg>
