<svg width="53" height="35" viewBox="0 0 53 35" fill="none" xmlns="http://www.w3.org/2000/svg">
<path fill-rule="evenodd" clip-rule="evenodd" d="M49.3537 16.4105C50.3642 19.1895 50.8695 21.9684 50.8695 25C50.8695 28.0316 50.3642 30.8105 49.3537 33.5895L41.0168 30.0526C41.7747 28.5368 42.0274 26.7684 42.0274 25C42.0274 23.2316 41.7747 21.4632 41.0168 19.9474L49.3537 16.4105Z" fill="black"/>
<path fill-rule="evenodd" clip-rule="evenodd" d="M36.722 3.021C42.0273 5.54731 46.322 9.84205 48.8483 15.1473L40.5115 18.6842V18.1789L45.5641 12.1157L38.7431 15.6526C37.4799 13.8842 35.4589 12.3684 33.1852 11.3578L36.722 3.021Z" fill="black"/>
<path fill-rule="evenodd" clip-rule="evenodd" d="M12.7221 19.9474C11.9642 21.4632 11.7116 23.2316 11.7116 25C11.7116 26.7684 11.9642 28.5368 12.7221 30.0526L4.38524 33.5895C3.37471 30.8105 2.86945 28.0316 2.86945 25C2.86945 21.9684 3.37471 19.1895 4.38524 16.4105L12.7221 19.9474Z" fill="black"/>
<path fill-rule="evenodd" clip-rule="evenodd" d="M20.5537 11.3578C17.2695 12.8736 14.7431 15.3999 13.2273 18.6842L4.8905 15.1473C7.41682 9.84205 11.7116 5.54731 17.0168 3.021L20.5537 11.3578Z" fill="black"/>
<path fill-rule="evenodd" clip-rule="evenodd" d="M26.8694 1C29.901 1 32.68 1.50526 35.4589 2.51579L31.9221 10.8526C30.4063 10.0947 28.6379 9.8421 26.8694 9.8421C25.101 9.8421 23.3326 10.0947 21.8168 10.8526L18.28 2.51579C21.0589 1.50526 23.8379 1 26.8694 1Z" fill="black"/>
<path fill-rule="evenodd" clip-rule="evenodd" d="M42.5326 14.6421L36.4695 21.7158C34.4484 23.9895 32.4274 26.2631 30.659 28.5368C26.6169 34.0947 19.2905 27.021 26.3642 23.2316L34.4484 18.9368L42.5326 14.6421ZM26.8695 25C28.1326 25 28.8905 26.0105 28.8905 27.021C28.8905 28.2842 28.1326 29.2947 26.8695 29.2947C25.6063 29.2947 24.8484 28.2842 24.8484 27.021C24.8484 26.0105 25.6063 25 26.8695 25Z" fill="black"/>
</svg>
