<svg width="516" height="516" viewBox="0 0 516 516" fill="none" xmlns="http://www.w3.org/2000/svg">
<mask id="path-1-inside-1_4336_75273" fill="white">
<path d="M440.434 440.434C476.516 404.352 501.088 358.38 511.043 308.333C520.998 258.286 515.888 206.411 496.361 159.268C476.834 112.124 443.765 71.8303 401.337 43.4808C358.909 15.1314 309.028 2.33174e-06 258 0C206.972 -2.33173e-06 157.091 15.1314 114.663 43.4808C72.235 71.8302 39.1665 112.124 19.6391 159.268C0.111674 206.411 -4.99759 258.286 4.95739 308.333C14.9124 358.38 39.4845 404.352 75.5664 440.434L78.0873 437.913C42.504 402.329 18.2714 356.993 8.45399 307.638C-1.36344 258.282 3.67523 207.124 22.9328 160.632C42.1904 114.14 74.8019 74.4028 116.644 46.4451C158.485 18.4874 207.678 3.56509 258 3.56509C308.322 3.5651 357.515 18.4874 399.356 46.4451C441.198 74.4028 473.81 114.14 493.067 160.632C512.325 207.124 517.363 258.282 507.546 307.638C497.729 356.993 473.496 402.329 437.913 437.913L440.434 440.434Z"/>
</mask>
<path d="M440.434 440.434C476.516 404.352 501.088 358.38 511.043 308.333C520.998 258.286 515.888 206.411 496.361 159.268C476.834 112.124 443.765 71.8303 401.337 43.4808C358.909 15.1314 309.028 2.33174e-06 258 0C206.972 -2.33173e-06 157.091 15.1314 114.663 43.4808C72.235 71.8302 39.1665 112.124 19.6391 159.268C0.111674 206.411 -4.99759 258.286 4.95739 308.333C14.9124 358.38 39.4845 404.352 75.5664 440.434L78.0873 437.913C42.504 402.329 18.2714 356.993 8.45399 307.638C-1.36344 258.282 3.67523 207.124 22.9328 160.632C42.1904 114.14 74.8019 74.4028 116.644 46.4451C158.485 18.4874 207.678 3.56509 258 3.56509C308.322 3.5651 357.515 18.4874 399.356 46.4451C441.198 74.4028 473.81 114.14 493.067 160.632C512.325 207.124 517.363 258.282 507.546 307.638C497.729 356.993 473.496 402.329 437.913 437.913L440.434 440.434Z" stroke="url(#paint0_linear_4336_75273)" stroke-width="4" mask="url(#path-1-inside-1_4336_75273)"/>
<path opacity="0.2" d="M358.97 358.97C379.039 338.901 392.706 313.332 398.243 285.495C403.78 257.659 400.938 228.806 390.077 202.585C379.216 176.364 360.823 153.952 337.224 138.184C313.626 122.416 285.882 114 257.5 114C229.118 114 201.374 122.416 177.776 138.184C154.177 153.952 135.784 176.364 124.923 202.585C114.062 228.806 111.22 257.659 116.757 285.495C122.294 313.332 135.961 338.901 156.03 358.97L168.061 346.939C150.372 329.25 138.325 306.712 133.444 282.176C128.564 257.64 131.069 232.208 140.642 209.096C150.216 185.984 166.428 166.229 187.228 152.331C208.029 138.432 232.483 131.014 257.5 131.014C282.517 131.014 306.971 138.432 327.772 152.331C348.572 166.229 364.784 185.984 374.358 209.096C383.931 232.208 386.436 257.64 381.556 282.176C376.675 306.712 364.628 329.25 346.939 346.939L358.97 358.97Z" fill="url(#paint1_linear_4336_75273)"/>
<mask id="path-3-inside-2_4336_75273" fill="white">
<path d="M358.97 358.97C379.039 338.901 392.706 313.332 398.243 285.495C403.78 257.659 400.938 228.806 390.077 202.585C379.216 176.364 360.823 153.952 337.224 138.184C313.626 122.416 285.882 114 257.5 114C229.118 114 201.374 122.416 177.776 138.184C154.177 153.952 135.784 176.364 124.923 202.585C114.062 228.806 111.22 257.659 116.757 285.495C122.294 313.332 135.961 338.901 156.03 358.97L157.432 357.568C137.641 337.776 124.163 312.56 118.702 285.109C113.242 257.657 116.044 229.203 126.755 203.344C137.466 177.485 155.605 155.383 178.877 139.833C202.15 124.283 229.511 115.983 257.5 115.983C285.489 115.983 312.85 124.283 336.123 139.833C359.395 155.383 377.534 177.485 388.245 203.344C398.956 229.203 401.758 257.657 396.298 285.109C390.837 312.56 377.359 337.776 357.568 357.568L358.97 358.97Z"/>
</mask>
<path d="M358.97 358.97C379.039 338.901 392.706 313.332 398.243 285.495C403.78 257.659 400.938 228.806 390.077 202.585C379.216 176.364 360.823 153.952 337.224 138.184C313.626 122.416 285.882 114 257.5 114C229.118 114 201.374 122.416 177.776 138.184C154.177 153.952 135.784 176.364 124.923 202.585C114.062 228.806 111.22 257.659 116.757 285.495C122.294 313.332 135.961 338.901 156.03 358.97L157.432 357.568C137.641 337.776 124.163 312.56 118.702 285.109C113.242 257.657 116.044 229.203 126.755 203.344C137.466 177.485 155.605 155.383 178.877 139.833C202.15 124.283 229.511 115.983 257.5 115.983C285.489 115.983 312.85 124.283 336.123 139.833C359.395 155.383 377.534 177.485 388.245 203.344C398.956 229.203 401.758 257.657 396.298 285.109C390.837 312.56 377.359 337.776 357.568 357.568L358.97 358.97Z" stroke="url(#paint2_linear_4336_75273)" stroke-width="2" mask="url(#path-3-inside-2_4336_75273)"/>
<path opacity="0.5" d="M437.044 437.044C472.357 401.732 496.406 356.741 506.148 307.76C515.891 258.78 510.891 208.011 491.78 161.872C472.668 115.734 440.305 76.299 398.781 48.5539C357.258 20.8089 308.44 6 258.5 6C208.56 6 159.742 20.8089 118.219 48.5539C76.6951 76.299 44.3316 115.734 25.2204 161.872C6.10929 208.011 1.10895 258.78 10.8517 307.76C20.5945 356.741 44.6428 401.732 79.9555 437.044L90.7331 426.267C57.5519 393.086 34.9553 350.81 25.8006 304.787C16.6459 258.763 21.3444 211.058 39.302 167.705C57.2595 124.352 87.6695 87.2972 126.686 61.227C165.703 35.1567 211.575 21.2417 258.5 21.2417C305.425 21.2417 351.297 35.1567 390.314 61.227C429.331 87.2972 459.741 124.352 477.698 167.705C495.656 211.058 500.354 258.763 491.199 304.787C482.045 350.81 459.448 393.086 426.267 426.267L437.044 437.044Z" fill="url(#paint3_linear_4336_75273)"/>
<path opacity="0.2" d="M423.609 423.609C456.265 390.954 478.504 349.348 487.513 304.054C496.523 258.759 491.899 211.81 474.226 169.143C456.553 126.477 426.625 90.0092 388.226 64.3519C349.827 38.6945 304.682 25 258.5 25C212.318 25 167.173 38.6945 128.774 64.3518C90.3755 90.0091 60.4472 126.477 42.7741 169.143C25.1011 211.81 20.477 258.759 29.4866 304.054C38.4963 349.348 60.735 390.954 93.3906 423.609L99.3513 417.649C67.8747 386.172 46.4388 346.068 37.7545 302.409C29.0701 258.75 33.5272 213.496 50.5623 172.369C67.5973 131.243 96.4451 96.092 133.458 71.361C170.47 46.6299 213.985 33.4298 258.5 33.4298C303.015 33.4298 346.53 46.6299 383.542 71.361C420.555 96.092 449.403 131.243 466.438 172.369C483.473 213.496 487.93 258.75 479.246 302.409C470.561 346.068 449.125 386.172 417.649 417.649L423.609 423.609Z" fill="url(#paint4_linear_4336_75273)"/>
<mask id="path-6-outside-3_4336_75273" maskUnits="userSpaceOnUse" x="23" y="24" width="471" height="402" fill="black">
<rect fill="white" x="23" y="24" width="471" height="402"/>
<path d="M423.609 423.609C456.265 390.954 478.504 349.348 487.513 304.054C496.523 258.759 491.899 211.81 474.226 169.143C456.553 126.477 426.625 90.0092 388.226 64.3519C349.827 38.6945 304.682 25 258.5 25C212.318 25 167.173 38.6945 128.774 64.3518C90.3755 90.0091 60.4472 126.477 42.7741 169.143C25.1011 211.81 20.477 258.759 29.4866 304.054C38.4963 349.348 60.735 390.954 93.3906 423.609L94.2833 422.717C61.8043 390.238 39.6858 348.857 30.7249 303.807C21.764 258.758 26.363 212.062 43.9405 169.627C61.5181 127.191 91.2845 90.9202 129.476 65.4016C167.667 39.883 212.568 26.2625 258.5 26.2625C304.432 26.2625 349.333 39.883 387.524 65.4016C425.716 90.9202 455.482 127.191 473.059 169.627C490.637 212.062 495.236 258.758 486.275 303.807C477.314 348.857 455.196 390.238 422.717 422.717L423.609 423.609Z"/>
</mask>
<path d="M423.609 423.609C456.265 390.954 478.504 349.348 487.513 304.054C496.523 258.759 491.899 211.81 474.226 169.143C456.553 126.477 426.625 90.0092 388.226 64.3519C349.827 38.6945 304.682 25 258.5 25C212.318 25 167.173 38.6945 128.774 64.3518C90.3755 90.0091 60.4472 126.477 42.7741 169.143C25.1011 211.81 20.477 258.759 29.4866 304.054C38.4963 349.348 60.735 390.954 93.3906 423.609L94.2833 422.717C61.8043 390.238 39.6858 348.857 30.7249 303.807C21.764 258.758 26.363 212.062 43.9405 169.627C61.5181 127.191 91.2845 90.9202 129.476 65.4016C167.667 39.883 212.568 26.2625 258.5 26.2625C304.432 26.2625 349.333 39.883 387.524 65.4016C425.716 90.9202 455.482 127.191 473.059 169.627C490.637 212.062 495.236 258.758 486.275 303.807C477.314 348.857 455.196 390.238 422.717 422.717L423.609 423.609Z" fill="white"/>
<path d="M423.609 423.609C456.265 390.954 478.504 349.348 487.513 304.054C496.523 258.759 491.899 211.81 474.226 169.143C456.553 126.477 426.625 90.0092 388.226 64.3519C349.827 38.6945 304.682 25 258.5 25C212.318 25 167.173 38.6945 128.774 64.3518C90.3755 90.0091 60.4472 126.477 42.7741 169.143C25.1011 211.81 20.477 258.759 29.4866 304.054C38.4963 349.348 60.735 390.954 93.3906 423.609L94.2833 422.717C61.8043 390.238 39.6858 348.857 30.7249 303.807C21.764 258.758 26.363 212.062 43.9405 169.627C61.5181 127.191 91.2845 90.9202 129.476 65.4016C167.667 39.883 212.568 26.2625 258.5 26.2625C304.432 26.2625 349.333 39.883 387.524 65.4016C425.716 90.9202 455.482 127.191 473.059 169.627C490.637 212.062 495.236 258.758 486.275 303.807C477.314 348.857 455.196 390.238 422.717 422.717L423.609 423.609Z" stroke="white" stroke-width="2" mask="url(#path-6-outside-3_4336_75273)"/>
<path d="M434.777 434.777C436.248 433.305 437.702 431.815 439.136 430.307L427.05 418.81C425.711 420.217 424.355 421.608 422.981 422.981L434.777 434.777Z" fill="white"/>
<path d="M77.027 430.478C78.4629 431.985 79.9176 433.474 81.3907 434.944L93.1749 423.137C91.8001 421.765 90.4425 420.376 89.1024 418.97L77.027 430.478Z" fill="white"/>
<path d="M8 258C8 260.081 8.02599 262.163 8.07797 264.243L24.754 263.827C24.7055 261.885 24.6812 259.942 24.6812 258H8Z" fill="white"/>
<path d="M258 8C255.919 8 253.837 8.02599 251.757 8.07797L252.173 24.754C254.115 24.7055 256.058 24.6812 258 24.6812V8Z" fill="white"/>
<path d="M508 258C508 255.919 507.974 253.837 507.922 251.757L491.246 252.173C491.295 254.115 491.319 256.058 491.319 258H508Z" fill="white"/>
<path d="M434.777 81.2233C433.305 79.7516 431.815 78.2983 430.307 76.8638L418.81 88.9501C420.217 90.2889 421.608 91.6452 422.981 93.0187L434.777 81.2233Z" fill="white"/>
<path d="M81.2233 81.2233C79.7516 82.695 78.2983 84.185 76.8638 85.693L88.9501 97.1902C90.2889 95.7828 91.6452 94.3922 93.0187 93.0187L81.2233 81.2233Z" fill="white"/>
<path d="M161.773 27.2612C159.852 28.0623 157.941 28.8874 156.041 29.7362L162.844 44.9671C164.618 44.1749 166.401 43.4049 168.194 42.6572L161.773 27.2612Z" fill="white"/>
<path d="M26.7078 352.889C27.4978 354.815 28.3118 356.73 29.1496 358.635L44.4196 351.921C43.6377 350.142 42.878 348.355 42.1408 346.558L26.7078 352.889Z" fill="white"/>
<path d="M27.886 160.289C27.0725 162.204 26.283 164.13 25.5176 166.066L41.03 172.2C41.7443 170.394 42.4811 168.596 43.2403 166.808L27.886 160.289Z" fill="white"/>
<path d="M359.088 29.3492C357.185 28.5077 355.271 27.6899 353.347 26.8961L346.985 42.3165C348.78 43.0573 350.567 43.8205 352.343 44.6059L359.088 29.3492Z" fill="white"/>
<path d="M487.812 159.579C486.992 157.666 486.149 155.763 485.282 153.871L470.117 160.819C470.926 162.585 471.713 164.361 472.477 166.147L487.812 159.579Z" fill="white"/>
<path d="M489.2 353.115C489.991 351.19 490.759 349.255 491.503 347.311L475.922 341.352C475.228 343.166 474.512 344.972 473.773 346.768L489.2 353.115Z" fill="white"/>
<path d="M102.015 412.025H104.5C106.18 412.025 107.02 411.162 107.02 409.435V398.06C107.02 396.333 106.18 395.47 104.5 395.47H102.015C100.335 395.47 99.495 396.333 99.495 398.06V409.435C99.495 411.162 100.335 412.025 102.015 412.025ZM104.99 415H101.49C99.7633 415 98.4217 414.522 97.465 413.565C96.5083 412.608 96.03 411.278 96.03 409.575V397.92C96.03 396.193 96.5083 394.863 97.465 393.93C98.4217 392.973 99.7633 392.495 101.49 392.495H104.99C106.693 392.495 108.023 392.973 108.98 393.93C109.937 394.863 110.415 396.193 110.415 397.92V409.575C110.415 411.278 109.937 412.608 108.98 413.565C108.023 414.522 106.693 415 104.99 415Z" fill="white"/>
<path d="M34.82 271.405V268.185C34.82 266.738 35.4383 265.525 36.675 264.545L43.29 259.155C44.41 258.268 44.97 257.242 44.97 256.075V254.92C44.97 253.24 44.095 252.4 42.345 252.4H40.63C39.7433 252.4 39.1017 252.598 38.705 252.995C38.3083 253.392 38.11 254.033 38.11 254.92V256.215C38.11 256.635 37.9117 256.845 37.515 256.845H35.275C34.8783 256.845 34.68 256.635 34.68 256.215V254.85C34.68 253.147 35.1583 251.828 36.115 250.895C37.0717 249.962 38.4133 249.495 40.14 249.495H42.87C44.5733 249.495 45.9033 249.962 46.86 250.895C47.8167 251.828 48.295 253.147 48.295 254.85V256.285C48.295 258.105 47.5833 259.598 46.16 260.765L39.44 266.26C38.9033 266.703 38.635 267.228 38.635 267.835V268.955H47.735C48.155 268.955 48.365 269.153 48.365 269.55V271.405C48.365 271.802 48.155 272 47.735 272H35.45C35.03 272 34.82 271.802 34.82 271.405ZM58.0707 269.025H60.5557C62.2357 269.025 63.0757 268.162 63.0757 266.435V255.06C63.0757 253.333 62.2357 252.47 60.5557 252.47H58.0707C56.3907 252.47 55.5507 253.333 55.5507 255.06V266.435C55.5507 268.162 56.3907 269.025 58.0707 269.025ZM61.0457 272H57.5457C55.819 272 54.4773 271.522 53.5207 270.565C52.564 269.608 52.0857 268.278 52.0857 266.575V254.92C52.0857 253.193 52.564 251.863 53.5207 250.93C54.4773 249.973 55.819 249.495 57.5457 249.495H61.0457C62.749 249.495 64.079 249.973 65.0357 250.93C65.9923 251.863 66.4707 253.193 66.4707 254.92V266.575C66.4707 268.278 65.9923 269.608 65.0357 270.565C64.079 271.522 62.749 272 61.0457 272Z" fill="white"/>
<path d="M102.585 114.72V102.33L95.69 114.72H102.585ZM105.245 122H103.18C102.783 122 102.585 121.802 102.585 121.405V117.73H93.345C92.6683 117.73 92.33 117.392 92.33 116.715V115.63C92.33 115.117 92.435 114.662 92.645 114.265L100.45 100.37C100.637 100.02 100.812 99.7867 100.975 99.67C101.138 99.5533 101.383 99.495 101.71 99.495H104.79C105.467 99.495 105.805 99.8333 105.805 100.51V114.72H108.36C108.757 114.72 108.955 114.918 108.955 115.315V117.065C108.955 117.508 108.757 117.73 108.36 117.73H105.805V121.405C105.805 121.802 105.618 122 105.245 122ZM117.677 119.025H120.162C121.842 119.025 122.682 118.162 122.682 116.435V105.06C122.682 103.333 121.842 102.47 120.162 102.47H117.677C115.997 102.47 115.157 103.333 115.157 105.06V116.435C115.157 118.162 115.997 119.025 117.677 119.025ZM120.652 122H117.152C115.425 122 114.084 121.522 113.127 120.565C112.17 119.608 111.692 118.278 111.692 116.575V104.92C111.692 103.193 112.17 101.863 113.127 100.93C114.084 99.9733 115.425 99.495 117.152 99.495H120.652C122.355 99.495 123.685 99.9733 124.642 100.93C125.599 101.863 126.077 103.193 126.077 104.92V116.575C126.077 118.278 125.599 119.608 124.642 120.565C123.685 121.522 122.355 122 120.652 122Z" fill="white"/>
<path d="M244.84 55.025H247.22C248.9 55.025 249.74 54.1617 249.74 52.435V49.635C249.74 47.9083 248.9 47.045 247.22 47.045H242.32V52.435C242.32 54.1617 243.16 55.025 244.84 55.025ZM247.71 58H244.35C242.623 58 241.282 57.5217 240.325 56.565C239.368 55.6083 238.89 54.2783 238.89 52.575V40.92C238.89 39.1933 239.368 37.8633 240.325 36.93C241.282 35.9733 242.623 35.495 244.35 35.495H251.315C251.712 35.495 251.91 35.6933 251.91 36.09V37.91C251.91 38.2833 251.712 38.47 251.315 38.47H244.84C243.16 38.47 242.32 39.3333 242.32 41.06V44.07H247.71C249.437 44.07 250.778 44.5483 251.735 45.505C252.692 46.4383 253.17 47.7683 253.17 49.495V52.575C253.17 54.2783 252.692 55.6083 251.735 56.565C250.778 57.5217 249.437 58 247.71 58ZM263.028 55.025H265.513C267.193 55.025 268.033 54.1617 268.033 52.435V41.06C268.033 39.3333 267.193 38.47 265.513 38.47H263.028C261.348 38.47 260.508 39.3333 260.508 41.06V52.435C260.508 54.1617 261.348 55.025 263.028 55.025ZM266.003 58H262.503C260.776 58 259.434 57.5217 258.478 56.565C257.521 55.6083 257.043 54.2783 257.043 52.575V40.92C257.043 39.1933 257.521 37.8633 258.478 36.93C259.434 35.9733 260.776 35.495 262.503 35.495H266.003C267.706 35.495 269.036 35.9733 269.993 36.93C270.949 37.8633 271.428 39.1933 271.428 40.92V52.575C271.428 54.2783 270.949 55.6083 269.993 56.565C269.036 57.5217 267.706 58 266.003 58Z" fill="white"/>
<path d="M387.945 114.025H390.71C391.573 114.025 392.203 113.827 392.6 113.43C393.02 113.033 393.23 112.403 393.23 111.54V109.65C393.23 107.9 392.39 107.025 390.71 107.025H387.945C386.265 107.025 385.425 107.9 385.425 109.65V111.54C385.425 112.403 385.623 113.033 386.02 113.43C386.44 113.827 387.082 114.025 387.945 114.025ZM387.945 104.295H390.71C392.39 104.295 393.23 103.42 393.23 101.67V99.955C393.23 99.0917 393.02 98.4617 392.6 98.065C392.203 97.6683 391.573 97.47 390.71 97.47H387.945C387.082 97.47 386.44 97.6683 386.02 98.065C385.623 98.4617 385.425 99.0917 385.425 99.955V101.67C385.425 103.42 386.265 104.295 387.945 104.295ZM391.2 117H387.49C385.763 117 384.422 116.557 383.465 115.67C382.508 114.783 382.03 113.488 382.03 111.785V109.895C382.03 107.748 382.835 106.348 384.445 105.695C382.835 105.042 382.03 103.63 382.03 101.46V99.675C382.03 97.995 382.508 96.7117 383.465 95.825C384.422 94.9383 385.763 94.495 387.49 94.495H391.2C392.927 94.495 394.257 94.9383 395.19 95.825C396.147 96.7117 396.625 97.995 396.625 99.675V101.46C396.625 102.533 396.403 103.443 395.96 104.19C395.54 104.937 394.968 105.438 394.245 105.695C395.832 106.325 396.625 107.737 396.625 109.93V111.785C396.625 113.488 396.147 114.783 395.19 115.67C394.257 116.557 392.927 117 391.2 117ZM406.677 114.025H409.162C410.842 114.025 411.682 113.162 411.682 111.435V100.06C411.682 98.3333 410.842 97.47 409.162 97.47H406.677C404.997 97.47 404.157 98.3333 404.157 100.06V111.435C404.157 113.162 404.997 114.025 406.677 114.025ZM409.652 117H406.152C404.425 117 403.084 116.522 402.127 115.565C401.17 114.608 400.692 113.278 400.692 111.575V99.92C400.692 98.1933 401.17 96.8633 402.127 95.93C403.084 94.9733 404.425 94.495 406.152 94.495H409.652C411.355 94.495 412.685 94.9733 413.642 95.93C414.599 96.8633 415.077 98.1933 415.077 99.92V111.575C415.077 113.278 414.599 114.608 413.642 115.565C412.685 116.522 411.355 117 409.652 117Z" fill="white"/>
<path d="M436.98 251.99V249.925C436.98 249.552 437.143 249.272 437.47 249.085L441.11 246.88C441.553 246.623 441.927 246.495 442.23 246.495H444.33C444.727 246.495 444.925 246.693 444.925 247.09V268.405C444.925 268.802 444.738 269 444.365 269H442.09C441.693 269 441.495 268.802 441.495 268.405V250.135L437.68 252.34C437.213 252.55 436.98 252.433 436.98 251.99ZM455.465 266.025H457.95C459.63 266.025 460.47 265.162 460.47 263.435V252.06C460.47 250.333 459.63 249.47 457.95 249.47H455.465C453.785 249.47 452.945 250.333 452.945 252.06V263.435C452.945 265.162 453.785 266.025 455.465 266.025ZM458.44 269H454.94C453.214 269 451.872 268.522 450.915 267.565C449.959 266.608 449.48 265.278 449.48 263.575V251.92C449.48 250.193 449.959 248.863 450.915 247.93C451.872 246.973 453.214 246.495 454.94 246.495H458.44C460.144 246.495 461.474 246.973 462.43 247.93C463.387 248.863 463.865 250.193 463.865 251.92V263.575C463.865 265.278 463.387 266.608 462.43 267.565C461.474 268.522 460.144 269 458.44 269ZM473.956 266.025H476.441C478.121 266.025 478.961 265.162 478.961 263.435V252.06C478.961 250.333 478.121 249.47 476.441 249.47H473.956C472.276 249.47 471.436 250.333 471.436 252.06V263.435C471.436 265.162 472.276 266.025 473.956 266.025ZM476.931 269H473.431C471.705 269 470.363 268.522 469.406 267.565C468.45 266.608 467.971 265.278 467.971 263.575V251.92C467.971 250.193 468.45 248.863 469.406 247.93C470.363 246.973 471.705 246.495 473.431 246.495H476.931C478.635 246.495 479.965 246.973 480.921 247.93C481.878 248.863 482.356 250.193 482.356 251.92V263.575C482.356 265.278 481.878 266.608 480.921 267.565C479.965 268.522 478.635 269 476.931 269Z" fill="white"/>
<path d="M376.98 397.99V395.925C376.98 395.552 377.143 395.272 377.47 395.085L381.11 392.88C381.553 392.623 381.927 392.495 382.23 392.495H384.33C384.727 392.495 384.925 392.693 384.925 393.09V414.405C384.925 414.802 384.738 415 384.365 415H382.09C381.693 415 381.495 414.802 381.495 414.405V396.135L377.68 398.34C377.213 398.55 376.98 398.433 376.98 397.99ZM389.27 414.405V411.185C389.27 409.738 389.889 408.525 391.125 407.545L397.74 402.155C398.86 401.268 399.42 400.242 399.42 399.075V397.92C399.42 396.24 398.545 395.4 396.795 395.4H395.08C394.194 395.4 393.552 395.598 393.155 395.995C392.759 396.392 392.56 397.033 392.56 397.92V399.215C392.56 399.635 392.362 399.845 391.965 399.845H389.725C389.329 399.845 389.13 399.635 389.13 399.215V397.85C389.13 396.147 389.609 394.828 390.565 393.895C391.522 392.962 392.864 392.495 394.59 392.495H397.32C399.024 392.495 400.354 392.962 401.31 393.895C402.267 394.828 402.745 396.147 402.745 397.85V399.285C402.745 401.105 402.034 402.598 400.61 403.765L393.89 409.26C393.354 409.703 393.085 410.228 393.085 410.835V411.955H402.185C402.605 411.955 402.815 412.153 402.815 412.55V414.405C402.815 414.802 402.605 415 402.185 415H389.9C389.48 415 389.27 414.802 389.27 414.405ZM412.521 412.025H415.006C416.686 412.025 417.526 411.162 417.526 409.435V398.06C417.526 396.333 416.686 395.47 415.006 395.47H412.521C410.841 395.47 410.001 396.333 410.001 398.06V409.435C410.001 411.162 410.841 412.025 412.521 412.025ZM415.496 415H411.996C410.269 415 408.928 414.522 407.971 413.565C407.014 412.608 406.536 411.278 406.536 409.575V397.92C406.536 396.193 407.014 394.863 407.971 393.93C408.928 392.973 410.269 392.495 411.996 392.495H415.496C417.199 392.495 418.529 392.973 419.486 393.93C420.443 394.863 420.921 396.193 420.921 397.92V409.575C420.921 411.278 420.443 412.608 419.486 413.565C418.529 414.522 417.199 415 415.496 415Z" fill="white"/>
<defs>
<linearGradient id="paint0_linear_4336_75273" x1="169.443" y1="-0.980684" x2="569.203" y2="19.1113" gradientUnits="userSpaceOnUse">
<stop stop-color="#1C5FE2"/>
<stop offset="1" stop-color="#0FC2EB"/>
</linearGradient>
<linearGradient id="paint1_linear_4336_75273" x1="208.245" y1="113.455" x2="430.592" y2="124.63" gradientUnits="userSpaceOnUse">
<stop stop-color="#1C5FE2"/>
<stop offset="1" stop-color="#0FC2EB"/>
</linearGradient>
<linearGradient id="paint2_linear_4336_75273" x1="208.245" y1="113.455" x2="430.592" y2="124.63" gradientUnits="userSpaceOnUse">
<stop stop-color="#1C5FE2"/>
<stop offset="1" stop-color="#0FC2EB"/>
</linearGradient>
<linearGradient id="paint3_linear_4336_75273" x1="171.831" y1="5.04022" x2="563.069" y2="24.7039" gradientUnits="userSpaceOnUse">
<stop stop-color="#1C5FE2"/>
<stop offset="1" stop-color="#0FC2EB"/>
</linearGradient>
<linearGradient id="paint4_linear_4336_75273" x1="178.353" y1="24.1124" x2="540.151" y2="42.2964" gradientUnits="userSpaceOnUse">
<stop stop-color="#1C5FE2"/>
<stop offset="1" stop-color="#0FC2EB"/>
</linearGradient>
</defs>
</svg>
