<svg width="254" height="254" viewBox="0 0 254 254" fill="none" xmlns="http://www.w3.org/2000/svg">
<circle cx="213.502" cy="43.5" r="35.5" fill="#333333"/>
<circle cx="213.502" cy="43.5" r="32.5" fill="#333333"/>
<path d="M193.347 68.9957C199.439 73.8116 207.054 76.2869 214.813 75.9735C222.573 75.6602 229.963 72.5788 235.647 67.2873C241.331 61.9959 244.932 54.8442 245.799 47.1271C246.666 39.4099 244.74 31.6376 240.372 25.2172C236.003 18.7968 229.48 14.1529 221.984 12.1263C214.487 10.0996 206.513 10.8242 199.504 14.1689C192.496 17.5135 186.917 23.2571 183.777 30.3597C180.637 37.4623 180.144 45.4544 182.388 52.8889L191.913 50.0146C190.356 44.8561 190.698 39.3107 192.877 34.3825C195.055 29.4542 198.927 25.469 203.79 23.1483C208.652 20.8276 214.186 20.3248 219.387 21.731C224.589 23.1372 229.115 26.3595 232.146 30.8143C235.177 35.2691 236.513 40.6621 235.912 46.0167C235.31 51.3713 232.811 56.3336 228.868 60.0051C224.924 63.6766 219.796 65.8147 214.412 66.0321C209.028 66.2495 203.744 64.532 199.517 61.1905L193.347 68.9957Z" fill="black"/>
<path d="M245.974 4.51868L251.704 10.2494L217.505 48.9536L9.50195 249.5L5.99805 245.5L225.002 16.4531L245.974 4.51868Z" fill="#CE4727"/>
</svg>
