<svg width="55" height="55" viewBox="0 0 55 55" fill="none" xmlns="http://www.w3.org/2000/svg">
<path d="M46.0195 28.7842C48.082 28.7842 49.7148 30.417 49.7148 32.4795C49.7148 33.4678 49.3281 34.4131 48.6406 35.1006H52.8516V36.1748H1.07422V35.1006H9.23828C7.77734 33.6396 7.77734 31.3193 9.23828 29.8584C10.6992 28.3975 13.0195 28.3975 14.4805 29.8584C15.9414 31.3193 15.9414 33.6396 14.4805 35.1006H43.3984C41.9375 33.6396 41.9375 31.3193 43.3984 29.8584C44.0859 29.2139 45.0312 28.7842 46.0195 28.7842ZM2.14844 32.9521L1.07422 31.8779L4.29688 30.8037H0V28.6553H2.14844L1.07422 27.5811H0L1.07422 25.4326L6.48828 24.3584H1.07422L2.14844 23.2412H7.5625L15.125 20.0186L19.4219 18.9443H26.9844L32.3555 20.0186L38.8438 23.2412L36.6953 24.3154L31.2813 21.0928L26.9844 20.0186H20.4961L16.1992 22.167L14.0508 23.2412L17.2734 24.3154V22.167L18.3477 24.3154H24.793V21.0928H25.8672V24.3154L36.6523 25.4326L40.9492 23.2842L50.6602 25.4326L53.8828 27.5811H52.8516L51.7773 28.6553H55V30.8037L53.9258 31.8779H51.7773L53.9258 32.9521L52.8516 34.0693H50.5742C51.4336 31.5771 50.1016 28.8701 47.5664 28.0107C45.0312 27.1514 42.3672 28.4834 41.5078 31.0186C41.1641 32.0068 41.1641 33.0811 41.5078 34.0693H16.4141C17.2734 31.5771 15.9414 28.8701 13.4492 28.0107C10.957 27.1514 8.25 28.4834 7.39063 30.9756C7.04688 31.9639 7.04688 33.0381 7.39063 34.0264L2.14844 32.9521ZM46.0195 31.4912C45.4609 31.4912 45.0312 31.9209 45.0312 32.4795C45.0312 33.0381 45.4609 33.4678 46.0195 33.4678C46.5781 33.4678 47.0078 33.0381 47.0078 32.4795C47.0078 31.9639 46.5781 31.4912 46.0195 31.4912ZM11.8594 31.4912C11.3008 31.4912 10.8711 31.9639 10.8711 32.5225C10.8711 33.0811 11.3438 33.5107 11.9023 33.5107C12.4609 33.5107 12.8906 33.0381 12.8906 32.5225C12.8906 31.9639 12.4609 31.4912 11.8594 31.4912ZM46.0195 30.417C44.8594 30.417 43.957 31.3623 43.957 32.5225C43.957 33.6826 44.9023 34.585 46.0625 34.585C47.2227 34.585 48.125 33.6396 48.125 32.5225C48.125 31.3623 47.1797 30.417 46.0195 30.417ZM11.8594 30.417C10.6992 30.417 9.75391 31.3623 9.75391 32.4795C9.75391 33.6396 10.6992 34.542 11.8164 34.542C12.9336 34.542 13.9219 33.5967 13.9219 32.4795C13.9648 31.3623 13.0195 30.417 11.8594 30.417Z" fill="#565F64"/>
</svg>
