<svg width="55" height="55" viewBox="0 0 55 55" fill="none" xmlns="http://www.w3.org/2000/svg">
<path d="M45.1602 28.2734C47.5234 28.2734 49.457 30.25 49.4141 32.6133C49.4141 33.7305 48.9414 34.8047 48.168 35.6211H52.5078V36.8672H1.24609V35.6211H7.99219C6.31641 33.9453 6.27344 31.2383 7.94922 29.5625C9.625 27.8867 12.332 27.8437 14.0078 29.5195C15.6836 31.1953 15.7266 33.9023 14.0508 35.5781C14.0508 35.5781 14.0508 35.5781 14.0078 35.6211H42.1094C40.4336 33.9453 40.4336 31.2383 42.1094 29.5625C42.9258 28.7461 44 28.3164 45.1602 28.2734ZM1.24609 33.1289L0 30.6367V28.1445H2.49219L3.73828 25.6523L1.24609 26.8984V24.4062L3.73828 23.1602H1.24609L0 21.8711V20.625H3.73828L2.49219 21.8711H7.47656L11.2148 19.3789L17.4453 18.1328H29.9492L39.9609 23.1172H36.2227L29.9922 19.3789H18.7344L12.5039 21.8711V23.1172L23.7617 24.3633L22.5156 20.625H23.7617L26.2539 24.3633H41.25L42.4961 23.1172H47.4805L48.7266 24.3633H46.2344L52.4648 25.6094L53.7109 26.8555H51.2187L52.4648 28.1016H54.957V30.5937H52.4648L53.7109 31.8398H54.957V33.0859L53.7109 34.332H50.3594C51.3477 31.4531 49.8008 28.2734 46.8789 27.2852C43.957 26.2969 40.8633 27.9297 39.918 30.8086C39.5313 31.9687 39.5313 33.2148 39.918 34.375H16.2852C17.2734 31.4961 15.7266 28.3164 12.8047 27.3281C9.88281 26.3398 6.74609 27.9297 5.80078 30.8086C5.41406 31.9687 5.41406 33.2148 5.80078 34.375H3.73828L1.24609 33.1289ZM45.1602 31.4102C44.5156 31.4102 44 31.9258 44 32.5703C44 33.2148 44.5156 33.7305 45.1602 33.7305C45.8047 33.7305 46.3203 33.2148 46.3203 32.5703C46.3203 31.9258 45.8047 31.4102 45.1602 31.4102ZM11.043 31.4102C10.3984 31.4102 9.88281 31.9258 9.88281 32.5703C9.88281 33.2148 10.3984 33.7305 11.043 33.7305C11.6875 33.7305 12.2031 33.2148 12.2031 32.5703C12.2031 31.9258 11.6875 31.4102 11.043 31.4102ZM45.1602 30.1641C43.8281 30.1641 42.7539 31.2383 42.7539 32.5703C42.7539 33.9023 43.8281 34.9766 45.1602 34.9766C46.4922 34.9766 47.5664 33.9023 47.5664 32.5703C47.5664 31.2383 46.4922 30.1641 45.1602 30.1641ZM11.043 30.1641C9.71094 30.1641 8.63672 31.2383 8.63672 32.5703C8.63672 33.9023 9.71094 34.9766 11.043 34.9766C12.375 34.9766 13.4492 33.9023 13.4492 32.5703C13.4492 31.2383 12.375 30.1641 11.043 30.1641Z" fill="#565F64"/>
</svg>
