<svg width="36" height="35" viewBox="0 0 36 35" fill="none" xmlns="http://www.w3.org/2000/svg">
<g clip-path="url(#clip0_1416_18190)">
<path d="M26.9846 2.32935C26.933 2.27813 26.8632 2.24939 26.7905 2.24939C26.7178 2.24939 26.648 2.27813 26.5964 2.32935L24.652 4.27376C24.6008 4.32537 24.572 4.39514 24.572 4.46785C24.572 4.54056 24.6008 4.61033 24.652 4.66194L31.1986 11.2085C31.2504 11.2595 31.3201 11.2881 31.3928 11.2881C31.4655 11.2881 31.5353 11.2595 31.5871 11.2085L33.5312 9.26444C33.5824 9.21277 33.6111 9.14295 33.6111 9.07019C33.6111 8.99742 33.5824 8.92761 33.5312 8.87594L26.9846 2.32935Z" fill="black"/>
<path d="M34.8357 1.02517C34.2569 0.446454 33.4719 0.121338 32.6534 0.121338C31.835 0.121338 31.05 0.446454 30.4712 1.02517C30.1309 1.36775 29.8778 1.78697 29.733 2.24763L28.7062 3.27726L32.5839 7.15495L33.6148 6.12658C34.0754 5.98169 34.4946 5.72857 34.8373 5.3884C35.4145 4.80895 35.7384 4.02432 35.7381 3.20646C35.7378 2.38859 35.4133 1.6042 34.8357 1.02517ZM33.8732 4.42431C33.6322 4.66527 33.3252 4.82936 32.991 4.89584C32.6568 4.96232 32.3104 4.9282 31.9955 4.79779C31.6807 4.66739 31.4116 4.44655 31.2223 4.16321C31.033 3.87987 30.9319 3.54676 30.9319 3.20599C30.9319 2.86522 31.033 2.53211 31.2223 2.24877C31.4116 1.96543 31.6807 1.7446 31.9955 1.61419C32.3104 1.48378 32.6568 1.44966 32.991 1.51614C33.3252 1.58262 33.6322 1.74672 33.8732 1.98767C34.0339 2.14724 34.1615 2.33704 34.2486 2.54613C34.3357 2.75523 34.3805 2.97949 34.3805 3.20599C34.3805 3.43249 34.3357 3.65675 34.2486 3.86585C34.1615 4.07495 34.0339 4.26475 33.8732 4.42431Z" fill="black"/>
<path d="M14.4081 15.9504L20.7526 20.5637L21.5236 19.7924L15.1794 15.1794L14.4081 15.9504Z" fill="black"/>
<path d="M20.632 9.72654L26.9762 14.3399L27.745 13.5714L21.4004 8.95813L20.632 9.72654Z" fill="black"/>
<path d="M24.7888 5.57007L23.7442 6.61466L30.0884 11.2305L30.2688 11.0501L24.7888 5.57007Z" fill="black"/>
<path d="M17.5231 12.8386L23.8644 17.4519L24.6328 16.6835L18.2915 12.0702L17.5231 12.8386Z" fill="black"/>
<path d="M11.8868 18.4745L17.3643 23.9517L18.4118 22.9046L12.0701 18.2913L11.8868 18.4745Z" fill="black"/>
<path d="M10.979 18.3378C10.9274 18.2866 10.8577 18.2578 10.7849 18.2578C10.7122 18.2578 10.6425 18.2866 10.5908 18.3378L8.01739 20.9084C7.74107 21.1845 7.559 21.5408 7.49717 21.9265C7.46255 22.1224 7.46158 22.3228 7.4943 22.519C7.55322 22.9116 7.73657 23.275 8.01739 23.5556L11.917 27.4521L12.2836 27.8186C12.635 28.1689 13.1109 28.3656 13.6071 28.3656C14.1032 28.3656 14.5791 28.1689 14.9305 27.8186L17.5011 25.248C17.5523 25.1964 17.5811 25.1267 17.5811 25.054C17.5811 24.9812 17.5523 24.9115 17.5011 24.8599L10.979 18.3378Z" fill="black"/>
<path d="M7.80711 24.116L7.50898 24.4141C6.3882 24.0989 5.19509 24.159 4.11166 24.5853C3.02824 25.0115 2.11398 25.7804 1.50837 26.7748C0.902764 27.7691 0.639054 28.9343 0.757471 30.0925C0.875889 31.2507 1.36993 32.3384 2.16423 33.1896C2.95854 34.0408 4.00948 34.6088 5.15675 34.807C6.30401 35.0051 7.4846 34.8225 8.51841 34.2871C9.55222 33.7516 10.3825 32.8927 10.8825 31.8413C11.3826 30.7899 11.525 29.6038 11.288 28.4639L11.723 28.0318L7.80711 24.116ZM8.31302 32.0161C7.78833 32.54 7.09822 32.8659 6.36025 32.9382C5.62228 33.0104 4.88208 32.8246 4.26572 32.4124C3.64937 32.0001 3.19498 31.387 2.97995 30.6773C2.76493 29.9677 2.80255 29.2055 3.08643 28.5205C3.37031 27.8354 3.88287 27.27 4.53683 26.9205C5.19079 26.571 5.94569 26.459 6.67296 26.6036C7.40022 26.7482 8.05488 27.1404 8.52542 27.7135C8.99596 28.2865 9.25329 29.005 9.25357 29.7465C9.25427 30.1682 9.17152 30.5858 9.0101 30.9753C8.84867 31.3648 8.61177 31.7186 8.31302 32.0161Z" fill="black"/>
<path d="M30.3754 12.1167L22.3932 6.31114C22.1718 6.14926 21.8975 6.07692 21.6251 6.10861C21.3527 6.1403 21.1023 6.27366 20.924 6.48203C20.7457 6.6904 20.6527 6.95841 20.6635 7.23243C20.6743 7.50646 20.7882 7.76629 20.9824 7.95996C21.0232 7.99975 21.067 8.03634 21.1135 8.06941L29.0931 13.8778C29.278 14.0126 29.5008 14.0854 29.7295 14.0856C29.7881 14.0851 29.8466 14.0805 29.9045 14.0719C30.0455 14.0499 30.1807 14.0002 30.3023 13.9255C30.4239 13.8508 30.5294 13.7528 30.6128 13.637C30.6973 13.5216 30.7583 13.3908 30.7921 13.2518C30.8259 13.1129 30.8319 12.9686 30.8098 12.8274C30.7877 12.6861 30.7379 12.5506 30.6632 12.4286C30.5885 12.3067 30.4905 12.2006 30.3748 12.1167H30.3754Z" fill="black"/>
<path d="M27.2636 15.2285L19.2814 9.42045C19.0587 9.25962 18.7835 9.18887 18.511 9.22237C18.2384 9.25586 17.9885 9.39114 17.8114 9.60108C17.6344 9.81102 17.5432 10.0801 17.5561 10.3545C17.5691 10.6288 17.6853 10.8881 17.8814 11.0804C17.919 11.1171 17.9593 11.1509 18.0019 11.1816L25.9839 16.991C26.2174 17.1599 26.5085 17.2292 26.7931 17.1838C27.0778 17.1384 27.3328 16.9819 27.5022 16.7488C27.6717 16.5156 27.7417 16.2247 27.697 15.9399C27.6522 15.6552 27.4964 15.3998 27.2636 15.2298V15.2285Z" fill="black"/>
<path d="M24.1543 18.3407L16.1721 12.5323C15.9384 12.3629 15.6471 12.2931 15.3621 12.3382C15.077 12.3833 14.8215 12.5396 14.6515 12.7728C14.4979 12.9817 14.4244 13.2389 14.4445 13.4974C14.4646 13.756 14.5769 13.9987 14.761 14.1814C14.8011 14.2212 14.8436 14.2586 14.8882 14.2934L22.8717 20.0989C22.9872 20.1832 23.1181 20.2438 23.257 20.2774C23.3959 20.3111 23.54 20.317 23.6812 20.2949C23.8224 20.2728 23.9578 20.2232 24.0798 20.1487C24.2018 20.0743 24.308 19.9766 24.3922 19.8611C24.4764 19.7457 24.537 19.6147 24.5707 19.4759C24.6043 19.337 24.6102 19.1928 24.5881 19.0516C24.5661 18.9104 24.5164 18.775 24.4419 18.653C24.3675 18.531 24.2698 18.4249 24.1543 18.3407Z" fill="black"/>
<path d="M21.0425 21.4499L13.0599 15.6444C12.8386 15.4825 12.5643 15.4102 12.2919 15.4419C12.0195 15.4735 11.7691 15.6069 11.5908 15.8153C11.4125 16.0237 11.3194 16.2917 11.3303 16.5657C11.3411 16.8397 11.455 17.0995 11.6491 17.2932C11.6896 17.3334 11.7334 17.3701 11.7802 17.4027L19.7599 23.2108C19.9447 23.3457 20.1675 23.4185 20.3963 23.4188C20.4548 23.4181 20.5133 23.4136 20.5713 23.4052C20.7839 23.3717 20.9819 23.2759 21.1401 23.1299C21.2984 22.9838 21.4097 22.7942 21.4601 22.5848C21.5105 22.3755 21.4976 22.156 21.4232 21.9539C21.3487 21.7519 21.216 21.5765 21.0418 21.4499H21.0425Z" fill="black"/>
</g>
<defs>
<clipPath id="clip0_1416_18190">
<rect width="35.3182" height="35" fill="white" transform="translate(0.419861)"/>
</clipPath>
</defs>
</svg>
