<svg width="55" height="55" viewBox="0 0 55 55" fill="none" xmlns="http://www.w3.org/2000/svg">
<path d="M1.11719 23.375L6.74609 22.2578L3.39453 21.1406L6.74609 17.7891H4.51172V16.6719H32.5703L33.6875 17.7891H32.5703L39.3164 22.3008H37.082L31.4102 17.7461H14.6094L12.332 22.2578L22.4297 23.375V18.8633H23.5469L24.6641 23.375H51.6055L53.8398 25.6094H51.6055L52.7227 27.8438H54.957V28.9609L52.7227 30.0781H54.957V33.4297L51.6055 35.6641H51.1758C52.3359 32.6133 50.832 29.1758 47.7812 28.0156C44.7305 26.8555 41.293 28.3594 40.1328 31.4102C39.6172 32.7852 39.6172 34.2891 40.1328 35.6641H17.7031C18.8633 32.6133 17.3594 29.1758 14.3086 28.0156C11.2578 26.8555 7.82031 28.3594 6.66016 31.4102C6.14453 32.7852 6.14453 34.2891 6.66016 35.6641H5.58594L0 32.3555V30.1211H4.46875L1.11719 29.0039V23.375ZM12.2031 28.7891C14.8672 28.7891 17.0156 30.9375 17.0156 33.5586C17.0156 34.9766 16.3711 36.3516 15.2969 37.2539H42.625C40.6055 35.5352 40.3477 32.5273 42.0234 30.5078C43.7422 28.4883 46.75 28.2305 48.7695 29.9063C50.7891 31.625 51.0469 34.6328 49.3711 36.6523C49.1992 36.8672 48.9844 37.082 48.7695 37.2539H52.7656V38.3711H1.11719V37.2539H9.10938C7.08984 35.5352 6.83203 32.5273 8.50781 30.5078C9.41016 29.4336 10.7852 28.7891 12.2031 28.7891ZM9.625 33.5586C9.625 34.9766 10.7852 36.0938 12.1602 36.0938C13.5352 36.0938 14.6953 34.9336 14.6953 33.5586C14.6953 32.1836 13.5352 31.0234 12.1602 31.0234C10.7852 31.0234 9.625 32.1836 9.625 33.5586ZM13.6211 33.5586C13.6211 34.332 12.9766 34.9766 12.2031 34.9766C11.4297 34.9766 10.7422 34.375 10.7422 33.5586C10.7422 32.7422 11.3867 32.1406 12.1602 32.1406C12.9766 32.1406 13.6211 32.7852 13.6211 33.5586ZM43.1406 33.5586C43.1406 34.9766 44.3008 36.0938 45.6758 36.0938C47.0508 36.0938 48.2109 34.9336 48.2109 33.5586C48.2109 32.1836 47.0508 31.0234 45.6758 31.0234C44.3008 31.0234 43.1406 32.1836 43.1406 33.5586ZM47.0938 33.5586C47.0938 34.332 46.4492 34.9766 45.6758 34.9766C44.9023 34.9766 44.2578 34.375 44.2578 33.5586C44.2578 32.7422 44.9023 32.1406 45.6758 32.1406C46.4492 32.1406 47.0938 32.7852 47.0938 33.5586Z" fill="#565F64"/>
</svg>
