<svg width="51" height="51" viewBox="0 0 51 51" fill="none" xmlns="http://www.w3.org/2000/svg">
<path d="M20.354 27.748C17.3976 27.748 15 30.1457 15 33.0953C15 36.0542 17.3976 38.4418 20.354 38.4418C23.3062 38.4418 25.6962 36.0542 25.6962 33.0953C25.6962 30.1457 23.3062 27.748 20.354 27.748ZM20.354 35.4116C19.0679 35.4116 18.0302 34.3697 18.0302 33.0953C18.0302 31.8202 19.0679 30.7782 20.354 30.7782C21.6308 30.7782 22.6661 31.8202 22.6661 33.0953C22.6661 34.3688 21.6308 35.4116 20.354 35.4116Z" fill="black"/>
<path d="M31.1038 28.3098C30.7363 25.7452 30.4586 24.22 29.1583 23.1026C28.0543 22.1571 26.4461 22.236 26.4461 22.236L16.0711 22.2494L11.3111 14.486C11.0879 14.1395 10.2767 13.2461 8.63661 13.2461H4.42188V15.3098H8.33292C8.33292 15.3098 8.87571 15.2813 9.30859 15.6924C9.54768 15.9063 9.71379 16.1152 10.1416 16.8207L13.4847 22.4449H4.4504V32.6319H13.3279C13.5544 28.9247 16.608 25.975 20.3798 25.975C24.1508 25.975 27.1977 28.9247 27.4167 32.6419H30.2304C30.9603 32.6419 31.6491 32.1847 31.5576 31.3131L31.1038 28.3098Z" fill="black"/>
<path d="M36.7583 27.2032C37.1719 26.7921 37.1794 26.1243 36.7734 25.7091C36.3615 25.2921 35.6912 25.2829 35.2793 25.6915C34.8606 26.1025 34.8548 26.772 35.2625 27.1873C35.6719 27.6034 36.3413 27.6109 36.7583 27.2032Z" fill="black"/>
<path d="M36.8398 28.7413C37.1854 29.2136 37.0823 29.8755 36.6125 30.2194C36.1385 30.5609 35.4799 30.4594 35.1343 29.9896C34.7886 29.5164 34.8918 28.857 35.3616 28.5106C35.8356 28.1683 36.4967 28.2715 36.8398 28.7413Z" fill="black"/>
<path d="M34.2469 27.4481C34.5917 27.9221 34.4893 28.584 34.0179 28.9263C33.5439 29.2677 32.887 29.1662 32.5397 28.6964C32.1957 28.2249 32.2972 27.5639 32.7687 27.2182C33.241 26.8751 33.9029 26.9783 34.2469 27.4481Z" fill="black"/>
<path d="M34.0516 24.5645C34.3972 25.0385 34.2932 25.7004 33.8242 26.0427C33.3494 26.3858 32.6917 26.2826 32.3452 25.8145C31.9996 25.3414 32.1028 24.6803 32.5726 24.3355C33.0474 23.9924 33.7085 24.0956 34.0516 24.5645Z" fill="black"/>
<path d="M44.4129 33.9685C44.7769 34.4685 45.48 34.5801 45.9825 34.2143C46.4825 33.8468 46.589 33.1455 46.2224 32.6438C45.8583 32.143 45.157 32.0381 44.6587 32.4014C44.1528 32.7646 44.0462 33.4685 44.4129 33.9685Z" fill="black"/>
<path d="M41.0385 32.5773C41.3858 33.0463 42.0469 33.1528 42.5175 32.8063C42.9882 32.459 43.0914 31.798 42.7474 31.3282C42.4034 30.8575 41.7382 30.7527 41.2709 31.0991C40.7994 31.4464 40.6946 32.1042 41.0385 32.5773Z" fill="black"/>
<path d="M37.8716 31.165C38.2138 31.6365 38.8749 31.7389 39.3455 31.3966C39.8195 31.051 39.9227 30.389 39.5771 29.9167C39.2314 29.4461 38.5737 29.3446 38.0989 29.6869C37.6241 30.0325 37.5226 30.6911 37.8716 31.165Z" fill="black"/>
<path d="M36.8348 24.2335C37.188 23.7688 37.0974 23.1052 36.6385 22.7495C36.1704 22.3938 35.5085 22.4827 35.1536 22.9449C34.8004 23.4105 34.8893 24.075 35.3533 24.4307C35.8155 24.7855 36.4783 24.6949 36.8348 24.2335Z" fill="black"/>
<path d="M44.6373 28.919C45.1045 28.5172 45.8084 28.5776 46.2035 29.0457C46.6037 29.5188 46.5467 30.221 46.0743 30.6187C45.6062 31.0171 44.9032 30.9559 44.5072 30.4886C44.1079 30.0163 44.1666 29.3175 44.6373 28.919Z" fill="black"/>
<path d="M44.616 25.7327C45.0531 25.304 45.757 25.3115 46.1857 25.7494C46.6143 26.1874 46.6085 26.8921 46.168 27.3224C45.731 27.7511 45.0271 27.7419 44.5984 27.3048C44.1697 26.8677 44.1756 26.1622 44.616 25.7327Z" fill="black"/>
<path d="M44.5843 22.3518C44.992 21.8904 45.6984 21.8459 46.1573 22.2536C46.6187 22.6622 46.6631 23.3652 46.2546 23.8258C45.8469 24.2872 45.143 24.3308 44.6816 23.9239C44.2236 23.5179 44.1732 22.8098 44.5843 22.3518Z" fill="black"/>
<path d="M44.5647 18.8669C44.9431 18.3753 45.6436 18.2788 46.1411 18.6572C46.6285 19.0339 46.7291 19.7394 46.3508 20.231C45.9749 20.7243 45.2686 20.8183 44.7778 20.4399C44.2837 20.0658 44.1914 19.3627 44.5647 18.8669Z" fill="black"/>
<path d="M41.2408 28.3733C41.6812 27.9975 42.3397 28.0503 42.7181 28.4958C43.0897 28.9362 43.0344 29.5973 42.5939 29.9731C42.1527 30.3464 41.4916 30.2894 41.1174 29.8515C40.7408 29.406 40.7953 28.7483 41.2408 28.3733Z" fill="black"/>
<path d="M41.2131 25.743C41.6242 25.3378 42.2861 25.3437 42.693 25.7598C43.0965 26.1717 43.0881 26.8336 42.6745 27.238C42.2651 27.6415 41.6032 27.639 41.1955 27.2229C40.7903 26.8101 40.8029 26.1482 41.2131 25.743Z" fill="black"/>
<path d="M41.1871 23.0695C41.5671 22.6324 42.2324 22.5921 42.6669 22.9763C43.1023 23.3597 43.1418 24.0242 42.7542 24.4562C42.3758 24.8933 41.7106 24.9319 41.2785 24.5493C40.8414 24.1643 40.8003 23.4982 41.1871 23.0695Z" fill="black"/>
<path d="M41.1523 20.2894C41.5088 19.8247 42.1741 19.7357 42.6338 20.0898C43.1002 20.4455 43.1883 21.1057 42.8351 21.5721C42.4786 22.036 41.8133 22.1233 41.3536 21.7701C40.8897 21.4152 40.8008 20.7542 41.1523 20.2894Z" fill="black"/>
<path d="M38.055 27.0343C38.4896 26.6525 39.1507 26.6903 39.5349 27.124C39.9174 27.5577 39.8805 28.2197 39.4476 28.6022C39.0114 28.9864 38.3478 28.9453 37.9678 28.515C37.5827 28.0821 37.623 27.4202 38.055 27.0343Z" fill="black"/>
<path d="M38.013 24.3834C38.4099 23.9606 39.0676 23.9354 39.4921 24.3255C39.9166 24.7223 39.9426 25.3826 39.5491 25.8071C39.1531 26.2299 38.4954 26.2584 38.0676 25.8633C37.6473 25.4715 37.6196 24.8079 38.013 24.3834Z" fill="black"/>
<path d="M37.9658 21.73C38.3207 21.2652 38.9851 21.1771 39.449 21.5328C39.9138 21.8885 40.0019 22.5504 39.6454 23.0118C39.2938 23.4791 38.6286 23.568 38.1672 23.2106C37.7033 22.8575 37.6118 22.1947 37.9658 21.73Z" fill="black"/>
</svg>
