<svg width="50" height="50" viewBox="0 0 50 50" fill="none" xmlns="http://www.w3.org/2000/svg">
<path d="M7.8125 43.7698C7.36979 43.7698 6.99879 43.62 6.69948 43.3203C6.39983 43.021 6.25 42.65 6.25 42.2073V26.2219L10.5047 14.0823C10.6599 13.6042 10.9444 13.2243 11.3583 12.9427C11.7722 12.6608 12.233 12.5198 12.7406 12.5198H18.6698L20.8333 12.5193H21.875C21.2687 13.5131 22.6325 10.8924 22.2974 12.0281C21.9623 13.1639 21.7948 14.3628 21.7948 15.625V15.6448H13.2693L10.0562 24.3786H24.9922C25.4623 24.9984 25.9818 25.5741 26.5505 26.1057C27.1193 26.637 27.7483 27.103 28.4375 27.5036H9.375V36.4781H38.5417V29.2302C39.0972 29.1396 39.6321 29.0101 40.1464 28.8417C40.6602 28.6736 41.167 28.4734 41.6667 28.2412V42.2073C41.6667 42.65 41.5168 43.021 41.2172 43.3203C40.9179 43.62 40.5469 43.7698 40.1042 43.7698H38.8224C38.3797 43.7698 38.0085 43.62 37.7089 43.3203C37.4095 43.021 37.2599 42.65 37.2599 42.2073V39.6031H10.6568V42.2073C10.6568 42.65 10.5071 43.021 10.2078 43.3203C9.90816 43.62 9.53698 43.7698 9.09427 43.7698H7.8125ZM34.2469 20.0719L41.1458 13.2047L39.399 11.4583L34.2469 16.5464L32.075 14.375L30.3286 16.1536L34.2469 20.0719ZM35.737 6.25C38.3387 6.25 40.5516 7.16198 42.3755 8.98594C44.1998 10.8102 45.112 13.0233 45.112 15.625C45.112 18.2264 44.1998 20.4392 42.3755 22.2635C40.5516 24.0875 38.3387 24.9995 35.737 24.9995C33.1356 24.9995 30.9227 24.0875 29.0984 22.2635C27.2741 20.4392 26.362 18.2264 26.362 15.625C26.362 13.0233 27.2741 10.8102 29.0984 8.98594C30.9227 7.16198 33.1356 6.25 35.737 6.25Z" fill="black"/>
</svg>
