<svg width="97" height="62" viewBox="0 0 97 62" fill="none" xmlns="http://www.w3.org/2000/svg">
<path d="M38.834 34.628C39.119 34.792 39.436 34.874 39.753 34.874C40.071 34.874 40.388 34.792 40.673 34.628L58.031 24.607C58.599 24.278 58.951 23.671 58.951 23.014C58.951 22.357 58.599 21.75 58.031 21.421L40.673 11.399C40.104 11.07 39.403 11.07 38.834 11.399C38.265 11.727 37.915 12.334 37.915 12.991V33.035C37.914 33.692 38.265 34.3 38.834 34.628ZM41.592 16.176L53.435 23.013L41.592 29.85V16.176Z" fill="white"/>
<path d="M95.025 12.488H88.218V8.563C88.218 7.547 87.395 6.724 86.379 6.724H78.375V1.838C78.375 0.822999 77.552 0 76.535 0H20.328C19.312 0 18.489 0.822999 18.489 1.838V6.724H10.486C9.47 6.724 8.647 7.547 8.647 8.563V12.488H1.839C0.823 12.488 0 13.311 0 14.326V46.894C0 47.91 0.823 48.732 1.839 48.732H8.647V52.658C8.647 53.674 9.47 54.498 10.486 54.498H18.489V59.385C18.489 60.401 19.312 61.223 20.328 61.223H76.536C77.553 61.223 78.376 60.401 78.376 59.385V54.498H86.38C87.396 54.498 88.219 53.674 88.219 52.658V48.732H95.026C96.042 48.732 96.865 47.91 96.865 46.894V14.327C96.864 13.311 96.04 12.488 95.025 12.488ZM74.698 3.677V42.219H22.167V3.677H74.698ZM3.678 45.055V16.165H8.647V45.055H3.678ZM12.325 50.821V10.402H18.49V50.821H12.325ZM22.167 57.546V45.897H74.698V57.545L22.167 57.546ZM84.54 50.821H78.375V10.402H84.54V50.821ZM93.186 45.055H88.218V16.165H93.186V45.055Z" fill="white"/>
</svg>
