<svg width="24" height="24" viewBox="0 0 24 24" fill="none" xmlns="http://www.w3.org/2000/svg">
<path d="M15.5408 16.8462C15.9046 16.8462 16.2131 16.7188 16.4663 16.464C16.7196 16.2093 16.8462 15.9001 16.8462 15.5363C16.8462 15.1724 16.7188 14.8638 16.464 14.6105C16.2093 14.3573 15.9001 14.2308 15.5363 14.2308C15.1724 14.2308 14.8638 14.3581 14.6105 14.6128C14.3573 14.8676 14.2307 15.1769 14.2307 15.5408C14.2307 15.9046 14.3581 16.2131 14.6128 16.4663C14.8676 16.7196 15.1769 16.8462 15.5408 16.8462ZM6.46375 16.8462C6.82758 16.8462 7.13617 16.7188 7.3895 16.464C7.64267 16.2093 7.76925 15.9001 7.76925 15.5363C7.76925 15.1724 7.64192 14.8638 7.38725 14.6105C7.13242 14.3573 6.82308 14.2308 6.45925 14.2308C6.09542 14.2308 5.78692 14.3581 5.53375 14.6128C5.28042 14.8676 5.15375 15.1769 5.15375 15.5408C5.15375 15.9046 5.28117 16.2131 5.536 16.4663C5.79067 16.7196 6.09992 16.8462 6.46375 16.8462ZM16.8038 11.5C15.5576 11.5 14.4967 11.0622 13.6212 10.1865C12.7456 9.31083 12.3078 8.2475 12.3078 6.9965C12.3078 5.76033 12.7431 4.70192 13.6137 3.82125C14.4846 2.94042 15.5505 2.5 16.8115 2.5C18.0577 2.5 19.1186 2.93783 19.9943 3.8135C20.8699 4.68917 21.3078 5.75133 21.3078 7C21.3078 8.24867 20.8686 9.31083 19.9902 10.1865C19.1119 11.0622 18.0498 11.5 16.8038 11.5ZM16.3652 7.80775H17.25V4.30775H16.3652V7.80775ZM16.8078 9.73075C16.9411 9.73075 17.0529 9.68392 17.1432 9.59025C17.2336 9.49675 17.282 9.3865 17.2885 9.2595C17.2885 9.12883 17.2417 9.01442 17.148 8.91625C17.0545 8.81825 16.9411 8.76925 16.8078 8.76925C16.6744 8.76925 16.5609 8.816 16.4673 8.9095C16.3738 9.00317 16.327 9.11667 16.327 9.25C16.327 9.38333 16.3738 9.49675 16.4673 9.59025C16.5609 9.68392 16.6744 9.73075 16.8078 9.73075ZM10.1905 8H5.86925L4.60775 11.577H12.179C12.52 11.9128 12.8895 12.2083 13.2875 12.4635C13.6857 12.7187 14.1207 12.9232 14.5925 13.077H4V18H18V13.6463C18.2538 13.6154 18.5089 13.5613 18.7652 13.4838C19.0217 13.4061 19.2667 13.3082 19.5 13.1902V20.75C19.5 20.9625 19.4281 21.1406 19.2843 21.2843C19.1406 21.4281 18.9625 21.5 18.75 21.5H18.1348C17.9223 21.5 17.7441 21.4281 17.6003 21.2843C17.4566 21.1406 17.3848 20.9625 17.3848 20.75V19.5H4.61525V20.75C4.61525 20.9625 4.54342 21.1406 4.39975 21.2843C4.25592 21.4281 4.07775 21.5 3.86525 21.5H3.25C3.0375 21.5 2.85942 21.4281 2.71575 21.2843C2.57192 21.1406 2.5 20.9625 2.5 20.75V13.077L4.54225 7.25C4.61675 7.0205 4.75333 6.83817 4.952 6.703C5.15067 6.56767 5.37183 6.5 5.6155 6.5H8.4615V4.73075H10.5692C10.4231 5.08842 10.3109 5.45558 10.2328 5.83225C10.1546 6.20892 10.1155 6.59817 10.1155 7C10.1155 7.18333 10.1197 7.35417 10.128 7.5125C10.1363 7.67083 10.1572 7.83333 10.1905 8Z" fill="white"/>
</svg>
