<svg width="27" height="35" viewBox="0 0 27 35" fill="none" xmlns="http://www.w3.org/2000/svg">
<g clip-path="url(#clip0_1416_18221)">
<path d="M0.869446 0V35H26.7028V0H0.869446ZM13.7861 3.33333C16.3174 3.33333 18.3694 5.38538 18.3694 7.91667C18.3694 10.448 16.3174 12.5 13.7861 12.5C11.2548 12.5 9.20278 10.448 9.20278 7.91667C9.20278 5.38538 11.2548 3.33333 13.7861 3.33333ZM10.8694 12.474C11.7134 13.0177 12.712 13.3333 13.7861 13.3333C14.8602 13.3333 15.8588 13.0177 16.7028 12.474V18.3333L13.7861 15.8333L10.8694 18.3333V12.474ZM5.45278 21.6667H22.1194C22.5797 21.6667 22.9528 22.0397 22.9528 22.5C22.9528 22.9602 22.5797 23.3333 22.1194 23.3333H5.45278C4.99257 23.3333 4.61945 22.9602 4.61945 22.5C4.61945 22.0397 4.99257 21.6667 5.45278 21.6667ZM5.45278 25.4167H22.1194C22.5797 25.4167 22.9528 25.7897 22.9528 26.25C22.9528 26.7102 22.5797 27.0833 22.1194 27.0833H5.45278C4.99257 27.0833 4.61945 26.7102 4.61945 26.25C4.61945 25.7897 4.99257 25.4167 5.45278 25.4167ZM5.45278 29.1667H22.1194C22.5797 29.1667 22.9528 29.5397 22.9528 30C22.9528 30.4602 22.5797 30.8333 22.1194 30.8333H5.45278C4.99257 30.8333 4.61945 30.4602 4.61945 30C4.61945 29.5397 4.99257 29.1667 5.45278 29.1667Z" fill="black"/>
</g>
<defs>
<clipPath id="clip0_1416_18221">
<rect width="25.8333" height="35" fill="white" transform="translate(0.869446)"/>
</clipPath>
</defs>
</svg>
