<svg width="36" height="35" viewBox="0 0 36 35" fill="none" xmlns="http://www.w3.org/2000/svg">
<g clip-path="url(#clip0_1416_18215)">
<path d="M7.83171 8.3125L12.5713 13.0521L14.0296 11.5937L9.29004 6.85417H11.5869V4.8125H6.81087C6.22754 4.8125 5.79004 5.28646 5.79004 5.83333V10.6094H7.83171V8.3125Z" fill="black"/>
<path d="M6.81087 30.1875H11.5869V28.1459H9.29004L14.0296 23.4063L12.5713 21.9479L7.83171 26.6875V24.3906H5.79004V29.1667C5.79004 29.75 6.22754 30.1875 6.81087 30.1875Z" fill="black"/>
<path d="M25.3682 28.1459V30.1875H30.1442C30.7276 30.1875 31.1651 29.7136 31.1651 29.1667V24.3906H29.1234V26.6875L24.3838 21.9479L22.9255 23.4063L27.6651 28.1459H25.3682Z" fill="black"/>
<path d="M24.3838 13.0521L29.1234 8.3125V10.6094H31.1651V5.83333C31.1651 5.25 30.6911 4.8125 30.1442 4.8125H25.3682V6.85417H27.6651L22.9255 11.5937L24.3838 13.0521Z" fill="black"/>
<path d="M34.7744 0.182312H2.18068C1.59735 0.182312 1.15985 0.65627 1.15985 1.20315V33.7969C1.15985 34.3802 1.63381 34.8177 2.18068 34.8177H34.7744C35.3578 34.8177 35.7953 34.3438 35.7953 33.7969V1.20315C35.7953 0.65627 35.3213 0.182312 34.7744 0.182312ZM33.7536 32.7761H3.20152V2.22398H33.7171V32.7761H33.7536Z" fill="black"/>
</g>
<defs>
<clipPath id="clip0_1416_18215">
<rect width="35" height="35" fill="white" transform="translate(0.977539)"/>
</clipPath>
</defs>
</svg>
