<svg width="35" height="35" viewBox="0 0 35 35" fill="none" xmlns="http://www.w3.org/2000/svg">
<g clip-path="url(#clip0_1416_18198)">
<path d="M32.5783 8.81027C29.4785 3.44127 23.698 0.105835 17.4918 0.105835C14.4549 0.105835 11.4512 0.913414 8.80553 2.44101C0.494321 7.23933 -2.36377 17.9038 2.43443 26.2144C5.5342 31.5827 11.3152 34.9182 17.5226 34.9182C17.5226 34.9182 17.5226 34.9182 17.5232 34.9182C20.5596 34.9182 23.5634 34.1112 26.2084 32.5836C30.2347 30.2594 33.1146 26.506 34.3172 22.0158C35.5204 17.5256 34.9031 12.836 32.5783 8.81027ZM30.6448 21.0325C29.7045 24.5419 27.4539 27.4744 24.307 29.2912C22.2394 30.4853 19.8923 31.1158 17.5192 31.1158C12.6701 31.1158 8.1522 28.5089 5.72946 24.3128C1.97918 17.8172 4.21218 9.48252 10.7058 5.73347C12.7734 4.53929 15.1211 3.9088 17.4943 3.9088C22.3451 3.9088 26.8631 6.51575 29.2858 10.7123C31.1027 13.8587 31.5853 17.5238 30.6448 21.0325Z" fill="black"/>
<path d="M17.4948 4.20538C15.173 4.20538 12.8767 4.82261 10.8538 5.99014C4.50086 9.65826 2.31723 17.8113 5.98535 24.1648C8.35553 28.2698 12.7745 30.8193 17.519 30.8193C19.8402 30.8193 22.1361 30.2026 24.1583 29.0351C27.237 27.2575 29.4387 24.3885 30.3585 20.9559C31.2777 17.5233 30.8061 13.9378 29.0291 10.8604C26.6589 6.75547 22.2394 4.20538 17.4948 4.20538ZM22.5685 5.55172C25.1326 6.64003 27.3298 8.53617 28.7609 11.0149C28.8007 11.0838 28.8309 11.1563 28.869 11.2258L27.3602 11.5923C26.1715 9.61307 24.4512 8.06373 22.3633 7.09307L22.5685 5.55172ZM16.7194 4.54065C16.9773 4.52493 17.2358 4.51461 17.4948 4.51461C18.6865 4.51461 19.8565 4.68187 20.9775 4.99479L20.774 6.49401C19.415 6.09047 18.0161 5.94187 16.6063 6.0524L16.7194 4.54065ZM11.0084 6.25835C12.2672 5.53182 13.6348 5.02561 15.0481 4.752L14.9285 6.30723C13.8184 6.5634 12.751 6.97837 11.7568 7.55212C10.7619 8.12661 9.8674 8.84233 9.09077 9.67521L7.69728 9.00775C8.61956 7.94179 9.72065 7.00194 11.0084 6.25835ZM6.68056 10.3511L8.03414 11.0036C7.2327 12.1718 6.66055 13.4595 6.33081 14.8402L4.93437 14.2706C5.29198 12.8832 5.88391 11.5598 6.68056 10.3511ZM6.25356 24.0103C4.78712 21.4698 4.29234 18.637 4.62883 15.9287L6.05314 16.5146C5.85198 18.808 6.33646 21.0737 7.45805 23.0916L6.38411 24.22C6.34186 24.1492 6.2947 24.0822 6.25356 24.0103ZM7.34556 25.603L8.38991 24.5109C9.25067 25.6356 10.2967 26.5779 11.5054 27.3159L10.5342 28.4647C9.32927 27.6978 8.2493 26.7343 7.34556 25.603ZM17.519 30.51C15.5862 30.51 13.7107 30.0715 12.011 29.2753L13.0148 28.0939C14.4524 28.7028 15.9708 29.0169 17.5021 29.0169C18.2371 29.0169 18.9747 28.9402 19.7073 28.7977L20.4477 30.1652C19.4887 30.3886 18.5065 30.51 17.519 30.51ZM24.0037 28.7669C23.381 29.1269 22.7286 29.4264 22.0607 29.6772L21.3448 28.3464C22.0026 28.1127 22.6466 27.824 23.2572 27.4719C23.8696 27.1179 24.4417 26.7012 24.9755 26.2452L25.7704 27.5274C25.2184 27.9811 24.635 28.4027 24.0037 28.7669ZM30.0596 20.8755C29.4985 22.9696 28.4487 24.8491 27.007 26.3883L26.186 25.0564C27.6967 23.3187 28.6353 21.1992 28.9167 18.9058L30.4467 18.6243C30.3808 19.3768 30.2594 20.1301 30.0596 20.8755ZM30.4823 18.178L28.9602 18.4582C28.9826 18.1889 28.9964 17.9189 28.9994 17.6488L30.4962 17.377C30.4986 17.644 30.4968 17.911 30.4823 18.178ZM30.4901 16.9379L28.9958 17.2098C28.9596 15.7927 28.6649 14.4174 28.12 13.1098L29.5841 12.7497C30.1182 14.096 30.428 15.5058 30.4901 16.9379ZM29.4229 12.3432L22.2122 14.1171C22.1313 14.1287 21.4131 14.244 21.1279 14.5605L20.0105 15.8023C19.5214 16.3447 19.633 16.7452 19.6475 16.7911C19.6959 16.9354 19.7326 17.119 19.7514 17.3136C19.7569 17.3589 19.8215 17.7665 20.4871 18.0643C21.0012 18.2909 21.7635 18.6291 22.0129 18.7408C22.1342 18.7946 22.2859 18.8133 22.4381 18.8133C22.777 18.8133 23.1231 18.7203 23.1635 18.7083L28.6877 17.7057C28.6829 17.9756 28.672 18.2468 28.6479 18.5157L23.3182 19.4972C23.2849 19.502 22.9908 19.5515 22.841 19.8867C22.6905 20.2225 22.8524 20.4745 22.8657 20.4932L26.6885 26.697C26.4988 26.8854 26.3127 27.077 26.1111 27.2544L22.1917 20.9353C22.1554 20.8622 21.8244 20.2141 21.4361 20.0426L19.908 19.3643C19.2436 19.0677 18.8957 19.2949 18.8552 19.3244C18.7858 19.3763 18.7139 19.4181 18.6341 19.464C18.5706 19.5009 18.4565 19.5564 18.3918 19.5854C18.3502 19.6046 17.9818 19.7913 17.905 20.5161L17.7317 22.176C17.6858 22.6019 18.0832 23.2101 18.1177 23.2602L21.65 29.8294C21.3975 29.9145 21.1413 29.9925 20.8842 30.062L17.414 23.651C17.3997 23.6214 17.2612 23.3574 16.8964 23.3188C16.5255 23.2803 16.3413 23.5121 16.3274 23.5303L11.6088 29.0806C11.3708 28.9591 11.1365 28.8311 10.9064 28.6957L15.6985 23.0258C15.7572 22.9685 16.2704 22.4533 16.3147 22.0298L16.4887 20.3689C16.5653 19.6436 16.2416 19.3843 16.2004 19.3541C16.0954 19.2804 15.9492 19.1465 15.8103 18.9953C15.7795 18.9609 15.4877 18.665 14.7743 18.8202L13.1411 19.1693C12.7238 19.2581 12.2671 19.8228 12.2296 19.8711L7.07858 25.2554C6.92041 25.0422 6.7669 24.8241 6.62076 24.5999L11.64 19.3239C11.6642 19.3009 11.8737 19.0884 11.7971 18.7289C11.7209 18.3683 11.4413 18.2603 11.4202 18.2536L4.68188 15.4836C4.72351 15.2202 4.7827 14.9605 4.84067 14.7001L11.7071 17.4991C11.771 17.5324 12.2833 17.7928 12.6899 17.7928C12.7437 17.7928 12.7955 17.788 12.8445 17.7776L14.4777 17.4285C15.1911 17.277 15.3378 16.889 15.3536 16.8421C15.4013 16.6898 15.4781 16.5195 15.5711 16.3601C15.5941 16.3202 15.7836 15.9518 15.4195 15.3211L14.5848 13.8752C14.3716 13.5054 13.6932 13.2446 13.6354 13.224L6.92716 9.98947C7.08116 9.77149 7.24302 9.5594 7.4109 9.35112L13.9753 12.4955C13.9929 12.5052 14.0966 12.5565 14.2458 12.5565C14.3443 12.5565 14.4633 12.5342 14.5902 12.4605C14.9091 12.2769 14.9259 11.9785 14.9259 11.9562L15.4877 4.67905C15.7511 4.63742 16.0168 4.60426 16.2826 4.57884L15.7318 11.9949C15.7179 12.0758 15.6043 12.7934 15.8181 13.1632L16.653 14.6091C17.0165 15.2397 17.4308 15.2596 17.478 15.2596C17.6465 15.2355 17.8429 15.2821 18.0121 15.3188C18.0223 15.3213 18.0519 15.326 18.0966 15.326C18.2481 15.326 18.5768 15.2687 18.953 14.8514L20.07 13.6102C20.355 13.2925 20.3931 12.5671 20.3949 12.5054L21.397 5.12386C21.6525 5.20417 21.9049 5.29296 22.1538 5.389L21.1934 12.6021C21.188 12.6347 21.1433 12.9295 21.4152 13.1772C21.5801 13.3252 21.7503 13.3559 21.8652 13.3559C21.9406 13.3559 21.992 13.3427 22.001 13.3395L29.0734 11.6224C29.1951 11.8606 29.3166 12.0992 29.4229 12.3432Z" fill="black"/>
<path d="M17.507 15.6133C17.1755 15.6133 16.8474 15.7016 16.5581 15.8682C16.1183 16.1218 15.8042 16.532 15.6726 17.0219C15.5416 17.5124 15.6086 18.024 15.8623 18.463C16.2011 19.0489 16.8317 19.4132 17.5094 19.4132C17.841 19.4132 18.1684 19.3249 18.4571 19.1588C19.365 18.6346 19.6773 17.47 19.1535 16.5628C18.8153 15.9769 18.1847 15.6133 17.507 15.6133Z" fill="black"/>
</g>
<defs>
<clipPath id="clip0_1416_18198">
<rect width="35" height="35" fill="white"/>
</clipPath>
</defs>
</svg>
