<svg width="40" height="40" viewBox="0 0 40 40" fill="none" xmlns="http://www.w3.org/2000/svg">
<circle cx="20" cy="20" r="20" fill="#D9D9D9"/>
<g clip-path="url(#clip0_889_4445)">
<path d="M17.5026 23.9561L23.1251 20.7686L17.5026 17.5811V23.9561ZM30.0259 15.6367C30.1668 16.1361 30.2643 16.8054 30.3293 17.6554C30.4051 18.5054 30.4376 19.2386 30.4376 19.8761L30.5026 20.7686C30.5026 23.0954 30.3293 24.8061 30.0259 25.9004C29.7551 26.8567 29.1268 27.4729 28.1518 27.7386C27.6426 27.8767 26.7109 27.9723 25.2809 28.0361C23.8726 28.1104 22.5834 28.1423 21.3918 28.1423L19.6693 28.2061C15.1301 28.2061 12.3026 28.0361 11.1868 27.7386C10.2118 27.4729 9.58344 26.8567 9.3126 25.9004C9.17177 25.4011 9.07427 24.7317 9.00927 23.8817C8.93344 23.0317 8.90094 22.2986 8.90094 21.6611L8.83594 20.7686C8.83594 18.4417 9.00927 16.7311 9.3126 15.6367C9.58344 14.6804 10.2118 14.0642 11.1868 13.7986C11.6959 13.6604 12.6276 13.5648 14.0576 13.5011C15.4659 13.4267 16.7551 13.3948 17.9468 13.3948L19.6693 13.3311C24.2084 13.3311 27.0359 13.5011 28.1518 13.7986C29.1268 14.0642 29.7551 14.6804 30.0259 15.6367Z" fill="#34373B"/>
</g>
<defs>
<clipPath id="clip0_889_4445">
<rect width="26" height="15" fill="white" transform="translate(7 13)"/>
</clipPath>
</defs>
</svg>
