<svg width="30" height="31" viewBox="0 0 30 31" fill="none" xmlns="http://www.w3.org/2000/svg">
<g clip-path="url(#clip0_3386_16592)">
<path d="M6.53263 4.00845C6.71472 4.00845 6.86646 4.06915 6.98786 4.19054C7.10926 4.31194 7.16995 4.46368 7.16995 4.64578C7.16995 4.79752 7.11684 4.93409 7.01062 5.05549C6.9044 5.17689 6.77542 5.24517 6.62367 5.26035L6.53263 5.28311H4.00607C3.83915 5.28311 3.6912 5.21861 3.56222 5.08963C3.43323 4.96065 3.36874 4.8127 3.36874 4.64578C3.36874 4.47886 3.42185 4.33849 3.52807 4.22469C3.63429 4.11088 3.76328 4.0388 3.91502 4.00845H4.00607H6.53263ZM3.16388 6.12529H26.7906C27.6707 6.12529 28.4219 6.43258 29.044 7.04714C29.6662 7.66171 29.9772 8.40906 29.9772 9.28918V23.6291C29.9772 24.5092 29.6662 25.2566 29.044 25.8711C28.4219 26.4857 27.6707 26.793 26.7906 26.793H3.16388C2.28376 26.793 1.53642 26.4857 0.921851 25.8711C0.307284 25.2566 0 24.5092 0 23.6291V9.28918C0 8.40906 0.307284 7.66171 0.921851 7.04714C1.53642 6.43258 2.28376 6.12529 3.16388 6.12529ZM26.7906 7.37719H3.16388C2.64795 7.37719 2.2041 7.56308 1.83232 7.93485C1.46055 8.30663 1.27466 8.75807 1.27466 9.28918V23.6291C1.27466 24.1602 1.46055 24.6116 1.83232 24.9834C2.2041 25.3552 2.64795 25.5411 3.16388 25.5411H26.7906C27.3217 25.5411 27.7731 25.3552 28.1449 24.9834C28.5167 24.6116 28.7026 24.1602 28.7026 23.6291V9.28918C28.7026 8.75807 28.5167 8.30663 28.1449 7.93485C27.7731 7.56308 27.3217 7.37719 26.7906 7.37719ZM22.7845 10.4728C22.7693 10.3059 22.7011 10.1731 22.5797 10.0745C22.4583 9.97582 22.3217 9.92651 22.17 9.92651C21.9879 9.92651 21.8361 9.9872 21.7147 10.1086C21.5933 10.23 21.5326 10.3742 21.5326 10.5411V12.4531H19.6206H19.5296C19.3778 12.4834 19.2489 12.5555 19.1426 12.6693C19.0364 12.7831 18.9833 12.9235 18.9833 13.0904C18.9833 13.2573 19.0478 13.4015 19.1768 13.5229C19.3058 13.6443 19.4537 13.705 19.6206 13.705H21.5326V15.6169V15.708C21.5478 15.8597 21.6161 15.9887 21.7375 16.0949C21.8589 16.2012 22.003 16.2543 22.17 16.2543C22.3369 16.2543 22.481 16.1898 22.6024 16.0608C22.7238 15.9318 22.7845 15.7839 22.7845 15.6169V13.705H24.6965H24.7876C24.9393 13.6898 25.0683 13.6215 25.1745 13.5001C25.2807 13.3787 25.3338 13.2421 25.3338 13.0904C25.3338 12.9083 25.2693 12.7566 25.1404 12.6352C25.0114 12.5138 24.8634 12.4531 24.6965 12.4531H22.7845V10.5411V10.4728ZM10.9712 13.0904C10.9712 12.9083 10.9105 12.7566 10.7891 12.6352C10.6677 12.5138 10.5159 12.4531 10.3338 12.4531H5.28073H5.18968C5.03794 12.4834 4.90895 12.5555 4.80273 12.6693C4.69651 12.7831 4.6434 12.9235 4.6434 13.0904C4.6434 13.2573 4.7041 13.4015 4.82549 13.5229C4.94689 13.6443 5.09863 13.705 5.28073 13.705H10.3338H10.4249C10.5766 13.6898 10.7056 13.6215 10.8118 13.5001C10.9181 13.3787 10.9712 13.2421 10.9712 13.0904ZM26.5857 4.64578C26.5857 4.46368 26.525 4.31194 26.4036 4.19054C26.2822 4.06915 26.1305 4.00845 25.9484 4.00845H23.4219H23.3308C23.1791 4.0388 23.0501 4.11088 22.9439 4.22469C22.8376 4.33849 22.7845 4.47886 22.7845 4.64578C22.7845 4.8127 22.849 4.96065 22.978 5.08963C23.107 5.21861 23.2549 5.28311 23.4219 5.28311H25.9484L26.0395 5.26035C26.1912 5.24517 26.3202 5.17689 26.4264 5.05549C26.5326 4.93409 26.5857 4.79752 26.5857 4.64578Z" fill="black"/>
</g>
<defs>
<clipPath id="clip0_3386_16592">
<rect width="30" height="30" fill="white" transform="matrix(1 0 0 -1 0 30.6624)"/>
</clipPath>
</defs>
</svg>
