<svg width="30" height="31" viewBox="0 0 30 31" fill="none" xmlns="http://www.w3.org/2000/svg">
<g clip-path="url(#clip0_3386_16607)">
<path d="M27.1582 7.54712H19.541V1.54126C19.541 1.30688 19.458 1.10181 19.292 0.926025C19.126 0.750244 18.916 0.662354 18.6621 0.662354C18.4277 0.662354 18.2227 0.750244 18.0469 0.926025C17.8711 1.10181 17.7832 1.30688 17.7832 1.54126V7.54712H10.2832V1.54126C10.2832 1.30688 10.1953 1.10181 10.0195 0.926025C9.84375 0.750244 9.63867 0.662354 9.4043 0.662354C9.15039 0.662354 8.93555 0.750244 8.75977 0.926025C8.58398 1.10181 8.49609 1.30688 8.49609 1.54126V7.54712H0.908203C0.654297 7.54712 0.439453 7.63013 0.263672 7.79614C0.0878906 7.96216 0 8.16235 0 8.39673C0 8.65063 0.0878906 8.8606 0.263672 9.02661C0.439453 9.19263 0.654297 9.27563 0.908203 9.27563H4.6582V14.5198C4.6582 15.6526 4.85352 16.7366 5.24414 17.7717C5.6543 18.7874 6.21582 19.7053 6.92871 20.5256C7.6416 21.3459 8.47656 22.0295 9.43359 22.5764C10.4102 23.1233 11.4648 23.4846 12.5977 23.6604L13.1543 23.7483V29.7834C13.1543 30.0178 13.2373 30.2229 13.4033 30.3987C13.5693 30.5745 13.7793 30.6624 14.0332 30.6624C14.2871 30.6624 14.4971 30.5745 14.6631 30.3987C14.8291 30.2229 14.9121 30.0178 14.9121 29.7834V23.7483L15.4688 23.6604C16.6016 23.4846 17.6562 23.1233 18.6328 22.5764C19.5898 22.0295 20.4248 21.3459 21.1377 20.5256C21.8506 19.7053 22.4121 18.7874 22.8223 17.7717C23.2129 16.7366 23.4082 15.6526 23.4082 14.5198V9.27563H27.1582C27.4121 9.27563 27.627 9.19263 27.8027 9.02661C27.9785 8.8606 28.0664 8.65063 28.0664 8.39673C28.0664 8.16235 27.9785 7.96216 27.8027 7.79614C27.627 7.63013 27.4121 7.54712 27.1582 7.54712ZM21.6504 14.5198C21.6504 15.5549 21.4453 16.5315 21.0352 17.4495C20.6445 18.3479 20.1025 19.1389 19.4092 19.8225C18.7158 20.5061 17.9102 21.0432 16.9922 21.4338C16.0742 21.844 15.0879 22.0491 14.0332 22.0491C12.9785 22.0491 11.9922 21.844 11.0742 21.4338C10.1562 21.0432 9.35059 20.5061 8.65723 19.8225C7.96387 19.1389 7.42188 18.3479 7.03125 17.4495C6.62109 16.5315 6.41602 15.5549 6.41602 14.5198V9.27563H21.6504V14.5198Z" fill="black"/>
</g>
<defs>
<clipPath id="clip0_3386_16607">
<rect width="30" height="30" fill="white" transform="matrix(1 0 0 -1 0 30.6624)"/>
</clipPath>
</defs>
</svg>
