<svg width="30" height="31" viewBox="0 0 30 31" fill="none" xmlns="http://www.w3.org/2000/svg">
<g clip-path="url(#clip0_3386_16602)">
<path d="M26.543 5.8186C26.543 4.8811 26.2207 4.09009 25.5762 3.44556C24.9316 2.80103 24.1406 2.47876 23.2031 2.47876C22.3047 2.47876 21.1572 2.47876 19.7607 2.47876C18.3643 2.47876 17.207 2.47876 16.2891 2.47876C16.2695 2.47876 16.2598 2.32739 16.2598 2.02466C16.2598 1.72192 16.2695 1.26782 16.2891 0.662354H12.9199V2.47876C10.9473 2.47876 9.37012 2.47876 8.18848 2.47876C7.00684 2.47876 6.2207 2.47876 5.83008 2.47876C4.79492 2.47876 3.95508 2.80103 3.31055 3.44556C2.66602 4.09009 2.34375 4.92993 2.34375 5.96509C2.34375 10.0081 2.34375 12.5862 2.34375 13.6995C2.34375 14.8127 2.34375 17.3909 2.34375 21.4338C2.34375 22.3909 2.66602 23.1917 3.31055 23.8362C3.95508 24.4807 4.75586 24.8127 5.71289 24.8323C6.12305 24.8323 6.68945 24.8323 7.41211 24.8323C8.13477 24.8323 8.88672 24.8323 9.66797 24.8323C10.4492 24.8323 11.2012 24.8323 11.9238 24.8323C12.6465 24.8323 13.2227 24.8323 13.6523 24.8323V26.2092H14.707V29.7249H5.625V30.6624H15.791V26.2092H16.875V24.8323C17.7148 24.8323 18.75 24.8323 19.9805 24.8323C21.2109 24.8323 22.2559 24.8323 23.1152 24.8323C24.1113 24.8127 24.9316 24.4807 25.5762 23.8362C26.2207 23.1917 26.543 22.3713 26.543 21.3752C26.543 20.3596 26.543 19.1682 26.543 17.801C26.543 16.4534 26.543 15.0569 26.543 13.6116C26.543 12.1663 26.543 10.76 26.543 9.39282C26.543 8.02563 26.543 6.83423 26.543 5.8186ZM25.5762 21.3752C25.5762 22.1174 25.3516 22.7131 24.9023 23.1624C24.4531 23.6116 23.8574 23.8362 23.1152 23.8362C22.666 23.8362 22.0508 23.8362 21.2695 23.8362C20.4883 23.8362 19.6729 23.8362 18.8232 23.8362C17.9736 23.8362 17.1582 23.8362 16.377 23.8362C15.5957 23.8362 14.9707 23.8362 14.502 23.8362C14.0332 23.8362 13.3984 23.8362 12.5977 23.8362C11.7969 23.8362 10.9668 23.8362 10.1074 23.8362C9.24805 23.8362 8.41797 23.8362 7.61719 23.8362C6.81641 23.8362 6.18164 23.8362 5.71289 23.8362C5.0293 23.8362 4.45801 23.6067 3.99902 23.1477C3.54004 22.6887 3.31055 22.1174 3.31055 21.4338C3.31055 17.1174 3.31055 14.4221 3.31055 13.3479C3.31055 12.2737 3.31055 9.81274 3.31055 5.96509C3.31055 5.20337 3.54004 4.59302 3.99902 4.13403C4.45801 3.67505 5.06836 3.44556 5.83008 3.44556C6.16211 3.44556 6.65039 3.44556 7.29492 3.44556C7.95898 3.44556 8.65234 3.44556 9.375 3.44556C10.0977 3.44556 10.7812 3.44556 11.4258 3.44556C12.0898 3.44556 12.5879 3.44556 12.9199 3.44556C13.5059 3.44556 14.2676 3.44556 15.2051 3.44556C16.123 3.44556 17.0752 3.44556 18.0615 3.44556C19.0479 3.44556 20 3.44556 20.918 3.44556C21.8359 3.44556 22.5977 3.44556 23.2031 3.44556C23.8672 3.44556 24.4287 3.67505 24.8877 4.13403C25.3467 4.59302 25.5762 5.15454 25.5762 5.8186C25.5762 6.79517 25.5762 7.95728 25.5762 9.30493C25.5762 10.6526 25.5762 12.0491 25.5762 13.4944C25.5762 14.9397 25.5762 16.3459 25.5762 17.7131C25.5762 19.0999 25.5762 20.3206 25.5762 21.3752ZM16.1133 5.67212L10.6055 14.842H14.3262C14.3066 14.9202 14.248 15.3108 14.1504 16.0139C14.0527 16.6975 13.9453 17.4446 13.8281 18.2551C13.7109 19.0657 13.6035 19.803 13.5059 20.467C13.4082 21.1311 13.3594 21.4631 13.3594 21.4631L18.8672 12.2346H15.1172C15.1758 11.9807 15.2539 11.4924 15.3516 10.7698C15.4688 10.0667 15.5811 9.33423 15.6885 8.57251C15.7959 7.81079 15.8887 7.13696 15.9668 6.55103C16.0645 5.96509 16.1133 5.67212 16.1133 5.67212ZM17.5195 12.9963L14.6484 17.801C14.7656 17.0979 14.8633 16.4631 14.9414 15.8967C15.0195 15.3303 15.0586 15.0081 15.0586 14.9299L15.1758 14.051H11.9531L14.8242 9.30493C14.7266 9.9104 14.6387 10.4768 14.5605 11.0042C14.4824 11.5315 14.4238 11.8928 14.3848 12.0881L14.209 12.9963H17.5195Z" fill="black"/>
</g>
<defs>
<clipPath id="clip0_3386_16602">
<rect width="30" height="30" fill="white" transform="matrix(1 0 0 -1 0 30.6624)"/>
</clipPath>
</defs>
</svg>
